<?xml version="1.0" encoding="UTF-8" standalone="no"?>
<!DOCTYPE svg PUBLIC "-//W3C//DTD SVG 1.1//EN"
 "http://www.w3.org/Graphics/SVG/1.1/DTD/svg11.dtd">
<!-- Generated by graphviz version 9.0.0 (20230911.1827)
 -->
<!-- Title: G Pages: 1 -->
<svg width="1698pt" height="137pt"
 viewBox="0.00 0.00 1697.91 137.40" xmlns="http://www.w3.org/2000/svg" xmlns:xlink="http://www.w3.org/1999/xlink">
<g id="graph0" class="graph" transform="scale(1 1) rotate(0) translate(4 133.4)">
<title>G</title>
<polygon fill="white" stroke="none" points="-4,4 -4,-133.4 1693.91,-133.4 1693.91,4 -4,4"/>
<!-- java.lang.classfile.TypeAnnotation.TypeParameterTarget -->
<g id="node1" class="node">
<title>java.lang.classfile.TypeAnnotation.TypeParameterTarget</title>
<g id="a_node1"><a xlink:href="../../../java/lang/classfile/TypeAnnotation.TypeParameterTarget.html" xlink:title="java.lang.classfile.TypeAnnotation.TypeParameterTarget">
<text text-anchor="middle" x="80.26" y="-18" font-family="DejaVuSans" font-size="12.00" fill="#e76f00">TypeParameterTarget</text>
</a>
</g>
</g>
<!-- java.lang.classfile.TypeAnnotation.TargetInfo -->
<g id="node2" class="node">
<title>java.lang.classfile.TypeAnnotation.TargetInfo</title>
<g id="a_node2"><a xlink:href="../../../java/lang/classfile/TypeAnnotation.TargetInfo.html" xlink:title="java.lang.classfile.TypeAnnotation.TargetInfo">
<text text-anchor="middle" x="916.26" y="-104.2" font-family="DejaVuSans" font-size="12.00" fill="#e76f00">TargetInfo</text>
</a>
</g>
</g>
<!-- java.lang.classfile.TypeAnnotation.TypeParameterTarget&#45;&gt;java.lang.classfile.TypeAnnotation.TargetInfo -->
<g id="edge1" class="edge">
<title>java.lang.classfile.TypeAnnotation.TypeParameterTarget&#45;&gt;java.lang.classfile.TypeAnnotation.TargetInfo</title>
<path fill="none" stroke="#999999" stroke-width="2" d="M160.34,-40.26C166.39,-41.34 172.41,-42.34 178.26,-43.2 430.41,-80.43 734.47,-98.13 858.94,-104.23"/>
<polygon fill="#999999" stroke="#999999" stroke-width="2" points="868.68,-104.7 858.48,-108.71 866.1,-105.08 858.67,-104.72 858.69,-104.22 858.72,-103.72 866.15,-104.08 858.91,-99.72 868.68,-104.7"/>
</g>
<!-- java.lang.classfile.TypeAnnotation.SupertypeTarget -->
<g id="node3" class="node">
<title>java.lang.classfile.TypeAnnotation.SupertypeTarget</title>
<g id="a_node3"><a xlink:href="../../../java/lang/classfile/TypeAnnotation.SupertypeTarget.html" xlink:title="java.lang.classfile.TypeAnnotation.SupertypeTarget">
<text text-anchor="middle" x="261.26" y="-18" font-family="DejaVuSans" font-size="12.00" fill="#e76f00">SupertypeTarget</text>
</a>
</g>
</g>
<!-- java.lang.classfile.TypeAnnotation.SupertypeTarget&#45;&gt;java.lang.classfile.TypeAnnotation.TargetInfo -->
<g id="edge2" class="edge">
<title>java.lang.classfile.TypeAnnotation.SupertypeTarget&#45;&gt;java.lang.classfile.TypeAnnotation.TargetInfo</title>
<path fill="none" stroke="#999999" stroke-width="2" d="M326.2,-39.41C332.62,-40.8 339.05,-42.1 345.26,-43.2 531.7,-76.3 755.61,-95.28 858.91,-102.88"/>
<polygon fill="#999999" stroke="#999999" stroke-width="2" points="868.76,-103.6 858.46,-107.36 866.17,-103.91 858.75,-103.37 858.79,-102.87 858.82,-102.38 866.24,-102.91 859.11,-98.39 868.76,-103.6"/>
</g>
<!-- java.lang.classfile.TypeAnnotation.TypeParameterBoundTarget -->
<g id="node4" class="node">
<title>java.lang.classfile.TypeAnnotation.TypeParameterBoundTarget</title>
<g id="a_node4"><a xlink:href="../../../java/lang/classfile/TypeAnnotation.TypeParameterBoundTarget.html" xlink:title="java.lang.classfile.TypeAnnotation.TypeParameterBoundTarget">
<text text-anchor="middle" x="462.26" y="-18" font-family="DejaVuSans" font-size="12.00" fill="#e76f00">TypeParameterBoundTarget</text>
</a>
</g>
</g>
<!-- java.lang.classfile.TypeAnnotation.TypeParameterBoundTarget&#45;&gt;java.lang.classfile.TypeAnnotation.TargetInfo -->
<g id="edge3" class="edge">
<title>java.lang.classfile.TypeAnnotation.TypeParameterBoundTarget&#45;&gt;java.lang.classfile.TypeAnnotation.TargetInfo</title>
<path fill="none" stroke="#999999" stroke-width="2" d="M561.61,-41.03C652.71,-57.92 784.44,-82.35 859.05,-96.19"/>
<polygon fill="#999999" stroke="#999999" stroke-width="2" points="868.57,-97.95 857.92,-100.56 865.96,-97.98 858.64,-96.62 858.74,-96.13 858.83,-95.64 866.14,-97 859.56,-91.71 868.57,-97.95"/>
</g>
<!-- java.lang.classfile.TypeAnnotation.EmptyTarget -->
<g id="node5" class="node">
<title>java.lang.classfile.TypeAnnotation.EmptyTarget</title>
<g id="a_node5"><a xlink:href="../../../java/lang/classfile/TypeAnnotation.EmptyTarget.html" xlink:title="java.lang.classfile.TypeAnnotation.EmptyTarget">
<text text-anchor="middle" x="651.26" y="-18" font-family="DejaVuSans" font-size="12.00" fill="#e76f00">EmptyTarget</text>
</a>
</g>
</g>
<!-- java.lang.classfile.TypeAnnotation.EmptyTarget&#45;&gt;java.lang.classfile.TypeAnnotation.TargetInfo -->
<g id="edge4" class="edge">
<title>java.lang.classfile.TypeAnnotation.EmptyTarget&#45;&gt;java.lang.classfile.TypeAnnotation.TargetInfo</title>
<path fill="none" stroke="#999999" stroke-width="2" d="M704.57,-39.54C749.38,-53.78 813.29,-74.08 859.14,-88.65"/>
<polygon fill="#999999" stroke="#999999" stroke-width="2" points="868.65,-91.67 857.76,-92.93 866.06,-91.37 858.97,-89.12 859.12,-88.65 859.28,-88.17 866.36,-90.42 860.49,-84.36 868.65,-91.67"/>
</g>
<!-- java.lang.classfile.TypeAnnotation.FormalParameterTarget -->
<g id="node6" class="node">
<title>java.lang.classfile.TypeAnnotation.FormalParameterTarget</title>
<g id="a_node6"><a xlink:href="../../../java/lang/classfile/TypeAnnotation.FormalParameterTarget.html" xlink:title="java.lang.classfile.TypeAnnotation.FormalParameterTarget">
<text text-anchor="middle" x="827.26" y="-18" font-family="DejaVuSans" font-size="12.00" fill="#e76f00">FormalParameterTarget</text>
</a>
</g>
</g>
<!-- java.lang.classfile.TypeAnnotation.FormalParameterTarget&#45;&gt;java.lang.classfile.TypeAnnotation.TargetInfo -->
<g id="edge5" class="edge">
<title>java.lang.classfile.TypeAnnotation.FormalParameterTarget&#45;&gt;java.lang.classfile.TypeAnnotation.TargetInfo</title>
<path fill="none" stroke="#999999" stroke-width="2" d="M848.81,-42.98C859.88,-53.45 873.55,-66.39 885.69,-77.88"/>
<polygon fill="#999999" stroke="#999999" stroke-width="2" points="892.84,-84.64 882.48,-81.04 890.63,-83.24 885.23,-78.13 885.57,-77.77 885.92,-77.4 891.32,-82.51 888.67,-74.5 892.84,-84.64"/>
</g>
<!-- java.lang.classfile.TypeAnnotation.ThrowsTarget -->
<g id="node7" class="node">
<title>java.lang.classfile.TypeAnnotation.ThrowsTarget</title>
<g id="a_node7"><a xlink:href="../../../java/lang/classfile/TypeAnnotation.ThrowsTarget.html" xlink:title="java.lang.classfile.TypeAnnotation.ThrowsTarget">
<text text-anchor="middle" x="1005.26" y="-18" font-family="DejaVuSans" font-size="12.00" fill="#e76f00">ThrowsTarget</text>
</a>
</g>
</g>
<!-- java.lang.classfile.TypeAnnotation.ThrowsTarget&#45;&gt;java.lang.classfile.TypeAnnotation.TargetInfo -->
<g id="edge6" class="edge">
<title>java.lang.classfile.TypeAnnotation.ThrowsTarget&#45;&gt;java.lang.classfile.TypeAnnotation.TargetInfo</title>
<path fill="none" stroke="#999999" stroke-width="2" d="M983.72,-42.98C972.65,-53.45 958.97,-66.39 946.83,-77.88"/>
<polygon fill="#999999" stroke="#999999" stroke-width="2" points="939.69,-84.64 943.86,-74.5 941.21,-82.51 946.61,-77.4 946.95,-77.77 947.29,-78.13 941.89,-83.24 950.04,-81.04 939.69,-84.64"/>
</g>
<!-- java.lang.classfile.TypeAnnotation.LocalVarTarget -->
<g id="node8" class="node">
<title>java.lang.classfile.TypeAnnotation.LocalVarTarget</title>
<g id="a_node8"><a xlink:href="../../../java/lang/classfile/TypeAnnotation.LocalVarTarget.html" xlink:title="java.lang.classfile.TypeAnnotation.LocalVarTarget">
<text text-anchor="middle" x="1157.26" y="-18" font-family="DejaVuSans" font-size="12.00" fill="#e76f00">LocalVarTarget</text>
</a>
</g>
</g>
<!-- java.lang.classfile.TypeAnnotation.LocalVarTarget&#45;&gt;java.lang.classfile.TypeAnnotation.TargetInfo -->
<g id="edge7" class="edge">
<title>java.lang.classfile.TypeAnnotation.LocalVarTarget&#45;&gt;java.lang.classfile.TypeAnnotation.TargetInfo</title>
<path fill="none" stroke="#999999" stroke-width="2" d="M1098.31,-43.2C1060.04,-56.57 1010.46,-73.89 972.7,-87.08"/>
<polygon fill="#999999" stroke="#999999" stroke-width="2" points="963.69,-90.23 971.65,-82.68 965.95,-88.91 972.97,-86.46 973.13,-86.93 973.3,-87.4 966.28,-89.86 974.62,-91.18 963.69,-90.23"/>
</g>
<!-- java.lang.classfile.TypeAnnotation.CatchTarget -->
<g id="node9" class="node">
<title>java.lang.classfile.TypeAnnotation.CatchTarget</title>
<g id="a_node9"><a xlink:href="../../../java/lang/classfile/TypeAnnotation.CatchTarget.html" xlink:title="java.lang.classfile.TypeAnnotation.CatchTarget">
<text text-anchor="middle" x="1304.26" y="-18" font-family="DejaVuSans" font-size="12.00" fill="#e76f00">CatchTarget</text>
</a>
</g>
</g>
<!-- java.lang.classfile.TypeAnnotation.CatchTarget&#45;&gt;java.lang.classfile.TypeAnnotation.TargetInfo -->
<g id="edge8" class="edge">
<title>java.lang.classfile.TypeAnnotation.CatchTarget&#45;&gt;java.lang.classfile.TypeAnnotation.TargetInfo</title>
<path fill="none" stroke="#999999" stroke-width="2" d="M1253.16,-38.43C1247.15,-40.13 1241.09,-41.75 1235.26,-43.2 1144.57,-65.73 1037.85,-85.7 973.7,-97.02"/>
<polygon fill="#999999" stroke="#999999" stroke-width="2" points="963.86,-98.74 972.93,-92.58 966.3,-97.81 973.62,-96.52 973.71,-97.01 973.8,-97.51 966.47,-98.79 974.49,-101.45 963.86,-98.74"/>
</g>
<!-- java.lang.classfile.TypeAnnotation.OffsetTarget -->
<g id="node10" class="node">
<title>java.lang.classfile.TypeAnnotation.OffsetTarget</title>
<g id="a_node10"><a xlink:href="../../../java/lang/classfile/TypeAnnotation.OffsetTarget.html" xlink:title="java.lang.classfile.TypeAnnotation.OffsetTarget">
<text text-anchor="middle" x="1444.26" y="-18" font-family="DejaVuSans" font-size="12.00" fill="#e76f00">OffsetTarget</text>
</a>
</g>
</g>
<!-- java.lang.classfile.TypeAnnotation.OffsetTarget&#45;&gt;java.lang.classfile.TypeAnnotation.TargetInfo -->
<g id="edge9" class="edge">
<title>java.lang.classfile.TypeAnnotation.OffsetTarget&#45;&gt;java.lang.classfile.TypeAnnotation.TargetInfo</title>
<path fill="none" stroke="#999999" stroke-width="2" d="M1392.13,-38.65C1385.81,-40.32 1379.41,-41.89 1373.26,-43.2 1231.02,-73.57 1060.66,-92.85 973.62,-101.5"/>
<polygon fill="#999999" stroke="#999999" stroke-width="2" points="963.82,-102.46 973.33,-97 966.32,-101.71 973.72,-100.99 973.77,-101.48 973.82,-101.98 966.42,-102.71 974.21,-105.96 963.82,-102.46"/>
</g>
<!-- java.lang.classfile.TypeAnnotation.TypeArgumentTarget -->
<g id="node11" class="node">
<title>java.lang.classfile.TypeAnnotation.TypeArgumentTarget</title>
<g id="a_node11"><a xlink:href="../../../java/lang/classfile/TypeAnnotation.TypeArgumentTarget.html" xlink:title="java.lang.classfile.TypeAnnotation.TypeArgumentTarget">
<text text-anchor="middle" x="1611.26" y="-18" font-family="DejaVuSans" font-size="12.00" fill="#e76f00">TypeArgumentTarget</text>
</a>
</g>
</g>
<!-- java.lang.classfile.TypeAnnotation.TypeArgumentTarget&#45;&gt;java.lang.classfile.TypeAnnotation.TargetInfo -->
<g id="edge10" class="edge">
<title>java.lang.classfile.TypeAnnotation.TypeArgumentTarget&#45;&gt;java.lang.classfile.TypeAnnotation.TargetInfo</title>
<path fill="none" stroke="#999999" stroke-width="2" d="M1532.77,-39.99C1526.53,-41.15 1520.3,-42.24 1514.26,-43.2 1317.09,-74.54 1080.81,-94.54 973.87,-102.66"/>
<polygon fill="#999999" stroke="#999999" stroke-width="2" points="963.91,-103.41 973.55,-98.18 966.43,-102.72 973.85,-102.16 973.88,-102.66 973.92,-103.16 966.51,-103.72 974.22,-107.15 963.91,-103.41"/>
</g>
</g>
</svg>
