<?xml version="1.0" encoding="UTF-8" standalone="no"?>
<!DOCTYPE svg PUBLIC "-//W3C//DTD SVG 1.1//EN"
 "http://www.w3.org/Graphics/SVG/1.1/DTD/svg11.dtd">
<!-- Generated by graphviz version 9.0.0 (20230911.1827)
 -->
<!-- Title: jdk.jshell Pages: 1 -->
<svg width="351pt" height="224pt"
 viewBox="0.00 0.00 350.87 223.60" xmlns="http://www.w3.org/2000/svg" xmlns:xlink="http://www.w3.org/1999/xlink">
<g id="graph0" class="graph" transform="scale(1 1) rotate(0) translate(4 219.6)">
<title>jdk.jshell</title>
<polygon fill="white" stroke="none" points="-4,4 -4,-219.6 346.87,-219.6 346.87,4 -4,4"/>
<!-- java.compiler -->
<g id="node1" class="node">
<title>java.compiler</title>
<text text-anchor="middle" x="54.99" y="-104.2" font-family="DejaVuSans" font-size="12.00" fill="#e76f00">java.compiler</text>
</g>
<!-- java.base -->
<g id="node2" class="node">
<title>java.base</title>
<text text-anchor="middle" x="189.99" y="-18" font-family="DejaVuSans" font-size="12.00" fill="#e76f00">java.base</text>
</g>
<!-- java.compiler&#45;&gt;java.base -->
<g id="edge1" class="edge">
<title>java.compiler&#45;&gt;java.base</title>
<path fill="none" stroke="#dddddd" stroke-width="2" d="M88.02,-86.2C105.72,-75.16 127.74,-61.43 146.79,-49.55"/>
<polygon fill="#dddddd" stroke="#dddddd" stroke-width="2" points="155.24,-44.27 149.14,-53.38 153.33,-46.06 147.02,-49.99 146.76,-49.57 146.49,-49.14 152.8,-45.21 144.38,-45.75 155.24,-44.27"/>
</g>
<!-- java.prefs -->
<g id="node3" class="node">
<title>java.prefs</title>
<text text-anchor="middle" x="189.99" y="-104.2" font-family="DejaVuSans" font-size="12.00" fill="#e76f00">java.prefs</text>
</g>
<!-- java.prefs&#45;&gt;java.base -->
<g id="edge2" class="edge">
<title>java.prefs&#45;&gt;java.base</title>
<path fill="none" stroke="#dddddd" stroke-width="2" d="M189.99,-86.42C189.99,-77.08 189.99,-65.77 189.99,-55.28"/>
<polygon fill="#dddddd" stroke="#dddddd" stroke-width="2" points="189.99,-45.52 194.49,-55.52 190.49,-48.09 190.49,-55.52 189.99,-55.52 189.49,-55.52 189.49,-48.09 185.49,-55.52 189.99,-45.52"/>
</g>
<!-- jdk.jdi -->
<g id="node4" class="node">
<title>jdk.jdi</title>
<text text-anchor="middle" x="301.99" y="-104.2" font-family="DejaVuSans" font-size="12.00" fill="#437291">jdk.jdi</text>
</g>
<!-- jdk.jdi&#45;&gt;java.base -->
<g id="edge3" class="edge">
<title>jdk.jdi&#45;&gt;java.base</title>
<path fill="none" stroke="#dddddd" stroke-width="2" d="M274.6,-86.2C260.25,-75.42 242.49,-62.06 226.94,-50.38"/>
<polygon fill="#dddddd" stroke="#dddddd" stroke-width="2" points="219.06,-44.45 229.75,-46.86 221.41,-45.59 227.35,-50.06 227.05,-50.46 226.75,-50.86 220.81,-46.39 224.35,-54.06 219.06,-44.45"/>
</g>
<!-- jdk.jshell -->
<g id="node5" class="node">
<title>jdk.jshell</title>
<text text-anchor="middle" x="301.99" y="-190.4" font-family="DejaVuSans" font-size="12.00" fill="#437291">jdk.jshell</text>
</g>
<!-- jdk.jshell&#45;&gt;java.compiler -->
<g id="edge4" class="edge">
<title>jdk.jshell&#45;&gt;java.compiler</title>
<path fill="none" stroke="#999999" stroke-width="2" d="M261.21,-179.1C223.22,-166.15 165.91,-146.61 121.34,-131.42"/>
<polygon fill="#999999" stroke="#999999" stroke-width="2" points="112.03,-128.24 122.95,-127.21 114.62,-128.6 121.66,-131 121.5,-131.47 121.34,-131.94 114.3,-129.54 120.04,-135.73 112.03,-128.24"/>
</g>
<!-- jdk.jshell&#45;&gt;java.prefs -->
<g id="edge5" class="edge">
<title>jdk.jshell&#45;&gt;java.prefs</title>
<path fill="none" stroke="#999999" stroke-width="2" d="M274.6,-172.4C260.25,-161.62 242.49,-148.26 226.94,-136.58"/>
<polygon fill="#999999" stroke="#999999" stroke-width="2" points="219.06,-130.65 229.75,-133.06 221.41,-131.79 227.35,-136.26 227.05,-136.66 226.75,-137.06 220.81,-132.59 224.35,-140.26 219.06,-130.65"/>
</g>
<!-- jdk.jshell&#45;&gt;jdk.jdi -->
<g id="edge6" class="edge">
<title>jdk.jshell&#45;&gt;jdk.jdi</title>
<path fill="none" stroke="#999999" stroke-width="2" d="M301.99,-172.62C301.99,-163.28 301.99,-151.97 301.99,-141.48"/>
<polygon fill="#999999" stroke="#999999" stroke-width="2" points="301.99,-131.72 306.49,-141.72 302.49,-134.29 302.49,-141.72 301.99,-141.72 301.49,-141.72 301.49,-134.29 297.49,-141.72 301.99,-131.72"/>
</g>
</g>
</svg>
