<?xml version="1.0" encoding="UTF-8" standalone="no"?>
<!DOCTYPE svg PUBLIC "-//W3C//DTD SVG 1.1//EN"
 "http://www.w3.org/Graphics/SVG/1.1/DTD/svg11.dtd">
<!-- Generated by graphviz version 9.0.0 (20230911.1827)
 -->
<!-- Title: G Pages: 1 -->
<svg width="450pt" height="224pt"
 viewBox="0.00 0.00 450.39 223.60" xmlns="http://www.w3.org/2000/svg" xmlns:xlink="http://www.w3.org/1999/xlink">
<g id="graph0" class="graph" transform="scale(1 1) rotate(0) translate(4 219.6)">
<title>G</title>
<polygon fill="white" stroke="none" points="-4,4 -4,-219.6 446.39,-219.6 446.39,4 -4,4"/>
<!-- java.lang.invoke.ConstantCallSite -->
<g id="node1" class="node">
<title>java.lang.invoke.ConstantCallSite</title>
<g id="a_node1"><a xlink:href="../../../java/lang/invoke/ConstantCallSite.html" xlink:title="java.lang.invoke.ConstantCallSite">
<text text-anchor="middle" x="378.3" y="-104.2" font-family="DejaVuSans" font-size="12.00" fill="#e76f00">ConstantCallSite</text>
</a>
</g>
</g>
<!-- java.lang.invoke.CallSite -->
<g id="node2" class="node">
<title>java.lang.invoke.CallSite</title>
<g id="a_node2"><a xlink:href="../../../java/lang/invoke/CallSite.html" xlink:title="java.lang.invoke.CallSite">
<text text-anchor="middle" x="218.3" y="-190.4" font-family="DejaVuSans" font-size="12.00" fill="#e76f00">CallSite</text>
</a>
</g>
</g>
<!-- java.lang.invoke.ConstantCallSite&#45;&gt;java.lang.invoke.CallSite -->
<g id="edge1" class="edge">
<title>java.lang.invoke.ConstantCallSite&#45;&gt;java.lang.invoke.CallSite</title>
<path fill="none" stroke="#999999" stroke-width="2" d="M339.16,-129.4C317.11,-141 289.41,-155.58 266.09,-167.85"/>
<polygon fill="#999999" stroke="#999999" stroke-width="2" points="257.54,-172.35 264.29,-163.71 259.57,-170.71 266.16,-167.25 266.39,-167.69 266.62,-168.13 260.04,-171.6 268.48,-171.67 257.54,-172.35"/>
</g>
<!-- open node #0 -->
<g id="node3" class="node">
<title>open node #0</title>
<g id="a_node3"><a xlink:title="Non&#45;sealed Hierarchy">
<text text-anchor="start" x="357.21" y="-19" font-family="DejaVuSans" font-style="italic" font-size="12.00" fill="#e76f00">&lt;any&gt;</text>
</a>
</g>
</g>
<!-- open node #0&#45;&gt;java.lang.invoke.ConstantCallSite -->
<g id="edge2" class="edge">
<title>open node #0&#45;&gt;java.lang.invoke.ConstantCallSite</title>
<path fill="none" stroke="#999999" stroke-width="2" stroke-dasharray="5,2" d="M378.3,-42.98C378.3,-52.32 378.3,-63.63 378.3,-74.12"/>
<polygon fill="#999999" stroke="#999999" stroke-width="2" points="378.3,-83.88 373.8,-73.88 377.8,-81.31 377.8,-73.88 378.3,-73.88 378.8,-73.88 378.8,-81.31 382.8,-73.88 378.3,-83.88"/>
</g>
<!-- java.lang.invoke.MutableCallSite -->
<g id="node4" class="node">
<title>java.lang.invoke.MutableCallSite</title>
<g id="a_node4"><a xlink:href="../../../java/lang/invoke/MutableCallSite.html" xlink:title="java.lang.invoke.MutableCallSite">
<text text-anchor="middle" x="61.3" y="-104.2" font-family="DejaVuSans" font-size="12.00" fill="#e76f00">MutableCallSite</text>
</a>
</g>
</g>
<!-- java.lang.invoke.MutableCallSite&#45;&gt;java.lang.invoke.CallSite -->
<g id="edge3" class="edge">
<title>java.lang.invoke.MutableCallSite&#45;&gt;java.lang.invoke.CallSite</title>
<path fill="none" stroke="#999999" stroke-width="2" d="M99.7,-129.4C121.08,-140.86 147.88,-155.23 170.59,-167.41"/>
<polygon fill="#999999" stroke="#999999" stroke-width="2" points="179.22,-172.04 168.28,-171.28 176.72,-171.27 170.17,-167.76 170.41,-167.32 170.64,-166.88 177.2,-170.39 172.53,-163.35 179.22,-172.04"/>
</g>
<!-- open node #1 -->
<g id="node5" class="node">
<title>open node #1</title>
<g id="a_node5"><a xlink:title="Non&#45;sealed Hierarchy">
<text text-anchor="start" x="40.21" y="-19" font-family="DejaVuSans" font-style="italic" font-size="12.00" fill="#e76f00">&lt;any&gt;</text>
</a>
</g>
</g>
<!-- open node #1&#45;&gt;java.lang.invoke.MutableCallSite -->
<g id="edge4" class="edge">
<title>open node #1&#45;&gt;java.lang.invoke.MutableCallSite</title>
<path fill="none" stroke="#999999" stroke-width="2" stroke-dasharray="5,2" d="M61.3,-42.98C61.3,-52.32 61.3,-63.63 61.3,-74.12"/>
<polygon fill="#999999" stroke="#999999" stroke-width="2" points="61.3,-83.88 56.8,-73.88 60.8,-81.31 60.8,-73.88 61.3,-73.88 61.8,-73.88 61.8,-81.31 65.8,-73.88 61.3,-83.88"/>
</g>
<!-- java.lang.invoke.VolatileCallSite -->
<g id="node6" class="node">
<title>java.lang.invoke.VolatileCallSite</title>
<g id="a_node6"><a xlink:href="../../../java/lang/invoke/VolatileCallSite.html" xlink:title="java.lang.invoke.VolatileCallSite">
<text text-anchor="middle" x="218.3" y="-104.2" font-family="DejaVuSans" font-size="12.00" fill="#e76f00">VolatileCallSite</text>
</a>
</g>
</g>
<!-- java.lang.invoke.VolatileCallSite&#45;&gt;java.lang.invoke.CallSite -->
<g id="edge5" class="edge">
<title>java.lang.invoke.VolatileCallSite&#45;&gt;java.lang.invoke.CallSite</title>
<path fill="none" stroke="#999999" stroke-width="2" d="M218.3,-129.18C218.3,-138.52 218.3,-149.83 218.3,-160.32"/>
<polygon fill="#999999" stroke="#999999" stroke-width="2" points="218.3,-170.08 213.8,-160.08 217.8,-167.51 217.8,-160.08 218.3,-160.08 218.8,-160.08 218.8,-167.51 222.8,-160.08 218.3,-170.08"/>
</g>
<!-- open node #2 -->
<g id="node7" class="node">
<title>open node #2</title>
<g id="a_node7"><a xlink:title="Non&#45;sealed Hierarchy">
<text text-anchor="start" x="197.21" y="-19" font-family="DejaVuSans" font-style="italic" font-size="12.00" fill="#e76f00">&lt;any&gt;</text>
</a>
</g>
</g>
<!-- open node #2&#45;&gt;java.lang.invoke.VolatileCallSite -->
<g id="edge6" class="edge">
<title>open node #2&#45;&gt;java.lang.invoke.VolatileCallSite</title>
<path fill="none" stroke="#999999" stroke-width="2" stroke-dasharray="5,2" d="M218.3,-42.98C218.3,-52.32 218.3,-63.63 218.3,-74.12"/>
<polygon fill="#999999" stroke="#999999" stroke-width="2" points="218.3,-83.88 213.8,-73.88 217.8,-81.31 217.8,-73.88 218.3,-73.88 218.8,-73.88 218.8,-81.31 222.8,-73.88 218.3,-83.88"/>
</g>
</g>
</svg>
