<?xml version="1.0" encoding="UTF-8" standalone="no"?>
<!DOCTYPE svg PUBLIC "-//W3C//DTD SVG 1.1//EN"
 "http://www.w3.org/Graphics/SVG/1.1/DTD/svg11.dtd">
<!-- Generated by graphviz version 9.0.0 (20230911.1827)
 -->
<!-- Title: G Pages: 1 -->
<svg width="186pt" height="224pt"
 viewBox="0.00 0.00 185.97 223.60" xmlns="http://www.w3.org/2000/svg" xmlns:xlink="http://www.w3.org/1999/xlink">
<g id="graph0" class="graph" transform="scale(1 1) rotate(0) translate(4 219.6)">
<title>G</title>
<polygon fill="white" stroke="none" points="-4,4 -4,-219.6 181.97,-219.6 181.97,4 -4,4"/>
<!-- java.awt.geom.Path2D.Double -->
<g id="node1" class="node">
<title>java.awt.geom.Path2D.Double</title>
<g id="a_node1"><a xlink:href="../../../java/awt/geom/Path2D.Double.html" xlink:title="java.awt.geom.Path2D.Double">
<text text-anchor="middle" x="140.48" y="-104.2" font-family="DejaVuSans" font-size="12.00" fill="#e76f00">Double</text>
</a>
</g>
</g>
<!-- java.awt.geom.Path2D -->
<g id="node2" class="node">
<title>java.awt.geom.Path2D</title>
<g id="a_node2"><a xlink:href="../../../java/awt/geom/Path2D.html" xlink:title="java.awt.geom.Path2D">
<text text-anchor="middle" x="88.48" y="-190.4" font-family="DejaVuSans" font-size="12.00" fill="#e76f00">Path2D</text>
</a>
</g>
</g>
<!-- java.awt.geom.Path2D.Double&#45;&gt;java.awt.geom.Path2D -->
<g id="edge1" class="edge">
<title>java.awt.geom.Path2D.Double&#45;&gt;java.awt.geom.Path2D</title>
<path fill="none" stroke="#999999" stroke-width="2" d="M127.9,-129.18C121.81,-139.04 114.37,-151.08 107.61,-162.04"/>
<polygon fill="#999999" stroke="#999999" stroke-width="2" points="102.42,-170.44 103.84,-159.57 103.34,-168 107.25,-161.67 107.67,-161.93 108.1,-162.19 104.19,-168.52 111.5,-164.3 102.42,-170.44"/>
</g>
<!-- open node #0 -->
<g id="node3" class="node">
<title>open node #0</title>
<g id="a_node3"><a xlink:title="Non&#45;sealed Hierarchy">
<text text-anchor="start" x="121.4" y="-19" font-family="DejaVuSans" font-style="italic" font-size="12.00" fill="#e76f00">&lt;any&gt;</text>
</a>
</g>
</g>
<!-- open node #0&#45;&gt;java.awt.geom.Path2D.Double -->
<g id="edge2" class="edge">
<title>open node #0&#45;&gt;java.awt.geom.Path2D.Double</title>
<path fill="none" stroke="#999999" stroke-width="2" stroke-dasharray="5,2" d="M142,-42.98C141.78,-52.32 141.51,-63.63 141.26,-74.12"/>
<polygon fill="#999999" stroke="#999999" stroke-width="2" points="141.03,-83.88 136.77,-73.77 140.59,-81.3 140.77,-73.87 141.27,-73.88 141.77,-73.89 141.59,-81.33 145.77,-73.99 141.03,-83.88"/>
</g>
<!-- java.awt.geom.Path2D.Float -->
<g id="node4" class="node">
<title>java.awt.geom.Path2D.Float</title>
<g id="a_node4"><a xlink:href="../../../java/awt/geom/Path2D.Float.html" xlink:title="java.awt.geom.Path2D.Float">
<text text-anchor="middle" x="38.48" y="-104.2" font-family="DejaVuSans" font-size="12.00" fill="#e76f00">Float</text>
</a>
</g>
</g>
<!-- java.awt.geom.Path2D.Float&#45;&gt;java.awt.geom.Path2D -->
<g id="edge3" class="edge">
<title>java.awt.geom.Path2D.Float&#45;&gt;java.awt.geom.Path2D</title>
<path fill="none" stroke="#999999" stroke-width="2" d="M50.59,-129.18C56.44,-139.04 63.59,-151.08 70.1,-162.04"/>
<polygon fill="#999999" stroke="#999999" stroke-width="2" points="75.08,-170.42 66.1,-164.12 73.34,-168.47 69.54,-162.08 69.97,-161.82 70.4,-161.56 74.2,-167.96 73.84,-159.52 75.08,-170.42"/>
</g>
<!-- open node #1 -->
<g id="node5" class="node">
<title>open node #1</title>
<g id="a_node5"><a xlink:title="Non&#45;sealed Hierarchy">
<text text-anchor="start" x="14.4" y="-19" font-family="DejaVuSans" font-style="italic" font-size="12.00" fill="#e76f00">&lt;any&gt;</text>
</a>
</g>
</g>
<!-- open node #1&#45;&gt;java.awt.geom.Path2D.Float -->
<g id="edge4" class="edge">
<title>open node #1&#45;&gt;java.awt.geom.Path2D.Float</title>
<path fill="none" stroke="#999999" stroke-width="2" stroke-dasharray="5,2" d="M36.21,-42.98C36.54,-52.32 36.95,-63.63 37.32,-74.12"/>
<polygon fill="#999999" stroke="#999999" stroke-width="2" points="37.67,-83.88 32.81,-74.04 37.08,-81.33 36.81,-73.9 37.31,-73.88 37.81,-73.87 38.08,-81.3 41.81,-73.72 37.67,-83.88"/>
</g>
</g>
</svg>
