<?xml version="1.0" encoding="UTF-8" standalone="no"?>
<!DOCTYPE svg PUBLIC "-//W3C//DTD SVG 1.1//EN"
 "http://www.w3.org/Graphics/SVG/1.1/DTD/svg11.dtd">
<!-- Generated by graphviz version 9.0.0 (20230911.1827)
 -->
<!-- Title: jdk.security.jgss Pages: 1 -->
<svg width="141pt" height="224pt"
 viewBox="0.00 0.00 140.94 223.60" xmlns="http://www.w3.org/2000/svg" xmlns:xlink="http://www.w3.org/1999/xlink">
<g id="graph0" class="graph" transform="scale(1 1) rotate(0) translate(4 219.6)">
<title>jdk.security.jgss</title>
<polygon fill="white" stroke="none" points="-4,4 -4,-219.6 136.94,-219.6 136.94,4 -4,4"/>
<!-- java.base -->
<g id="node1" class="node">
<title>java.base</title>
<text text-anchor="middle" x="66.47" y="-18" font-family="DejaVuSans" font-size="12.00" fill="#e76f00">java.base</text>
</g>
<!-- java.security.jgss -->
<g id="node2" class="node">
<title>java.security.jgss</title>
<text text-anchor="middle" x="66.47" y="-104.2" font-family="DejaVuSans" font-size="12.00" fill="#e76f00">java.security.jgss</text>
</g>
<!-- java.security.jgss&#45;&gt;java.base -->
<g id="edge1" class="edge">
<title>java.security.jgss&#45;&gt;java.base</title>
<path fill="none" stroke="#dddddd" stroke-width="2" d="M66.47,-86.42C66.47,-77.08 66.47,-65.77 66.47,-55.28"/>
<polygon fill="#dddddd" stroke="#dddddd" stroke-width="2" points="66.47,-45.52 70.97,-55.52 66.97,-48.09 66.97,-55.52 66.47,-55.52 65.97,-55.52 65.97,-48.09 61.97,-55.52 66.47,-45.52"/>
</g>
<!-- jdk.security.jgss -->
<g id="node3" class="node">
<title>jdk.security.jgss</title>
<text text-anchor="middle" x="66.47" y="-190.4" font-family="DejaVuSans" font-size="12.00" fill="#437291">jdk.security.jgss</text>
</g>
<!-- jdk.security.jgss&#45;&gt;java.security.jgss -->
<g id="edge2" class="edge">
<title>jdk.security.jgss&#45;&gt;java.security.jgss</title>
<path fill="none" stroke="#999999" stroke-width="2" d="M66.47,-172.62C66.47,-163.28 66.47,-151.97 66.47,-141.48"/>
<polygon fill="#999999" stroke="#999999" stroke-width="2" points="66.47,-131.72 70.97,-141.72 66.97,-134.29 66.97,-141.72 66.47,-141.72 65.97,-141.72 65.97,-134.29 61.97,-141.72 66.47,-131.72"/>
</g>
</g>
</svg>
