<?xml version="1.0" encoding="UTF-8" standalone="no"?>
<!DOCTYPE svg PUBLIC "-//W3C//DTD SVG 1.1//EN"
 "http://www.w3.org/Graphics/SVG/1.1/DTD/svg11.dtd">
<!-- Generated by graphviz version 9.0.0 (20230911.1827)
 -->
<!-- Title: G Pages: 1 -->
<svg width="651pt" height="137pt"
 viewBox="0.00 0.00 650.62 137.40" xmlns="http://www.w3.org/2000/svg" xmlns:xlink="http://www.w3.org/1999/xlink">
<g id="graph0" class="graph" transform="scale(1 1) rotate(0) translate(4 133.4)">
<title>G</title>
<polygon fill="white" stroke="none" points="-4,4 -4,-133.4 646.62,-133.4 646.62,4 -4,4"/>
<!-- javax.swing.text.StyleConstants.CharacterConstants -->
<g id="node1" class="node">
<title>javax.swing.text.StyleConstants.CharacterConstants</title>
<g id="a_node1"><a xlink:href="../../../javax/swing/text/StyleConstants.CharacterConstants.html" xlink:title="javax.swing.text.StyleConstants.CharacterConstants">
<text text-anchor="middle" x="74.12" y="-18" font-family="DejaVuSans" font-size="12.00" fill="#e76f00">CharacterConstants</text>
</a>
</g>
</g>
<!-- javax.swing.text.StyleConstants -->
<g id="node2" class="node">
<title>javax.swing.text.StyleConstants</title>
<g id="a_node2"><a xlink:href="../../../javax/swing/text/StyleConstants.html" xlink:title="javax.swing.text.StyleConstants">
<text text-anchor="middle" x="321.12" y="-104.2" font-family="DejaVuSans" font-size="12.00" fill="#e76f00">StyleConstants</text>
</a>
</g>
</g>
<!-- javax.swing.text.StyleConstants.CharacterConstants&#45;&gt;javax.swing.text.StyleConstants -->
<g id="edge1" class="edge">
<title>javax.swing.text.StyleConstants.CharacterConstants&#45;&gt;javax.swing.text.StyleConstants</title>
<path fill="none" stroke="#999999" stroke-width="2" d="M134.54,-43.2C169.47,-55.1 213.59,-70.14 250.16,-82.61"/>
<polygon fill="#999999" stroke="#999999" stroke-width="2" points="259.44,-85.77 248.53,-86.81 256.86,-85.42 249.82,-83.02 249.98,-82.55 250.14,-82.07 257.18,-84.47 251.43,-78.29 259.44,-85.77"/>
</g>
<!-- javax.swing.text.StyleConstants.ColorConstants -->
<g id="node3" class="node">
<title>javax.swing.text.StyleConstants.ColorConstants</title>
<g id="a_node3"><a xlink:href="../../../javax/swing/text/StyleConstants.ColorConstants.html" xlink:title="javax.swing.text.StyleConstants.ColorConstants">
<text text-anchor="middle" x="244.12" y="-18" font-family="DejaVuSans" font-size="12.00" fill="#e76f00">ColorConstants</text>
</a>
</g>
</g>
<!-- javax.swing.text.StyleConstants.ColorConstants&#45;&gt;javax.swing.text.StyleConstants -->
<g id="edge2" class="edge">
<title>javax.swing.text.StyleConstants.ColorConstants&#45;&gt;javax.swing.text.StyleConstants</title>
<path fill="none" stroke="#999999" stroke-width="2" d="M262.76,-42.98C272.15,-53.25 283.71,-65.89 294.05,-77.2"/>
<polygon fill="#999999" stroke="#999999" stroke-width="2" points="300.74,-84.52 290.67,-80.17 298.64,-82.96 293.62,-77.47 293.99,-77.14 294.36,-76.8 299.38,-82.29 297.31,-74.1 300.74,-84.52"/>
</g>
<!-- javax.swing.text.StyleConstants.FontConstants -->
<g id="node4" class="node">
<title>javax.swing.text.StyleConstants.FontConstants</title>
<g id="a_node4"><a xlink:href="../../../javax/swing/text/StyleConstants.FontConstants.html" xlink:title="javax.swing.text.StyleConstants.FontConstants">
<text text-anchor="middle" x="398.12" y="-18" font-family="DejaVuSans" font-size="12.00" fill="#e76f00">FontConstants</text>
</a>
</g>
</g>
<!-- javax.swing.text.StyleConstants.FontConstants&#45;&gt;javax.swing.text.StyleConstants -->
<g id="edge3" class="edge">
<title>javax.swing.text.StyleConstants.FontConstants&#45;&gt;javax.swing.text.StyleConstants</title>
<path fill="none" stroke="#999999" stroke-width="2" d="M379.48,-42.98C370.09,-53.25 358.54,-65.89 348.19,-77.2"/>
<polygon fill="#999999" stroke="#999999" stroke-width="2" points="341.5,-84.52 344.93,-74.1 342.86,-82.29 347.88,-76.8 348.25,-77.14 348.62,-77.47 343.6,-82.96 351.57,-80.17 341.5,-84.52"/>
</g>
<!-- javax.swing.text.StyleConstants.ParagraphConstants -->
<g id="node5" class="node">
<title>javax.swing.text.StyleConstants.ParagraphConstants</title>
<g id="a_node5"><a xlink:href="../../../javax/swing/text/StyleConstants.ParagraphConstants.html" xlink:title="javax.swing.text.StyleConstants.ParagraphConstants">
<text text-anchor="middle" x="567.12" y="-18" font-family="DejaVuSans" font-size="12.00" fill="#e76f00">ParagraphConstants</text>
</a>
</g>
</g>
<!-- javax.swing.text.StyleConstants.ParagraphConstants&#45;&gt;javax.swing.text.StyleConstants -->
<g id="edge4" class="edge">
<title>javax.swing.text.StyleConstants.ParagraphConstants&#45;&gt;javax.swing.text.StyleConstants</title>
<path fill="none" stroke="#999999" stroke-width="2" d="M506.94,-43.2C472.29,-55.06 428.54,-70.03 392.2,-82.47"/>
<polygon fill="#999999" stroke="#999999" stroke-width="2" points="382.98,-85.63 390.99,-78.13 385.25,-84.32 392.28,-81.91 392.45,-82.39 392.61,-82.86 385.57,-85.27 393.9,-86.65 382.98,-85.63"/>
</g>
</g>
</svg>
