<?xml version="1.0" encoding="UTF-8" standalone="no"?>
<!DOCTYPE svg PUBLIC "-//W3C//DTD SVG 1.1//EN"
 "http://www.w3.org/Graphics/SVG/1.1/DTD/svg11.dtd">
<!-- Generated by graphviz version 9.0.0 (20230911.1827)
 -->
<!-- Title: java.se Pages: 1 -->
<svg width="1819pt" height="396pt"
 viewBox="0.00 0.00 1819.04 396.00" xmlns="http://www.w3.org/2000/svg" xmlns:xlink="http://www.w3.org/1999/xlink">
<g id="graph0" class="graph" transform="scale(1 1) rotate(0) translate(4 392)">
<title>java.se</title>
<polygon fill="white" stroke="none" points="-4,4 -4,-392 1815.04,-392 1815.04,4 -4,4"/>
<!-- java.logging -->
<g id="node1" class="node">
<title>java.logging</title>
<text text-anchor="middle" x="259.7" y="-104.2" font-family="DejaVuSans" font-size="12.00" fill="#e76f00">java.logging</text>
</g>
<!-- java.base -->
<g id="node9" class="node">
<title>java.base</title>
<text text-anchor="middle" x="532.7" y="-18" font-family="DejaVuSans" font-size="12.00" fill="#e76f00">java.base</text>
</g>
<!-- java.logging&#45;&gt;java.base -->
<g id="edge6" class="edge">
<title>java.logging&#45;&gt;java.base</title>
<path fill="none" stroke="#dddddd" stroke-width="2" d="M310.73,-91.06C358.35,-76.37 429.19,-54.53 477.97,-39.48"/>
<polygon fill="#dddddd" stroke="#dddddd" stroke-width="2" points="487.23,-36.62 479,-43.87 484.93,-37.86 477.82,-40.05 477.67,-39.57 477.53,-39.09 484.63,-36.9 476.35,-35.27 487.23,-36.62"/>
</g>
<!-- java.scripting -->
<g id="node2" class="node">
<title>java.scripting</title>
<text text-anchor="middle" x="401.7" y="-104.2" font-family="DejaVuSans" font-size="12.00" fill="#e76f00">java.scripting</text>
</g>
<!-- java.scripting&#45;&gt;java.base -->
<g id="edge14" class="edge">
<title>java.scripting&#45;&gt;java.base</title>
<path fill="none" stroke="#dddddd" stroke-width="2" d="M433.75,-86.2C450.92,-75.16 472.29,-61.43 490.78,-49.55"/>
<polygon fill="#dddddd" stroke="#dddddd" stroke-width="2" points="498.94,-44.3 492.96,-53.5 497.05,-46.11 490.79,-50.13 490.52,-49.71 490.25,-49.29 496.51,-45.27 488.09,-45.92 498.94,-44.3"/>
</g>
<!-- java.xml -->
<g id="node3" class="node">
<title>java.xml</title>
<text text-anchor="middle" x="532.7" y="-104.2" font-family="DejaVuSans" font-size="12.00" fill="#e76f00">java.xml</text>
</g>
<!-- java.xml&#45;&gt;java.base -->
<g id="edge34" class="edge">
<title>java.xml&#45;&gt;java.base</title>
<path fill="none" stroke="#dddddd" stroke-width="2" d="M532.7,-86.42C532.7,-77.08 532.7,-65.77 532.7,-55.28"/>
<polygon fill="#dddddd" stroke="#dddddd" stroke-width="2" points="532.7,-45.52 537.2,-55.52 533.2,-48.09 533.2,-55.52 532.7,-55.52 532.2,-55.52 532.2,-48.09 528.2,-55.52 532.7,-45.52"/>
</g>
<!-- java.sql -->
<g id="node4" class="node">
<title>java.sql</title>
<text text-anchor="middle" x="532.7" y="-190.4" font-family="DejaVuSans" font-size="12.00" fill="#e76f00">java.sql</text>
</g>
<!-- java.sql&#45;&gt;java.logging -->
<g id="edge28" class="edge">
<title>java.sql&#45;&gt;java.logging</title>
<path fill="none" stroke="#999999" stroke-width="2" d="M495.31,-181.47C450.78,-167.73 375.72,-144.58 322.29,-128.1"/>
<polygon fill="#999999" stroke="#999999" stroke-width="2" points="312.89,-125.2 323.77,-123.85 315.48,-125.48 322.59,-127.67 322.44,-128.15 322.3,-128.63 315.19,-126.44 321.12,-132.45 312.89,-125.2"/>
</g>
<!-- java.sql&#45;&gt;java.xml -->
<g id="edge30" class="edge">
<title>java.sql&#45;&gt;java.xml</title>
<path fill="none" stroke="#999999" stroke-width="2" d="M532.7,-172.62C532.7,-163.28 532.7,-151.97 532.7,-141.48"/>
<polygon fill="#999999" stroke="#999999" stroke-width="2" points="532.7,-131.72 537.2,-141.72 533.2,-134.29 533.2,-141.72 532.7,-141.72 532.2,-141.72 532.2,-134.29 528.2,-141.72 532.7,-131.72"/>
</g>
<!-- java.transaction.xa -->
<g id="node20" class="node">
<title>java.transaction.xa</title>
<text text-anchor="middle" x="100.7" y="-104.2" font-family="DejaVuSans" font-size="12.00" fill="#e76f00">java.transaction.xa</text>
</g>
<!-- java.sql&#45;&gt;java.transaction.xa -->
<g id="edge29" class="edge">
<title>java.sql&#45;&gt;java.transaction.xa</title>
<path fill="none" stroke="#999999" stroke-width="2" d="M495.41,-186.58C432.45,-175.63 301.14,-152.3 190.7,-129.4 188.65,-128.97 186.57,-128.54 184.48,-128.1"/>
<polygon fill="#999999" stroke="#999999" stroke-width="2" points="174.75,-126 185.47,-123.71 177.36,-126.05 184.63,-127.62 184.52,-128.1 184.42,-128.59 177.15,-127.03 183.57,-132.5 174.75,-126"/>
</g>
<!-- java.compiler -->
<g id="node5" class="node">
<title>java.compiler</title>
<text text-anchor="middle" x="831.7" y="-104.2" font-family="DejaVuSans" font-size="12.00" fill="#e76f00">java.compiler</text>
</g>
<!-- java.compiler&#45;&gt;java.base -->
<g id="edge1" class="edge">
<title>java.compiler&#45;&gt;java.base</title>
<path fill="none" stroke="#dddddd" stroke-width="2" d="M777.09,-91.38C770.89,-89.64 764.66,-87.88 758.7,-86.2 700.18,-69.71 633.12,-50.84 587.35,-37.97"/>
<polygon fill="#dddddd" stroke="#dddddd" stroke-width="2" points="577.95,-35.32 588.8,-33.7 580.56,-35.54 587.72,-37.55 587.58,-38.03 587.45,-38.51 580.29,-36.5 586.36,-42.36 577.95,-35.32"/>
</g>
<!-- java.instrument -->
<g id="node6" class="node">
<title>java.instrument</title>
<text text-anchor="middle" x="984.7" y="-104.2" font-family="DejaVuSans" font-size="12.00" fill="#e76f00">java.instrument</text>
</g>
<!-- java.instrument&#45;&gt;java.base -->
<g id="edge5" class="edge">
<title>java.instrument&#45;&gt;java.base</title>
<path fill="none" stroke="#dddddd" stroke-width="2" d="M923.24,-90.43C916.99,-88.93 910.73,-87.49 904.7,-86.2 792.8,-62.27 660.45,-41.39 587.63,-30.54"/>
<polygon fill="#dddddd" stroke="#dddddd" stroke-width="2" points="578.01,-29.11 588.56,-26.13 580.62,-28.99 587.98,-30.08 587.9,-30.58 587.83,-31.07 580.47,-29.98 587.24,-35.03 578.01,-29.11"/>
</g>
<!-- java.desktop -->
<g id="node7" class="node">
<title>java.desktop</title>
<text text-anchor="middle" x="815.7" y="-190.4" font-family="DejaVuSans" font-size="12.00" fill="#e76f00">java.desktop</text>
</g>
<!-- java.desktop&#45;&gt;java.xml -->
<g id="edge4" class="edge">
<title>java.desktop&#45;&gt;java.xml</title>
<path fill="none" stroke="#999999" stroke-width="2" d="M763.13,-179.19C717.34,-166.91 649.3,-148.07 590.7,-129.4 588.58,-128.72 586.42,-128.02 584.24,-127.3"/>
<polygon fill="#999999" stroke="#999999" stroke-width="2" points="574.83,-124.11 585.74,-123.06 577.42,-124.46 584.46,-126.85 584.3,-127.32 584.14,-127.8 577.1,-125.41 582.85,-131.58 574.83,-124.11"/>
</g>
<!-- java.datatransfer -->
<g id="node10" class="node">
<title>java.datatransfer</title>
<text text-anchor="middle" x="674.7" y="-104.2" font-family="DejaVuSans" font-size="12.00" fill="#e76f00">java.datatransfer</text>
</g>
<!-- java.desktop&#45;&gt;java.datatransfer -->
<g id="edge3" class="edge">
<title>java.desktop&#45;&gt;java.datatransfer</title>
<path fill="none" stroke="#999999" stroke-width="2" d="M781.21,-172.4C762.55,-161.26 739.29,-147.37 719.27,-135.42"/>
<polygon fill="#999999" stroke="#999999" stroke-width="2" points="710.93,-130.43 721.82,-131.7 713.39,-131.32 719.77,-135.13 719.51,-135.56 719.26,-135.99 712.87,-132.18 717.21,-139.43 710.93,-130.43"/>
</g>
<!-- java.management -->
<g id="node8" class="node">
<title>java.management</title>
<text text-anchor="middle" x="1235.7" y="-190.4" font-family="DejaVuSans" font-size="12.00" fill="#e76f00">java.management</text>
</g>
<!-- java.management&#45;&gt;java.base -->
<g id="edge7" class="edge">
<title>java.management&#45;&gt;java.base</title>
<path fill="none" stroke="#dddddd" stroke-width="2" d="M1218.08,-172.8C1194.88,-147.71 1151.51,-105.84 1104.7,-86.2 1012.18,-47.37 712.73,-30.32 588.02,-24.78"/>
<polygon fill="#dddddd" stroke="#dddddd" stroke-width="2" points="578.23,-24.35 588.42,-20.29 580.82,-23.96 588.25,-24.29 588.23,-24.79 588.2,-25.29 580.77,-24.96 588.03,-29.28 578.23,-24.35"/>
</g>
<!-- java.datatransfer&#45;&gt;java.base -->
<g id="edge2" class="edge">
<title>java.datatransfer&#45;&gt;java.base</title>
<path fill="none" stroke="#dddddd" stroke-width="2" d="M639.96,-86.2C621.17,-75.06 597.75,-61.17 577.59,-49.22"/>
<polygon fill="#dddddd" stroke="#dddddd" stroke-width="2" points="569.17,-44.23 580.07,-45.46 571.63,-45.11 578.03,-48.9 577.78,-49.33 577.52,-49.76 571.12,-45.97 575.48,-53.2 569.17,-44.23"/>
</g>
<!-- java.management.rmi -->
<g id="node11" class="node">
<title>java.management.rmi</title>
<text text-anchor="middle" x="1163.7" y="-276.6" font-family="DejaVuSans" font-size="12.00" fill="#e76f00">java.management.rmi</text>
</g>
<!-- java.management.rmi&#45;&gt;java.management -->
<g id="edge8" class="edge">
<title>java.management.rmi&#45;&gt;java.management</title>
<path fill="none" stroke="#999999" stroke-width="2" d="M1181.13,-258.82C1189.82,-248.65 1200.5,-236.16 1210.1,-224.94"/>
<polygon fill="#999999" stroke="#999999" stroke-width="2" points="1216.6,-217.34 1213.52,-227.86 1215.31,-219.61 1210.48,-225.26 1210.1,-224.94 1209.72,-224.61 1214.55,-218.96 1206.68,-222.01 1216.6,-217.34"/>
</g>
<!-- java.rmi -->
<g id="node15" class="node">
<title>java.rmi</title>
<text text-anchor="middle" x="1091.7" y="-190.4" font-family="DejaVuSans" font-size="12.00" fill="#e76f00">java.rmi</text>
</g>
<!-- java.management.rmi&#45;&gt;java.rmi -->
<g id="edge9" class="edge">
<title>java.management.rmi&#45;&gt;java.rmi</title>
<path fill="none" stroke="#999999" stroke-width="2" d="M1146.27,-258.82C1137.58,-248.65 1126.9,-236.16 1117.3,-224.94"/>
<polygon fill="#999999" stroke="#999999" stroke-width="2" points="1110.8,-217.34 1120.72,-222.01 1112.85,-218.96 1117.68,-224.61 1117.3,-224.94 1116.92,-225.26 1112.09,-219.61 1113.88,-227.86 1110.8,-217.34"/>
</g>
<!-- java.naming -->
<g id="node12" class="node">
<title>java.naming</title>
<text text-anchor="middle" x="190.7" y="-190.4" font-family="DejaVuSans" font-size="12.00" fill="#e76f00">java.naming</text>
</g>
<!-- java.naming&#45;&gt;java.base -->
<g id="edge10" class="edge">
<title>java.naming&#45;&gt;java.base</title>
<path fill="none" stroke="#dddddd" stroke-width="2" d="M139.38,-182.91C72.18,-167.52 -32.3,-134.76 10.7,-86.2 41.31,-51.64 349.41,-31.99 477.4,-25.26"/>
<polygon fill="#dddddd" stroke="#dddddd" stroke-width="2" points="487.14,-24.76 477.39,-29.77 484.61,-25.39 477.18,-25.77 477.15,-25.27 477.13,-24.78 484.56,-24.39 476.92,-20.78 487.14,-24.76"/>
</g>
<!-- java.net.http -->
<g id="node13" class="node">
<title>java.net.http</title>
<text text-anchor="middle" x="1393.7" y="-190.4" font-family="DejaVuSans" font-size="12.00" fill="#e76f00">java.net.http</text>
</g>
<!-- java.net.http&#45;&gt;java.base -->
<g id="edge11" class="edge">
<title>java.net.http&#45;&gt;java.base</title>
<path fill="none" stroke="#dddddd" stroke-width="2" d="M1359.58,-172.51C1316.19,-147.53 1238.18,-106.19 1165.7,-86.2 958.09,-28.94 699.52,-22.01 588.05,-21.96"/>
<polygon fill="#dddddd" stroke="#dddddd" stroke-width="2" points="578.27,-21.98 588.26,-17.46 580.83,-21.47 588.27,-21.46 588.27,-21.96 588.27,-22.46 580.83,-22.47 588.28,-26.46 578.27,-21.98"/>
</g>
<!-- java.prefs -->
<g id="node14" class="node">
<title>java.prefs</title>
<text text-anchor="middle" x="1459.7" y="-104.2" font-family="DejaVuSans" font-size="12.00" fill="#e76f00">java.prefs</text>
</g>
<!-- java.prefs&#45;&gt;java.base -->
<g id="edge12" class="edge">
<title>java.prefs&#45;&gt;java.base</title>
<path fill="none" stroke="#dddddd" stroke-width="2" d="M1415.7,-96.98C1396.98,-93.11 1374.86,-88.95 1354.7,-86.2 1067.55,-47.06 720.44,-30.05 587.83,-24.65"/>
<polygon fill="#dddddd" stroke="#dddddd" stroke-width="2" points="578.11,-24.26 588.28,-20.16 580.69,-23.86 588.12,-24.16 588.1,-24.66 588.08,-25.16 580.65,-24.86 587.92,-29.15 578.11,-24.26"/>
</g>
<!-- java.rmi&#45;&gt;java.base -->
<g id="edge13" class="edge">
<title>java.rmi&#45;&gt;java.base</title>
<path fill="none" stroke="#dddddd" stroke-width="2" d="M1092.87,-172.64C1093.06,-148.19 1089.26,-107.79 1064.7,-86.2 1029.33,-55.11 717.02,-33.41 588.05,-25.7"/>
<polygon fill="#dddddd" stroke="#dddddd" stroke-width="2" points="578.22,-25.12 588.47,-21.22 580.81,-24.77 588.23,-25.21 588.2,-25.71 588.17,-26.21 580.75,-25.77 587.94,-30.2 578.22,-25.12"/>
</g>
<!-- java.se -->
<g id="node16" class="node">
<title>java.se</title>
<text text-anchor="middle" x="532.7" y="-362.8" font-family="DejaVuSans" font-size="12.00" fill="#e76f00">java.se</text>
</g>
<!-- java.se&#45;&gt;java.scripting -->
<g id="edge21" class="edge">
<title>java.se&#45;&gt;java.scripting</title>
<path fill="none" stroke="#999999" stroke-width="2" d="M568.14,-346.39C584.3,-335.65 601.78,-320.58 610.7,-301.8 635.76,-249.04 627.56,-215.1 587.7,-172.4 579.05,-163.13 517.78,-143.2 467.89,-128.1"/>
<polygon fill="#999999" stroke="#999999" stroke-width="2" points="458.47,-125.27 469.35,-123.84 461.07,-125.53 468.2,-127.67 468.05,-128.15 467.91,-128.63 460.78,-126.49 466.76,-132.46 458.47,-125.27"/>
</g>
<!-- java.se&#45;&gt;java.compiler -->
<g id="edge15" class="edge">
<title>java.se&#45;&gt;java.compiler</title>
<path fill="none" stroke="#999999" stroke-width="2" d="M568.19,-363.95C647.22,-359.95 834,-345.93 875.7,-301.8 915.35,-259.85 906.84,-226.49 886.7,-172.4 882.03,-159.86 873.65,-148.14 864.81,-138.26"/>
<polygon fill="#999999" stroke="#999999" stroke-width="2" points="858,-131.16 868.17,-135.26 860.13,-132.66 865.28,-138.03 864.92,-138.37 864.56,-138.72 859.41,-133.35 861.67,-141.49 858,-131.16"/>
</g>
<!-- java.se&#45;&gt;java.instrument -->
<g id="edge17" class="edge">
<title>java.se&#45;&gt;java.instrument</title>
<path fill="none" stroke="#999999" stroke-width="2" d="M568.19,-364.03C652.97,-360.08 864.09,-345.94 916.7,-301.8 964.78,-261.46 978.88,-184.9 983.01,-141.31"/>
<polygon fill="#999999" stroke="#999999" stroke-width="2" points="983.78,-131.6 987.47,-141.93 984.08,-134.2 983.48,-141.61 982.99,-141.57 982.49,-141.53 983.08,-134.12 978.5,-141.21 983.78,-131.6"/>
</g>
<!-- java.se&#45;&gt;java.desktop -->
<g id="edge16" class="edge">
<title>java.se&#45;&gt;java.desktop</title>
<path fill="none" stroke="#999999" stroke-width="2" d="M568.21,-363.56C642.1,-358.91 808.36,-343.9 842.7,-301.8 860.15,-280.4 849.33,-249.17 836.58,-226"/>
<polygon fill="#999999" stroke="#999999" stroke-width="2" points="831.52,-217.45 840.48,-223.77 833.25,-219.41 837.04,-225.81 836.61,-226.06 836.18,-226.32 832.39,-219.92 832.74,-228.35 831.52,-217.45"/>
</g>
<!-- java.se&#45;&gt;java.management.rmi -->
<g id="edge18" class="edge">
<title>java.se&#45;&gt;java.management.rmi</title>
<path fill="none" stroke="#999999" stroke-width="2" d="M568.33,-361.91C653.05,-353.41 873.14,-330.28 1055.7,-301.8 1060.69,-301.02 1065.79,-300.19 1070.95,-299.31"/>
<polygon fill="#999999" stroke="#999999" stroke-width="2" points="1080.61,-297.63 1071.53,-303.78 1078.17,-298.56 1070.84,-299.84 1070.76,-299.34 1070.67,-298.85 1078,-297.57 1069.98,-294.91 1080.61,-297.63"/>
</g>
<!-- java.se&#45;&gt;java.net.http -->
<g id="edge19" class="edge">
<title>java.se&#45;&gt;java.net.http</title>
<path fill="none" stroke="#999999" stroke-width="2" d="M568.13,-365.05C696.19,-363.38 1134.36,-353.87 1262.7,-301.8 1304.6,-284.8 1343.51,-249.58 1367.86,-224.22"/>
<polygon fill="#999999" stroke="#999999" stroke-width="2" points="1374.49,-217.16 1370.93,-227.53 1373.1,-219.37 1368.01,-224.8 1367.65,-224.45 1367.28,-224.11 1372.37,-218.69 1364.36,-221.38 1374.49,-217.16"/>
</g>
<!-- java.se&#45;&gt;java.prefs -->
<g id="edge20" class="edge">
<title>java.se&#45;&gt;java.prefs</title>
<path fill="none" stroke="#999999" stroke-width="2" d="M568.09,-364.75C702.5,-361.94 1180.97,-348.8 1324.7,-301.8 1394.15,-279.09 1429.06,-279.39 1464.7,-215.6 1477.32,-193.01 1474.71,-163.35 1469.72,-141.02"/>
<polygon fill="#999999" stroke="#999999" stroke-width="2" points="1467.29,-131.51 1474.13,-140.08 1468.41,-133.87 1470.25,-141.07 1469.76,-141.2 1469.28,-141.32 1467.44,-134.11 1465.4,-142.31 1467.29,-131.51"/>
</g>
<!-- java.security.jgss -->
<g id="node17" class="node">
<title>java.security.jgss</title>
<text text-anchor="middle" x="1575.7" y="-276.6" font-family="DejaVuSans" font-size="12.00" fill="#e76f00">java.security.jgss</text>
</g>
<!-- java.se&#45;&gt;java.security.jgss -->
<g id="edge22" class="edge">
<title>java.se&#45;&gt;java.security.jgss</title>
<path fill="none" stroke="#999999" stroke-width="2" d="M568.27,-364.95C693.93,-362.96 1128.45,-352.6 1482.7,-301.8 1487.45,-301.12 1492.31,-300.33 1497.2,-299.46"/>
<polygon fill="#999999" stroke="#999999" stroke-width="2" points="1506.98,-297.62 1497.99,-303.89 1504.55,-298.59 1497.25,-299.96 1497.15,-299.47 1497.06,-298.98 1504.37,-297.6 1496.32,-295.05 1506.98,-297.62"/>
</g>
<!-- java.security.sasl -->
<g id="node18" class="node">
<title>java.security.sasl</title>
<text text-anchor="middle" x="1744.7" y="-276.6" font-family="DejaVuSans" font-size="12.00" fill="#e76f00">java.security.sasl</text>
</g>
<!-- java.se&#45;&gt;java.security.sasl -->
<g id="edge23" class="edge">
<title>java.se&#45;&gt;java.security.sasl</title>
<path fill="none" stroke="#999999" stroke-width="2" d="M567.99,-365.73C707.43,-366.54 1233.22,-364.98 1659.7,-301.8 1661.91,-301.47 1664.15,-301.11 1666.41,-300.73"/>
<polygon fill="#999999" stroke="#999999" stroke-width="2" points="1676.18,-298.9 1667.18,-305.16 1673.75,-299.86 1666.44,-301.23 1666.35,-300.74 1666.26,-300.25 1673.57,-298.88 1665.52,-296.32 1676.18,-298.9"/>
</g>
<!-- java.sql.rowset -->
<g id="node19" class="node">
<title>java.sql.rowset</title>
<text text-anchor="middle" x="532.7" y="-276.6" font-family="DejaVuSans" font-size="12.00" fill="#e76f00">java.sql.rowset</text>
</g>
<!-- java.se&#45;&gt;java.sql.rowset -->
<g id="edge24" class="edge">
<title>java.se&#45;&gt;java.sql.rowset</title>
<path fill="none" stroke="#999999" stroke-width="2" d="M532.7,-345.02C532.7,-335.68 532.7,-324.37 532.7,-313.88"/>
<polygon fill="#999999" stroke="#999999" stroke-width="2" points="532.7,-304.12 537.2,-314.12 533.2,-306.69 533.2,-314.12 532.7,-314.12 532.2,-314.12 532.2,-306.69 528.2,-314.12 532.7,-304.12"/>
</g>
<!-- java.xml.crypto -->
<g id="node21" class="node">
<title>java.xml.crypto</title>
<text text-anchor="middle" x="763.7" y="-276.6" font-family="DejaVuSans" font-size="12.00" fill="#e76f00">java.xml.crypto</text>
</g>
<!-- java.se&#45;&gt;java.xml.crypto -->
<g id="edge25" class="edge">
<title>java.se&#45;&gt;java.xml.crypto</title>
<path fill="none" stroke="#999999" stroke-width="2" d="M568.29,-352.43C602.18,-340.07 654.09,-321.15 695.88,-305.92"/>
<polygon fill="#999999" stroke="#999999" stroke-width="2" points="705.09,-302.56 697.24,-310.22 702.86,-303.91 695.87,-306.46 695.7,-305.99 695.53,-305.52 702.51,-302.97 694.16,-301.76 705.09,-302.56"/>
</g>
<!-- java.security.jgss&#45;&gt;java.base -->
<g id="edge26" class="edge">
<title>java.security.jgss&#45;&gt;java.base</title>
<path fill="none" stroke="#dddddd" stroke-width="2" d="M1576.94,-258.82C1578.15,-218.54 1574.41,-128.92 1521.7,-86.2 1449.03,-27.3 786.1,-22.57 588.21,-22.49"/>
<polygon fill="#dddddd" stroke="#dddddd" stroke-width="2" points="578.3,-22.49 588.3,-17.99 580.86,-21.99 588.3,-21.99 588.3,-22.49 588.3,-22.99 580.86,-22.99 588.3,-26.99 578.3,-22.49"/>
</g>
<!-- java.security.sasl&#45;&gt;java.base -->
<g id="edge27" class="edge">
<title>java.security.sasl&#45;&gt;java.base</title>
<path fill="none" stroke="#dddddd" stroke-width="2" d="M1733.25,-258.68C1708.87,-217.31 1647.39,-124.55 1566.7,-86.2 1478.09,-44.09 789.37,-27.56 587.89,-23.6"/>
<polygon fill="#dddddd" stroke="#dddddd" stroke-width="2" points="578.05,-23.41 588.13,-19.1 580.62,-22.96 588.05,-23.1 588.05,-23.6 588.04,-24.1 580.6,-23.96 587.96,-28.1 578.05,-23.41"/>
</g>
<!-- java.sql.rowset&#45;&gt;java.sql -->
<g id="edge32" class="edge">
<title>java.sql.rowset&#45;&gt;java.sql</title>
<path fill="none" stroke="#999999" stroke-width="2" d="M532.7,-258.82C532.7,-249.48 532.7,-238.17 532.7,-227.68"/>
<polygon fill="#999999" stroke="#999999" stroke-width="2" points="532.7,-217.92 537.2,-227.92 533.2,-220.49 533.2,-227.92 532.7,-227.92 532.2,-227.92 532.2,-220.49 528.2,-227.92 532.7,-217.92"/>
</g>
<!-- java.sql.rowset&#45;&gt;java.naming -->
<g id="edge31" class="edge">
<title>java.sql.rowset&#45;&gt;java.naming</title>
<path fill="none" stroke="#999999" stroke-width="2" d="M473.13,-264.53C411.73,-249.42 316.39,-225.94 253.74,-210.52"/>
<polygon fill="#999999" stroke="#999999" stroke-width="2" points="244.42,-208.23 255.21,-206.25 247.03,-208.35 254.25,-210.13 254.13,-210.62 254.01,-211.1 246.79,-209.32 253.06,-214.99 244.42,-208.23"/>
</g>
<!-- java.transaction.xa&#45;&gt;java.base -->
<g id="edge33" class="edge">
<title>java.transaction.xa&#45;&gt;java.base</title>
<path fill="none" stroke="#dddddd" stroke-width="2" d="M172.37,-90.12C178.56,-88.76 184.74,-87.44 190.7,-86.2 291.6,-65.28 409.93,-43.99 477.63,-32.12"/>
<polygon fill="#dddddd" stroke="#dddddd" stroke-width="2" points="487.27,-30.44 478.19,-36.59 484.83,-31.37 477.5,-32.65 477.42,-32.16 477.33,-31.67 484.66,-30.39 476.64,-27.73 487.27,-30.44"/>
</g>
<!-- java.xml.crypto&#45;&gt;java.xml -->
<g id="edge35" class="edge">
<title>java.xml.crypto&#45;&gt;java.xml</title>
<path fill="none" stroke="#999999" stroke-width="2" d="M747.8,-258.64C729.11,-235.47 696.22,-197.74 661.7,-172.4 637.89,-154.92 608.55,-140.02 583.87,-129.04"/>
<polygon fill="#999999" stroke="#999999" stroke-width="2" points="574.77,-125.1 585.73,-124.95 577.32,-125.66 584.14,-128.62 583.94,-129.08 583.74,-129.54 576.92,-126.58 582.15,-133.21 574.77,-125.1"/>
</g>
</g>
</svg>
