<?xml version="1.0" encoding="UTF-8" standalone="no"?>
<!DOCTYPE svg PUBLIC "-//W3C//DTD SVG 1.1//EN"
 "http://www.w3.org/Graphics/SVG/1.1/DTD/svg11.dtd">
<!-- Generated by graphviz version 9.0.0 (20230911.1827)
 -->
<!-- Title: G Pages: 1 -->
<svg width="260pt" height="137pt"
 viewBox="0.00 0.00 259.93 137.40" xmlns="http://www.w3.org/2000/svg" xmlns:xlink="http://www.w3.org/1999/xlink">
<g id="graph0" class="graph" transform="scale(1 1) rotate(0) translate(4 133.4)">
<title>G</title>
<polygon fill="white" stroke="none" points="-4,4 -4,-133.4 255.93,-133.4 255.93,4 -4,4"/>
<!-- java.net.Inet4Address -->
<g id="node1" class="node">
<title>java.net.Inet4Address</title>
<g id="a_node1"><a xlink:href="../../java/net/Inet4Address.html" xlink:title="java.net.Inet4Address">
<text text-anchor="middle" x="53.97" y="-18" font-family="DejaVuSans" font-size="12.00" fill="#e76f00">Inet4Address</text>
</a>
</g>
</g>
<!-- java.net.InetAddress -->
<g id="node2" class="node">
<title>java.net.InetAddress</title>
<g id="a_node2"><a xlink:href="../../java/net/InetAddress.html" xlink:title="java.net.InetAddress">
<text text-anchor="middle" x="125.97" y="-104.2" font-family="DejaVuSans" font-size="12.00" fill="#e76f00">InetAddress</text>
</a>
</g>
</g>
<!-- java.net.Inet4Address&#45;&gt;java.net.InetAddress -->
<g id="edge1" class="edge">
<title>java.net.Inet4Address&#45;&gt;java.net.InetAddress</title>
<path fill="none" stroke="#999999" stroke-width="2" d="M71.39,-42.98C80.09,-53.15 90.77,-65.64 100.37,-76.86"/>
<polygon fill="#999999" stroke="#999999" stroke-width="2" points="106.86,-84.46 96.94,-79.79 104.82,-82.84 99.98,-77.19 100.36,-76.86 100.74,-76.54 105.58,-82.19 103.78,-73.94 106.86,-84.46"/>
</g>
<!-- java.net.Inet6Address -->
<g id="node3" class="node">
<title>java.net.Inet6Address</title>
<g id="a_node3"><a xlink:href="../../java/net/Inet6Address.html" xlink:title="java.net.Inet6Address">
<text text-anchor="middle" x="197.97" y="-18" font-family="DejaVuSans" font-size="12.00" fill="#e76f00">Inet6Address</text>
</a>
</g>
</g>
<!-- java.net.Inet6Address&#45;&gt;java.net.InetAddress -->
<g id="edge2" class="edge">
<title>java.net.Inet6Address&#45;&gt;java.net.InetAddress</title>
<path fill="none" stroke="#999999" stroke-width="2" d="M180.54,-42.98C171.85,-53.15 161.17,-65.64 151.57,-76.86"/>
<polygon fill="#999999" stroke="#999999" stroke-width="2" points="145.07,-84.46 148.15,-73.94 146.35,-82.19 151.19,-76.54 151.57,-76.86 151.95,-77.19 147.11,-82.84 154.99,-79.79 145.07,-84.46"/>
</g>
</g>
</svg>
