<?xml version="1.0" encoding="UTF-8" standalone="no"?>
<!DOCTYPE svg PUBLIC "-//W3C//DTD SVG 1.1//EN"
 "http://www.w3.org/Graphics/SVG/1.1/DTD/svg11.dtd">
<!-- Generated by graphviz version 9.0.0 (20230911.1827)
 -->
<!-- Title: G Pages: 1 -->
<svg width="1153pt" height="224pt"
 viewBox="0.00 0.00 1153.23 223.60" xmlns="http://www.w3.org/2000/svg" xmlns:xlink="http://www.w3.org/1999/xlink">
<g id="graph0" class="graph" transform="scale(1 1) rotate(0) translate(4 219.6)">
<title>G</title>
<polygon fill="white" stroke="none" points="-4,4 -4,-219.6 1149.23,-219.6 1149.23,4 -4,4"/>
<!-- java.lang.constant.ClassDesc -->
<g id="node1" class="node">
<title>java.lang.constant.ClassDesc</title>
<g id="a_node1"><a xlink:href="../../../java/lang/constant/ClassDesc.html" xlink:title="java.lang.constant.ClassDesc">
<text text-anchor="middle" x="44.92" y="-104.2" font-family="DejaVuSans" font-size="12.00" fill="#e76f00">ClassDesc</text>
</a>
</g>
</g>
<!-- java.lang.constant.ConstantDesc -->
<g id="node2" class="node">
<title>java.lang.constant.ConstantDesc</title>
<g id="a_node2"><a xlink:href="../../../java/lang/constant/ConstantDesc.html" xlink:title="java.lang.constant.ConstantDesc">
<text text-anchor="middle" x="665.92" y="-190.4" font-family="DejaVuSans" font-size="12.00" fill="#e76f00">ConstantDesc</text>
</a>
</g>
</g>
<!-- java.lang.constant.ClassDesc&#45;&gt;java.lang.constant.ConstantDesc -->
<g id="edge1" class="edge">
<title>java.lang.constant.ClassDesc&#45;&gt;java.lang.constant.ConstantDesc</title>
<path fill="none" stroke="#999999" stroke-width="2" d="M89.7,-124.66C95.77,-126.46 101.96,-128.1 107.92,-129.4 281.85,-167.34 491.51,-183.51 597.47,-189.67"/>
<polygon fill="#999999" stroke="#999999" stroke-width="2" points="607.44,-190.23 597.2,-194.16 604.85,-190.59 597.43,-190.17 597.45,-189.67 597.48,-189.17 604.91,-189.59 597.71,-185.17 607.44,-190.23"/>
</g>
<!-- java.lang.constant.MethodHandleDesc -->
<g id="node3" class="node">
<title>java.lang.constant.MethodHandleDesc</title>
<g id="a_node3"><a xlink:href="../../../java/lang/constant/MethodHandleDesc.html" xlink:title="java.lang.constant.MethodHandleDesc">
<text text-anchor="middle" x="198.92" y="-104.2" font-family="DejaVuSans" font-size="12.00" fill="#e76f00">MethodHandleDesc</text>
</a>
</g>
</g>
<!-- java.lang.constant.MethodHandleDesc&#45;&gt;java.lang.constant.ConstantDesc -->
<g id="edge2" class="edge">
<title>java.lang.constant.MethodHandleDesc&#45;&gt;java.lang.constant.ConstantDesc</title>
<path fill="none" stroke="#999999" stroke-width="2" d="M271.36,-125.58C277.63,-126.91 283.88,-128.21 289.92,-129.4 397.13,-150.58 522.4,-170.89 597.87,-182.64"/>
<polygon fill="#999999" stroke="#999999" stroke-width="2" points="607.6,-184.15 597.02,-187.07 604.99,-184.25 597.64,-183.11 597.71,-182.62 597.79,-182.13 605.14,-183.27 598.4,-178.17 607.6,-184.15"/>
</g>
<!-- java.lang.constant.DirectMethodHandleDesc -->
<g id="node4" class="node">
<title>java.lang.constant.DirectMethodHandleDesc</title>
<g id="a_node4"><a xlink:href="../../../java/lang/constant/DirectMethodHandleDesc.html" xlink:title="java.lang.constant.DirectMethodHandleDesc">
<text text-anchor="middle" x="198.92" y="-18" font-family="DejaVuSans" font-size="12.00" fill="#e76f00">DirectMethodHandleDesc</text>
</a>
</g>
</g>
<!-- java.lang.constant.DirectMethodHandleDesc&#45;&gt;java.lang.constant.MethodHandleDesc -->
<g id="edge3" class="edge">
<title>java.lang.constant.DirectMethodHandleDesc&#45;&gt;java.lang.constant.MethodHandleDesc</title>
<path fill="none" stroke="#999999" stroke-width="2" d="M198.92,-42.98C198.92,-52.32 198.92,-63.63 198.92,-74.12"/>
<polygon fill="#999999" stroke="#999999" stroke-width="2" points="198.92,-83.88 194.42,-73.88 198.42,-81.31 198.42,-73.88 198.92,-73.88 199.42,-73.88 199.42,-81.31 203.42,-73.88 198.92,-83.88"/>
</g>
<!-- java.lang.constant.MethodTypeDesc -->
<g id="node5" class="node">
<title>java.lang.constant.MethodTypeDesc</title>
<g id="a_node5"><a xlink:href="../../../java/lang/constant/MethodTypeDesc.html" xlink:title="java.lang.constant.MethodTypeDesc">
<text text-anchor="middle" x="373.92" y="-104.2" font-family="DejaVuSans" font-size="12.00" fill="#e76f00">MethodTypeDesc</text>
</a>
</g>
</g>
<!-- java.lang.constant.MethodTypeDesc&#45;&gt;java.lang.constant.ConstantDesc -->
<g id="edge4" class="edge">
<title>java.lang.constant.MethodTypeDesc&#45;&gt;java.lang.constant.ConstantDesc</title>
<path fill="none" stroke="#999999" stroke-width="2" d="M440.18,-127.91C487.49,-141.55 550.92,-159.84 598.49,-173.56"/>
<polygon fill="#999999" stroke="#999999" stroke-width="2" points="607.89,-176.27 597.03,-177.82 605.28,-176.04 598.14,-173.97 598.28,-173.49 598.42,-173.01 605.56,-175.07 599.52,-169.17 607.89,-176.27"/>
</g>
<!-- java.lang.Double -->
<g id="node6" class="node">
<title>java.lang.Double</title>
<g id="a_node6"><a xlink:href="../../../java/lang/Double.html" xlink:title="java.lang.Double">
<text text-anchor="middle" x="511.92" y="-104.2" font-family="DejaVuSans" font-size="12.00" fill="#e76f00">Double</text>
</a>
</g>
</g>
<!-- java.lang.Double&#45;&gt;java.lang.constant.ConstantDesc -->
<g id="edge5" class="edge">
<title>java.lang.Double&#45;&gt;java.lang.constant.ConstantDesc</title>
<path fill="none" stroke="#999999" stroke-width="2" d="M547.25,-128.12C568.09,-139.51 594.74,-154.08 617.51,-166.53"/>
<polygon fill="#999999" stroke="#999999" stroke-width="2" points="626.2,-171.28 615.26,-170.43 623.71,-170.49 617.18,-166.92 617.42,-166.48 617.66,-166.04 624.19,-169.61 619.58,-162.54 626.2,-171.28"/>
</g>
<!-- java.lang.constant.DynamicConstantDesc -->
<g id="node7" class="node">
<title>java.lang.constant.DynamicConstantDesc</title>
<g id="a_node7"><a xlink:href="../../../java/lang/constant/DynamicConstantDesc.html" xlink:title="java.lang.constant.DynamicConstantDesc">
<text text-anchor="middle" x="665.92" y="-104.2" font-family="DejaVuSans" font-size="12.00" fill="#e76f00">DynamicConstantDesc</text>
</a>
</g>
</g>
<!-- java.lang.constant.DynamicConstantDesc&#45;&gt;java.lang.constant.ConstantDesc -->
<g id="edge6" class="edge">
<title>java.lang.constant.DynamicConstantDesc&#45;&gt;java.lang.constant.ConstantDesc</title>
<path fill="none" stroke="#999999" stroke-width="2" d="M665.92,-129.18C665.92,-138.52 665.92,-149.83 665.92,-160.32"/>
<polygon fill="#999999" stroke="#999999" stroke-width="2" points="665.92,-170.08 661.42,-160.08 665.42,-167.51 665.42,-160.08 665.92,-160.08 666.42,-160.08 666.42,-167.51 670.42,-160.08 665.92,-170.08"/>
</g>
<!-- open node #0 -->
<g id="node8" class="node">
<title>open node #0</title>
<g id="a_node8"><a xlink:title="Non&#45;sealed Hierarchy">
<text text-anchor="start" x="644.84" y="-19" font-family="DejaVuSans" font-style="italic" font-size="12.00" fill="#e76f00">&lt;any&gt;</text>
</a>
</g>
</g>
<!-- open node #0&#45;&gt;java.lang.constant.DynamicConstantDesc -->
<g id="edge7" class="edge">
<title>open node #0&#45;&gt;java.lang.constant.DynamicConstantDesc</title>
<path fill="none" stroke="#999999" stroke-width="2" stroke-dasharray="5,2" d="M665.92,-42.98C665.92,-52.32 665.92,-63.63 665.92,-74.12"/>
<polygon fill="#999999" stroke="#999999" stroke-width="2" points="665.92,-83.88 661.42,-73.88 665.42,-81.31 665.42,-73.88 665.92,-73.88 666.42,-73.88 666.42,-81.31 670.42,-73.88 665.92,-83.88"/>
</g>
<!-- java.lang.Float -->
<g id="node9" class="node">
<title>java.lang.Float</title>
<g id="a_node9"><a xlink:href="../../../java/lang/Float.html" xlink:title="java.lang.Float">
<text text-anchor="middle" x="813.92" y="-104.2" font-family="DejaVuSans" font-size="12.00" fill="#e76f00">Float</text>
</a>
</g>
</g>
<!-- java.lang.Float&#45;&gt;java.lang.constant.ConstantDesc -->
<g id="edge8" class="edge">
<title>java.lang.Float&#45;&gt;java.lang.constant.ConstantDesc</title>
<path fill="none" stroke="#999999" stroke-width="2" d="M785.03,-125.23C764.46,-136.94 736.37,-152.92 712.63,-166.43"/>
<polygon fill="#999999" stroke="#999999" stroke-width="2" points="704.19,-171.23 710.66,-162.37 706.17,-169.52 712.64,-165.85 712.88,-166.28 713.13,-166.72 706.67,-170.39 715.11,-170.19 704.19,-171.23"/>
</g>
<!-- java.lang.Integer -->
<g id="node10" class="node">
<title>java.lang.Integer</title>
<g id="a_node10"><a xlink:href="../../../java/lang/Integer.html" xlink:title="java.lang.Integer">
<text text-anchor="middle" x="914.92" y="-104.2" font-family="DejaVuSans" font-size="12.00" fill="#e76f00">Integer</text>
</a>
</g>
</g>
<!-- java.lang.Integer&#45;&gt;java.lang.constant.ConstantDesc -->
<g id="edge9" class="edge">
<title>java.lang.Integer&#45;&gt;java.lang.constant.ConstantDesc</title>
<path fill="none" stroke="#999999" stroke-width="2" d="M878.99,-122.79C872.98,-125.05 866.79,-127.33 860.92,-129.4 818.63,-144.35 770.74,-159.99 733.01,-172.02"/>
<polygon fill="#999999" stroke="#999999" stroke-width="2" points="723.96,-174.89 732.13,-167.57 726.26,-173.64 733.34,-171.39 733.49,-171.86 733.65,-172.34 726.56,-174.59 734.86,-176.15 723.96,-174.89"/>
</g>
<!-- java.lang.Long -->
<g id="node11" class="node">
<title>java.lang.Long</title>
<g id="a_node11"><a xlink:href="../../../java/lang/Long.html" xlink:title="java.lang.Long">
<text text-anchor="middle" x="1015.92" y="-104.2" font-family="DejaVuSans" font-size="12.00" fill="#e76f00">Long</text>
</a>
</g>
</g>
<!-- java.lang.Long&#45;&gt;java.lang.constant.ConstantDesc -->
<g id="edge10" class="edge">
<title>java.lang.Long&#45;&gt;java.lang.constant.ConstantDesc</title>
<path fill="none" stroke="#999999" stroke-width="2" d="M986.95,-122.61C981.07,-125.1 974.86,-127.5 968.92,-129.4 889.86,-154.72 795.9,-172.64 733.81,-182.87"/>
<polygon fill="#999999" stroke="#999999" stroke-width="2" points="724.23,-184.42 733.38,-178.38 726.68,-183.52 734.02,-182.33 734.1,-182.82 734.18,-183.32 726.84,-184.51 734.82,-187.27 724.23,-184.42"/>
</g>
<!-- java.lang.String -->
<g id="node12" class="node">
<title>java.lang.String</title>
<g id="a_node12"><a xlink:href="../../../java/lang/String.html" xlink:title="java.lang.String">
<text text-anchor="middle" x="1112.92" y="-104.2" font-family="DejaVuSans" font-size="12.00" fill="#e76f00">String</text>
</a>
</g>
</g>
<!-- java.lang.String&#45;&gt;java.lang.constant.ConstantDesc -->
<g id="edge11" class="edge">
<title>java.lang.String&#45;&gt;java.lang.constant.ConstantDesc</title>
<path fill="none" stroke="#999999" stroke-width="2" d="M1080.76,-123.32C1074.91,-125.6 1068.79,-127.74 1062.92,-129.4 949.89,-161.27 813.95,-178.72 734.04,-186.94"/>
<polygon fill="#999999" stroke="#999999" stroke-width="2" points="724.13,-187.94 733.63,-182.46 726.63,-187.18 734.03,-186.44 734.08,-186.93 734.13,-187.43 726.73,-188.18 734.53,-191.41 724.13,-187.94"/>
</g>
</g>
</svg>
