<?xml version="1.0" encoding="UTF-8" standalone="no"?>
<!DOCTYPE svg PUBLIC "-//W3C//DTD SVG 1.1//EN"
 "http://www.w3.org/Graphics/SVG/1.1/DTD/svg11.dtd">
<!-- Generated by graphviz version 9.0.0 (20230911.1827)
 -->
<!-- Title: G Pages: 1 -->
<svg width="636pt" height="137pt"
 viewBox="0.00 0.00 635.89 137.40" xmlns="http://www.w3.org/2000/svg" xmlns:xlink="http://www.w3.org/1999/xlink">
<g id="graph0" class="graph" transform="scale(1 1) rotate(0) translate(4 133.4)">
<title>G</title>
<polygon fill="white" stroke="none" points="-4,4 -4,-133.4 631.89,-133.4 631.89,4 -4,4"/>
<!-- java.lang.classfile.constantpool.DoubleEntry -->
<g id="node1" class="node">
<title>java.lang.classfile.constantpool.DoubleEntry</title>
<g id="a_node1"><a xlink:href="../../../../java/lang/classfile/constantpool/DoubleEntry.html" xlink:title="java.lang.classfile.constantpool.DoubleEntry">
<text text-anchor="middle" x="51.62" y="-18" font-family="DejaVuSans" font-size="12.00" fill="#e76f00">DoubleEntry</text>
</a>
</g>
</g>
<!-- java.lang.classfile.constantpool.ConstantValueEntry -->
<g id="node2" class="node">
<title>java.lang.classfile.constantpool.ConstantValueEntry</title>
<g id="a_node2"><a xlink:href="../../../../java/lang/classfile/constantpool/ConstantValueEntry.html" xlink:title="java.lang.classfile.constantpool.ConstantValueEntry">
<text text-anchor="middle" x="317.62" y="-104.2" font-family="DejaVuSans" font-size="12.00" fill="#e76f00">ConstantValueEntry</text>
</a>
</g>
</g>
<!-- java.lang.classfile.constantpool.DoubleEntry&#45;&gt;java.lang.classfile.constantpool.ConstantValueEntry -->
<g id="edge1" class="edge">
<title>java.lang.classfile.constantpool.DoubleEntry&#45;&gt;java.lang.classfile.constantpool.ConstantValueEntry</title>
<path fill="none" stroke="#999999" stroke-width="2" d="M103.23,-38.93C142.48,-51.36 197.09,-68.65 241.38,-82.66"/>
<polygon fill="#999999" stroke="#999999" stroke-width="2" points="250.66,-85.6 239.77,-86.87 248.06,-85.31 240.97,-83.06 241.13,-82.58 241.28,-82.11 248.37,-84.35 242.48,-78.29 250.66,-85.6"/>
</g>
<!-- java.lang.classfile.constantpool.FloatEntry -->
<g id="node3" class="node">
<title>java.lang.classfile.constantpool.FloatEntry</title>
<g id="a_node3"><a xlink:href="../../../../java/lang/classfile/constantpool/FloatEntry.html" xlink:title="java.lang.classfile.constantpool.FloatEntry">
<text text-anchor="middle" x="184.62" y="-18" font-family="DejaVuSans" font-size="12.00" fill="#e76f00">FloatEntry</text>
</a>
</g>
</g>
<!-- java.lang.classfile.constantpool.FloatEntry&#45;&gt;java.lang.classfile.constantpool.ConstantValueEntry -->
<g id="edge2" class="edge">
<title>java.lang.classfile.constantpool.FloatEntry&#45;&gt;java.lang.classfile.constantpool.ConstantValueEntry</title>
<path fill="none" stroke="#999999" stroke-width="2" d="M217.16,-43.2C234.6,-54.24 256.3,-67.97 275.06,-79.85"/>
<polygon fill="#999999" stroke="#999999" stroke-width="2" points="283.37,-85.11 272.51,-83.56 280.93,-84.16 274.65,-80.18 274.92,-79.76 275.18,-79.34 281.47,-83.32 277.32,-75.96 283.37,-85.11"/>
</g>
<!-- java.lang.classfile.constantpool.IntegerEntry -->
<g id="node4" class="node">
<title>java.lang.classfile.constantpool.IntegerEntry</title>
<g id="a_node4"><a xlink:href="../../../../java/lang/classfile/constantpool/IntegerEntry.html" xlink:title="java.lang.classfile.constantpool.IntegerEntry">
<text text-anchor="middle" x="317.62" y="-18" font-family="DejaVuSans" font-size="12.00" fill="#e76f00">IntegerEntry</text>
</a>
</g>
</g>
<!-- java.lang.classfile.constantpool.IntegerEntry&#45;&gt;java.lang.classfile.constantpool.ConstantValueEntry -->
<g id="edge3" class="edge">
<title>java.lang.classfile.constantpool.IntegerEntry&#45;&gt;java.lang.classfile.constantpool.ConstantValueEntry</title>
<path fill="none" stroke="#999999" stroke-width="2" d="M317.62,-42.98C317.62,-52.32 317.62,-63.63 317.62,-74.12"/>
<polygon fill="#999999" stroke="#999999" stroke-width="2" points="317.62,-83.88 313.12,-73.88 317.12,-81.31 317.12,-73.88 317.62,-73.88 318.12,-73.88 318.12,-81.31 322.12,-73.88 317.62,-83.88"/>
</g>
<!-- java.lang.classfile.constantpool.LongEntry -->
<g id="node5" class="node">
<title>java.lang.classfile.constantpool.LongEntry</title>
<g id="a_node5"><a xlink:href="../../../../java/lang/classfile/constantpool/LongEntry.html" xlink:title="java.lang.classfile.constantpool.LongEntry">
<text text-anchor="middle" x="450.62" y="-18" font-family="DejaVuSans" font-size="12.00" fill="#e76f00">LongEntry</text>
</a>
</g>
</g>
<!-- java.lang.classfile.constantpool.LongEntry&#45;&gt;java.lang.classfile.constantpool.ConstantValueEntry -->
<g id="edge4" class="edge">
<title>java.lang.classfile.constantpool.LongEntry&#45;&gt;java.lang.classfile.constantpool.ConstantValueEntry</title>
<path fill="none" stroke="#999999" stroke-width="2" d="M418.09,-43.2C400.65,-54.24 378.95,-67.97 360.19,-79.85"/>
<polygon fill="#999999" stroke="#999999" stroke-width="2" points="351.88,-85.11 357.93,-75.96 353.78,-83.32 360.06,-79.34 360.33,-79.76 360.6,-80.18 354.32,-84.16 362.74,-83.56 351.88,-85.11"/>
</g>
<!-- java.lang.classfile.constantpool.StringEntry -->
<g id="node6" class="node">
<title>java.lang.classfile.constantpool.StringEntry</title>
<g id="a_node6"><a xlink:href="../../../../java/lang/classfile/constantpool/StringEntry.html" xlink:title="java.lang.classfile.constantpool.StringEntry">
<text text-anchor="middle" x="579.62" y="-18" font-family="DejaVuSans" font-size="12.00" fill="#e76f00">StringEntry</text>
</a>
</g>
</g>
<!-- java.lang.classfile.constantpool.StringEntry&#45;&gt;java.lang.classfile.constantpool.ConstantValueEntry -->
<g id="edge5" class="edge">
<title>java.lang.classfile.constantpool.StringEntry&#45;&gt;java.lang.classfile.constantpool.ConstantValueEntry</title>
<path fill="none" stroke="#999999" stroke-width="2" d="M531.57,-38.04C492.92,-50.46 437.91,-68.14 393.35,-82.46"/>
<polygon fill="#999999" stroke="#999999" stroke-width="2" points="383.99,-85.47 392.13,-78.13 386.28,-84.21 393.36,-81.94 393.51,-82.41 393.66,-82.89 386.58,-85.16 394.89,-86.7 383.99,-85.47"/>
</g>
</g>
</svg>
