<?xml version="1.0" encoding="UTF-8" standalone="no"?>
<!DOCTYPE svg PUBLIC "-//W3C//DTD SVG 1.1//EN"
 "http://www.w3.org/Graphics/SVG/1.1/DTD/svg11.dtd">
<!-- Generated by graphviz version 9.0.0 (20230911.1827)
 -->
<!-- Title: G Pages: 1 -->
<svg width="298pt" height="137pt"
 viewBox="0.00 0.00 297.91 137.40" xmlns="http://www.w3.org/2000/svg" xmlns:xlink="http://www.w3.org/1999/xlink">
<g id="graph0" class="graph" transform="scale(1 1) rotate(0) translate(4 133.4)">
<title>G</title>
<polygon fill="white" stroke="none" points="-4,4 -4,-133.4 293.91,-133.4 293.91,4 -4,4"/>
<!-- java.lang.classfile.ClassReader -->
<g id="node1" class="node">
<title>java.lang.classfile.ClassReader</title>
<g id="a_node1"><a xlink:href="../../../../java/lang/classfile/ClassReader.html" xlink:title="java.lang.classfile.ClassReader">
<text text-anchor="middle" x="51.69" y="-18" font-family="DejaVuSans" font-size="12.00" fill="#e76f00">ClassReader</text>
</a>
</g>
</g>
<!-- java.lang.classfile.constantpool.ConstantPool -->
<g id="node2" class="node">
<title>java.lang.classfile.constantpool.ConstantPool</title>
<g id="a_node2"><a xlink:href="../../../../java/lang/classfile/constantpool/ConstantPool.html" xlink:title="java.lang.classfile.constantpool.ConstantPool">
<text text-anchor="middle" x="132.69" y="-104.2" font-family="DejaVuSans" font-size="12.00" fill="#e76f00">ConstantPool</text>
</a>
</g>
</g>
<!-- java.lang.classfile.ClassReader&#45;&gt;java.lang.classfile.constantpool.ConstantPool -->
<g id="edge1" class="edge">
<title>java.lang.classfile.ClassReader&#45;&gt;java.lang.classfile.constantpool.ConstantPool</title>
<path fill="none" stroke="#999999" stroke-width="2" d="M71.3,-42.98C81.27,-53.35 93.58,-66.14 104.54,-77.54"/>
<polygon fill="#999999" stroke="#999999" stroke-width="2" points="111.29,-84.56 101.12,-80.47 109.15,-83.06 104,-77.7 104.36,-77.35 104.72,-77 109.87,-82.36 107.6,-74.23 111.29,-84.56"/>
</g>
<!-- java.lang.classfile.constantpool.ConstantPoolBuilder -->
<g id="node3" class="node">
<title>java.lang.classfile.constantpool.ConstantPoolBuilder</title>
<g id="a_node3"><a xlink:href="../../../../java/lang/classfile/constantpool/ConstantPoolBuilder.html" xlink:title="java.lang.classfile.constantpool.ConstantPoolBuilder">
<text text-anchor="middle" x="214.69" y="-18" font-family="DejaVuSans" font-size="12.00" fill="#e76f00">ConstantPoolBuilder</text>
</a>
</g>
</g>
<!-- java.lang.classfile.constantpool.ConstantPoolBuilder&#45;&gt;java.lang.classfile.constantpool.ConstantPool -->
<g id="edge2" class="edge">
<title>java.lang.classfile.constantpool.ConstantPoolBuilder&#45;&gt;java.lang.classfile.constantpool.ConstantPool</title>
<path fill="none" stroke="#999999" stroke-width="2" d="M194.84,-42.98C184.74,-53.35 172.29,-66.14 161.18,-77.54"/>
<polygon fill="#999999" stroke="#999999" stroke-width="2" points="154.34,-84.57 158.09,-74.26 155.77,-82.38 160.96,-77.05 161.32,-77.4 161.68,-77.75 156.49,-83.08 164.54,-80.54 154.34,-84.57"/>
</g>
</g>
</svg>
