<?xml version="1.0" encoding="UTF-8" standalone="no"?>
<!DOCTYPE svg PUBLIC "-//W3C//DTD SVG 1.1//EN"
 "http://www.w3.org/Graphics/SVG/1.1/DTD/svg11.dtd">
<!-- Generated by graphviz version 9.0.0 (20230911.1827)
 -->
<!-- Title: G Pages: 1 -->
<svg width="844pt" height="224pt"
 viewBox="0.00 0.00 843.73 223.60" xmlns="http://www.w3.org/2000/svg" xmlns:xlink="http://www.w3.org/1999/xlink">
<g id="graph0" class="graph" transform="scale(1 1) rotate(0) translate(4 219.6)">
<title>G</title>
<polygon fill="white" stroke="none" points="-4,4 -4,-219.6 839.73,-219.6 839.73,4 -4,4"/>
<!-- java.lang.classfile.constantpool.ClassEntry -->
<g id="node1" class="node">
<title>java.lang.classfile.constantpool.ClassEntry</title>
<g id="a_node1"><a xlink:href="../../../../java/lang/classfile/constantpool/ClassEntry.html" xlink:title="java.lang.classfile.constantpool.ClassEntry">
<text text-anchor="middle" x="46.15" y="-104.2" font-family="DejaVuSans" font-size="12.00" fill="#e76f00">ClassEntry</text>
</a>
</g>
</g>
<!-- java.lang.classfile.constantpool.LoadableConstantEntry -->
<g id="node2" class="node">
<title>java.lang.classfile.constantpool.LoadableConstantEntry</title>
<g id="a_node2"><a xlink:href="../../../../java/lang/classfile/constantpool/LoadableConstantEntry.html" xlink:title="java.lang.classfile.constantpool.LoadableConstantEntry">
<text text-anchor="middle" x="406.15" y="-190.4" font-family="DejaVuSans" font-size="12.00" fill="#e76f00">LoadableConstantEntry</text>
</a>
</g>
</g>
<!-- java.lang.classfile.constantpool.ClassEntry&#45;&gt;java.lang.classfile.constantpool.LoadableConstantEntry -->
<g id="edge1" class="edge">
<title>java.lang.classfile.constantpool.ClassEntry&#45;&gt;java.lang.classfile.constantpool.LoadableConstantEntry</title>
<path fill="none" stroke="#999999" stroke-width="2" d="M92.13,-124.21C98.16,-126.05 104.29,-127.83 110.15,-129.4 176.16,-147.07 251.46,-163.19 309.59,-174.79"/>
<polygon fill="#999999" stroke="#999999" stroke-width="2" points="319.34,-176.72 308.65,-179.19 316.72,-176.71 309.43,-175.26 309.53,-174.77 309.62,-174.28 316.92,-175.73 310.4,-170.36 319.34,-176.72"/>
</g>
<!-- java.lang.classfile.constantpool.ConstantDynamicEntry -->
<g id="node3" class="node">
<title>java.lang.classfile.constantpool.ConstantDynamicEntry</title>
<g id="a_node3"><a xlink:href="../../../../java/lang/classfile/constantpool/ConstantDynamicEntry.html" xlink:title="java.lang.classfile.constantpool.ConstantDynamicEntry">
<text text-anchor="middle" x="212.15" y="-104.2" font-family="DejaVuSans" font-size="12.00" fill="#e76f00">ConstantDynamicEntry</text>
</a>
</g>
</g>
<!-- java.lang.classfile.constantpool.ConstantDynamicEntry&#45;&gt;java.lang.classfile.constantpool.LoadableConstantEntry -->
<g id="edge2" class="edge">
<title>java.lang.classfile.constantpool.ConstantDynamicEntry&#45;&gt;java.lang.classfile.constantpool.LoadableConstantEntry</title>
<path fill="none" stroke="#999999" stroke-width="2" d="M259.61,-129.4C286.13,-140.91 319.4,-155.35 347.54,-167.56"/>
<polygon fill="#999999" stroke="#999999" stroke-width="2" points="356.61,-171.5 345.65,-171.65 354.06,-170.94 347.24,-167.98 347.44,-167.52 347.64,-167.06 354.46,-170.02 349.23,-163.39 356.61,-171.5"/>
</g>
<!-- java.lang.classfile.constantpool.ConstantValueEntry -->
<g id="node4" class="node">
<title>java.lang.classfile.constantpool.ConstantValueEntry</title>
<g id="a_node4"><a xlink:href="../../../../java/lang/classfile/constantpool/ConstantValueEntry.html" xlink:title="java.lang.classfile.constantpool.ConstantValueEntry">
<text text-anchor="middle" x="406.15" y="-104.2" font-family="DejaVuSans" font-size="12.00" fill="#e76f00">ConstantValueEntry</text>
</a>
</g>
</g>
<!-- java.lang.classfile.constantpool.ConstantValueEntry&#45;&gt;java.lang.classfile.constantpool.LoadableConstantEntry -->
<g id="edge3" class="edge">
<title>java.lang.classfile.constantpool.ConstantValueEntry&#45;&gt;java.lang.classfile.constantpool.LoadableConstantEntry</title>
<path fill="none" stroke="#999999" stroke-width="2" d="M406.15,-129.18C406.15,-138.52 406.15,-149.83 406.15,-160.32"/>
<polygon fill="#999999" stroke="#999999" stroke-width="2" points="406.15,-170.08 401.65,-160.08 405.65,-167.51 405.65,-160.08 406.15,-160.08 406.65,-160.08 406.65,-167.51 410.65,-160.08 406.15,-170.08"/>
</g>
<!-- java.lang.classfile.constantpool.DoubleEntry -->
<g id="node5" class="node">
<title>java.lang.classfile.constantpool.DoubleEntry</title>
<g id="a_node5"><a xlink:href="../../../../java/lang/classfile/constantpool/DoubleEntry.html" xlink:title="java.lang.classfile.constantpool.DoubleEntry">
<text text-anchor="middle" x="140.15" y="-18" font-family="DejaVuSans" font-size="12.00" fill="#e76f00">DoubleEntry</text>
</a>
</g>
</g>
<!-- java.lang.classfile.constantpool.DoubleEntry&#45;&gt;java.lang.classfile.constantpool.ConstantValueEntry -->
<g id="edge4" class="edge">
<title>java.lang.classfile.constantpool.DoubleEntry&#45;&gt;java.lang.classfile.constantpool.ConstantValueEntry</title>
<path fill="none" stroke="#999999" stroke-width="2" d="M191.75,-38.93C231,-51.36 285.62,-68.65 329.9,-82.66"/>
<polygon fill="#999999" stroke="#999999" stroke-width="2" points="339.18,-85.6 328.29,-86.87 336.59,-85.31 329.5,-83.06 329.65,-82.58 329.8,-82.11 336.89,-84.35 331.01,-78.29 339.18,-85.6"/>
</g>
<!-- java.lang.classfile.constantpool.FloatEntry -->
<g id="node6" class="node">
<title>java.lang.classfile.constantpool.FloatEntry</title>
<g id="a_node6"><a xlink:href="../../../../java/lang/classfile/constantpool/FloatEntry.html" xlink:title="java.lang.classfile.constantpool.FloatEntry">
<text text-anchor="middle" x="273.15" y="-18" font-family="DejaVuSans" font-size="12.00" fill="#e76f00">FloatEntry</text>
</a>
</g>
</g>
<!-- java.lang.classfile.constantpool.FloatEntry&#45;&gt;java.lang.classfile.constantpool.ConstantValueEntry -->
<g id="edge5" class="edge">
<title>java.lang.classfile.constantpool.FloatEntry&#45;&gt;java.lang.classfile.constantpool.ConstantValueEntry</title>
<path fill="none" stroke="#999999" stroke-width="2" d="M305.68,-43.2C323.12,-54.24 344.82,-67.97 363.58,-79.85"/>
<polygon fill="#999999" stroke="#999999" stroke-width="2" points="371.89,-85.11 361.03,-83.56 369.46,-84.16 363.17,-80.18 363.44,-79.76 363.71,-79.34 369.99,-83.32 365.85,-75.96 371.89,-85.11"/>
</g>
<!-- java.lang.classfile.constantpool.IntegerEntry -->
<g id="node7" class="node">
<title>java.lang.classfile.constantpool.IntegerEntry</title>
<g id="a_node7"><a xlink:href="../../../../java/lang/classfile/constantpool/IntegerEntry.html" xlink:title="java.lang.classfile.constantpool.IntegerEntry">
<text text-anchor="middle" x="406.15" y="-18" font-family="DejaVuSans" font-size="12.00" fill="#e76f00">IntegerEntry</text>
</a>
</g>
</g>
<!-- java.lang.classfile.constantpool.IntegerEntry&#45;&gt;java.lang.classfile.constantpool.ConstantValueEntry -->
<g id="edge6" class="edge">
<title>java.lang.classfile.constantpool.IntegerEntry&#45;&gt;java.lang.classfile.constantpool.ConstantValueEntry</title>
<path fill="none" stroke="#999999" stroke-width="2" d="M406.15,-42.98C406.15,-52.32 406.15,-63.63 406.15,-74.12"/>
<polygon fill="#999999" stroke="#999999" stroke-width="2" points="406.15,-83.88 401.65,-73.88 405.65,-81.31 405.65,-73.88 406.15,-73.88 406.65,-73.88 406.65,-81.31 410.65,-73.88 406.15,-83.88"/>
</g>
<!-- java.lang.classfile.constantpool.LongEntry -->
<g id="node8" class="node">
<title>java.lang.classfile.constantpool.LongEntry</title>
<g id="a_node8"><a xlink:href="../../../../java/lang/classfile/constantpool/LongEntry.html" xlink:title="java.lang.classfile.constantpool.LongEntry">
<text text-anchor="middle" x="539.15" y="-18" font-family="DejaVuSans" font-size="12.00" fill="#e76f00">LongEntry</text>
</a>
</g>
</g>
<!-- java.lang.classfile.constantpool.LongEntry&#45;&gt;java.lang.classfile.constantpool.ConstantValueEntry -->
<g id="edge7" class="edge">
<title>java.lang.classfile.constantpool.LongEntry&#45;&gt;java.lang.classfile.constantpool.ConstantValueEntry</title>
<path fill="none" stroke="#999999" stroke-width="2" d="M506.61,-43.2C489.18,-54.24 467.48,-67.97 448.71,-79.85"/>
<polygon fill="#999999" stroke="#999999" stroke-width="2" points="440.41,-85.11 446.45,-75.96 442.31,-83.32 448.59,-79.34 448.86,-79.76 449.12,-80.18 442.84,-84.16 451.26,-83.56 440.41,-85.11"/>
</g>
<!-- java.lang.classfile.constantpool.StringEntry -->
<g id="node9" class="node">
<title>java.lang.classfile.constantpool.StringEntry</title>
<g id="a_node9"><a xlink:href="../../../../java/lang/classfile/constantpool/StringEntry.html" xlink:title="java.lang.classfile.constantpool.StringEntry">
<text text-anchor="middle" x="668.15" y="-18" font-family="DejaVuSans" font-size="12.00" fill="#e76f00">StringEntry</text>
</a>
</g>
</g>
<!-- java.lang.classfile.constantpool.StringEntry&#45;&gt;java.lang.classfile.constantpool.ConstantValueEntry -->
<g id="edge8" class="edge">
<title>java.lang.classfile.constantpool.StringEntry&#45;&gt;java.lang.classfile.constantpool.ConstantValueEntry</title>
<path fill="none" stroke="#999999" stroke-width="2" d="M620.09,-38.04C581.45,-50.46 526.43,-68.14 481.87,-82.46"/>
<polygon fill="#999999" stroke="#999999" stroke-width="2" points="472.51,-85.47 480.66,-78.13 474.8,-84.21 481.88,-81.94 482.03,-82.41 482.19,-82.89 475.11,-85.16 483.41,-86.7 472.51,-85.47"/>
</g>
<!-- java.lang.classfile.constantpool.MethodHandleEntry -->
<g id="node10" class="node">
<title>java.lang.classfile.constantpool.MethodHandleEntry</title>
<g id="a_node10"><a xlink:href="../../../../java/lang/classfile/constantpool/MethodHandleEntry.html" xlink:title="java.lang.classfile.constantpool.MethodHandleEntry">
<text text-anchor="middle" x="590.15" y="-104.2" font-family="DejaVuSans" font-size="12.00" fill="#e76f00">MethodHandleEntry</text>
</a>
</g>
</g>
<!-- java.lang.classfile.constantpool.MethodHandleEntry&#45;&gt;java.lang.classfile.constantpool.LoadableConstantEntry -->
<g id="edge9" class="edge">
<title>java.lang.classfile.constantpool.MethodHandleEntry&#45;&gt;java.lang.classfile.constantpool.LoadableConstantEntry</title>
<path fill="none" stroke="#999999" stroke-width="2" d="M545.14,-129.4C520.1,-140.86 488.7,-155.22 462.09,-167.4"/>
<polygon fill="#999999" stroke="#999999" stroke-width="2" points="453.23,-171.46 460.45,-163.2 455.35,-169.93 462.12,-166.84 462.32,-167.29 462.53,-167.75 455.77,-170.84 464.2,-171.39 453.23,-171.46"/>
</g>
<!-- java.lang.classfile.constantpool.MethodTypeEntry -->
<g id="node11" class="node">
<title>java.lang.classfile.constantpool.MethodTypeEntry</title>
<g id="a_node11"><a xlink:href="../../../../java/lang/classfile/constantpool/MethodTypeEntry.html" xlink:title="java.lang.classfile.constantpool.MethodTypeEntry">
<text text-anchor="middle" x="768.15" y="-104.2" font-family="DejaVuSans" font-size="12.00" fill="#e76f00">MethodTypeEntry</text>
</a>
</g>
</g>
<!-- java.lang.classfile.constantpool.MethodTypeEntry&#45;&gt;java.lang.classfile.constantpool.LoadableConstantEntry -->
<g id="edge10" class="edge">
<title>java.lang.classfile.constantpool.MethodTypeEntry&#45;&gt;java.lang.classfile.constantpool.LoadableConstantEntry</title>
<path fill="none" stroke="#999999" stroke-width="2" d="M701.03,-124.94C694.65,-126.45 688.28,-127.96 682.15,-129.4 622.64,-143.38 555.84,-158.78 502.87,-170.93"/>
<polygon fill="#999999" stroke="#999999" stroke-width="2" points="493.12,-173.16 501.87,-166.54 495.51,-172.1 502.76,-170.44 502.87,-170.93 502.98,-171.41 495.73,-173.07 503.88,-175.31 493.12,-173.16"/>
</g>
</g>
</svg>
