<?xml version="1.0" encoding="UTF-8" standalone="no"?>
<!DOCTYPE svg PUBLIC "-//W3C//DTD SVG 1.1//EN"
 "http://www.w3.org/Graphics/SVG/1.1/DTD/svg11.dtd">
<!-- Generated by graphviz version 9.0.0 (20230911.1827)
 -->
<!-- Title: G Pages: 1 -->
<svg width="1841pt" height="310pt"
 viewBox="0.00 0.00 1840.79 309.80" xmlns="http://www.w3.org/2000/svg" xmlns:xlink="http://www.w3.org/1999/xlink">
<g id="graph0" class="graph" transform="scale(1 1) rotate(0) translate(4 305.8)">
<title>G</title>
<polygon fill="white" stroke="none" points="-4,4 -4,-305.8 1836.79,-305.8 1836.79,4 -4,4"/>
<!-- java.lang.classfile.constantpool.AnnotationConstantValueEntry -->
<g id="node1" class="node">
<title>java.lang.classfile.constantpool.AnnotationConstantValueEntry</title>
<g id="a_node1"><a xlink:href="../../../../java/lang/classfile/constantpool/AnnotationConstantValueEntry.html" xlink:title="java.lang.classfile.constantpool.AnnotationConstantValueEntry">
<text text-anchor="middle" x="107.18" y="-104.2" font-family="DejaVuSans" font-size="12.00" fill="#e76f00">AnnotationConstantValueEntry</text>
</a>
</g>
</g>
<!-- java.lang.classfile.constantpool.PoolEntry -->
<g id="node2" class="node">
<title>java.lang.classfile.constantpool.PoolEntry</title>
<g id="a_node2"><a xlink:href="../../../../java/lang/classfile/constantpool/PoolEntry.html" xlink:title="java.lang.classfile.constantpool.PoolEntry">
<text text-anchor="middle" x="1295.18" y="-276.6" font-family="DejaVuSans" font-size="12.00" fill="#e76f00">PoolEntry</text>
</a>
</g>
</g>
<!-- java.lang.classfile.constantpool.AnnotationConstantValueEntry&#45;&gt;java.lang.classfile.constantpool.PoolEntry -->
<g id="edge1" class="edge">
<title>java.lang.classfile.constantpool.AnnotationConstantValueEntry&#45;&gt;java.lang.classfile.constantpool.PoolEntry</title>
<path fill="none" stroke="#999999" stroke-width="2" d="M153.05,-129.32C211.47,-154.43 316.13,-196.01 410.18,-215.6 570.1,-248.9 1072.46,-270.68 1240.1,-277.17"/>
<polygon fill="#999999" stroke="#999999" stroke-width="2" points="1249.85,-277.54 1239.68,-281.65 1247.27,-277.94 1239.84,-277.66 1239.85,-277.16 1239.87,-276.66 1247.31,-276.94 1240.03,-272.66 1249.85,-277.54"/>
</g>
<!-- java.lang.classfile.constantpool.DoubleEntry -->
<g id="node3" class="node">
<title>java.lang.classfile.constantpool.DoubleEntry</title>
<g id="a_node3"><a xlink:href="../../../../java/lang/classfile/constantpool/DoubleEntry.html" xlink:title="java.lang.classfile.constantpool.DoubleEntry">
<text text-anchor="middle" x="266.18" y="-18" font-family="DejaVuSans" font-size="12.00" fill="#e76f00">DoubleEntry</text>
</a>
</g>
</g>
<!-- java.lang.classfile.constantpool.DoubleEntry&#45;&gt;java.lang.classfile.constantpool.AnnotationConstantValueEntry -->
<g id="edge2" class="edge">
<title>java.lang.classfile.constantpool.DoubleEntry&#45;&gt;java.lang.classfile.constantpool.AnnotationConstantValueEntry</title>
<path fill="none" stroke="#999999" stroke-width="2" d="M227.29,-43.2C206.03,-54.45 179.49,-68.51 156.76,-80.54"/>
<polygon fill="#999999" stroke="#999999" stroke-width="2" points="148.11,-85.13 154.84,-76.47 150.14,-83.49 156.71,-80.01 156.94,-80.45 157.18,-80.89 150.61,-84.37 159.05,-84.43 148.11,-85.13"/>
</g>
<!-- java.lang.classfile.constantpool.ConstantValueEntry -->
<g id="node13" class="node">
<title>java.lang.classfile.constantpool.ConstantValueEntry</title>
<g id="a_node13"><a xlink:href="../../../../java/lang/classfile/constantpool/ConstantValueEntry.html" xlink:title="java.lang.classfile.constantpool.ConstantValueEntry">
<text text-anchor="middle" x="1202.18" y="-104.2" font-family="DejaVuSans" font-size="12.00" fill="#e76f00">ConstantValueEntry</text>
</a>
</g>
</g>
<!-- java.lang.classfile.constantpool.DoubleEntry&#45;&gt;java.lang.classfile.constantpool.ConstantValueEntry -->
<g id="edge14" class="edge">
<title>java.lang.classfile.constantpool.DoubleEntry&#45;&gt;java.lang.classfile.constantpool.ConstantValueEntry</title>
<path fill="none" stroke="#999999" stroke-width="2" d="M317.76,-26.28C495.07,-38.95 1070.87,-80.35 1110.18,-86.2 1112.1,-86.48 1114.03,-86.79 1115.97,-87.1"/>
<polygon fill="#999999" stroke="#999999" stroke-width="2" points="1125.64,-88.81 1115.01,-91.5 1123.03,-88.85 1115.71,-87.57 1115.79,-87.07 1115.88,-86.58 1123.2,-87.87 1116.57,-82.64 1125.64,-88.81"/>
</g>
<!-- java.lang.classfile.constantpool.FloatEntry -->
<g id="node4" class="node">
<title>java.lang.classfile.constantpool.FloatEntry</title>
<g id="a_node4"><a xlink:href="../../../../java/lang/classfile/constantpool/FloatEntry.html" xlink:title="java.lang.classfile.constantpool.FloatEntry">
<text text-anchor="middle" x="617.18" y="-18" font-family="DejaVuSans" font-size="12.00" fill="#e76f00">FloatEntry</text>
</a>
</g>
</g>
<!-- java.lang.classfile.constantpool.FloatEntry&#45;&gt;java.lang.classfile.constantpool.AnnotationConstantValueEntry -->
<g id="edge3" class="edge">
<title>java.lang.classfile.constantpool.FloatEntry&#45;&gt;java.lang.classfile.constantpool.AnnotationConstantValueEntry</title>
<path fill="none" stroke="#999999" stroke-width="2" d="M572.37,-30C495.76,-42.65 337.19,-68.83 226.59,-87.09"/>
<polygon fill="#999999" stroke="#999999" stroke-width="2" points="216.77,-88.71 225.9,-82.64 219.22,-87.8 226.55,-86.59 226.63,-87.08 226.72,-87.57 219.38,-88.78 227.37,-91.52 216.77,-88.71"/>
</g>
<!-- java.lang.classfile.constantpool.FloatEntry&#45;&gt;java.lang.classfile.constantpool.ConstantValueEntry -->
<g id="edge15" class="edge">
<title>java.lang.classfile.constantpool.FloatEntry&#45;&gt;java.lang.classfile.constantpool.ConstantValueEntry</title>
<path fill="none" stroke="#999999" stroke-width="2" d="M662.07,-28.15C775.28,-42.18 1066.52,-78.51 1110.18,-86.2 1112.09,-86.54 1114.01,-86.88 1115.95,-87.24"/>
<polygon fill="#999999" stroke="#999999" stroke-width="2" points="1125.59,-89.11 1114.92,-91.63 1122.98,-89.11 1115.68,-87.7 1115.78,-87.21 1115.87,-86.72 1123.17,-88.13 1116.63,-82.79 1125.59,-89.11"/>
</g>
<!-- java.lang.classfile.constantpool.IntegerEntry -->
<g id="node5" class="node">
<title>java.lang.classfile.constantpool.IntegerEntry</title>
<g id="a_node5"><a xlink:href="../../../../java/lang/classfile/constantpool/IntegerEntry.html" xlink:title="java.lang.classfile.constantpool.IntegerEntry">
<text text-anchor="middle" x="859.18" y="-18" font-family="DejaVuSans" font-size="12.00" fill="#e76f00">IntegerEntry</text>
</a>
</g>
</g>
<!-- java.lang.classfile.constantpool.IntegerEntry&#45;&gt;java.lang.classfile.constantpool.AnnotationConstantValueEntry -->
<g id="edge4" class="edge">
<title>java.lang.classfile.constantpool.IntegerEntry&#45;&gt;java.lang.classfile.constantpool.AnnotationConstantValueEntry</title>
<path fill="none" stroke="#999999" stroke-width="2" d="M807.51,-28.81C771.77,-33.04 723.11,-38.67 680.18,-43.2 481.26,-64.19 430.53,-60.37 232.18,-86.2 230.25,-86.45 228.3,-86.71 226.34,-86.98"/>
<polygon fill="#999999" stroke="#999999" stroke-width="2" points="216.58,-88.34 225.86,-82.5 219.05,-87.49 226.42,-86.46 226.49,-86.96 226.56,-87.45 219.19,-88.48 227.11,-91.41 216.58,-88.34"/>
</g>
<!-- java.lang.classfile.constantpool.IntegerEntry&#45;&gt;java.lang.classfile.constantpool.ConstantValueEntry -->
<g id="edge16" class="edge">
<title>java.lang.classfile.constantpool.IntegerEntry&#45;&gt;java.lang.classfile.constantpool.ConstantValueEntry</title>
<path fill="none" stroke="#999999" stroke-width="2" d="M910.91,-35.3C965.26,-48.64 1051.67,-69.85 1116.28,-85.71"/>
<polygon fill="#999999" stroke="#999999" stroke-width="2" points="1125.71,-88.03 1114.93,-90.01 1123.1,-87.9 1115.88,-86.13 1116,-85.64 1116.12,-85.16 1123.34,-86.93 1117.07,-81.27 1125.71,-88.03"/>
</g>
<!-- java.lang.classfile.constantpool.LongEntry -->
<g id="node6" class="node">
<title>java.lang.classfile.constantpool.LongEntry</title>
<g id="a_node6"><a xlink:href="../../../../java/lang/classfile/constantpool/LongEntry.html" xlink:title="java.lang.classfile.constantpool.LongEntry">
<text text-anchor="middle" x="1046.18" y="-18" font-family="DejaVuSans" font-size="12.00" fill="#e76f00">LongEntry</text>
</a>
</g>
</g>
<!-- java.lang.classfile.constantpool.LongEntry&#45;&gt;java.lang.classfile.constantpool.AnnotationConstantValueEntry -->
<g id="edge5" class="edge">
<title>java.lang.classfile.constantpool.LongEntry&#45;&gt;java.lang.classfile.constantpool.AnnotationConstantValueEntry</title>
<path fill="none" stroke="#999999" stroke-width="2" d="M1001.36,-31.71C979.64,-35.81 953.15,-40.36 929.18,-43.2 620.97,-79.72 540.59,-51.37 232.18,-86.2 230.25,-86.42 228.3,-86.65 226.33,-86.88"/>
<polygon fill="#999999" stroke="#999999" stroke-width="2" points="216.56,-88.13 225.91,-82.4 219.04,-87.31 226.41,-86.37 226.48,-86.87 226.54,-87.36 219.16,-88.3 227.05,-91.33 216.56,-88.13"/>
</g>
<!-- java.lang.classfile.constantpool.LongEntry&#45;&gt;java.lang.classfile.constantpool.ConstantValueEntry -->
<g id="edge17" class="edge">
<title>java.lang.classfile.constantpool.LongEntry&#45;&gt;java.lang.classfile.constantpool.ConstantValueEntry</title>
<path fill="none" stroke="#999999" stroke-width="2" d="M1084.35,-43.2C1105.1,-54.4 1131.01,-68.38 1153.24,-80.38"/>
<polygon fill="#999999" stroke="#999999" stroke-width="2" points="1162,-85.11 1151.06,-84.32 1159.51,-84.33 1152.96,-80.8 1153.2,-80.36 1153.44,-79.92 1159.98,-83.45 1155.34,-76.4 1162,-85.11"/>
</g>
<!-- java.lang.classfile.constantpool.Utf8Entry -->
<g id="node7" class="node">
<title>java.lang.classfile.constantpool.Utf8Entry</title>
<g id="a_node7"><a xlink:href="../../../../java/lang/classfile/constantpool/Utf8Entry.html" xlink:title="java.lang.classfile.constantpool.Utf8Entry">
<text text-anchor="middle" x="107.18" y="-18" font-family="DejaVuSans" font-size="12.00" fill="#e76f00">Utf8Entry</text>
</a>
</g>
</g>
<!-- java.lang.classfile.constantpool.Utf8Entry&#45;&gt;java.lang.classfile.constantpool.AnnotationConstantValueEntry -->
<g id="edge6" class="edge">
<title>java.lang.classfile.constantpool.Utf8Entry&#45;&gt;java.lang.classfile.constantpool.AnnotationConstantValueEntry</title>
<path fill="none" stroke="#999999" stroke-width="2" d="M107.18,-42.98C107.18,-52.32 107.18,-63.63 107.18,-74.12"/>
<polygon fill="#999999" stroke="#999999" stroke-width="2" points="107.18,-83.88 102.68,-73.88 106.68,-81.31 106.68,-73.88 107.18,-73.88 107.68,-73.88 107.68,-81.31 111.68,-73.88 107.18,-83.88"/>
</g>
<!-- java.lang.classfile.constantpool.DynamicConstantPoolEntry -->
<g id="node8" class="node">
<title>java.lang.classfile.constantpool.DynamicConstantPoolEntry</title>
<g id="a_node8"><a xlink:href="../../../../java/lang/classfile/constantpool/DynamicConstantPoolEntry.html" xlink:title="java.lang.classfile.constantpool.DynamicConstantPoolEntry">
<text text-anchor="middle" x="524.18" y="-190.4" font-family="DejaVuSans" font-size="12.00" fill="#e76f00">DynamicConstantPoolEntry</text>
</a>
</g>
</g>
<!-- java.lang.classfile.constantpool.DynamicConstantPoolEntry&#45;&gt;java.lang.classfile.constantpool.PoolEntry -->
<g id="edge7" class="edge">
<title>java.lang.classfile.constantpool.DynamicConstantPoolEntry&#45;&gt;java.lang.classfile.constantpool.PoolEntry</title>
<path fill="none" stroke="#999999" stroke-width="2" d="M620.27,-205.49C783.57,-223.33 1110.14,-258.99 1240.04,-273.18"/>
<polygon fill="#999999" stroke="#999999" stroke-width="2" points="1249.93,-274.26 1239.5,-277.65 1247.33,-274.48 1239.93,-273.67 1239.99,-273.17 1240.04,-272.68 1247.44,-273.48 1240.48,-268.7 1249.93,-274.26"/>
</g>
<!-- java.lang.classfile.constantpool.ConstantDynamicEntry -->
<g id="node9" class="node">
<title>java.lang.classfile.constantpool.ConstantDynamicEntry</title>
<g id="a_node9"><a xlink:href="../../../../java/lang/classfile/constantpool/ConstantDynamicEntry.html" xlink:title="java.lang.classfile.constantpool.ConstantDynamicEntry">
<text text-anchor="middle" x="524.18" y="-104.2" font-family="DejaVuSans" font-size="12.00" fill="#e76f00">ConstantDynamicEntry</text>
</a>
</g>
</g>
<!-- java.lang.classfile.constantpool.ConstantDynamicEntry&#45;&gt;java.lang.classfile.constantpool.DynamicConstantPoolEntry -->
<g id="edge8" class="edge">
<title>java.lang.classfile.constantpool.ConstantDynamicEntry&#45;&gt;java.lang.classfile.constantpool.DynamicConstantPoolEntry</title>
<path fill="none" stroke="#999999" stroke-width="2" d="M524.18,-129.18C524.18,-138.52 524.18,-149.83 524.18,-160.32"/>
<polygon fill="#999999" stroke="#999999" stroke-width="2" points="524.18,-170.08 519.68,-160.08 523.68,-167.51 523.68,-160.08 524.18,-160.08 524.68,-160.08 524.68,-167.51 528.68,-160.08 524.18,-170.08"/>
</g>
<!-- java.lang.classfile.constantpool.LoadableConstantEntry -->
<g id="node11" class="node">
<title>java.lang.classfile.constantpool.LoadableConstantEntry</title>
<g id="a_node11"><a xlink:href="../../../../java/lang/classfile/constantpool/LoadableConstantEntry.html" xlink:title="java.lang.classfile.constantpool.LoadableConstantEntry">
<text text-anchor="middle" x="967.18" y="-190.4" font-family="DejaVuSans" font-size="12.00" fill="#e76f00">LoadableConstantEntry</text>
</a>
</g>
</g>
<!-- java.lang.classfile.constantpool.ConstantDynamicEntry&#45;&gt;java.lang.classfile.constantpool.LoadableConstantEntry -->
<g id="edge12" class="edge">
<title>java.lang.classfile.constantpool.ConstantDynamicEntry&#45;&gt;java.lang.classfile.constantpool.LoadableConstantEntry</title>
<path fill="none" stroke="#999999" stroke-width="2" d="M607.94,-125.82C614.11,-127.04 620.24,-128.25 626.18,-129.4 708.58,-145.4 802.34,-162.83 870.66,-175.39"/>
<polygon fill="#999999" stroke="#999999" stroke-width="2" points="880.29,-177.16 869.64,-179.78 877.68,-177.19 870.36,-175.85 870.45,-175.35 870.54,-174.86 877.86,-176.21 871.27,-170.93 880.29,-177.16"/>
</g>
<!-- java.lang.classfile.constantpool.InvokeDynamicEntry -->
<g id="node10" class="node">
<title>java.lang.classfile.constantpool.InvokeDynamicEntry</title>
<g id="a_node10"><a xlink:href="../../../../java/lang/classfile/constantpool/InvokeDynamicEntry.html" xlink:title="java.lang.classfile.constantpool.InvokeDynamicEntry">
<text text-anchor="middle" x="327.18" y="-104.2" font-family="DejaVuSans" font-size="12.00" fill="#e76f00">InvokeDynamicEntry</text>
</a>
</g>
</g>
<!-- java.lang.classfile.constantpool.InvokeDynamicEntry&#45;&gt;java.lang.classfile.constantpool.DynamicConstantPoolEntry -->
<g id="edge9" class="edge">
<title>java.lang.classfile.constantpool.InvokeDynamicEntry&#45;&gt;java.lang.classfile.constantpool.DynamicConstantPoolEntry</title>
<path fill="none" stroke="#999999" stroke-width="2" d="M375.37,-129.4C402.43,-140.96 436.4,-155.48 465.05,-167.72"/>
<polygon fill="#999999" stroke="#999999" stroke-width="2" points="473.91,-171.51 462.94,-171.72 471.35,-170.96 464.52,-168.04 464.71,-167.58 464.91,-167.12 471.75,-170.04 466.48,-163.44 473.91,-171.51"/>
</g>
<!-- java.lang.classfile.constantpool.LoadableConstantEntry&#45;&gt;java.lang.classfile.constantpool.PoolEntry -->
<g id="edge10" class="edge">
<title>java.lang.classfile.constantpool.LoadableConstantEntry&#45;&gt;java.lang.classfile.constantpool.PoolEntry</title>
<path fill="none" stroke="#999999" stroke-width="2" d="M1047.42,-215.6C1107.42,-231 1187.87,-251.65 1240.58,-265.18"/>
<polygon fill="#999999" stroke="#999999" stroke-width="2" points="1250.01,-267.6 1239.21,-269.48 1247.41,-267.45 1240.2,-265.6 1240.33,-265.12 1240.45,-264.63 1247.66,-266.48 1241.45,-260.76 1250.01,-267.6"/>
</g>
<!-- java.lang.classfile.constantpool.ClassEntry -->
<g id="node12" class="node">
<title>java.lang.classfile.constantpool.ClassEntry</title>
<g id="a_node12"><a xlink:href="../../../../java/lang/classfile/constantpool/ClassEntry.html" xlink:title="java.lang.classfile.constantpool.ClassEntry">
<text text-anchor="middle" x="1046.18" y="-104.2" font-family="DejaVuSans" font-size="12.00" fill="#e76f00">ClassEntry</text>
</a>
</g>
</g>
<!-- java.lang.classfile.constantpool.ClassEntry&#45;&gt;java.lang.classfile.constantpool.LoadableConstantEntry -->
<g id="edge11" class="edge">
<title>java.lang.classfile.constantpool.ClassEntry&#45;&gt;java.lang.classfile.constantpool.LoadableConstantEntry</title>
<path fill="none" stroke="#999999" stroke-width="2" d="M1027.06,-129.18C1017.33,-139.55 1005.33,-152.34 994.63,-163.74"/>
<polygon fill="#999999" stroke="#999999" stroke-width="2" points="988.07,-170.74 991.63,-160.36 989.46,-168.52 994.55,-163.1 994.91,-163.44 995.28,-163.79 990.19,-169.21 998.2,-166.52 988.07,-170.74"/>
</g>
<!-- java.lang.classfile.constantpool.ConstantValueEntry&#45;&gt;java.lang.classfile.constantpool.LoadableConstantEntry -->
<g id="edge13" class="edge">
<title>java.lang.classfile.constantpool.ConstantValueEntry&#45;&gt;java.lang.classfile.constantpool.LoadableConstantEntry</title>
<path fill="none" stroke="#999999" stroke-width="2" d="M1144.7,-129.4C1111.86,-141.16 1070.47,-155.99 1035.92,-168.37"/>
<polygon fill="#999999" stroke="#999999" stroke-width="2" points="1026.78,-171.65 1034.67,-164.04 1029.02,-170.31 1036.02,-167.8 1036.19,-168.27 1036.36,-168.74 1029.36,-171.25 1037.71,-172.51 1026.78,-171.65"/>
</g>
<!-- java.lang.classfile.constantpool.StringEntry -->
<g id="node14" class="node">
<title>java.lang.classfile.constantpool.StringEntry</title>
<g id="a_node14"><a xlink:href="../../../../java/lang/classfile/constantpool/StringEntry.html" xlink:title="java.lang.classfile.constantpool.StringEntry">
<text text-anchor="middle" x="1202.18" y="-18" font-family="DejaVuSans" font-size="12.00" fill="#e76f00">StringEntry</text>
</a>
</g>
</g>
<!-- java.lang.classfile.constantpool.StringEntry&#45;&gt;java.lang.classfile.constantpool.ConstantValueEntry -->
<g id="edge18" class="edge">
<title>java.lang.classfile.constantpool.StringEntry&#45;&gt;java.lang.classfile.constantpool.ConstantValueEntry</title>
<path fill="none" stroke="#999999" stroke-width="2" d="M1202.18,-42.98C1202.18,-52.32 1202.18,-63.63 1202.18,-74.12"/>
<polygon fill="#999999" stroke="#999999" stroke-width="2" points="1202.18,-83.88 1197.68,-73.88 1201.68,-81.31 1201.68,-73.88 1202.18,-73.88 1202.68,-73.88 1202.68,-81.31 1206.68,-73.88 1202.18,-83.88"/>
</g>
<!-- java.lang.classfile.constantpool.MethodHandleEntry -->
<g id="node15" class="node">
<title>java.lang.classfile.constantpool.MethodHandleEntry</title>
<g id="a_node15"><a xlink:href="../../../../java/lang/classfile/constantpool/MethodHandleEntry.html" xlink:title="java.lang.classfile.constantpool.MethodHandleEntry">
<text text-anchor="middle" x="718.18" y="-104.2" font-family="DejaVuSans" font-size="12.00" fill="#e76f00">MethodHandleEntry</text>
</a>
</g>
</g>
<!-- java.lang.classfile.constantpool.MethodHandleEntry&#45;&gt;java.lang.classfile.constantpool.LoadableConstantEntry -->
<g id="edge19" class="edge">
<title>java.lang.classfile.constantpool.MethodHandleEntry&#45;&gt;java.lang.classfile.constantpool.LoadableConstantEntry</title>
<path fill="none" stroke="#999999" stroke-width="2" d="M779.1,-129.4C814.04,-141.22 858.13,-156.12 894.83,-168.53"/>
<polygon fill="#999999" stroke="#999999" stroke-width="2" points="904.16,-171.69 893.25,-172.75 901.57,-171.34 894.53,-168.96 894.69,-168.49 894.85,-168.01 901.89,-170.39 896.13,-164.22 904.16,-171.69"/>
</g>
<!-- java.lang.classfile.constantpool.MethodTypeEntry -->
<g id="node16" class="node">
<title>java.lang.classfile.constantpool.MethodTypeEntry</title>
<g id="a_node16"><a xlink:href="../../../../java/lang/classfile/constantpool/MethodTypeEntry.html" xlink:title="java.lang.classfile.constantpool.MethodTypeEntry">
<text text-anchor="middle" x="896.18" y="-104.2" font-family="DejaVuSans" font-size="12.00" fill="#e76f00">MethodTypeEntry</text>
</a>
</g>
</g>
<!-- java.lang.classfile.constantpool.MethodTypeEntry&#45;&gt;java.lang.classfile.constantpool.LoadableConstantEntry -->
<g id="edge20" class="edge">
<title>java.lang.classfile.constantpool.MethodTypeEntry&#45;&gt;java.lang.classfile.constantpool.LoadableConstantEntry</title>
<path fill="none" stroke="#999999" stroke-width="2" d="M913.37,-129.18C921.94,-139.35 932.47,-151.84 941.94,-163.06"/>
<polygon fill="#999999" stroke="#999999" stroke-width="2" points="948.34,-170.65 938.45,-165.91 946.3,-169.01 941.51,-163.33 941.89,-163.01 942.27,-162.68 947.07,-168.37 945.33,-160.1 948.34,-170.65"/>
</g>
<!-- java.lang.classfile.constantpool.MemberRefEntry -->
<g id="node17" class="node">
<title>java.lang.classfile.constantpool.MemberRefEntry</title>
<g id="a_node17"><a xlink:href="../../../../java/lang/classfile/constantpool/MemberRefEntry.html" xlink:title="java.lang.classfile.constantpool.MemberRefEntry">
<text text-anchor="middle" x="1295.18" y="-190.4" font-family="DejaVuSans" font-size="12.00" fill="#e76f00">MemberRefEntry</text>
</a>
</g>
</g>
<!-- java.lang.classfile.constantpool.MemberRefEntry&#45;&gt;java.lang.classfile.constantpool.PoolEntry -->
<g id="edge21" class="edge">
<title>java.lang.classfile.constantpool.MemberRefEntry&#45;&gt;java.lang.classfile.constantpool.PoolEntry</title>
<path fill="none" stroke="#999999" stroke-width="2" d="M1295.18,-215.38C1295.18,-224.72 1295.18,-236.03 1295.18,-246.52"/>
<polygon fill="#999999" stroke="#999999" stroke-width="2" points="1295.18,-256.28 1290.68,-246.28 1294.68,-253.71 1294.68,-246.28 1295.18,-246.28 1295.68,-246.28 1295.68,-253.71 1299.68,-246.28 1295.18,-256.28"/>
</g>
<!-- java.lang.classfile.constantpool.FieldRefEntry -->
<g id="node18" class="node">
<title>java.lang.classfile.constantpool.FieldRefEntry</title>
<g id="a_node18"><a xlink:href="../../../../java/lang/classfile/constantpool/FieldRefEntry.html" xlink:title="java.lang.classfile.constantpool.FieldRefEntry">
<text text-anchor="middle" x="1367.18" y="-104.2" font-family="DejaVuSans" font-size="12.00" fill="#e76f00">FieldRefEntry</text>
</a>
</g>
</g>
<!-- java.lang.classfile.constantpool.FieldRefEntry&#45;&gt;java.lang.classfile.constantpool.MemberRefEntry -->
<g id="edge22" class="edge">
<title>java.lang.classfile.constantpool.FieldRefEntry&#45;&gt;java.lang.classfile.constantpool.MemberRefEntry</title>
<path fill="none" stroke="#999999" stroke-width="2" d="M1349.75,-129.18C1341.06,-139.35 1330.38,-151.84 1320.78,-163.06"/>
<polygon fill="#999999" stroke="#999999" stroke-width="2" points="1314.29,-170.66 1317.36,-160.14 1315.57,-168.39 1320.4,-162.74 1320.78,-163.06 1321.16,-163.39 1316.33,-169.04 1324.2,-165.99 1314.29,-170.66"/>
</g>
<!-- java.lang.classfile.constantpool.InterfaceMethodRefEntry -->
<g id="node19" class="node">
<title>java.lang.classfile.constantpool.InterfaceMethodRefEntry</title>
<g id="a_node19"><a xlink:href="../../../../java/lang/classfile/constantpool/InterfaceMethodRefEntry.html" xlink:title="java.lang.classfile.constantpool.InterfaceMethodRefEntry">
<text text-anchor="middle" x="1547.18" y="-104.2" font-family="DejaVuSans" font-size="12.00" fill="#e76f00">InterfaceMethodRefEntry</text>
</a>
</g>
</g>
<!-- java.lang.classfile.constantpool.InterfaceMethodRefEntry&#45;&gt;java.lang.classfile.constantpool.MemberRefEntry -->
<g id="edge23" class="edge">
<title>java.lang.classfile.constantpool.InterfaceMethodRefEntry&#45;&gt;java.lang.classfile.constantpool.MemberRefEntry</title>
<path fill="none" stroke="#999999" stroke-width="2" d="M1485.54,-129.4C1450.17,-141.22 1405.55,-156.12 1368.41,-168.53"/>
<polygon fill="#999999" stroke="#999999" stroke-width="2" points="1358.94,-171.7 1367,-164.26 1361.21,-170.41 1368.27,-168.05 1368.42,-168.53 1368.58,-169 1361.53,-171.36 1369.85,-172.8 1358.94,-171.7"/>
</g>
<!-- java.lang.classfile.constantpool.MethodRefEntry -->
<g id="node20" class="node">
<title>java.lang.classfile.constantpool.MethodRefEntry</title>
<g id="a_node20"><a xlink:href="../../../../java/lang/classfile/constantpool/MethodRefEntry.html" xlink:title="java.lang.classfile.constantpool.MethodRefEntry">
<text text-anchor="middle" x="1736.18" y="-104.2" font-family="DejaVuSans" font-size="12.00" fill="#e76f00">MethodRefEntry</text>
</a>
</g>
</g>
<!-- java.lang.classfile.constantpool.MethodRefEntry&#45;&gt;java.lang.classfile.constantpool.MemberRefEntry -->
<g id="edge24" class="edge">
<title>java.lang.classfile.constantpool.MethodRefEntry&#45;&gt;java.lang.classfile.constantpool.MemberRefEntry</title>
<path fill="none" stroke="#999999" stroke-width="2" d="M1673.53,-125.36C1667.35,-126.81 1661.15,-128.18 1655.18,-129.4 1533.12,-154.34 1500.32,-147.81 1378.18,-172.4 1376.13,-172.81 1374.05,-173.24 1371.96,-173.69"/>
<polygon fill="#999999" stroke="#999999" stroke-width="2" points="1362.23,-175.83 1371.03,-169.28 1364.63,-174.79 1371.89,-173.19 1372,-173.68 1372.1,-174.17 1364.84,-175.77 1372.97,-178.07 1362.23,-175.83"/>
</g>
<!-- java.lang.classfile.constantpool.ModuleEntry -->
<g id="node21" class="node">
<title>java.lang.classfile.constantpool.ModuleEntry</title>
<g id="a_node21"><a xlink:href="../../../../java/lang/classfile/constantpool/ModuleEntry.html" xlink:title="java.lang.classfile.constantpool.ModuleEntry">
<text text-anchor="middle" x="1448.18" y="-190.4" font-family="DejaVuSans" font-size="12.00" fill="#e76f00">ModuleEntry</text>
</a>
</g>
</g>
<!-- java.lang.classfile.constantpool.ModuleEntry&#45;&gt;java.lang.classfile.constantpool.PoolEntry -->
<g id="edge25" class="edge">
<title>java.lang.classfile.constantpool.ModuleEntry&#45;&gt;java.lang.classfile.constantpool.PoolEntry</title>
<path fill="none" stroke="#999999" stroke-width="2" d="M1410.76,-215.6C1390.4,-226.8 1364.99,-240.78 1343.19,-252.78"/>
<polygon fill="#999999" stroke="#999999" stroke-width="2" points="1334.62,-257.49 1341.22,-248.73 1336.63,-255.82 1343.14,-252.23 1343.39,-252.67 1343.63,-253.11 1337.11,-256.7 1345.56,-256.62 1334.62,-257.49"/>
</g>
<!-- java.lang.classfile.constantpool.NameAndTypeEntry -->
<g id="node22" class="node">
<title>java.lang.classfile.constantpool.NameAndTypeEntry</title>
<g id="a_node22"><a xlink:href="../../../../java/lang/classfile/constantpool/NameAndTypeEntry.html" xlink:title="java.lang.classfile.constantpool.NameAndTypeEntry">
<text text-anchor="middle" x="1611.18" y="-190.4" font-family="DejaVuSans" font-size="12.00" fill="#e76f00">NameAndTypeEntry</text>
</a>
</g>
</g>
<!-- java.lang.classfile.constantpool.NameAndTypeEntry&#45;&gt;java.lang.classfile.constantpool.PoolEntry -->
<g id="edge26" class="edge">
<title>java.lang.classfile.constantpool.NameAndTypeEntry&#45;&gt;java.lang.classfile.constantpool.PoolEntry</title>
<path fill="none" stroke="#999999" stroke-width="2" d="M1536.7,-214.85C1479.43,-230.11 1401.62,-250.84 1349.98,-264.6"/>
<polygon fill="#999999" stroke="#999999" stroke-width="2" points="1340.44,-267.14 1348.94,-260.22 1342.79,-266 1349.97,-264.08 1350.1,-264.57 1350.23,-265.05 1343.04,-266.96 1351.26,-268.92 1340.44,-267.14"/>
</g>
<!-- java.lang.classfile.constantpool.PackageEntry -->
<g id="node23" class="node">
<title>java.lang.classfile.constantpool.PackageEntry</title>
<g id="a_node23"><a xlink:href="../../../../java/lang/classfile/constantpool/PackageEntry.html" xlink:title="java.lang.classfile.constantpool.PackageEntry">
<text text-anchor="middle" x="1777.18" y="-190.4" font-family="DejaVuSans" font-size="12.00" fill="#e76f00">PackageEntry</text>
</a>
</g>
</g>
<!-- java.lang.classfile.constantpool.PackageEntry&#45;&gt;java.lang.classfile.constantpool.PoolEntry -->
<g id="edge27" class="edge">
<title>java.lang.classfile.constantpool.PackageEntry&#45;&gt;java.lang.classfile.constantpool.PoolEntry</title>
<path fill="none" stroke="#999999" stroke-width="2" d="M1721.6,-211.22C1715.41,-212.81 1709.18,-214.3 1703.18,-215.6 1577.98,-242.69 1428.78,-262.95 1350.08,-272.71"/>
<polygon fill="#999999" stroke="#999999" stroke-width="2" points="1340.49,-273.89 1349.87,-268.21 1342.97,-273.08 1350.35,-272.18 1350.41,-272.67 1350.48,-273.17 1343.09,-274.08 1350.96,-277.14 1340.49,-273.89"/>
</g>
</g>
</svg>
