<?xml version="1.0" encoding="UTF-8" standalone="no"?>
<!DOCTYPE svg PUBLIC "-//W3C//DTD SVG 1.1//EN"
 "http://www.w3.org/Graphics/SVG/1.1/DTD/svg11.dtd">
<!-- Generated by graphviz version 9.0.0 (20230911.1827)
 -->
<!-- Title: G Pages: 1 -->
<svg width="218pt" height="137pt"
 viewBox="0.00 0.00 217.50 137.40" xmlns="http://www.w3.org/2000/svg" xmlns:xlink="http://www.w3.org/1999/xlink">
<g id="graph0" class="graph" transform="scale(1 1) rotate(0) translate(4 133.4)">
<title>G</title>
<polygon fill="white" stroke="none" points="-4,4 -4,-133.4 213.5,-133.4 213.5,4 -4,4"/>
<!-- java.lang.reflect.Constructor -->
<g id="node1" class="node">
<title>java.lang.reflect.Constructor</title>
<g id="a_node1"><a xlink:href="../../../java/lang/reflect/Constructor.html" xlink:title="java.lang.reflect.Constructor">
<text text-anchor="middle" x="49.6" y="-18" font-family="DejaVuSans" font-size="12.00" fill="#e76f00">Constructor</text>
</a>
</g>
</g>
<!-- java.lang.reflect.Executable -->
<g id="node2" class="node">
<title>java.lang.reflect.Executable</title>
<g id="a_node2"><a xlink:href="../../../java/lang/reflect/Executable.html" xlink:title="java.lang.reflect.Executable">
<text text-anchor="middle" x="110.6" y="-104.2" font-family="DejaVuSans" font-size="12.00" fill="#e76f00">Executable</text>
</a>
</g>
</g>
<!-- java.lang.reflect.Constructor&#45;&gt;java.lang.reflect.Executable -->
<g id="edge1" class="edge">
<title>java.lang.reflect.Constructor&#45;&gt;java.lang.reflect.Executable</title>
<path fill="none" stroke="#999999" stroke-width="2" d="M64.37,-42.98C71.66,-53.04 80.6,-65.38 88.66,-76.52"/>
<polygon fill="#999999" stroke="#999999" stroke-width="2" points="94.33,-84.34 84.82,-78.88 92.42,-82.56 88.06,-76.54 88.46,-76.24 88.87,-75.95 93.23,-81.97 92.11,-73.6 94.33,-84.34"/>
</g>
<!-- java.lang.reflect.Method -->
<g id="node3" class="node">
<title>java.lang.reflect.Method</title>
<g id="a_node3"><a xlink:href="../../../java/lang/reflect/Method.html" xlink:title="java.lang.reflect.Method">
<text text-anchor="middle" x="172.6" y="-18" font-family="DejaVuSans" font-size="12.00" fill="#e76f00">Method</text>
</a>
</g>
</g>
<!-- java.lang.reflect.Method&#45;&gt;java.lang.reflect.Executable -->
<g id="edge2" class="edge">
<title>java.lang.reflect.Method&#45;&gt;java.lang.reflect.Executable</title>
<path fill="none" stroke="#999999" stroke-width="2" d="M157.59,-42.98C150.18,-53.04 141.1,-65.38 132.9,-76.52"/>
<polygon fill="#999999" stroke="#999999" stroke-width="2" points="127.13,-84.35 129.44,-73.63 128.25,-81.99 132.66,-76 133.06,-76.3 133.46,-76.6 129.05,-82.58 136.68,-78.97 127.13,-84.35"/>
</g>
</g>
</svg>
