<?xml version="1.0" encoding="UTF-8" standalone="no"?>
<!DOCTYPE svg PUBLIC "-//W3C//DTD SVG 1.1//EN"
 "http://www.w3.org/Graphics/SVG/1.1/DTD/svg11.dtd">
<!-- Generated by graphviz version 9.0.0 (20230911.1827)
 -->
<!-- Title: G Pages: 1 -->
<svg width="395pt" height="137pt"
 viewBox="0.00 0.00 395.31 137.40" xmlns="http://www.w3.org/2000/svg" xmlns:xlink="http://www.w3.org/1999/xlink">
<g id="graph0" class="graph" transform="scale(1 1) rotate(0) translate(4 133.4)">
<title>G</title>
<polygon fill="white" stroke="none" points="-4,4 -4,-133.4 391.31,-133.4 391.31,4 -4,4"/>
<!-- java.lang.classfile.Signature.ArrayTypeSig -->
<g id="node1" class="node">
<title>java.lang.classfile.Signature.ArrayTypeSig</title>
<g id="a_node1"><a xlink:href="../../../java/lang/classfile/Signature.ArrayTypeSig.html" xlink:title="java.lang.classfile.Signature.ArrayTypeSig">
<text text-anchor="middle" x="54.67" y="-18" font-family="DejaVuSans" font-size="12.00" fill="#e76f00">ArrayTypeSig</text>
</a>
</g>
</g>
<!-- java.lang.classfile.Signature.RefTypeSig -->
<g id="node2" class="node">
<title>java.lang.classfile.Signature.RefTypeSig</title>
<g id="a_node2"><a xlink:href="../../../java/lang/classfile/Signature.RefTypeSig.html" xlink:title="java.lang.classfile.Signature.RefTypeSig">
<text text-anchor="middle" x="199.67" y="-104.2" font-family="DejaVuSans" font-size="12.00" fill="#e76f00">RefTypeSig</text>
</a>
</g>
</g>
<!-- java.lang.classfile.Signature.ArrayTypeSig&#45;&gt;java.lang.classfile.Signature.RefTypeSig -->
<g id="edge1" class="edge">
<title>java.lang.classfile.Signature.ArrayTypeSig&#45;&gt;java.lang.classfile.Signature.RefTypeSig</title>
<path fill="none" stroke="#999999" stroke-width="2" d="M90.14,-43.2C109.25,-54.3 133.07,-68.13 153.6,-80.05"/>
<polygon fill="#999999" stroke="#999999" stroke-width="2" points="162.2,-85.05 151.3,-83.92 159.73,-84.19 153.3,-80.46 153.55,-80.02 153.81,-79.59 160.24,-83.33 155.81,-76.13 162.2,-85.05"/>
</g>
<!-- java.lang.classfile.Signature.ClassTypeSig -->
<g id="node3" class="node">
<title>java.lang.classfile.Signature.ClassTypeSig</title>
<g id="a_node3"><a xlink:href="../../../java/lang/classfile/Signature.ClassTypeSig.html" xlink:title="java.lang.classfile.Signature.ClassTypeSig">
<text text-anchor="middle" x="199.67" y="-18" font-family="DejaVuSans" font-size="12.00" fill="#e76f00">ClassTypeSig</text>
</a>
</g>
</g>
<!-- java.lang.classfile.Signature.ClassTypeSig&#45;&gt;java.lang.classfile.Signature.RefTypeSig -->
<g id="edge2" class="edge">
<title>java.lang.classfile.Signature.ClassTypeSig&#45;&gt;java.lang.classfile.Signature.RefTypeSig</title>
<path fill="none" stroke="#999999" stroke-width="2" d="M199.67,-42.98C199.67,-52.32 199.67,-63.63 199.67,-74.12"/>
<polygon fill="#999999" stroke="#999999" stroke-width="2" points="199.67,-83.88 195.17,-73.88 199.17,-81.31 199.17,-73.88 199.67,-73.88 200.17,-73.88 200.17,-81.31 204.17,-73.88 199.67,-83.88"/>
</g>
<!-- java.lang.classfile.Signature.TypeVarSig -->
<g id="node4" class="node">
<title>java.lang.classfile.Signature.TypeVarSig</title>
<g id="a_node4"><a xlink:href="../../../java/lang/classfile/Signature.TypeVarSig.html" xlink:title="java.lang.classfile.Signature.TypeVarSig">
<text text-anchor="middle" x="338.67" y="-18" font-family="DejaVuSans" font-size="12.00" fill="#e76f00">TypeVarSig</text>
</a>
</g>
</g>
<!-- java.lang.classfile.Signature.TypeVarSig&#45;&gt;java.lang.classfile.Signature.RefTypeSig -->
<g id="edge3" class="edge">
<title>java.lang.classfile.Signature.TypeVarSig&#45;&gt;java.lang.classfile.Signature.RefTypeSig</title>
<path fill="none" stroke="#999999" stroke-width="2" d="M304.66,-43.2C286.35,-54.29 263.55,-68.1 243.88,-80.02"/>
<polygon fill="#999999" stroke="#999999" stroke-width="2" points="235.4,-85.15 241.62,-76.12 237.34,-83.4 243.7,-79.54 243.96,-79.97 244.21,-80.4 237.85,-84.25 246.29,-83.82 235.4,-85.15"/>
</g>
</g>
</svg>
