<?xml version="1.0" encoding="UTF-8" standalone="no"?>
<!DOCTYPE svg PUBLIC "-//W3C//DTD SVG 1.1//EN"
 "http://www.w3.org/Graphics/SVG/1.1/DTD/svg11.dtd">
<!-- Generated by graphviz version 9.0.0 (20230911.1827)
 -->
<!-- Title: G Pages: 1 -->
<svg width="250pt" height="137pt"
 viewBox="0.00 0.00 249.83 137.40" xmlns="http://www.w3.org/2000/svg" xmlns:xlink="http://www.w3.org/1999/xlink">
<g id="graph0" class="graph" transform="scale(1 1) rotate(0) translate(4 133.4)">
<title>G</title>
<polygon fill="white" stroke="none" points="-4,4 -4,-133.4 245.83,-133.4 245.83,4 -4,4"/>
<!-- java.lang.classfile.Signature.ClassTypeSig -->
<g id="node1" class="node">
<title>java.lang.classfile.Signature.ClassTypeSig</title>
<g id="a_node1"><a xlink:href="../../../java/lang/classfile/Signature.ClassTypeSig.html" xlink:title="java.lang.classfile.Signature.ClassTypeSig">
<text text-anchor="middle" x="54.19" y="-18" font-family="DejaVuSans" font-size="12.00" fill="#e76f00">ClassTypeSig</text>
</a>
</g>
</g>
<!-- java.lang.classfile.Signature.ThrowableSig -->
<g id="node2" class="node">
<title>java.lang.classfile.Signature.ThrowableSig</title>
<g id="a_node2"><a xlink:href="../../../java/lang/classfile/Signature.ThrowableSig.html" xlink:title="java.lang.classfile.Signature.ThrowableSig">
<text text-anchor="middle" x="123.19" y="-104.2" font-family="DejaVuSans" font-size="12.00" fill="#e76f00">ThrowableSig</text>
</a>
</g>
</g>
<!-- java.lang.classfile.Signature.ClassTypeSig&#45;&gt;java.lang.classfile.Signature.ThrowableSig -->
<g id="edge1" class="edge">
<title>java.lang.classfile.Signature.ClassTypeSig&#45;&gt;java.lang.classfile.Signature.ThrowableSig</title>
<path fill="none" stroke="#999999" stroke-width="2" d="M70.89,-42.98C79.22,-53.15 89.45,-65.64 98.65,-76.86"/>
<polygon fill="#999999" stroke="#999999" stroke-width="2" points="104.85,-84.43 95.03,-79.55 102.84,-82.76 98.13,-77.01 98.51,-76.69 98.9,-76.38 103.61,-82.13 101.99,-73.84 104.85,-84.43"/>
</g>
<!-- java.lang.classfile.Signature.TypeVarSig -->
<g id="node3" class="node">
<title>java.lang.classfile.Signature.TypeVarSig</title>
<g id="a_node3"><a xlink:href="../../../java/lang/classfile/Signature.TypeVarSig.html" xlink:title="java.lang.classfile.Signature.TypeVarSig">
<text text-anchor="middle" x="193.19" y="-18" font-family="DejaVuSans" font-size="12.00" fill="#e76f00">TypeVarSig</text>
</a>
</g>
</g>
<!-- java.lang.classfile.Signature.TypeVarSig&#45;&gt;java.lang.classfile.Signature.ThrowableSig -->
<g id="edge2" class="edge">
<title>java.lang.classfile.Signature.TypeVarSig&#45;&gt;java.lang.classfile.Signature.ThrowableSig</title>
<path fill="none" stroke="#999999" stroke-width="2" d="M176.24,-42.98C167.79,-53.15 157.41,-65.64 148.07,-76.86"/>
<polygon fill="#999999" stroke="#999999" stroke-width="2" points="141.77,-84.44 144.71,-73.87 143.03,-82.15 147.78,-76.43 148.17,-76.75 148.55,-77.07 143.8,-82.79 151.63,-79.63 141.77,-84.44"/>
</g>
</g>
</svg>
