<?xml version="1.0" encoding="UTF-8" standalone="no"?>
<!DOCTYPE svg PUBLIC "-//W3C//DTD SVG 1.1//EN"
 "http://www.w3.org/Graphics/SVG/1.1/DTD/svg11.dtd">
<!-- Generated by graphviz version 9.0.0 (20230911.1827)
 -->
<!-- Title: G Pages: 1 -->
<svg width="224pt" height="137pt"
 viewBox="0.00 0.00 224.09 137.40" xmlns="http://www.w3.org/2000/svg" xmlns:xlink="http://www.w3.org/1999/xlink">
<g id="graph0" class="graph" transform="scale(1 1) rotate(0) translate(4 133.4)">
<title>G</title>
<polygon fill="white" stroke="none" points="-4,4 -4,-133.4 220.09,-133.4 220.09,4 -4,4"/>
<!-- java.lang.classfile.Signature.TypeArg.Unbounded -->
<g id="node1" class="node">
<title>java.lang.classfile.Signature.TypeArg.Unbounded</title>
<g id="a_node1"><a xlink:href="../../../java/lang/classfile/Signature.TypeArg.Unbounded.html" xlink:title="java.lang.classfile.Signature.TypeArg.Unbounded">
<text text-anchor="middle" x="48.99" y="-18" font-family="DejaVuSans" font-size="12.00" fill="#e76f00">Unbounded</text>
</a>
</g>
</g>
<!-- java.lang.classfile.Signature.TypeArg -->
<g id="node2" class="node">
<title>java.lang.classfile.Signature.TypeArg</title>
<g id="a_node2"><a xlink:href="../../../java/lang/classfile/Signature.TypeArg.html" xlink:title="java.lang.classfile.Signature.TypeArg">
<text text-anchor="middle" x="111.99" y="-104.2" font-family="DejaVuSans" font-size="12.00" fill="#e76f00">TypeArg</text>
</a>
</g>
</g>
<!-- java.lang.classfile.Signature.TypeArg.Unbounded&#45;&gt;java.lang.classfile.Signature.TypeArg -->
<g id="edge1" class="edge">
<title>java.lang.classfile.Signature.TypeArg.Unbounded&#45;&gt;java.lang.classfile.Signature.TypeArg</title>
<path fill="none" stroke="#999999" stroke-width="2" d="M64.24,-42.98C71.77,-53.04 81,-65.38 89.33,-76.52"/>
<polygon fill="#999999" stroke="#999999" stroke-width="2" points="95.2,-84.36 85.61,-79.05 93.26,-82.61 88.81,-76.65 89.21,-76.36 89.61,-76.06 94.06,-82.01 92.81,-73.66 95.2,-84.36"/>
</g>
<!-- java.lang.classfile.Signature.TypeArg.Bounded -->
<g id="node3" class="node">
<title>java.lang.classfile.Signature.TypeArg.Bounded</title>
<g id="a_node3"><a xlink:href="../../../java/lang/classfile/Signature.TypeArg.Bounded.html" xlink:title="java.lang.classfile.Signature.TypeArg.Bounded">
<text text-anchor="middle" x="174.99" y="-18" font-family="DejaVuSans" font-size="12.00" fill="#e76f00">Bounded</text>
</a>
</g>
</g>
<!-- java.lang.classfile.Signature.TypeArg.Bounded&#45;&gt;java.lang.classfile.Signature.TypeArg -->
<g id="edge2" class="edge">
<title>java.lang.classfile.Signature.TypeArg.Bounded&#45;&gt;java.lang.classfile.Signature.TypeArg</title>
<path fill="none" stroke="#999999" stroke-width="2" d="M159.74,-42.98C152.21,-53.04 142.98,-65.38 134.64,-76.52"/>
<polygon fill="#999999" stroke="#999999" stroke-width="2" points="128.78,-84.36 131.16,-73.66 129.91,-82.01 134.37,-76.06 134.77,-76.36 135.17,-76.65 130.71,-82.61 138.37,-79.05 128.78,-84.36"/>
</g>
</g>
</svg>
