<?xml version="1.0" encoding="UTF-8" standalone="no"?>
<!DOCTYPE svg PUBLIC "-//W3C//DTD SVG 1.1//EN"
 "http://www.w3.org/Graphics/SVG/1.1/DTD/svg11.dtd">
<!-- Generated by graphviz version 9.0.0 (20230911.1827)
 -->
<!-- Title: java.management.rmi Pages: 1 -->
<svg width="260pt" height="224pt"
 viewBox="0.00 0.00 259.93 223.60" xmlns="http://www.w3.org/2000/svg" xmlns:xlink="http://www.w3.org/1999/xlink">
<g id="graph0" class="graph" transform="scale(1 1) rotate(0) translate(4 219.6)">
<title>java.management.rmi</title>
<polygon fill="white" stroke="none" points="-4,4 -4,-219.6 255.93,-219.6 255.93,4 -4,4"/>
<!-- java.management -->
<g id="node1" class="node">
<title>java.management</title>
<text text-anchor="middle" x="69.07" y="-104.2" font-family="DejaVuSans" font-size="12.00" fill="#e76f00">java.management</text>
</g>
<!-- java.base -->
<g id="node2" class="node">
<title>java.base</title>
<text text-anchor="middle" x="141.07" y="-18" font-family="DejaVuSans" font-size="12.00" fill="#e76f00">java.base</text>
</g>
<!-- java.management&#45;&gt;java.base -->
<g id="edge1" class="edge">
<title>java.management&#45;&gt;java.base</title>
<path fill="none" stroke="#dddddd" stroke-width="2" d="M86.5,-86.42C95.19,-76.25 105.87,-63.76 115.47,-52.54"/>
<polygon fill="#dddddd" stroke="#dddddd" stroke-width="2" points="121.97,-44.94 118.89,-55.46 120.68,-47.21 115.85,-52.86 115.47,-52.54 115.09,-52.21 119.92,-46.56 112.05,-49.61 121.97,-44.94"/>
</g>
<!-- java.management.rmi -->
<g id="node3" class="node">
<title>java.management.rmi</title>
<text text-anchor="middle" x="141.07" y="-190.4" font-family="DejaVuSans" font-size="12.00" fill="#e76f00">java.management.rmi</text>
</g>
<!-- java.management.rmi&#45;&gt;java.management -->
<g id="edge2" class="edge">
<title>java.management.rmi&#45;&gt;java.management</title>
<path fill="none" stroke="#999999" stroke-width="2" d="M123.64,-172.62C114.95,-162.45 104.27,-149.96 94.67,-138.74"/>
<polygon fill="#999999" stroke="#999999" stroke-width="2" points="88.17,-131.14 98.09,-135.81 90.22,-132.76 95.05,-138.41 94.67,-138.74 94.29,-139.06 89.46,-133.41 91.25,-141.66 88.17,-131.14"/>
</g>
<!-- java.rmi -->
<g id="node4" class="node">
<title>java.rmi</title>
<text text-anchor="middle" x="213.07" y="-104.2" font-family="DejaVuSans" font-size="12.00" fill="#e76f00">java.rmi</text>
</g>
<!-- java.management.rmi&#45;&gt;java.rmi -->
<g id="edge3" class="edge">
<title>java.management.rmi&#45;&gt;java.rmi</title>
<path fill="none" stroke="#999999" stroke-width="2" d="M158.5,-172.62C167.19,-162.45 177.87,-149.96 187.47,-138.74"/>
<polygon fill="#999999" stroke="#999999" stroke-width="2" points="193.97,-131.14 190.89,-141.66 192.68,-133.41 187.85,-139.06 187.47,-138.74 187.09,-138.41 191.92,-132.76 184.05,-135.81 193.97,-131.14"/>
</g>
<!-- java.rmi&#45;&gt;java.base -->
<g id="edge4" class="edge">
<title>java.rmi&#45;&gt;java.base</title>
<path fill="none" stroke="#dddddd" stroke-width="2" d="M195.64,-86.42C186.95,-76.25 176.27,-63.76 166.67,-52.54"/>
<polygon fill="#dddddd" stroke="#dddddd" stroke-width="2" points="160.17,-44.94 170.09,-49.61 162.22,-46.56 167.05,-52.21 166.67,-52.54 166.29,-52.86 161.46,-47.21 163.25,-55.46 160.17,-44.94"/>
</g>
</g>
</svg>
