<?xml version="1.0" encoding="UTF-8" standalone="no"?>
<!DOCTYPE svg PUBLIC "-//W3C//DTD SVG 1.1//EN"
 "http://www.w3.org/Graphics/SVG/1.1/DTD/svg11.dtd">
<!-- Generated by graphviz version 9.0.0 (20230911.1827)
 -->
<!-- Title: G Pages: 1 -->
<svg width="910pt" height="224pt"
 viewBox="0.00 0.00 910.22 223.60" xmlns="http://www.w3.org/2000/svg" xmlns:xlink="http://www.w3.org/1999/xlink">
<g id="graph0" class="graph" transform="scale(1 1) rotate(0) translate(4 219.6)">
<title>G</title>
<polygon fill="white" stroke="none" points="-4,4 -4,-219.6 906.22,-219.6 906.22,4 -4,4"/>
<!-- java.nio.ByteBuffer -->
<g id="node1" class="node">
<title>java.nio.ByteBuffer</title>
<g id="a_node1"><a xlink:href="../../java/nio/ByteBuffer.html" xlink:title="java.nio.ByteBuffer">
<text text-anchor="middle" x="831.84" y="-104.2" font-family="DejaVuSans" font-size="12.00" fill="#e76f00">ByteBuffer</text>
</a>
</g>
</g>
<!-- java.nio.Buffer -->
<g id="node2" class="node">
<title>java.nio.Buffer</title>
<g id="a_node2"><a xlink:href="../../java/nio/Buffer.html" xlink:title="java.nio.Buffer">
<text text-anchor="middle" x="444.84" y="-190.4" font-family="DejaVuSans" font-size="12.00" fill="#e76f00">Buffer</text>
</a>
</g>
</g>
<!-- java.nio.ByteBuffer&#45;&gt;java.nio.Buffer -->
<g id="edge1" class="edge">
<title>java.nio.ByteBuffer&#45;&gt;java.nio.Buffer</title>
<path fill="none" stroke="#999999" stroke-width="2" d="M785.53,-124.41C779.61,-126.2 773.6,-127.91 767.84,-129.4 669.48,-154.82 551.98,-175.6 489.35,-185.93"/>
<polygon fill="#999999" stroke="#999999" stroke-width="2" points="479.61,-187.52 488.76,-181.47 482.06,-186.62 489.4,-185.42 489.48,-185.91 489.56,-186.4 482.23,-187.6 490.21,-190.35 479.61,-187.52"/>
</g>
<!-- java.nio.MappedByteBuffer -->
<g id="node3" class="node">
<title>java.nio.MappedByteBuffer</title>
<g id="a_node3"><a xlink:href="../../java/nio/MappedByteBuffer.html" xlink:title="java.nio.MappedByteBuffer">
<text text-anchor="middle" x="831.84" y="-18" font-family="DejaVuSans" font-size="12.00" fill="#e76f00">MappedByteBuffer</text>
</a>
</g>
</g>
<!-- java.nio.MappedByteBuffer&#45;&gt;java.nio.ByteBuffer -->
<g id="edge2" class="edge">
<title>java.nio.MappedByteBuffer&#45;&gt;java.nio.ByteBuffer</title>
<path fill="none" stroke="#999999" stroke-width="2" d="M831.84,-42.98C831.84,-52.32 831.84,-63.63 831.84,-74.12"/>
<polygon fill="#999999" stroke="#999999" stroke-width="2" points="831.84,-83.88 827.34,-73.88 831.34,-81.31 831.34,-73.88 831.84,-73.88 832.34,-73.88 832.34,-81.31 836.34,-73.88 831.84,-83.88"/>
</g>
<!-- java.nio.CharBuffer -->
<g id="node4" class="node">
<title>java.nio.CharBuffer</title>
<g id="a_node4"><a xlink:href="../../java/nio/CharBuffer.html" xlink:title="java.nio.CharBuffer">
<text text-anchor="middle" x="46.84" y="-104.2" font-family="DejaVuSans" font-size="12.00" fill="#e76f00">CharBuffer</text>
</a>
</g>
</g>
<!-- java.nio.CharBuffer&#45;&gt;java.nio.Buffer -->
<g id="edge3" class="edge">
<title>java.nio.CharBuffer&#45;&gt;java.nio.Buffer</title>
<path fill="none" stroke="#999999" stroke-width="2" d="M93.51,-124.32C99.64,-126.14 105.87,-127.89 111.84,-129.4 214.01,-155.25 336.17,-176.05 400.37,-186.22"/>
<polygon fill="#999999" stroke="#999999" stroke-width="2" points="410.01,-187.74 399.43,-190.63 407.4,-187.83 400.05,-186.68 400.13,-186.19 400.2,-185.69 407.55,-186.85 400.82,-181.74 410.01,-187.74"/>
</g>
<!-- java.nio.DoubleBuffer -->
<g id="node5" class="node">
<title>java.nio.DoubleBuffer</title>
<g id="a_node5"><a xlink:href="../../java/nio/DoubleBuffer.html" xlink:title="java.nio.DoubleBuffer">
<text text-anchor="middle" x="183.84" y="-104.2" font-family="DejaVuSans" font-size="12.00" fill="#e76f00">DoubleBuffer</text>
</a>
</g>
</g>
<!-- java.nio.DoubleBuffer&#45;&gt;java.nio.Buffer -->
<g id="edge4" class="edge">
<title>java.nio.DoubleBuffer&#45;&gt;java.nio.Buffer</title>
<path fill="none" stroke="#999999" stroke-width="2" d="M237.6,-126.14C285.72,-141.67 355.42,-164.15 400.44,-178.68"/>
<polygon fill="#999999" stroke="#999999" stroke-width="2" points="409.84,-181.71 398.94,-182.92 407.25,-181.4 400.17,-179.12 400.33,-178.64 400.48,-178.16 407.56,-180.45 401.71,-174.36 409.84,-181.71"/>
</g>
<!-- java.nio.FloatBuffer -->
<g id="node6" class="node">
<title>java.nio.FloatBuffer</title>
<g id="a_node6"><a xlink:href="../../java/nio/FloatBuffer.html" xlink:title="java.nio.FloatBuffer">
<text text-anchor="middle" x="320.84" y="-104.2" font-family="DejaVuSans" font-size="12.00" fill="#e76f00">FloatBuffer</text>
</a>
</g>
</g>
<!-- java.nio.FloatBuffer&#45;&gt;java.nio.Buffer -->
<g id="edge5" class="edge">
<title>java.nio.FloatBuffer&#45;&gt;java.nio.Buffer</title>
<path fill="none" stroke="#999999" stroke-width="2" d="M351.17,-129.4C367.35,-140.39 387.47,-154.05 404.91,-165.89"/>
<polygon fill="#999999" stroke="#999999" stroke-width="2" points="412.8,-171.25 402,-169.35 410.4,-170.22 404.25,-166.04 404.53,-165.63 404.81,-165.21 410.96,-169.39 407.06,-161.91 412.8,-171.25"/>
</g>
<!-- java.nio.IntBuffer -->
<g id="node7" class="node">
<title>java.nio.IntBuffer</title>
<g id="a_node7"><a xlink:href="../../java/nio/IntBuffer.html" xlink:title="java.nio.IntBuffer">
<text text-anchor="middle" x="444.84" y="-104.2" font-family="DejaVuSans" font-size="12.00" fill="#e76f00">IntBuffer</text>
</a>
</g>
</g>
<!-- java.nio.IntBuffer&#45;&gt;java.nio.Buffer -->
<g id="edge6" class="edge">
<title>java.nio.IntBuffer&#45;&gt;java.nio.Buffer</title>
<path fill="none" stroke="#999999" stroke-width="2" d="M444.84,-129.18C444.84,-138.52 444.84,-149.83 444.84,-160.32"/>
<polygon fill="#999999" stroke="#999999" stroke-width="2" points="444.84,-170.08 440.34,-160.08 444.34,-167.51 444.34,-160.08 444.84,-160.08 445.34,-160.08 445.34,-167.51 449.34,-160.08 444.84,-170.08"/>
</g>
<!-- java.nio.LongBuffer -->
<g id="node8" class="node">
<title>java.nio.LongBuffer</title>
<g id="a_node8"><a xlink:href="../../java/nio/LongBuffer.html" xlink:title="java.nio.LongBuffer">
<text text-anchor="middle" x="568.84" y="-104.2" font-family="DejaVuSans" font-size="12.00" fill="#e76f00">LongBuffer</text>
</a>
</g>
</g>
<!-- java.nio.LongBuffer&#45;&gt;java.nio.Buffer -->
<g id="edge7" class="edge">
<title>java.nio.LongBuffer&#45;&gt;java.nio.Buffer</title>
<path fill="none" stroke="#999999" stroke-width="2" d="M538.5,-129.4C522.32,-140.39 502.2,-154.05 484.77,-165.89"/>
<polygon fill="#999999" stroke="#999999" stroke-width="2" points="476.87,-171.25 482.62,-161.91 478.71,-169.39 484.87,-165.21 485.15,-165.63 485.43,-166.04 479.28,-170.22 487.68,-169.35 476.87,-171.25"/>
</g>
<!-- java.nio.ShortBuffer -->
<g id="node9" class="node">
<title>java.nio.ShortBuffer</title>
<g id="a_node9"><a xlink:href="../../java/nio/ShortBuffer.html" xlink:title="java.nio.ShortBuffer">
<text text-anchor="middle" x="700.84" y="-104.2" font-family="DejaVuSans" font-size="12.00" fill="#e76f00">ShortBuffer</text>
</a>
</g>
</g>
<!-- java.nio.ShortBuffer&#45;&gt;java.nio.Buffer -->
<g id="edge8" class="edge">
<title>java.nio.ShortBuffer&#45;&gt;java.nio.Buffer</title>
<path fill="none" stroke="#999999" stroke-width="2" d="M652.08,-124.84C604.94,-140.34 534.16,-163.62 488.73,-178.56"/>
<polygon fill="#999999" stroke="#999999" stroke-width="2" points="479.51,-181.6 487.6,-174.2 481.79,-180.32 488.85,-178 489.01,-178.47 489.16,-178.95 482.1,-181.27 490.41,-182.75 479.51,-181.6"/>
</g>
</g>
</svg>
