<?xml version="1.0" encoding="UTF-8" standalone="no"?>
<!DOCTYPE svg PUBLIC "-//W3C//DTD SVG 1.1//EN"
 "http://www.w3.org/Graphics/SVG/1.1/DTD/svg11.dtd">
<!-- Generated by graphviz version 9.0.0 (20230911.1827)
 -->
<!-- Title: java.sql.rowset Pages: 1 -->
<svg width="438pt" height="310pt"
 viewBox="0.00 0.00 437.59 309.80" xmlns="http://www.w3.org/2000/svg" xmlns:xlink="http://www.w3.org/1999/xlink">
<g id="graph0" class="graph" transform="scale(1 1) rotate(0) translate(4 305.8)">
<title>java.sql.rowset</title>
<polygon fill="white" stroke="none" points="-4,4 -4,-305.8 433.59,-305.8 433.59,4 -4,4"/>
<!-- java.logging -->
<g id="node1" class="node">
<title>java.logging</title>
<text text-anchor="middle" x="51.11" y="-104.2" font-family="DejaVuSans" font-size="12.00" fill="#e76f00">java.logging</text>
</g>
<!-- java.base -->
<g id="node4" class="node">
<title>java.base</title>
<text text-anchor="middle" x="178.11" y="-18" font-family="DejaVuSans" font-size="12.00" fill="#e76f00">java.base</text>
</g>
<!-- java.logging&#45;&gt;java.base -->
<g id="edge1" class="edge">
<title>java.logging&#45;&gt;java.base</title>
<path fill="none" stroke="#dddddd" stroke-width="2" d="M82.18,-86.2C98.75,-75.21 119.36,-61.55 137.22,-49.71"/>
<polygon fill="#dddddd" stroke="#dddddd" stroke-width="2" points="145.33,-44.33 139.49,-53.61 143.47,-46.16 137.28,-50.27 137,-49.86 136.72,-49.44 142.92,-45.33 134.51,-46.11 145.33,-44.33"/>
</g>
<!-- java.xml -->
<g id="node2" class="node">
<title>java.xml</title>
<text text-anchor="middle" x="178.11" y="-104.2" font-family="DejaVuSans" font-size="12.00" fill="#e76f00">java.xml</text>
</g>
<!-- java.xml&#45;&gt;java.base -->
<g id="edge9" class="edge">
<title>java.xml&#45;&gt;java.base</title>
<path fill="none" stroke="#dddddd" stroke-width="2" d="M178.11,-86.42C178.11,-77.08 178.11,-65.77 178.11,-55.28"/>
<polygon fill="#dddddd" stroke="#dddddd" stroke-width="2" points="178.11,-45.52 182.61,-55.52 178.61,-48.09 178.61,-55.52 178.11,-55.52 177.61,-55.52 177.61,-48.09 173.61,-55.52 178.11,-45.52"/>
</g>
<!-- java.sql -->
<g id="node3" class="node">
<title>java.sql</title>
<text text-anchor="middle" x="178.11" y="-190.4" font-family="DejaVuSans" font-size="12.00" fill="#e76f00">java.sql</text>
</g>
<!-- java.sql&#45;&gt;java.logging -->
<g id="edge3" class="edge">
<title>java.sql&#45;&gt;java.logging</title>
<path fill="none" stroke="#999999" stroke-width="2" d="M147.04,-172.4C130.47,-161.41 109.87,-147.75 92.01,-135.91"/>
<polygon fill="#999999" stroke="#999999" stroke-width="2" points="83.89,-130.53 94.71,-132.31 86.3,-131.53 92.5,-135.64 92.22,-136.06 91.95,-136.47 85.75,-132.36 89.74,-139.81 83.89,-130.53"/>
</g>
<!-- java.sql&#45;&gt;java.xml -->
<g id="edge5" class="edge">
<title>java.sql&#45;&gt;java.xml</title>
<path fill="none" stroke="#999999" stroke-width="2" d="M178.11,-172.62C178.11,-163.28 178.11,-151.97 178.11,-141.48"/>
<polygon fill="#999999" stroke="#999999" stroke-width="2" points="178.11,-131.72 182.61,-141.72 178.61,-134.29 178.61,-141.72 178.11,-141.72 177.61,-141.72 177.61,-134.29 173.61,-141.72 178.11,-131.72"/>
</g>
<!-- java.transaction.xa -->
<g id="node7" class="node">
<title>java.transaction.xa</title>
<text text-anchor="middle" x="326.11" y="-104.2" font-family="DejaVuSans" font-size="12.00" fill="#e76f00">java.transaction.xa</text>
</g>
<!-- java.sql&#45;&gt;java.transaction.xa -->
<g id="edge4" class="edge">
<title>java.sql&#45;&gt;java.transaction.xa</title>
<path fill="none" stroke="#999999" stroke-width="2" d="M214.32,-172.4C233.92,-161.25 258.36,-147.35 279.38,-135.38"/>
<polygon fill="#999999" stroke="#999999" stroke-width="2" points="287.91,-130.54 281.44,-139.39 285.93,-132.24 279.46,-135.92 279.21,-135.48 278.97,-135.05 285.43,-131.37 276.99,-131.57 287.91,-130.54"/>
</g>
<!-- java.naming -->
<g id="node5" class="node">
<title>java.naming</title>
<text text-anchor="middle" x="378.11" y="-190.4" font-family="DejaVuSans" font-size="12.00" fill="#e76f00">java.naming</text>
</g>
<!-- java.naming&#45;&gt;java.base -->
<g id="edge2" class="edge">
<title>java.naming&#45;&gt;java.base</title>
<path fill="none" stroke="#dddddd" stroke-width="2" d="M395.95,-172.7C413.86,-149.77 436.13,-112.27 416.11,-86.2 393.98,-57.38 296.37,-38.8 233.23,-29.56"/>
<polygon fill="#dddddd" stroke="#dddddd" stroke-width="2" points="223.51,-28.18 234.05,-25.13 226.12,-28.05 233.48,-29.09 233.41,-29.59 233.34,-30.08 225.98,-29.04 232.78,-34.04 223.51,-28.18"/>
</g>
<!-- java.sql.rowset -->
<g id="node6" class="node">
<title>java.sql.rowset</title>
<text text-anchor="middle" x="178.11" y="-276.6" font-family="DejaVuSans" font-size="12.00" fill="#e76f00">java.sql.rowset</text>
</g>
<!-- java.sql.rowset&#45;&gt;java.sql -->
<g id="edge7" class="edge">
<title>java.sql.rowset&#45;&gt;java.sql</title>
<path fill="none" stroke="#999999" stroke-width="2" d="M178.11,-258.82C178.11,-249.48 178.11,-238.17 178.11,-227.68"/>
<polygon fill="#999999" stroke="#999999" stroke-width="2" points="178.11,-217.92 182.61,-227.92 178.61,-220.49 178.61,-227.92 178.11,-227.92 177.61,-227.92 177.61,-220.49 173.61,-227.92 178.11,-217.92"/>
</g>
<!-- java.sql.rowset&#45;&gt;java.naming -->
<g id="edge6" class="edge">
<title>java.sql.rowset&#45;&gt;java.naming</title>
<path fill="none" stroke="#999999" stroke-width="2" d="M227.04,-258.6C254.5,-247.04 288.99,-232.52 318.08,-220.28"/>
<polygon fill="#999999" stroke="#999999" stroke-width="2" points="327.1,-216.48 319.63,-224.5 324.93,-217.93 318.08,-220.82 317.88,-220.36 317.69,-219.9 324.54,-217.01 316.14,-216.21 327.1,-216.48"/>
</g>
<!-- java.transaction.xa&#45;&gt;java.base -->
<g id="edge8" class="edge">
<title>java.transaction.xa&#45;&gt;java.base</title>
<path fill="none" stroke="#dddddd" stroke-width="2" d="M289.91,-86.2C270.3,-75.05 245.86,-61.15 224.84,-49.18"/>
<polygon fill="#dddddd" stroke="#dddddd" stroke-width="2" points="216.32,-44.34 227.23,-45.37 218.79,-45.17 225.26,-48.85 225.01,-49.28 224.76,-49.72 218.3,-46.04 222.78,-53.19 216.32,-44.34"/>
</g>
</g>
</svg>
