<?xml version="1.0" encoding="UTF-8" standalone="no"?>
<!DOCTYPE svg PUBLIC "-//W3C//DTD SVG 1.1//EN"
 "http://www.w3.org/Graphics/SVG/1.1/DTD/svg11.dtd">
<!-- Generated by graphviz version 9.0.0 (20230911.1827)
 -->
<!-- Title: jdk.xml.dom Pages: 1 -->
<svg width="111pt" height="224pt"
 viewBox="0.00 0.00 111.10 223.60" xmlns="http://www.w3.org/2000/svg" xmlns:xlink="http://www.w3.org/1999/xlink">
<g id="graph0" class="graph" transform="scale(1 1) rotate(0) translate(4 219.6)">
<title>jdk.xml.dom</title>
<polygon fill="white" stroke="none" points="-4,4 -4,-219.6 107.1,-219.6 107.1,4 -4,4"/>
<!-- java.xml -->
<g id="node1" class="node">
<title>java.xml</title>
<text text-anchor="middle" x="51.55" y="-104.2" font-family="DejaVuSans" font-size="12.00" fill="#e76f00">java.xml</text>
</g>
<!-- java.base -->
<g id="node2" class="node">
<title>java.base</title>
<text text-anchor="middle" x="51.55" y="-18" font-family="DejaVuSans" font-size="12.00" fill="#e76f00">java.base</text>
</g>
<!-- java.xml&#45;&gt;java.base -->
<g id="edge1" class="edge">
<title>java.xml&#45;&gt;java.base</title>
<path fill="none" stroke="#dddddd" stroke-width="2" d="M51.55,-86.42C51.55,-77.08 51.55,-65.77 51.55,-55.28"/>
<polygon fill="#dddddd" stroke="#dddddd" stroke-width="2" points="51.55,-45.52 56.05,-55.52 52.05,-48.09 52.05,-55.52 51.55,-55.52 51.05,-55.52 51.05,-48.09 47.05,-55.52 51.55,-45.52"/>
</g>
<!-- jdk.xml.dom -->
<g id="node3" class="node">
<title>jdk.xml.dom</title>
<text text-anchor="middle" x="51.55" y="-190.4" font-family="DejaVuSans" font-size="12.00" fill="#437291">jdk.xml.dom</text>
</g>
<!-- jdk.xml.dom&#45;&gt;java.xml -->
<g id="edge2" class="edge">
<title>jdk.xml.dom&#45;&gt;java.xml</title>
<path fill="none" stroke="#999999" stroke-width="2" d="M51.55,-172.62C51.55,-163.28 51.55,-151.97 51.55,-141.48"/>
<polygon fill="#999999" stroke="#999999" stroke-width="2" points="51.55,-131.72 56.05,-141.72 52.05,-134.29 52.05,-141.72 51.55,-141.72 51.05,-141.72 51.05,-134.29 47.05,-141.72 51.55,-131.72"/>
</g>
</g>
</svg>
