<?xml version="1.0" encoding="UTF-8" standalone="no"?>
<!DOCTYPE svg PUBLIC "-//W3C//DTD SVG 1.1//EN"
 "http://www.w3.org/Graphics/SVG/1.1/DTD/svg11.dtd">
<!-- Generated by graphviz version 9.0.0 (20230911.1827)
 -->
<!-- Title: G Pages: 1 -->
<svg width="2877pt" height="224pt"
 viewBox="0.00 0.00 2876.62 223.60" xmlns="http://www.w3.org/2000/svg" xmlns:xlink="http://www.w3.org/1999/xlink">
<g id="graph0" class="graph" transform="scale(1 1) rotate(0) translate(4 219.6)">
<title>G</title>
<polygon fill="white" stroke="none" points="-4,4 -4,-219.6 2872.62,-219.6 2872.62,4 -4,4"/>
<!-- java.util.DuplicateFormatFlagsException -->
<g id="node1" class="node">
<title>java.util.DuplicateFormatFlagsException</title>
<g id="a_node1"><a xlink:href="../../java/util/DuplicateFormatFlagsException.html" xlink:title="java.util.DuplicateFormatFlagsException">
<text text-anchor="middle" x="2758.81" y="-104.2" font-family="DejaVuSans" font-size="12.00" fill="#e76f00">DuplicateFormatFlagsException</text>
</a>
</g>
</g>
<!-- java.util.IllegalFormatException -->
<g id="node2" class="node">
<title>java.util.IllegalFormatException</title>
<g id="a_node2"><a xlink:href="../../java/util/IllegalFormatException.html" xlink:title="java.util.IllegalFormatException">
<text text-anchor="middle" x="1449.81" y="-190.4" font-family="DejaVuSans" font-size="12.00" fill="#e76f00">IllegalFormatException</text>
</a>
</g>
</g>
<!-- java.util.DuplicateFormatFlagsException&#45;&gt;java.util.IllegalFormatException -->
<g id="edge1" class="edge">
<title>java.util.DuplicateFormatFlagsException&#45;&gt;java.util.IllegalFormatException</title>
<path fill="none" stroke="#999999" stroke-width="2" d="M2649.29,-127.21C2643.04,-128.01 2636.85,-128.75 2630.81,-129.4 2228.86,-172.45 1746.65,-186.9 1545.37,-191.28"/>
<polygon fill="#999999" stroke="#999999" stroke-width="2" points="1535.53,-191.49 1545.44,-186.78 1538.09,-190.93 1545.52,-190.77 1545.53,-191.27 1545.54,-191.77 1538.11,-191.93 1545.63,-195.77 1535.53,-191.49"/>
</g>
<!-- open node #0 -->
<g id="node3" class="node">
<title>open node #0</title>
<g id="a_node3"><a xlink:title="Non&#45;sealed Hierarchy">
<text text-anchor="start" x="2737.73" y="-19" font-family="DejaVuSans" font-style="italic" font-size="12.00" fill="#e76f00">&lt;any&gt;</text>
</a>
</g>
</g>
<!-- open node #0&#45;&gt;java.util.DuplicateFormatFlagsException -->
<g id="edge2" class="edge">
<title>open node #0&#45;&gt;java.util.DuplicateFormatFlagsException</title>
<path fill="none" stroke="#999999" stroke-width="2" stroke-dasharray="5,2" d="M2758.81,-42.98C2758.81,-52.32 2758.81,-63.63 2758.81,-74.12"/>
<polygon fill="#999999" stroke="#999999" stroke-width="2" points="2758.81,-83.88 2754.31,-73.88 2758.31,-81.31 2758.31,-73.88 2758.81,-73.88 2759.31,-73.88 2759.31,-81.31 2763.31,-73.88 2758.81,-83.88"/>
</g>
<!-- java.util.FormatFlagsConversionMismatchException -->
<g id="node4" class="node">
<title>java.util.FormatFlagsConversionMismatchException</title>
<g id="a_node4"><a xlink:href="../../java/util/FormatFlagsConversionMismatchException.html" xlink:title="java.util.FormatFlagsConversionMismatchException">
<text text-anchor="middle" x="143.81" y="-104.2" font-family="DejaVuSans" font-size="12.00" fill="#e76f00">FormatFlagsConversionMismatchException</text>
</a>
</g>
</g>
<!-- java.util.FormatFlagsConversionMismatchException&#45;&gt;java.util.IllegalFormatException -->
<g id="edge3" class="edge">
<title>java.util.FormatFlagsConversionMismatchException&#45;&gt;java.util.IllegalFormatException</title>
<path fill="none" stroke="#999999" stroke-width="2" d="M287.29,-127.59C293.55,-128.24 299.74,-128.85 305.81,-129.4 693.68,-164.8 1157.46,-183.25 1354.13,-189.98"/>
<polygon fill="#999999" stroke="#999999" stroke-width="2" points="1363.97,-190.31 1353.83,-194.47 1361.39,-190.72 1353.96,-190.47 1353.98,-189.97 1354,-189.47 1361.43,-189.72 1354.13,-185.47 1363.97,-190.31"/>
</g>
<!-- open node #1 -->
<g id="node5" class="node">
<title>open node #1</title>
<g id="a_node5"><a xlink:title="Non&#45;sealed Hierarchy">
<text text-anchor="start" x="122.73" y="-19" font-family="DejaVuSans" font-style="italic" font-size="12.00" fill="#e76f00">&lt;any&gt;</text>
</a>
</g>
</g>
<!-- open node #1&#45;&gt;java.util.FormatFlagsConversionMismatchException -->
<g id="edge4" class="edge">
<title>open node #1&#45;&gt;java.util.FormatFlagsConversionMismatchException</title>
<path fill="none" stroke="#999999" stroke-width="2" stroke-dasharray="5,2" d="M143.81,-42.98C143.81,-52.32 143.81,-63.63 143.81,-74.12"/>
<polygon fill="#999999" stroke="#999999" stroke-width="2" points="143.81,-83.88 139.31,-73.88 143.31,-81.31 143.31,-73.88 143.81,-73.88 144.31,-73.88 144.31,-81.31 148.31,-73.88 143.81,-83.88"/>
</g>
<!-- java.util.IllegalFormatCodePointException -->
<g id="node6" class="node">
<title>java.util.IllegalFormatCodePointException</title>
<g id="a_node6"><a xlink:href="../../java/util/IllegalFormatCodePointException.html" xlink:title="java.util.IllegalFormatCodePointException">
<text text-anchor="middle" x="437.81" y="-104.2" font-family="DejaVuSans" font-size="12.00" fill="#e76f00">IllegalFormatCodePointException</text>
</a>
</g>
</g>
<!-- java.util.IllegalFormatCodePointException&#45;&gt;java.util.IllegalFormatException -->
<g id="edge5" class="edge">
<title>java.util.IllegalFormatCodePointException&#45;&gt;java.util.IllegalFormatException</title>
<path fill="none" stroke="#999999" stroke-width="2" d="M551.49,-127.15C557.68,-127.96 563.82,-128.72 569.81,-129.4 854.23,-161.81 1192.35,-180.8 1354.2,-188.68"/>
<polygon fill="#999999" stroke="#999999" stroke-width="2" points="1364.05,-189.16 1353.85,-193.17 1361.47,-189.54 1354.04,-189.18 1354.07,-188.68 1354.09,-188.18 1361.52,-188.54 1354.28,-184.18 1364.05,-189.16"/>
</g>
<!-- open node #2 -->
<g id="node7" class="node">
<title>open node #2</title>
<g id="a_node7"><a xlink:title="Non&#45;sealed Hierarchy">
<text text-anchor="start" x="416.73" y="-19" font-family="DejaVuSans" font-style="italic" font-size="12.00" fill="#e76f00">&lt;any&gt;</text>
</a>
</g>
</g>
<!-- open node #2&#45;&gt;java.util.IllegalFormatCodePointException -->
<g id="edge6" class="edge">
<title>open node #2&#45;&gt;java.util.IllegalFormatCodePointException</title>
<path fill="none" stroke="#999999" stroke-width="2" stroke-dasharray="5,2" d="M437.81,-42.98C437.81,-52.32 437.81,-63.63 437.81,-74.12"/>
<polygon fill="#999999" stroke="#999999" stroke-width="2" points="437.81,-83.88 433.31,-73.88 437.31,-81.31 437.31,-73.88 437.81,-73.88 438.31,-73.88 438.31,-81.31 442.31,-73.88 437.81,-83.88"/>
</g>
<!-- java.util.IllegalFormatConversionException -->
<g id="node8" class="node">
<title>java.util.IllegalFormatConversionException</title>
<g id="a_node8"><a xlink:href="../../java/util/IllegalFormatConversionException.html" xlink:title="java.util.IllegalFormatConversionException">
<text text-anchor="middle" x="704.81" y="-104.2" font-family="DejaVuSans" font-size="12.00" fill="#e76f00">IllegalFormatConversionException</text>
</a>
</g>
</g>
<!-- java.util.IllegalFormatConversionException&#45;&gt;java.util.IllegalFormatException -->
<g id="edge7" class="edge">
<title>java.util.IllegalFormatConversionException&#45;&gt;java.util.IllegalFormatException</title>
<path fill="none" stroke="#999999" stroke-width="2" d="M821.84,-127.01C827.91,-127.84 833.93,-128.65 839.81,-129.4 1021.56,-152.73 1234.6,-173.43 1354.74,-184.5"/>
<polygon fill="#999999" stroke="#999999" stroke-width="2" points="1364.36,-185.38 1353.99,-188.95 1361.76,-185.65 1354.36,-184.97 1354.4,-184.47 1354.45,-183.97 1361.85,-184.65 1354.81,-179.99 1364.36,-185.38"/>
</g>
<!-- open node #3 -->
<g id="node9" class="node">
<title>open node #3</title>
<g id="a_node9"><a xlink:title="Non&#45;sealed Hierarchy">
<text text-anchor="start" x="683.73" y="-19" font-family="DejaVuSans" font-style="italic" font-size="12.00" fill="#e76f00">&lt;any&gt;</text>
</a>
</g>
</g>
<!-- open node #3&#45;&gt;java.util.IllegalFormatConversionException -->
<g id="edge8" class="edge">
<title>open node #3&#45;&gt;java.util.IllegalFormatConversionException</title>
<path fill="none" stroke="#999999" stroke-width="2" stroke-dasharray="5,2" d="M704.81,-42.98C704.81,-52.32 704.81,-63.63 704.81,-74.12"/>
<polygon fill="#999999" stroke="#999999" stroke-width="2" points="704.81,-83.88 700.31,-73.88 704.31,-81.31 704.31,-73.88 704.81,-73.88 705.31,-73.88 705.31,-81.31 709.31,-73.88 704.81,-83.88"/>
</g>
<!-- java.util.IllegalFormatFlagsException -->
<g id="node10" class="node">
<title>java.util.IllegalFormatFlagsException</title>
<g id="a_node10"><a xlink:href="../../java/util/IllegalFormatFlagsException.html" xlink:title="java.util.IllegalFormatFlagsException">
<text text-anchor="middle" x="956.81" y="-104.2" font-family="DejaVuSans" font-size="12.00" fill="#e76f00">IllegalFormatFlagsException</text>
</a>
</g>
</g>
<!-- java.util.IllegalFormatFlagsException&#45;&gt;java.util.IllegalFormatException -->
<g id="edge9" class="edge">
<title>java.util.IllegalFormatFlagsException&#45;&gt;java.util.IllegalFormatException</title>
<path fill="none" stroke="#999999" stroke-width="2" d="M1055.95,-126.14C1062.33,-127.25 1068.66,-128.34 1074.81,-129.4 1169.94,-145.77 1278.7,-164.18 1354.51,-176.97"/>
<polygon fill="#999999" stroke="#999999" stroke-width="2" points="1363.98,-178.56 1353.37,-181.34 1361.37,-178.63 1354.04,-177.39 1354.12,-176.9 1354.2,-176.41 1361.54,-177.65 1354.87,-172.46 1363.98,-178.56"/>
</g>
<!-- open node #4 -->
<g id="node11" class="node">
<title>open node #4</title>
<g id="a_node11"><a xlink:title="Non&#45;sealed Hierarchy">
<text text-anchor="start" x="935.73" y="-19" font-family="DejaVuSans" font-style="italic" font-size="12.00" fill="#e76f00">&lt;any&gt;</text>
</a>
</g>
</g>
<!-- open node #4&#45;&gt;java.util.IllegalFormatFlagsException -->
<g id="edge10" class="edge">
<title>open node #4&#45;&gt;java.util.IllegalFormatFlagsException</title>
<path fill="none" stroke="#999999" stroke-width="2" stroke-dasharray="5,2" d="M956.81,-42.98C956.81,-52.32 956.81,-63.63 956.81,-74.12"/>
<polygon fill="#999999" stroke="#999999" stroke-width="2" points="956.81,-83.88 952.31,-73.88 956.31,-81.31 956.31,-73.88 956.81,-73.88 957.31,-73.88 957.31,-81.31 961.31,-73.88 956.81,-83.88"/>
</g>
<!-- java.util.IllegalFormatPrecisionException -->
<g id="node12" class="node">
<title>java.util.IllegalFormatPrecisionException</title>
<g id="a_node12"><a xlink:href="../../java/util/IllegalFormatPrecisionException.html" xlink:title="java.util.IllegalFormatPrecisionException">
<text text-anchor="middle" x="1202.81" y="-104.2" font-family="DejaVuSans" font-size="12.00" fill="#e76f00">IllegalFormatPrecisionException</text>
</a>
</g>
</g>
<!-- java.util.IllegalFormatPrecisionException&#45;&gt;java.util.IllegalFormatException -->
<g id="edge11" class="edge">
<title>java.util.IllegalFormatPrecisionException&#45;&gt;java.util.IllegalFormatException</title>
<path fill="none" stroke="#999999" stroke-width="2" d="M1263.23,-129.4C1297.9,-141.22 1341.63,-156.12 1378.04,-168.53"/>
<polygon fill="#999999" stroke="#999999" stroke-width="2" points="1387.28,-171.68 1376.36,-172.72 1384.69,-171.33 1377.65,-168.93 1377.81,-168.46 1377.97,-167.98 1385.01,-170.38 1379.26,-164.2 1387.28,-171.68"/>
</g>
<!-- open node #5 -->
<g id="node13" class="node">
<title>open node #5</title>
<g id="a_node13"><a xlink:title="Non&#45;sealed Hierarchy">
<text text-anchor="start" x="1181.73" y="-19" font-family="DejaVuSans" font-style="italic" font-size="12.00" fill="#e76f00">&lt;any&gt;</text>
</a>
</g>
</g>
<!-- open node #5&#45;&gt;java.util.IllegalFormatPrecisionException -->
<g id="edge12" class="edge">
<title>open node #5&#45;&gt;java.util.IllegalFormatPrecisionException</title>
<path fill="none" stroke="#999999" stroke-width="2" stroke-dasharray="5,2" d="M1202.81,-42.98C1202.81,-52.32 1202.81,-63.63 1202.81,-74.12"/>
<polygon fill="#999999" stroke="#999999" stroke-width="2" points="1202.81,-83.88 1198.31,-73.88 1202.31,-81.31 1202.31,-73.88 1202.81,-73.88 1203.31,-73.88 1203.31,-81.31 1207.31,-73.88 1202.81,-83.88"/>
</g>
<!-- java.util.IllegalFormatWidthException -->
<g id="node14" class="node">
<title>java.util.IllegalFormatWidthException</title>
<g id="a_node14"><a xlink:href="../../java/util/IllegalFormatWidthException.html" xlink:title="java.util.IllegalFormatWidthException">
<text text-anchor="middle" x="1449.81" y="-104.2" font-family="DejaVuSans" font-size="12.00" fill="#e76f00">IllegalFormatWidthException</text>
</a>
</g>
</g>
<!-- java.util.IllegalFormatWidthException&#45;&gt;java.util.IllegalFormatException -->
<g id="edge13" class="edge">
<title>java.util.IllegalFormatWidthException&#45;&gt;java.util.IllegalFormatException</title>
<path fill="none" stroke="#999999" stroke-width="2" d="M1449.81,-129.18C1449.81,-138.52 1449.81,-149.83 1449.81,-160.32"/>
<polygon fill="#999999" stroke="#999999" stroke-width="2" points="1449.81,-170.08 1445.31,-160.08 1449.31,-167.51 1449.31,-160.08 1449.81,-160.08 1450.31,-160.08 1450.31,-167.51 1454.31,-160.08 1449.81,-170.08"/>
</g>
<!-- open node #6 -->
<g id="node15" class="node">
<title>open node #6</title>
<g id="a_node15"><a xlink:title="Non&#45;sealed Hierarchy">
<text text-anchor="start" x="1428.73" y="-19" font-family="DejaVuSans" font-style="italic" font-size="12.00" fill="#e76f00">&lt;any&gt;</text>
</a>
</g>
</g>
<!-- open node #6&#45;&gt;java.util.IllegalFormatWidthException -->
<g id="edge14" class="edge">
<title>open node #6&#45;&gt;java.util.IllegalFormatWidthException</title>
<path fill="none" stroke="#999999" stroke-width="2" stroke-dasharray="5,2" d="M1449.81,-42.98C1449.81,-52.32 1449.81,-63.63 1449.81,-74.12"/>
<polygon fill="#999999" stroke="#999999" stroke-width="2" points="1449.81,-83.88 1445.31,-73.88 1449.31,-81.31 1449.31,-73.88 1449.81,-73.88 1450.31,-73.88 1450.31,-81.31 1454.31,-73.88 1449.81,-83.88"/>
</g>
<!-- java.util.MissingFormatArgumentException -->
<g id="node16" class="node">
<title>java.util.MissingFormatArgumentException</title>
<g id="a_node16"><a xlink:href="../../java/util/MissingFormatArgumentException.html" xlink:title="java.util.MissingFormatArgumentException">
<text text-anchor="middle" x="1704.81" y="-104.2" font-family="DejaVuSans" font-size="12.00" fill="#e76f00">MissingFormatArgumentException</text>
</a>
</g>
</g>
<!-- java.util.MissingFormatArgumentException&#45;&gt;java.util.IllegalFormatException -->
<g id="edge15" class="edge">
<title>java.util.MissingFormatArgumentException&#45;&gt;java.util.IllegalFormatException</title>
<path fill="none" stroke="#999999" stroke-width="2" d="M1642.43,-129.4C1606.49,-141.27 1561.1,-156.25 1523.42,-168.7"/>
<polygon fill="#999999" stroke="#999999" stroke-width="2" points="1514.3,-171.71 1522.39,-164.3 1516.58,-170.43 1523.64,-168.09 1523.8,-168.57 1523.95,-169.04 1516.89,-171.38 1525.21,-172.84 1514.3,-171.71"/>
</g>
<!-- open node #7 -->
<g id="node17" class="node">
<title>open node #7</title>
<g id="a_node17"><a xlink:title="Non&#45;sealed Hierarchy">
<text text-anchor="start" x="1683.73" y="-19" font-family="DejaVuSans" font-style="italic" font-size="12.00" fill="#e76f00">&lt;any&gt;</text>
</a>
</g>
</g>
<!-- open node #7&#45;&gt;java.util.MissingFormatArgumentException -->
<g id="edge16" class="edge">
<title>open node #7&#45;&gt;java.util.MissingFormatArgumentException</title>
<path fill="none" stroke="#999999" stroke-width="2" stroke-dasharray="5,2" d="M1704.81,-42.98C1704.81,-52.32 1704.81,-63.63 1704.81,-74.12"/>
<polygon fill="#999999" stroke="#999999" stroke-width="2" points="1704.81,-83.88 1700.31,-73.88 1704.31,-81.31 1704.31,-73.88 1704.81,-73.88 1705.31,-73.88 1705.31,-81.31 1709.31,-73.88 1704.81,-83.88"/>
</g>
<!-- java.util.MissingFormatWidthException -->
<g id="node18" class="node">
<title>java.util.MissingFormatWidthException</title>
<g id="a_node18"><a xlink:href="../../java/util/MissingFormatWidthException.html" xlink:title="java.util.MissingFormatWidthException">
<text text-anchor="middle" x="1963.81" y="-104.2" font-family="DejaVuSans" font-size="12.00" fill="#e76f00">MissingFormatWidthException</text>
</a>
</g>
</g>
<!-- java.util.MissingFormatWidthException&#45;&gt;java.util.IllegalFormatException -->
<g id="edge17" class="edge">
<title>java.util.MissingFormatWidthException&#45;&gt;java.util.IllegalFormatException</title>
<path fill="none" stroke="#999999" stroke-width="2" d="M1858.47,-126.48C1852.5,-127.47 1846.58,-128.45 1840.81,-129.4 1739.8,-146.07 1624.06,-164.86 1544.87,-177.67"/>
<polygon fill="#999999" stroke="#999999" stroke-width="2" points="1535.37,-179.2 1544.53,-173.16 1537.82,-178.3 1545.17,-177.11 1545.25,-177.6 1545.33,-178.1 1537.98,-179.29 1545.96,-182.05 1535.37,-179.2"/>
</g>
<!-- open node #8 -->
<g id="node19" class="node">
<title>open node #8</title>
<g id="a_node19"><a xlink:title="Non&#45;sealed Hierarchy">
<text text-anchor="start" x="1942.73" y="-19" font-family="DejaVuSans" font-style="italic" font-size="12.00" fill="#e76f00">&lt;any&gt;</text>
</a>
</g>
</g>
<!-- open node #8&#45;&gt;java.util.MissingFormatWidthException -->
<g id="edge18" class="edge">
<title>open node #8&#45;&gt;java.util.MissingFormatWidthException</title>
<path fill="none" stroke="#999999" stroke-width="2" stroke-dasharray="5,2" d="M1963.81,-42.98C1963.81,-52.32 1963.81,-63.63 1963.81,-74.12"/>
<polygon fill="#999999" stroke="#999999" stroke-width="2" points="1963.81,-83.88 1959.31,-73.88 1963.31,-81.31 1963.31,-73.88 1963.81,-73.88 1964.31,-73.88 1964.31,-81.31 1968.31,-73.88 1963.81,-83.88"/>
</g>
<!-- java.util.UnknownFormatConversionException -->
<g id="node20" class="node">
<title>java.util.UnknownFormatConversionException</title>
<g id="a_node20"><a xlink:href="../../java/util/UnknownFormatConversionException.html" xlink:title="java.util.UnknownFormatConversionException">
<text text-anchor="middle" x="2231.81" y="-104.2" font-family="DejaVuSans" font-size="12.00" fill="#e76f00">UnknownFormatConversionException</text>
</a>
</g>
</g>
<!-- java.util.UnknownFormatConversionException&#45;&gt;java.util.IllegalFormatException -->
<g id="edge19" class="edge">
<title>java.util.UnknownFormatConversionException&#45;&gt;java.util.IllegalFormatException</title>
<path fill="none" stroke="#999999" stroke-width="2" d="M2104.93,-127.14C2098.81,-127.92 2092.74,-128.68 2086.81,-129.4 1895.01,-152.59 1669.97,-173.61 1545.27,-184.72"/>
<polygon fill="#999999" stroke="#999999" stroke-width="2" points="1535.58,-185.58 1545.14,-180.21 1538.09,-184.85 1545.49,-184.2 1545.54,-184.69 1545.58,-185.19 1538.18,-185.85 1545.94,-189.18 1535.58,-185.58"/>
</g>
<!-- open node #9 -->
<g id="node21" class="node">
<title>open node #9</title>
<g id="a_node21"><a xlink:title="Non&#45;sealed Hierarchy">
<text text-anchor="start" x="2210.73" y="-19" font-family="DejaVuSans" font-style="italic" font-size="12.00" fill="#e76f00">&lt;any&gt;</text>
</a>
</g>
</g>
<!-- open node #9&#45;&gt;java.util.UnknownFormatConversionException -->
<g id="edge20" class="edge">
<title>open node #9&#45;&gt;java.util.UnknownFormatConversionException</title>
<path fill="none" stroke="#999999" stroke-width="2" stroke-dasharray="5,2" d="M2231.81,-42.98C2231.81,-52.32 2231.81,-63.63 2231.81,-74.12"/>
<polygon fill="#999999" stroke="#999999" stroke-width="2" points="2231.81,-83.88 2227.31,-73.88 2231.31,-81.31 2231.31,-73.88 2231.81,-73.88 2232.31,-73.88 2232.31,-81.31 2236.31,-73.88 2231.81,-83.88"/>
</g>
<!-- java.util.UnknownFormatFlagsException -->
<g id="node22" class="node">
<title>java.util.UnknownFormatFlagsException</title>
<g id="a_node22"><a xlink:href="../../java/util/UnknownFormatFlagsException.html" xlink:title="java.util.UnknownFormatFlagsException">
<text text-anchor="middle" x="2503.81" y="-104.2" font-family="DejaVuSans" font-size="12.00" fill="#e76f00">UnknownFormatFlagsException</text>
</a>
</g>
</g>
<!-- java.util.UnknownFormatFlagsException&#45;&gt;java.util.IllegalFormatException -->
<g id="edge21" class="edge">
<title>java.util.UnknownFormatFlagsException&#45;&gt;java.util.IllegalFormatException</title>
<path fill="none" stroke="#999999" stroke-width="2" d="M2394.79,-127.15C2388.71,-127.97 2382.69,-128.72 2376.81,-129.4 2074.28,-164.24 1713.85,-182.28 1545.42,-189.35"/>
<polygon fill="#999999" stroke="#999999" stroke-width="2" points="1535.58,-189.76 1545.38,-184.85 1538.12,-189.16 1545.55,-188.85 1545.57,-189.35 1545.59,-189.85 1538.16,-190.16 1545.75,-193.84 1535.58,-189.76"/>
</g>
<!-- open node #10 -->
<g id="node23" class="node">
<title>open node #10</title>
<g id="a_node23"><a xlink:title="Non&#45;sealed Hierarchy">
<text text-anchor="start" x="2482.73" y="-19" font-family="DejaVuSans" font-style="italic" font-size="12.00" fill="#e76f00">&lt;any&gt;</text>
</a>
</g>
</g>
<!-- open node #10&#45;&gt;java.util.UnknownFormatFlagsException -->
<g id="edge22" class="edge">
<title>open node #10&#45;&gt;java.util.UnknownFormatFlagsException</title>
<path fill="none" stroke="#999999" stroke-width="2" stroke-dasharray="5,2" d="M2503.81,-42.98C2503.81,-52.32 2503.81,-63.63 2503.81,-74.12"/>
<polygon fill="#999999" stroke="#999999" stroke-width="2" points="2503.81,-83.88 2499.31,-73.88 2503.31,-81.31 2503.31,-73.88 2503.81,-73.88 2504.31,-73.88 2504.31,-81.31 2508.31,-73.88 2503.81,-83.88"/>
</g>
</g>
</svg>
