<?xml version="1.0" encoding="UTF-8" standalone="no"?>
<!DOCTYPE svg PUBLIC "-//W3C//DTD SVG 1.1//EN"
 "http://www.w3.org/Graphics/SVG/1.1/DTD/svg11.dtd">
<!-- Generated by graphviz version 9.0.0 (20230911.1827)
 -->
<!-- Title: G Pages: 1 -->
<svg width="232pt" height="224pt"
 viewBox="0.00 0.00 231.82 223.60" xmlns="http://www.w3.org/2000/svg" xmlns:xlink="http://www.w3.org/1999/xlink">
<g id="graph0" class="graph" transform="scale(1 1) rotate(0) translate(4 219.6)">
<title>G</title>
<polygon fill="white" stroke="none" points="-4,4 -4,-219.6 227.82,-219.6 227.82,4 -4,4"/>
<!-- java.awt.event.KeyEvent -->
<g id="node1" class="node">
<title>java.awt.event.KeyEvent</title>
<g id="a_node1"><a xlink:href="../../../java/awt/event/KeyEvent.html" xlink:title="java.awt.event.KeyEvent">
<text text-anchor="middle" x="181.06" y="-104.2" font-family="DejaVuSans" font-size="12.00" fill="#e76f00">KeyEvent</text>
</a>
</g>
</g>
<!-- java.awt.event.InputEvent -->
<g id="node2" class="node">
<title>java.awt.event.InputEvent</title>
<g id="a_node2"><a xlink:href="../../../java/awt/event/InputEvent.html" xlink:title="java.awt.event.InputEvent">
<text text-anchor="middle" x="116.06" y="-190.4" font-family="DejaVuSans" font-size="12.00" fill="#e76f00">InputEvent</text>
</a>
</g>
</g>
<!-- java.awt.event.KeyEvent&#45;&gt;java.awt.event.InputEvent -->
<g id="edge1" class="edge">
<title>java.awt.event.KeyEvent&#45;&gt;java.awt.event.InputEvent</title>
<path fill="none" stroke="#999999" stroke-width="2" d="M165.32,-129.18C157.55,-139.24 148.03,-151.58 139.43,-162.72"/>
<polygon fill="#999999" stroke="#999999" stroke-width="2" points="133.36,-170.58 135.91,-159.92 134.53,-168.25 139.08,-162.36 139.47,-162.67 139.87,-162.97 135.32,-168.86 143.03,-165.42 133.36,-170.58"/>
</g>
<!-- open node #0 -->
<g id="node3" class="node">
<title>open node #0</title>
<g id="a_node3"><a xlink:title="Non&#45;sealed Hierarchy">
<text text-anchor="start" x="159.97" y="-19" font-family="DejaVuSans" font-style="italic" font-size="12.00" fill="#e76f00">&lt;any&gt;</text>
</a>
</g>
</g>
<!-- open node #0&#45;&gt;java.awt.event.KeyEvent -->
<g id="edge2" class="edge">
<title>open node #0&#45;&gt;java.awt.event.KeyEvent</title>
<path fill="none" stroke="#999999" stroke-width="2" stroke-dasharray="5,2" d="M181.06,-42.98C181.06,-52.32 181.06,-63.63 181.06,-74.12"/>
<polygon fill="#999999" stroke="#999999" stroke-width="2" points="181.06,-83.88 176.56,-73.88 180.56,-81.31 180.56,-73.88 181.06,-73.88 181.56,-73.88 181.56,-81.31 185.56,-73.88 181.06,-83.88"/>
</g>
<!-- java.awt.event.MouseEvent -->
<g id="node4" class="node">
<title>java.awt.event.MouseEvent</title>
<g id="a_node4"><a xlink:href="../../../java/awt/event/MouseEvent.html" xlink:title="java.awt.event.MouseEvent">
<text text-anchor="middle" x="51.06" y="-104.2" font-family="DejaVuSans" font-size="12.00" fill="#e76f00">MouseEvent</text>
</a>
</g>
</g>
<!-- java.awt.event.MouseEvent&#45;&gt;java.awt.event.InputEvent -->
<g id="edge3" class="edge">
<title>java.awt.event.MouseEvent&#45;&gt;java.awt.event.InputEvent</title>
<path fill="none" stroke="#999999" stroke-width="2" d="M66.79,-129.18C74.56,-139.24 84.08,-151.58 92.68,-162.72"/>
<polygon fill="#999999" stroke="#999999" stroke-width="2" points="98.75,-170.58 89.08,-165.42 96.79,-168.86 92.25,-162.97 92.64,-162.67 93.04,-162.36 97.58,-168.25 96.2,-159.92 98.75,-170.58"/>
</g>
<!-- open node #1 -->
<g id="node5" class="node">
<title>open node #1</title>
<g id="a_node5"><a xlink:title="Non&#45;sealed Hierarchy">
<text text-anchor="start" x="29.97" y="-19" font-family="DejaVuSans" font-style="italic" font-size="12.00" fill="#e76f00">&lt;any&gt;</text>
</a>
</g>
</g>
<!-- open node #1&#45;&gt;java.awt.event.MouseEvent -->
<g id="edge4" class="edge">
<title>open node #1&#45;&gt;java.awt.event.MouseEvent</title>
<path fill="none" stroke="#999999" stroke-width="2" stroke-dasharray="5,2" d="M51.06,-42.98C51.06,-52.32 51.06,-63.63 51.06,-74.12"/>
<polygon fill="#999999" stroke="#999999" stroke-width="2" points="51.06,-83.88 46.56,-73.88 50.56,-81.31 50.56,-73.88 51.06,-73.88 51.56,-73.88 51.56,-81.31 55.56,-73.88 51.06,-83.88"/>
</g>
</g>
</svg>
