<?xml version="1.0" encoding="UTF-8" standalone="no"?>
<!DOCTYPE svg PUBLIC "-//W3C//DTD SVG 1.1//EN"
 "http://www.w3.org/Graphics/SVG/1.1/DTD/svg11.dtd">
<!-- Generated by graphviz version 9.0.0 (20230911.1827)
 -->
<!-- Title: jdk.security.auth Pages: 1 -->
<svg width="138pt" height="224pt"
 viewBox="0.00 0.00 137.51 223.60" xmlns="http://www.w3.org/2000/svg" xmlns:xlink="http://www.w3.org/1999/xlink">
<g id="graph0" class="graph" transform="scale(1 1) rotate(0) translate(4 219.6)">
<title>jdk.security.auth</title>
<polygon fill="white" stroke="none" points="-4,4 -4,-219.6 133.51,-219.6 133.51,4 -4,4"/>
<!-- java.base -->
<g id="node1" class="node">
<title>java.base</title>
<text text-anchor="middle" x="64.76" y="-18" font-family="DejaVuSans" font-size="12.00" fill="#e76f00">java.base</text>
</g>
<!-- java.naming -->
<g id="node2" class="node">
<title>java.naming</title>
<text text-anchor="middle" x="64.76" y="-104.2" font-family="DejaVuSans" font-size="12.00" fill="#e76f00">java.naming</text>
</g>
<!-- java.naming&#45;&gt;java.base -->
<g id="edge1" class="edge">
<title>java.naming&#45;&gt;java.base</title>
<path fill="none" stroke="#dddddd" stroke-width="2" d="M64.76,-86.42C64.76,-77.08 64.76,-65.77 64.76,-55.28"/>
<polygon fill="#dddddd" stroke="#dddddd" stroke-width="2" points="64.76,-45.52 69.26,-55.52 65.26,-48.09 65.26,-55.52 64.76,-55.52 64.26,-55.52 64.26,-48.09 60.26,-55.52 64.76,-45.52"/>
</g>
<!-- jdk.security.auth -->
<g id="node3" class="node">
<title>jdk.security.auth</title>
<text text-anchor="middle" x="64.76" y="-190.4" font-family="DejaVuSans" font-size="12.00" fill="#437291">jdk.security.auth</text>
</g>
<!-- jdk.security.auth&#45;&gt;java.naming -->
<g id="edge2" class="edge">
<title>jdk.security.auth&#45;&gt;java.naming</title>
<path fill="none" stroke="#999999" stroke-width="2" d="M64.76,-172.62C64.76,-163.28 64.76,-151.97 64.76,-141.48"/>
<polygon fill="#999999" stroke="#999999" stroke-width="2" points="64.76,-131.72 69.26,-141.72 65.26,-134.29 65.26,-141.72 64.76,-141.72 64.26,-141.72 64.26,-134.29 60.26,-141.72 64.76,-131.72"/>
</g>
</g>
</svg>
