<?xml version="1.0" encoding="UTF-8" standalone="no"?>
<!DOCTYPE svg PUBLIC "-//W3C//DTD SVG 1.1//EN"
 "http://www.w3.org/Graphics/SVG/1.1/DTD/svg11.dtd">
<!-- Generated by graphviz version 9.0.0 (20230911.1827)
 -->
<!-- Title: jdk.management.jfr Pages: 1 -->
<svg width="288pt" height="224pt"
 viewBox="0.00 0.00 287.67 223.60" xmlns="http://www.w3.org/2000/svg" xmlns:xlink="http://www.w3.org/1999/xlink">
<g id="graph0" class="graph" transform="scale(1 1) rotate(0) translate(4 219.6)">
<title>jdk.management.jfr</title>
<polygon fill="white" stroke="none" points="-4,4 -4,-219.6 283.67,-219.6 283.67,4 -4,4"/>
<!-- java.management -->
<g id="node1" class="node">
<title>java.management</title>
<text text-anchor="middle" x="69.07" y="-104.2" font-family="DejaVuSans" font-size="12.00" fill="#e76f00">java.management</text>
</g>
<!-- java.base -->
<g id="node2" class="node">
<title>java.base</title>
<text text-anchor="middle" x="69.07" y="-18" font-family="DejaVuSans" font-size="12.00" fill="#e76f00">java.base</text>
</g>
<!-- java.management&#45;&gt;java.base -->
<g id="edge1" class="edge">
<title>java.management&#45;&gt;java.base</title>
<path fill="none" stroke="#dddddd" stroke-width="2" d="M69.07,-86.42C69.07,-77.08 69.07,-65.77 69.07,-55.28"/>
<polygon fill="#dddddd" stroke="#dddddd" stroke-width="2" points="69.07,-45.52 73.57,-55.52 69.57,-48.09 69.57,-55.52 69.07,-55.52 68.57,-55.52 68.57,-48.09 64.57,-55.52 69.07,-45.52"/>
</g>
<!-- jdk.jfr -->
<g id="node3" class="node">
<title>jdk.jfr</title>
<text text-anchor="middle" x="206.07" y="-104.2" font-family="DejaVuSans" font-size="12.00" fill="#437291">jdk.jfr</text>
</g>
<!-- jdk.jfr&#45;&gt;java.base -->
<g id="edge2" class="edge">
<title>jdk.jfr&#45;&gt;java.base</title>
<path fill="none" stroke="#dddddd" stroke-width="2" d="M174.64,-87.48C156.29,-76.21 132.87,-61.81 112.75,-49.44"/>
<polygon fill="#dddddd" stroke="#dddddd" stroke-width="2" points="104.34,-44.28 115.22,-45.68 106.79,-45.19 113.12,-49.09 112.86,-49.51 112.6,-49.94 106.26,-46.05 110.51,-53.35 104.34,-44.28"/>
</g>
<!-- jdk.management.jfr -->
<g id="node4" class="node">
<title>jdk.management.jfr</title>
<text text-anchor="middle" x="206.07" y="-190.4" font-family="DejaVuSans" font-size="12.00" fill="#437291">jdk.management.jfr</text>
</g>
<!-- jdk.management.jfr&#45;&gt;java.management -->
<g id="edge3" class="edge">
<title>jdk.management.jfr&#45;&gt;java.management</title>
<path fill="none" stroke="#999999" stroke-width="2" d="M172.56,-172.4C154.51,-161.31 132.04,-147.5 112.65,-135.58"/>
<polygon fill="#999999" stroke="#999999" stroke-width="2" points="104.31,-130.46 115.19,-131.86 106.76,-131.38 113.1,-135.27 112.83,-135.7 112.57,-136.12 106.24,-132.23 110.48,-139.53 104.31,-130.46"/>
</g>
<!-- jdk.management.jfr&#45;&gt;jdk.jfr -->
<g id="edge4" class="edge">
<title>jdk.management.jfr&#45;&gt;jdk.jfr</title>
<path fill="none" stroke="#999999" stroke-width="2" d="M206.07,-172.62C206.07,-163.28 206.07,-151.97 206.07,-141.48"/>
<polygon fill="#999999" stroke="#999999" stroke-width="2" points="206.07,-131.72 210.57,-141.72 206.57,-134.29 206.57,-141.72 206.07,-141.72 205.57,-141.72 205.57,-134.29 201.57,-141.72 206.07,-131.72"/>
</g>
</g>
</svg>
