<?xml version="1.0" encoding="UTF-8" standalone="no"?>
<!DOCTYPE svg PUBLIC "-//W3C//DTD SVG 1.1//EN"
 "http://www.w3.org/Graphics/SVG/1.1/DTD/svg11.dtd">
<!-- Generated by graphviz version 9.0.0 (20230911.1827)
 -->
<!-- Title: jdk.jconsole Pages: 1 -->
<svg width="383pt" height="310pt"
 viewBox="0.00 0.00 383.25 309.80" xmlns="http://www.w3.org/2000/svg" xmlns:xlink="http://www.w3.org/1999/xlink">
<g id="graph0" class="graph" transform="scale(1 1) rotate(0) translate(4 305.8)">
<title>jdk.jconsole</title>
<polygon fill="white" stroke="none" points="-4,4 -4,-305.8 379.25,-305.8 379.25,4 -4,4"/>
<!-- java.xml -->
<g id="node1" class="node">
<title>java.xml</title>
<text text-anchor="middle" x="43.18" y="-104.2" font-family="DejaVuSans" font-size="12.00" fill="#e76f00">java.xml</text>
</g>
<!-- java.base -->
<g id="node4" class="node">
<title>java.base</title>
<text text-anchor="middle" x="43.18" y="-18" font-family="DejaVuSans" font-size="12.00" fill="#e76f00">java.base</text>
</g>
<!-- java.xml&#45;&gt;java.base -->
<g id="edge5" class="edge">
<title>java.xml&#45;&gt;java.base</title>
<path fill="none" stroke="#dddddd" stroke-width="2" d="M43.18,-86.42C43.18,-77.08 43.18,-65.77 43.18,-55.28"/>
<polygon fill="#dddddd" stroke="#dddddd" stroke-width="2" points="43.18,-45.52 47.68,-55.52 43.68,-48.09 43.68,-55.52 43.18,-55.52 42.68,-55.52 42.68,-48.09 38.68,-55.52 43.18,-45.52"/>
</g>
<!-- java.desktop -->
<g id="node2" class="node">
<title>java.desktop</title>
<text text-anchor="middle" x="148.18" y="-190.4" font-family="DejaVuSans" font-size="12.00" fill="#e76f00">java.desktop</text>
</g>
<!-- java.desktop&#45;&gt;java.xml -->
<g id="edge3" class="edge">
<title>java.desktop&#45;&gt;java.xml</title>
<path fill="none" stroke="#999999" stroke-width="2" d="M122.5,-172.4C109.18,-161.72 92.71,-148.52 78.24,-136.91"/>
<polygon fill="#999999" stroke="#999999" stroke-width="2" points="70.5,-130.71 81.12,-133.45 72.82,-131.92 78.62,-136.58 78.3,-136.97 77.99,-137.36 72.19,-132.7 75.49,-140.48 70.5,-130.71"/>
</g>
<!-- java.datatransfer -->
<g id="node5" class="node">
<title>java.datatransfer</title>
<text text-anchor="middle" x="185.18" y="-104.2" font-family="DejaVuSans" font-size="12.00" fill="#e76f00">java.datatransfer</text>
</g>
<!-- java.desktop&#45;&gt;java.datatransfer -->
<g id="edge2" class="edge">
<title>java.desktop&#45;&gt;java.datatransfer</title>
<path fill="none" stroke="#999999" stroke-width="2" d="M157.14,-172.62C161.38,-162.97 166.54,-151.22 171.27,-140.45"/>
<polygon fill="#999999" stroke="#999999" stroke-width="2" points="175.2,-131.52 175.3,-142.48 174.63,-134.07 171.63,-140.87 171.18,-140.67 170.72,-140.47 173.71,-133.66 167.06,-138.86 175.2,-131.52"/>
</g>
<!-- java.management -->
<g id="node3" class="node">
<title>java.management</title>
<text text-anchor="middle" x="306.18" y="-190.4" font-family="DejaVuSans" font-size="12.00" fill="#e76f00">java.management</text>
</g>
<!-- java.management&#45;&gt;java.base -->
<g id="edge4" class="edge">
<title>java.management&#45;&gt;java.base</title>
<path fill="none" stroke="#dddddd" stroke-width="2" d="M304.68,-172.69C301.81,-148.67 293.46,-109.08 269.18,-86.2 222.83,-42.52 148.86,-28.46 98.26,-24.15"/>
<polygon fill="#dddddd" stroke="#dddddd" stroke-width="2" points="88.36,-23.42 98.66,-19.66 90.95,-23.11 98.37,-23.65 98.34,-24.15 98.3,-24.65 90.88,-24.11 98.01,-28.64 88.36,-23.42"/>
</g>
<!-- java.datatransfer&#45;&gt;java.base -->
<g id="edge1" class="edge">
<title>java.datatransfer&#45;&gt;java.base</title>
<path fill="none" stroke="#dddddd" stroke-width="2" d="M150.44,-86.2C131.65,-75.06 108.23,-61.17 88.07,-49.22"/>
<polygon fill="#dddddd" stroke="#dddddd" stroke-width="2" points="79.66,-44.23 90.55,-45.46 82.12,-45.11 88.51,-48.9 88.26,-49.33 88,-49.76 81.61,-45.97 85.96,-53.2 79.66,-44.23"/>
</g>
<!-- jdk.jconsole -->
<g id="node6" class="node">
<title>jdk.jconsole</title>
<text text-anchor="middle" x="227.18" y="-276.6" font-family="DejaVuSans" font-size="12.00" fill="#437291">jdk.jconsole</text>
</g>
<!-- jdk.jconsole&#45;&gt;java.desktop -->
<g id="edge6" class="edge">
<title>jdk.jconsole&#45;&gt;java.desktop</title>
<path fill="none" stroke="#999999" stroke-width="2" d="M208.06,-258.82C198.33,-248.45 186.33,-235.66 175.63,-224.26"/>
<polygon fill="#999999" stroke="#999999" stroke-width="2" points="169.07,-217.26 179.19,-221.48 171.19,-218.79 176.28,-224.21 175.91,-224.56 175.55,-224.9 170.46,-219.48 172.63,-227.64 169.07,-217.26"/>
</g>
<!-- jdk.jconsole&#45;&gt;java.management -->
<g id="edge7" class="edge">
<title>jdk.jconsole&#45;&gt;java.management</title>
<path fill="none" stroke="#999999" stroke-width="2" d="M246.3,-258.82C256.03,-248.45 268.03,-235.66 278.73,-224.26"/>
<polygon fill="#999999" stroke="#999999" stroke-width="2" points="285.29,-217.26 281.73,-227.64 283.9,-219.48 278.81,-224.9 278.45,-224.56 278.09,-224.21 283.17,-218.79 275.17,-221.48 285.29,-217.26"/>
</g>
</g>
</svg>
