<?xml version="1.0" encoding="UTF-8" standalone="no"?>
<!DOCTYPE svg PUBLIC "-//W3C//DTD SVG 1.1//EN"
 "http://www.w3.org/Graphics/SVG/1.1/DTD/svg11.dtd">
<!-- Generated by graphviz version 9.0.0 (20230911.1827)
 -->
<!-- Title: G Pages: 1 -->
<svg width="1951pt" height="137pt"
 viewBox="0.00 0.00 1951.08 137.40" xmlns="http://www.w3.org/2000/svg" xmlns:xlink="http://www.w3.org/1999/xlink">
<g id="graph0" class="graph" transform="scale(1 1) rotate(0) translate(4 133.4)">
<title>G</title>
<polygon fill="white" stroke="none" points="-4,4 -4,-133.4 1947.08,-133.4 1947.08,4 -4,4"/>
<!-- java.lang.classfile.ClassFile.AttributeMapperOption -->
<g id="node1" class="node">
<title>java.lang.classfile.ClassFile.AttributeMapperOption</title>
<g id="a_node1"><a xlink:href="../../../java/lang/classfile/ClassFile.AttributeMapperOption.html" xlink:title="java.lang.classfile.ClassFile.AttributeMapperOption">
<text text-anchor="middle" x="83.65" y="-18" font-family="DejaVuSans" font-size="12.00" fill="#e76f00">AttributeMapperOption</text>
</a>
</g>
</g>
<!-- java.lang.classfile.ClassFile.Option -->
<g id="node2" class="node">
<title>java.lang.classfile.ClassFile.Option</title>
<g id="a_node2"><a xlink:href="../../../java/lang/classfile/ClassFile.Option.html" xlink:title="java.lang.classfile.ClassFile.Option">
<text text-anchor="middle" x="1010.65" y="-104.2" font-family="DejaVuSans" font-size="12.00" fill="#e76f00">Option</text>
</a>
</g>
</g>
<!-- java.lang.classfile.ClassFile.AttributeMapperOption&#45;&gt;java.lang.classfile.ClassFile.Option -->
<g id="edge1" class="edge">
<title>java.lang.classfile.ClassFile.AttributeMapperOption&#45;&gt;java.lang.classfile.ClassFile.Option</title>
<path fill="none" stroke="#999999" stroke-width="2" d="M167.28,-40.35C173.49,-41.4 179.66,-42.37 185.65,-43.2 480.38,-84.17 838.28,-100.48 964.17,-105.21"/>
<polygon fill="#999999" stroke="#999999" stroke-width="2" points="973.87,-105.57 963.71,-109.7 971.29,-105.97 963.86,-105.7 963.88,-105.2 963.9,-104.7 971.33,-104.97 964.04,-100.7 973.87,-105.57"/>
</g>
<!-- java.lang.classfile.ClassFile.ClassHierarchyResolverOption -->
<g id="node3" class="node">
<title>java.lang.classfile.ClassFile.ClassHierarchyResolverOption</title>
<g id="a_node3"><a xlink:href="../../../java/lang/classfile/ClassFile.ClassHierarchyResolverOption.html" xlink:title="java.lang.classfile.ClassFile.ClassHierarchyResolverOption">
<text text-anchor="middle" x="308.65" y="-18" font-family="DejaVuSans" font-size="12.00" fill="#e76f00">ClassHierarchyResolverOption</text>
</a>
</g>
</g>
<!-- java.lang.classfile.ClassFile.ClassHierarchyResolverOption&#45;&gt;java.lang.classfile.ClassFile.Option -->
<g id="edge2" class="edge">
<title>java.lang.classfile.ClassFile.ClassHierarchyResolverOption&#45;&gt;java.lang.classfile.ClassFile.Option</title>
<path fill="none" stroke="#999999" stroke-width="2" d="M413.94,-40.63C419.92,-41.54 425.86,-42.4 431.65,-43.2 629.09,-70.56 865.75,-93.49 964.17,-102.59"/>
<polygon fill="#999999" stroke="#999999" stroke-width="2" points="973.88,-103.49 963.51,-107.05 971.28,-103.75 963.88,-103.07 963.92,-102.57 963.97,-102.07 971.37,-102.75 964.33,-98.09 973.88,-103.49"/>
</g>
<!-- java.lang.classfile.ClassFile.ConstantPoolSharingOption -->
<g id="node4" class="node">
<title>java.lang.classfile.ClassFile.ConstantPoolSharingOption</title>
<g id="a_node4"><a xlink:href="../../../java/lang/classfile/ClassFile.ConstantPoolSharingOption.html" xlink:title="java.lang.classfile.ClassFile.ConstantPoolSharingOption">
<text text-anchor="middle" x="546.65" y="-18" font-family="DejaVuSans" font-size="12.00" fill="#e76f00">ConstantPoolSharingOption</text>
</a>
</g>
</g>
<!-- java.lang.classfile.ClassFile.ConstantPoolSharingOption&#45;&gt;java.lang.classfile.ClassFile.Option -->
<g id="edge3" class="edge">
<title>java.lang.classfile.ClassFile.ConstantPoolSharingOption&#45;&gt;java.lang.classfile.ClassFile.Option</title>
<path fill="none" stroke="#999999" stroke-width="2" d="M643.64,-40.2C741.83,-58.02 889.52,-84.82 964.07,-98.35"/>
<polygon fill="#999999" stroke="#999999" stroke-width="2" points="973.85,-100.12 963.21,-102.76 971.24,-100.16 963.92,-98.83 964.01,-98.34 964.1,-97.84 971.42,-99.17 964.82,-93.91 973.85,-100.12"/>
</g>
<!-- java.lang.classfile.ClassFile.DeadCodeOption -->
<g id="node5" class="node">
<title>java.lang.classfile.ClassFile.DeadCodeOption</title>
<g id="a_node5"><a xlink:href="../../../java/lang/classfile/ClassFile.DeadCodeOption.html" xlink:title="java.lang.classfile.ClassFile.DeadCodeOption">
<text text-anchor="middle" x="745.65" y="-18" font-family="DejaVuSans" font-size="12.00" fill="#e76f00">DeadCodeOption</text>
</a>
</g>
</g>
<!-- java.lang.classfile.ClassFile.DeadCodeOption&#45;&gt;java.lang.classfile.ClassFile.Option -->
<g id="edge4" class="edge">
<title>java.lang.classfile.ClassFile.DeadCodeOption&#45;&gt;java.lang.classfile.ClassFile.Option</title>
<path fill="none" stroke="#999999" stroke-width="2" d="M810.48,-43.2C858.28,-58.38 922.14,-78.68 964.74,-92.21"/>
<polygon fill="#999999" stroke="#999999" stroke-width="2" points="974.11,-95.19 963.22,-96.45 971.52,-94.89 964.43,-92.64 964.58,-92.16 964.73,-91.69 971.82,-93.94 965.94,-87.87 974.11,-95.19"/>
</g>
<!-- java.lang.classfile.ClassFile.DeadLabelsOption -->
<g id="node6" class="node">
<title>java.lang.classfile.ClassFile.DeadLabelsOption</title>
<g id="a_node6"><a xlink:href="../../../java/lang/classfile/ClassFile.DeadLabelsOption.html" xlink:title="java.lang.classfile.ClassFile.DeadLabelsOption">
<text text-anchor="middle" x="916.65" y="-18" font-family="DejaVuSans" font-size="12.00" fill="#e76f00">DeadLabelsOption</text>
</a>
</g>
</g>
<!-- java.lang.classfile.ClassFile.DeadLabelsOption&#45;&gt;java.lang.classfile.ClassFile.Option -->
<g id="edge5" class="edge">
<title>java.lang.classfile.ClassFile.DeadLabelsOption&#45;&gt;java.lang.classfile.ClassFile.Option</title>
<path fill="none" stroke="#999999" stroke-width="2" d="M939.41,-42.98C951.21,-53.56 965.83,-66.65 978.74,-78.22"/>
<polygon fill="#999999" stroke="#999999" stroke-width="2" points="985.97,-84.69 975.51,-81.37 983.72,-83.35 978.18,-78.39 978.52,-78.02 978.85,-77.64 984.39,-82.6 981.52,-74.66 985.97,-84.69"/>
</g>
<!-- java.lang.classfile.ClassFile.DebugElementsOption -->
<g id="node7" class="node">
<title>java.lang.classfile.ClassFile.DebugElementsOption</title>
<g id="a_node7"><a xlink:href="../../../java/lang/classfile/ClassFile.DebugElementsOption.html" xlink:title="java.lang.classfile.ClassFile.DebugElementsOption">
<text text-anchor="middle" x="1104.65" y="-18" font-family="DejaVuSans" font-size="12.00" fill="#e76f00">DebugElementsOption</text>
</a>
</g>
</g>
<!-- java.lang.classfile.ClassFile.DebugElementsOption&#45;&gt;java.lang.classfile.ClassFile.Option -->
<g id="edge6" class="edge">
<title>java.lang.classfile.ClassFile.DebugElementsOption&#45;&gt;java.lang.classfile.ClassFile.Option</title>
<path fill="none" stroke="#999999" stroke-width="2" d="M1081.9,-42.98C1070.09,-53.56 1055.48,-66.65 1042.56,-78.22"/>
<polygon fill="#999999" stroke="#999999" stroke-width="2" points="1035.34,-84.69 1039.78,-74.66 1036.91,-82.6 1042.45,-77.64 1042.79,-78.02 1043.12,-78.39 1037.58,-83.35 1045.79,-81.37 1035.34,-84.69"/>
</g>
<!-- java.lang.classfile.ClassFile.LineNumbersOption -->
<g id="node8" class="node">
<title>java.lang.classfile.ClassFile.LineNumbersOption</title>
<g id="a_node8"><a xlink:href="../../../java/lang/classfile/ClassFile.LineNumbersOption.html" xlink:title="java.lang.classfile.ClassFile.LineNumbersOption">
<text text-anchor="middle" x="1296.65" y="-18" font-family="DejaVuSans" font-size="12.00" fill="#e76f00">LineNumbersOption</text>
</a>
</g>
</g>
<!-- java.lang.classfile.ClassFile.LineNumbersOption&#45;&gt;java.lang.classfile.ClassFile.Option -->
<g id="edge7" class="edge">
<title>java.lang.classfile.ClassFile.LineNumbersOption&#45;&gt;java.lang.classfile.ClassFile.Option</title>
<path fill="none" stroke="#999999" stroke-width="2" d="M1226.69,-43.2C1173.71,-58.8 1102.45,-79.78 1056.52,-93.3"/>
<polygon fill="#999999" stroke="#999999" stroke-width="2" points="1047.19,-96.04 1055.51,-88.9 1049.5,-94.84 1056.64,-92.74 1056.78,-93.22 1056.92,-93.7 1049.79,-95.8 1058.05,-97.54 1047.19,-96.04"/>
</g>
<!-- java.lang.classfile.ClassFile.ShortJumpsOption -->
<g id="node9" class="node">
<title>java.lang.classfile.ClassFile.ShortJumpsOption</title>
<g id="a_node9"><a xlink:href="../../../java/lang/classfile/ClassFile.ShortJumpsOption.html" xlink:title="java.lang.classfile.ClassFile.ShortJumpsOption">
<text text-anchor="middle" x="1475.65" y="-18" font-family="DejaVuSans" font-size="12.00" fill="#e76f00">ShortJumpsOption</text>
</a>
</g>
</g>
<!-- java.lang.classfile.ClassFile.ShortJumpsOption&#45;&gt;java.lang.classfile.ClassFile.Option -->
<g id="edge8" class="edge">
<title>java.lang.classfile.ClassFile.ShortJumpsOption&#45;&gt;java.lang.classfile.ClassFile.Option</title>
<path fill="none" stroke="#999999" stroke-width="2" d="M1406.88,-39.32C1400.73,-40.69 1394.59,-42 1388.65,-43.2 1269.74,-67.25 1128.5,-89.3 1057.03,-100"/>
<polygon fill="#999999" stroke="#999999" stroke-width="2" points="1047.34,-101.45 1056.57,-95.52 1049.8,-100.57 1057.16,-99.48 1057.23,-99.97 1057.31,-100.47 1049.95,-101.56 1057.9,-104.42 1047.34,-101.45"/>
</g>
<!-- java.lang.classfile.ClassFile.StackMapsOption -->
<g id="node10" class="node">
<title>java.lang.classfile.ClassFile.StackMapsOption</title>
<g id="a_node10"><a xlink:href="../../../java/lang/classfile/ClassFile.StackMapsOption.html" xlink:title="java.lang.classfile.ClassFile.StackMapsOption">
<text text-anchor="middle" x="1647.65" y="-18" font-family="DejaVuSans" font-size="12.00" fill="#e76f00">StackMapsOption</text>
</a>
</g>
</g>
<!-- java.lang.classfile.ClassFile.StackMapsOption&#45;&gt;java.lang.classfile.ClassFile.Option -->
<g id="edge9" class="edge">
<title>java.lang.classfile.ClassFile.StackMapsOption&#45;&gt;java.lang.classfile.ClassFile.Option</title>
<path fill="none" stroke="#999999" stroke-width="2" d="M1581,-39.57C1574.82,-40.9 1568.63,-42.14 1562.65,-43.2 1376.74,-76.31 1152.39,-95.97 1057.09,-103.39"/>
<polygon fill="#999999" stroke="#999999" stroke-width="2" points="1047.21,-104.15 1056.84,-98.9 1049.73,-103.46 1057.14,-102.89 1057.18,-103.38 1057.22,-103.88 1049.81,-104.45 1057.53,-107.87 1047.21,-104.15"/>
</g>
<!-- java.lang.classfile.ClassFile.AttributesProcessingOption -->
<g id="node11" class="node">
<title>java.lang.classfile.ClassFile.AttributesProcessingOption</title>
<g id="a_node11"><a xlink:href="../../../java/lang/classfile/ClassFile.AttributesProcessingOption.html" xlink:title="java.lang.classfile.ClassFile.AttributesProcessingOption">
<text text-anchor="middle" x="1846.65" y="-18" font-family="DejaVuSans" font-size="12.00" fill="#e76f00">AttributesProcessingOption</text>
</a>
</g>
</g>
<!-- java.lang.classfile.ClassFile.AttributesProcessingOption&#45;&gt;java.lang.classfile.ClassFile.Option -->
<g id="edge10" class="edge">
<title>java.lang.classfile.ClassFile.AttributesProcessingOption&#45;&gt;java.lang.classfile.ClassFile.Option</title>
<path fill="none" stroke="#999999" stroke-width="2" d="M1750.35,-40.64C1744.37,-41.56 1738.43,-42.42 1732.65,-43.2 1478.71,-77.26 1171.97,-97.37 1057.07,-104.18"/>
<polygon fill="#999999" stroke="#999999" stroke-width="2" points="1047.41,-104.75 1057.13,-99.67 1049.94,-104.1 1057.36,-103.66 1057.39,-104.16 1057.42,-104.66 1049.99,-105.09 1057.65,-108.65 1047.41,-104.75"/>
</g>
</g>
</svg>
