<?xml version="1.0" encoding="UTF-8" standalone="no"?>
<!DOCTYPE svg PUBLIC "-//W3C//DTD SVG 1.1//EN"
 "http://www.w3.org/Graphics/SVG/1.1/DTD/svg11.dtd">
<!-- Generated by graphviz version 9.0.0 (20230911.1827)
 -->
<!-- Title: G Pages: 1 -->
<svg width="342pt" height="137pt"
 viewBox="0.00 0.00 341.58 137.40" xmlns="http://www.w3.org/2000/svg" xmlns:xlink="http://www.w3.org/1999/xlink">
<g id="graph0" class="graph" transform="scale(1 1) rotate(0) translate(4 133.4)">
<title>G</title>
<polygon fill="white" stroke="none" points="-4,4 -4,-133.4 337.58,-133.4 337.58,4 -4,4"/>
<!-- java.awt.LinearGradientPaint -->
<g id="node1" class="node">
<title>java.awt.LinearGradientPaint</title>
<g id="a_node1"><a xlink:href="../../java/awt/LinearGradientPaint.html" xlink:title="java.awt.LinearGradientPaint">
<text text-anchor="middle" x="74.28" y="-18" font-family="DejaVuSans" font-size="12.00" fill="#e76f00">LinearGradientPaint</text>
</a>
</g>
</g>
<!-- java.awt.MultipleGradientPaint -->
<g id="node2" class="node">
<title>java.awt.MultipleGradientPaint</title>
<g id="a_node2"><a xlink:href="../../java/awt/MultipleGradientPaint.html" xlink:title="java.awt.MultipleGradientPaint">
<text text-anchor="middle" x="166.28" y="-104.2" font-family="DejaVuSans" font-size="12.00" fill="#e76f00">MultipleGradientPaint</text>
</a>
</g>
</g>
<!-- java.awt.LinearGradientPaint&#45;&gt;java.awt.MultipleGradientPaint -->
<g id="edge1" class="edge">
<title>java.awt.LinearGradientPaint&#45;&gt;java.awt.MultipleGradientPaint</title>
<path fill="none" stroke="#999999" stroke-width="2" d="M96.55,-42.98C108.1,-53.56 122.41,-66.65 135.05,-78.22"/>
<polygon fill="#999999" stroke="#999999" stroke-width="2" points="142.1,-84.67 131.68,-81.24 139.87,-83.31 134.38,-78.29 134.72,-77.92 135.06,-77.55 140.54,-82.57 137.76,-74.6 142.1,-84.67"/>
</g>
<!-- java.awt.RadialGradientPaint -->
<g id="node3" class="node">
<title>java.awt.RadialGradientPaint</title>
<g id="a_node3"><a xlink:href="../../java/awt/RadialGradientPaint.html" xlink:title="java.awt.RadialGradientPaint">
<text text-anchor="middle" x="259.28" y="-18" font-family="DejaVuSans" font-size="12.00" fill="#e76f00">RadialGradientPaint</text>
</a>
</g>
</g>
<!-- java.awt.RadialGradientPaint&#45;&gt;java.awt.MultipleGradientPaint -->
<g id="edge2" class="edge">
<title>java.awt.RadialGradientPaint&#45;&gt;java.awt.MultipleGradientPaint</title>
<path fill="none" stroke="#999999" stroke-width="2" d="M236.77,-42.98C225.09,-53.56 210.63,-66.65 197.85,-78.22"/>
<polygon fill="#999999" stroke="#999999" stroke-width="2" points="190.71,-84.68 195.11,-74.63 192.28,-82.59 197.79,-77.6 198.13,-77.97 198.46,-78.34 192.95,-83.33 201.15,-81.3 190.71,-84.68"/>
</g>
</g>
</svg>
