<?xml version="1.0" encoding="UTF-8" standalone="no"?>
<!DOCTYPE svg PUBLIC "-//W3C//DTD SVG 1.1//EN"
 "http://www.w3.org/Graphics/SVG/1.1/DTD/svg11.dtd">
<!-- Generated by graphviz version 9.0.0 (20230911.1827)
 -->
<!-- Title: G Pages: 1 -->
<svg width="212pt" height="224pt"
 viewBox="0.00 0.00 211.54 223.60" xmlns="http://www.w3.org/2000/svg" xmlns:xlink="http://www.w3.org/1999/xlink">
<g id="graph0" class="graph" transform="scale(1 1) rotate(0) translate(4 219.6)">
<title>G</title>
<polygon fill="white" stroke="none" points="-4,4 -4,-219.6 207.54,-219.6 207.54,4 -4,4"/>
<!-- java.awt.TextArea -->
<g id="node1" class="node">
<title>java.awt.TextArea</title>
<g id="a_node1"><a xlink:href="../../java/awt/TextArea.html" xlink:title="java.awt.TextArea">
<text text-anchor="middle" x="161.94" y="-104.2" font-family="DejaVuSans" font-size="12.00" fill="#e76f00">TextArea</text>
</a>
</g>
</g>
<!-- java.awt.TextComponent -->
<g id="node2" class="node">
<title>java.awt.TextComponent</title>
<g id="a_node2"><a xlink:href="../../java/awt/TextComponent.html" xlink:title="java.awt.TextComponent">
<text text-anchor="middle" x="101.94" y="-190.4" font-family="DejaVuSans" font-size="12.00" fill="#e76f00">TextComponent</text>
</a>
</g>
</g>
<!-- java.awt.TextArea&#45;&gt;java.awt.TextComponent -->
<g id="edge1" class="edge">
<title>java.awt.TextArea&#45;&gt;java.awt.TextComponent</title>
<path fill="none" stroke="#999999" stroke-width="2" d="M147.42,-129.18C140.25,-139.24 131.46,-151.58 123.52,-162.72"/>
<polygon fill="#999999" stroke="#999999" stroke-width="2" points="117.96,-170.53 120.1,-159.77 119.04,-168.15 123.35,-162.09 123.76,-162.38 124.17,-162.68 119.85,-168.73 127.43,-165 117.96,-170.53"/>
</g>
<!-- open node #0 -->
<g id="node3" class="node">
<title>open node #0</title>
<g id="a_node3"><a xlink:title="Non&#45;sealed Hierarchy">
<text text-anchor="start" x="140.86" y="-19" font-family="DejaVuSans" font-style="italic" font-size="12.00" fill="#e76f00">&lt;any&gt;</text>
</a>
</g>
</g>
<!-- open node #0&#45;&gt;java.awt.TextArea -->
<g id="edge2" class="edge">
<title>open node #0&#45;&gt;java.awt.TextArea</title>
<path fill="none" stroke="#999999" stroke-width="2" stroke-dasharray="5,2" d="M161.94,-42.98C161.94,-52.32 161.94,-63.63 161.94,-74.12"/>
<polygon fill="#999999" stroke="#999999" stroke-width="2" points="161.94,-83.88 157.45,-73.88 161.44,-81.31 161.45,-73.88 161.95,-73.88 162.45,-73.88 162.44,-81.31 166.45,-73.88 161.94,-83.88"/>
</g>
<!-- java.awt.TextField -->
<g id="node4" class="node">
<title>java.awt.TextField</title>
<g id="a_node4"><a xlink:href="../../java/awt/TextField.html" xlink:title="java.awt.TextField">
<text text-anchor="middle" x="41.94" y="-104.2" font-family="DejaVuSans" font-size="12.00" fill="#e76f00">TextField</text>
</a>
</g>
</g>
<!-- java.awt.TextField&#45;&gt;java.awt.TextComponent -->
<g id="edge3" class="edge">
<title>java.awt.TextField&#45;&gt;java.awt.TextComponent</title>
<path fill="none" stroke="#999999" stroke-width="2" d="M56.47,-129.18C63.64,-139.24 72.43,-151.58 80.37,-162.72"/>
<polygon fill="#999999" stroke="#999999" stroke-width="2" points="85.93,-170.53 76.46,-165 84.04,-168.73 79.72,-162.68 80.13,-162.38 80.54,-162.09 84.85,-168.15 83.79,-159.77 85.93,-170.53"/>
</g>
<!-- open node #1 -->
<g id="node5" class="node">
<title>open node #1</title>
<g id="a_node5"><a xlink:title="Non&#45;sealed Hierarchy">
<text text-anchor="start" x="20.86" y="-19" font-family="DejaVuSans" font-style="italic" font-size="12.00" fill="#e76f00">&lt;any&gt;</text>
</a>
</g>
</g>
<!-- open node #1&#45;&gt;java.awt.TextField -->
<g id="edge4" class="edge">
<title>open node #1&#45;&gt;java.awt.TextField</title>
<path fill="none" stroke="#999999" stroke-width="2" stroke-dasharray="5,2" d="M41.94,-42.98C41.94,-52.32 41.94,-63.63 41.94,-74.12"/>
<polygon fill="#999999" stroke="#999999" stroke-width="2" points="41.94,-83.88 37.45,-73.88 41.44,-81.31 41.45,-73.88 41.95,-73.88 42.45,-73.88 42.44,-81.31 46.45,-73.88 41.94,-83.88"/>
</g>
</g>
</svg>
