<?xml version="1.0" encoding="UTF-8" standalone="no"?>
<!DOCTYPE svg PUBLIC "-//W3C//DTD SVG 1.1//EN"
 "http://www.w3.org/Graphics/SVG/1.1/DTD/svg11.dtd">
<!-- Generated by graphviz version 9.0.0 (20230911.1827)
 -->
<!-- Title: jdk.management Pages: 1 -->
<svg width="146pt" height="224pt"
 viewBox="0.00 0.00 146.14 223.60" xmlns="http://www.w3.org/2000/svg" xmlns:xlink="http://www.w3.org/1999/xlink">
<g id="graph0" class="graph" transform="scale(1 1) rotate(0) translate(4 219.6)">
<title>jdk.management</title>
<polygon fill="white" stroke="none" points="-4,4 -4,-219.6 142.14,-219.6 142.14,4 -4,4"/>
<!-- java.management -->
<g id="node1" class="node">
<title>java.management</title>
<text text-anchor="middle" x="69.07" y="-104.2" font-family="DejaVuSans" font-size="12.00" fill="#e76f00">java.management</text>
</g>
<!-- java.base -->
<g id="node2" class="node">
<title>java.base</title>
<text text-anchor="middle" x="69.07" y="-18" font-family="DejaVuSans" font-size="12.00" fill="#e76f00">java.base</text>
</g>
<!-- java.management&#45;&gt;java.base -->
<g id="edge1" class="edge">
<title>java.management&#45;&gt;java.base</title>
<path fill="none" stroke="#dddddd" stroke-width="2" d="M69.07,-86.42C69.07,-77.08 69.07,-65.77 69.07,-55.28"/>
<polygon fill="#dddddd" stroke="#dddddd" stroke-width="2" points="69.07,-45.52 73.57,-55.52 69.57,-48.09 69.57,-55.52 69.07,-55.52 68.57,-55.52 68.57,-48.09 64.57,-55.52 69.07,-45.52"/>
</g>
<!-- jdk.management -->
<g id="node3" class="node">
<title>jdk.management</title>
<text text-anchor="middle" x="69.07" y="-190.4" font-family="DejaVuSans" font-size="12.00" fill="#437291">jdk.management</text>
</g>
<!-- jdk.management&#45;&gt;java.management -->
<g id="edge2" class="edge">
<title>jdk.management&#45;&gt;java.management</title>
<path fill="none" stroke="#999999" stroke-width="2" d="M69.07,-172.62C69.07,-163.28 69.07,-151.97 69.07,-141.48"/>
<polygon fill="#999999" stroke="#999999" stroke-width="2" points="69.07,-131.72 73.57,-141.72 69.57,-134.29 69.57,-141.72 69.07,-141.72 68.57,-141.72 68.57,-134.29 64.57,-141.72 69.07,-131.72"/>
</g>
</g>
</svg>
