<?xml version="1.0" encoding="UTF-8" standalone="no"?>
<!DOCTYPE svg PUBLIC "-//W3C//DTD SVG 1.1//EN"
 "http://www.w3.org/Graphics/SVG/1.1/DTD/svg11.dtd">
<!-- Generated by graphviz version 9.0.0 (20230911.1827)
 -->
<!-- Title: java.xml.crypto Pages: 1 -->
<svg width="130pt" height="224pt"
 viewBox="0.00 0.00 129.99 223.60" xmlns="http://www.w3.org/2000/svg" xmlns:xlink="http://www.w3.org/1999/xlink">
<g id="graph0" class="graph" transform="scale(1 1) rotate(0) translate(4 219.6)">
<title>java.xml.crypto</title>
<polygon fill="white" stroke="none" points="-4,4 -4,-219.6 125.99,-219.6 125.99,4 -4,4"/>
<!-- java.xml -->
<g id="node1" class="node">
<title>java.xml</title>
<text text-anchor="middle" x="61" y="-104.2" font-family="DejaVuSans" font-size="12.00" fill="#e76f00">java.xml</text>
</g>
<!-- java.base -->
<g id="node2" class="node">
<title>java.base</title>
<text text-anchor="middle" x="61" y="-18" font-family="DejaVuSans" font-size="12.00" fill="#e76f00">java.base</text>
</g>
<!-- java.xml&#45;&gt;java.base -->
<g id="edge1" class="edge">
<title>java.xml&#45;&gt;java.base</title>
<path fill="none" stroke="#dddddd" stroke-width="2" d="M61,-86.42C61,-77.08 61,-65.77 61,-55.28"/>
<polygon fill="#dddddd" stroke="#dddddd" stroke-width="2" points="61,-45.52 65.5,-55.52 61.5,-48.09 61.5,-55.52 61,-55.52 60.5,-55.52 60.5,-48.09 56.5,-55.52 61,-45.52"/>
</g>
<!-- java.xml.crypto -->
<g id="node3" class="node">
<title>java.xml.crypto</title>
<text text-anchor="middle" x="61" y="-190.4" font-family="DejaVuSans" font-size="12.00" fill="#e76f00">java.xml.crypto</text>
</g>
<!-- java.xml.crypto&#45;&gt;java.xml -->
<g id="edge2" class="edge">
<title>java.xml.crypto&#45;&gt;java.xml</title>
<path fill="none" stroke="#999999" stroke-width="2" d="M61,-172.62C61,-163.28 61,-151.97 61,-141.48"/>
<polygon fill="#999999" stroke="#999999" stroke-width="2" points="61,-131.72 65.5,-141.72 61.5,-134.29 61.5,-141.72 61,-141.72 60.5,-141.72 60.5,-134.29 56.5,-141.72 61,-131.72"/>
</g>
</g>
</svg>
