<?xml version="1.0" encoding="UTF-8" standalone="no"?>
<!DOCTYPE svg PUBLIC "-//W3C//DTD SVG 1.1//EN"
 "http://www.w3.org/Graphics/SVG/1.1/DTD/svg11.dtd">
<!-- Generated by graphviz version 9.0.0 (20230911.1827)
 -->
<!-- Title: G Pages: 1 -->
<svg width="968pt" height="224pt"
 viewBox="0.00 0.00 967.67 223.60" xmlns="http://www.w3.org/2000/svg" xmlns:xlink="http://www.w3.org/1999/xlink">
<g id="graph0" class="graph" transform="scale(1 1) rotate(0) translate(4 219.6)">
<title>G</title>
<polygon fill="white" stroke="none" points="-4,4 -4,-219.6 963.67,-219.6 963.67,4 -4,4"/>
<!-- java.lang.classfile.AnnotationValue.OfAnnotation -->
<g id="node1" class="node">
<title>java.lang.classfile.AnnotationValue.OfAnnotation</title>
<g id="a_node1"><a xlink:href="../../../java/lang/classfile/AnnotationValue.OfAnnotation.html" xlink:title="java.lang.classfile.AnnotationValue.OfAnnotation">
<text text-anchor="middle" x="231.14" y="-104.2" font-family="DejaVuSans" font-size="12.00" fill="#e76f00">OfAnnotation</text>
</a>
</g>
</g>
<!-- java.lang.classfile.AnnotationValue -->
<g id="node2" class="node">
<title>java.lang.classfile.AnnotationValue</title>
<g id="a_node2"><a xlink:href="../../../java/lang/classfile/AnnotationValue.html" xlink:title="java.lang.classfile.AnnotationValue">
<text text-anchor="middle" x="481.14" y="-190.4" font-family="DejaVuSans" font-size="12.00" fill="#e76f00">AnnotationValue</text>
</a>
</g>
</g>
<!-- java.lang.classfile.AnnotationValue.OfAnnotation&#45;&gt;java.lang.classfile.AnnotationValue -->
<g id="edge1" class="edge">
<title>java.lang.classfile.AnnotationValue.OfAnnotation&#45;&gt;java.lang.classfile.AnnotationValue</title>
<path fill="none" stroke="#999999" stroke-width="2" d="M285.08,-126.97C321.19,-139.13 369.15,-155.28 408.6,-168.57"/>
<polygon fill="#999999" stroke="#999999" stroke-width="2" points="417.97,-171.72 407.05,-172.8 415.38,-171.38 408.33,-169 408.49,-168.53 408.65,-168.06 415.7,-170.43 409.92,-164.27 417.97,-171.72"/>
</g>
<!-- java.lang.classfile.AnnotationValue.OfArray -->
<g id="node3" class="node">
<title>java.lang.classfile.AnnotationValue.OfArray</title>
<g id="a_node3"><a xlink:href="../../../java/lang/classfile/AnnotationValue.OfArray.html" xlink:title="java.lang.classfile.AnnotationValue.OfArray">
<text text-anchor="middle" x="359.14" y="-104.2" font-family="DejaVuSans" font-size="12.00" fill="#e76f00">OfArray</text>
</a>
</g>
</g>
<!-- java.lang.classfile.AnnotationValue.OfArray&#45;&gt;java.lang.classfile.AnnotationValue -->
<g id="edge2" class="edge">
<title>java.lang.classfile.AnnotationValue.OfArray&#45;&gt;java.lang.classfile.AnnotationValue</title>
<path fill="none" stroke="#999999" stroke-width="2" d="M388.99,-129.4C404.76,-140.28 424.33,-153.79 441.38,-165.55"/>
<polygon fill="#999999" stroke="#999999" stroke-width="2" points="449.6,-171.23 438.81,-169.25 447.21,-170.19 441.08,-165.96 441.37,-165.55 441.65,-165.14 447.77,-169.36 443.93,-161.85 449.6,-171.23"/>
</g>
<!-- java.lang.classfile.AnnotationValue.OfConstant -->
<g id="node4" class="node">
<title>java.lang.classfile.AnnotationValue.OfConstant</title>
<g id="a_node4"><a xlink:href="../../../java/lang/classfile/AnnotationValue.OfConstant.html" xlink:title="java.lang.classfile.AnnotationValue.OfConstant">
<text text-anchor="middle" x="481.14" y="-104.2" font-family="DejaVuSans" font-size="12.00" fill="#e76f00">OfConstant</text>
</a>
</g>
</g>
<!-- java.lang.classfile.AnnotationValue.OfConstant&#45;&gt;java.lang.classfile.AnnotationValue -->
<g id="edge3" class="edge">
<title>java.lang.classfile.AnnotationValue.OfConstant&#45;&gt;java.lang.classfile.AnnotationValue</title>
<path fill="none" stroke="#999999" stroke-width="2" d="M481.14,-129.18C481.14,-138.52 481.14,-149.83 481.14,-160.32"/>
<polygon fill="#999999" stroke="#999999" stroke-width="2" points="481.14,-170.08 476.64,-160.08 480.64,-167.51 480.64,-160.08 481.14,-160.08 481.64,-160.08 481.64,-167.51 485.64,-160.08 481.14,-170.08"/>
</g>
<!-- java.lang.classfile.AnnotationValue.OfString -->
<g id="node5" class="node">
<title>java.lang.classfile.AnnotationValue.OfString</title>
<g id="a_node5"><a xlink:href="../../../java/lang/classfile/AnnotationValue.OfString.html" xlink:title="java.lang.classfile.AnnotationValue.OfString">
<text text-anchor="middle" x="39.14" y="-18" font-family="DejaVuSans" font-size="12.00" fill="#e76f00">OfString</text>
</a>
</g>
</g>
<!-- java.lang.classfile.AnnotationValue.OfString&#45;&gt;java.lang.classfile.AnnotationValue.OfConstant -->
<g id="edge4" class="edge">
<title>java.lang.classfile.AnnotationValue.OfString&#45;&gt;java.lang.classfile.AnnotationValue.OfConstant</title>
<path fill="none" stroke="#999999" stroke-width="2" d="M78.12,-37.68C84.41,-39.76 90.91,-41.69 97.14,-43.2 235.75,-76.8 275.91,-55.29 415.14,-86.2 417.16,-86.65 419.2,-87.13 421.25,-87.63"/>
<polygon fill="#999999" stroke="#999999" stroke-width="2" points="430.74,-90.15 419.92,-91.93 428.13,-89.98 420.94,-88.07 421.07,-87.59 421.2,-87.1 428.39,-89.01 422.23,-83.24 430.74,-90.15"/>
</g>
<!-- java.lang.classfile.AnnotationValue.OfDouble -->
<g id="node6" class="node">
<title>java.lang.classfile.AnnotationValue.OfDouble</title>
<g id="a_node6"><a xlink:href="../../../java/lang/classfile/AnnotationValue.OfDouble.html" xlink:title="java.lang.classfile.AnnotationValue.OfDouble">
<text text-anchor="middle" x="157.14" y="-18" font-family="DejaVuSans" font-size="12.00" fill="#e76f00">OfDouble</text>
</a>
</g>
</g>
<!-- java.lang.classfile.AnnotationValue.OfDouble&#45;&gt;java.lang.classfile.AnnotationValue.OfConstant -->
<g id="edge5" class="edge">
<title>java.lang.classfile.AnnotationValue.OfDouble&#45;&gt;java.lang.classfile.AnnotationValue.OfConstant</title>
<path fill="none" stroke="#999999" stroke-width="2" d="M199.62,-37.61C205.8,-39.6 212.11,-41.53 218.14,-43.2 304.5,-67.13 328.51,-63.27 415.14,-86.2 417.14,-86.73 419.16,-87.28 421.2,-87.84"/>
<polygon fill="#999999" stroke="#999999" stroke-width="2" points="430.64,-90.56 419.79,-92.12 428.04,-90.33 420.89,-88.28 421.03,-87.79 421.17,-87.31 428.31,-89.37 422.27,-83.47 430.64,-90.56"/>
</g>
<!-- java.lang.classfile.AnnotationValue.OfFloat -->
<g id="node7" class="node">
<title>java.lang.classfile.AnnotationValue.OfFloat</title>
<g id="a_node7"><a xlink:href="../../../java/lang/classfile/AnnotationValue.OfFloat.html" xlink:title="java.lang.classfile.AnnotationValue.OfFloat">
<text text-anchor="middle" x="272.14" y="-18" font-family="DejaVuSans" font-size="12.00" fill="#e76f00">OfFloat</text>
</a>
</g>
</g>
<!-- java.lang.classfile.AnnotationValue.OfFloat&#45;&gt;java.lang.classfile.AnnotationValue.OfConstant -->
<g id="edge6" class="edge">
<title>java.lang.classfile.AnnotationValue.OfFloat&#45;&gt;java.lang.classfile.AnnotationValue.OfConstant</title>
<path fill="none" stroke="#999999" stroke-width="2" d="M308.07,-37.07C339.38,-49.69 385.39,-68.22 422.1,-83.01"/>
<polygon fill="#999999" stroke="#999999" stroke-width="2" points="430.91,-86.56 419.95,-87 428.34,-86.07 421.45,-83.29 421.63,-82.83 421.82,-82.36 428.72,-85.14 423.31,-78.65 430.91,-86.56"/>
</g>
<!-- java.lang.classfile.AnnotationValue.OfLong -->
<g id="node8" class="node">
<title>java.lang.classfile.AnnotationValue.OfLong</title>
<g id="a_node8"><a xlink:href="../../../java/lang/classfile/AnnotationValue.OfLong.html" xlink:title="java.lang.classfile.AnnotationValue.OfLong">
<text text-anchor="middle" x="380.14" y="-18" font-family="DejaVuSans" font-size="12.00" fill="#e76f00">OfLong</text>
</a>
</g>
</g>
<!-- java.lang.classfile.AnnotationValue.OfLong&#45;&gt;java.lang.classfile.AnnotationValue.OfConstant -->
<g id="edge7" class="edge">
<title>java.lang.classfile.AnnotationValue.OfLong&#45;&gt;java.lang.classfile.AnnotationValue.OfConstant</title>
<path fill="none" stroke="#999999" stroke-width="2" d="M404.85,-43.2C417.66,-53.88 433.5,-67.08 447.42,-78.69"/>
<polygon fill="#999999" stroke="#999999" stroke-width="2" points="454.82,-84.85 444.25,-81.91 452.53,-83.6 446.82,-78.84 447.14,-78.45 447.46,-78.07 453.17,-82.83 450.02,-74.99 454.82,-84.85"/>
</g>
<!-- java.lang.classfile.AnnotationValue.OfInt -->
<g id="node9" class="node">
<title>java.lang.classfile.AnnotationValue.OfInt</title>
<g id="a_node9"><a xlink:href="../../../java/lang/classfile/AnnotationValue.OfInt.html" xlink:title="java.lang.classfile.AnnotationValue.OfInt">
<text text-anchor="middle" x="481.14" y="-18" font-family="DejaVuSans" font-size="12.00" fill="#e76f00">OfInt</text>
</a>
</g>
</g>
<!-- java.lang.classfile.AnnotationValue.OfInt&#45;&gt;java.lang.classfile.AnnotationValue.OfConstant -->
<g id="edge8" class="edge">
<title>java.lang.classfile.AnnotationValue.OfInt&#45;&gt;java.lang.classfile.AnnotationValue.OfConstant</title>
<path fill="none" stroke="#999999" stroke-width="2" d="M481.14,-42.98C481.14,-52.32 481.14,-63.63 481.14,-74.12"/>
<polygon fill="#999999" stroke="#999999" stroke-width="2" points="481.14,-83.88 476.64,-73.88 480.64,-81.31 480.64,-73.88 481.14,-73.88 481.64,-73.88 481.64,-81.31 485.64,-73.88 481.14,-83.88"/>
</g>
<!-- java.lang.classfile.AnnotationValue.OfShort -->
<g id="node10" class="node">
<title>java.lang.classfile.AnnotationValue.OfShort</title>
<g id="a_node10"><a xlink:href="../../../java/lang/classfile/AnnotationValue.OfShort.html" xlink:title="java.lang.classfile.AnnotationValue.OfShort">
<text text-anchor="middle" x="583.14" y="-18" font-family="DejaVuSans" font-size="12.00" fill="#e76f00">OfShort</text>
</a>
</g>
</g>
<!-- java.lang.classfile.AnnotationValue.OfShort&#45;&gt;java.lang.classfile.AnnotationValue.OfConstant -->
<g id="edge9" class="edge">
<title>java.lang.classfile.AnnotationValue.OfShort&#45;&gt;java.lang.classfile.AnnotationValue.OfConstant</title>
<path fill="none" stroke="#999999" stroke-width="2" d="M558.19,-43.2C545.25,-53.88 529.25,-67.08 515.2,-78.69"/>
<polygon fill="#999999" stroke="#999999" stroke-width="2" points="507.71,-84.86 512.56,-75.03 509.37,-82.85 515.11,-78.11 515.43,-78.5 515.75,-78.88 510.01,-83.62 518.29,-81.97 507.71,-84.86"/>
</g>
<!-- java.lang.classfile.AnnotationValue.OfChar -->
<g id="node11" class="node">
<title>java.lang.classfile.AnnotationValue.OfChar</title>
<g id="a_node11"><a xlink:href="../../../java/lang/classfile/AnnotationValue.OfChar.html" xlink:title="java.lang.classfile.AnnotationValue.OfChar">
<text text-anchor="middle" x="692.14" y="-18" font-family="DejaVuSans" font-size="12.00" fill="#e76f00">OfChar</text>
</a>
</g>
</g>
<!-- java.lang.classfile.AnnotationValue.OfChar&#45;&gt;java.lang.classfile.AnnotationValue.OfConstant -->
<g id="edge10" class="edge">
<title>java.lang.classfile.AnnotationValue.OfChar&#45;&gt;java.lang.classfile.AnnotationValue.OfConstant</title>
<path fill="none" stroke="#999999" stroke-width="2" d="M656.82,-36.69C625.14,-49.34 578,-68.15 540.53,-83.1"/>
<polygon fill="#999999" stroke="#999999" stroke-width="2" points="531.5,-86.7 539.12,-78.82 533.7,-85.29 540.6,-82.53 540.79,-83 540.97,-83.46 534.07,-86.22 542.46,-87.18 531.5,-86.7"/>
</g>
<!-- java.lang.classfile.AnnotationValue.OfByte -->
<g id="node12" class="node">
<title>java.lang.classfile.AnnotationValue.OfByte</title>
<g id="a_node12"><a xlink:href="../../../java/lang/classfile/AnnotationValue.OfByte.html" xlink:title="java.lang.classfile.AnnotationValue.OfByte">
<text text-anchor="middle" x="798.14" y="-18" font-family="DejaVuSans" font-size="12.00" fill="#e76f00">OfByte</text>
</a>
</g>
</g>
<!-- java.lang.classfile.AnnotationValue.OfByte&#45;&gt;java.lang.classfile.AnnotationValue.OfConstant -->
<g id="edge11" class="edge">
<title>java.lang.classfile.AnnotationValue.OfByte&#45;&gt;java.lang.classfile.AnnotationValue.OfConstant</title>
<path fill="none" stroke="#999999" stroke-width="2" d="M763.35,-37.02C757.33,-39.25 751.1,-41.41 745.14,-43.2 658.91,-69.15 634.21,-63.21 547.14,-86.2 545.15,-86.73 543.12,-87.28 541.08,-87.84"/>
<polygon fill="#999999" stroke="#999999" stroke-width="2" points="531.64,-90.55 540.01,-83.47 533.97,-89.37 541.11,-87.31 541.25,-87.79 541.39,-88.27 534.24,-90.33 542.5,-92.12 531.64,-90.55"/>
</g>
<!-- java.lang.classfile.AnnotationValue.OfBoolean -->
<g id="node13" class="node">
<title>java.lang.classfile.AnnotationValue.OfBoolean</title>
<g id="a_node13"><a xlink:href="../../../java/lang/classfile/AnnotationValue.OfBoolean.html" xlink:title="java.lang.classfile.AnnotationValue.OfBoolean">
<text text-anchor="middle" x="914.14" y="-18" font-family="DejaVuSans" font-size="12.00" fill="#e76f00">OfBoolean</text>
</a>
</g>
</g>
<!-- java.lang.classfile.AnnotationValue.OfBoolean&#45;&gt;java.lang.classfile.AnnotationValue.OfConstant -->
<g id="edge12" class="edge">
<title>java.lang.classfile.AnnotationValue.OfBoolean&#45;&gt;java.lang.classfile.AnnotationValue.OfConstant</title>
<path fill="none" stroke="#999999" stroke-width="2" d="M868.64,-38.52C862.8,-40.26 856.86,-41.87 851.14,-43.2 718.22,-74.08 680.26,-56.22 547.14,-86.2 545.13,-86.65 543.09,-87.14 541.03,-87.65"/>
<polygon fill="#999999" stroke="#999999" stroke-width="2" points="531.55,-90.18 540.05,-83.25 533.9,-89.04 541.08,-87.12 541.21,-87.6 541.34,-88.08 534.16,-90 542.37,-91.95 531.55,-90.18"/>
</g>
<!-- java.lang.classfile.AnnotationValue.OfClass -->
<g id="node14" class="node">
<title>java.lang.classfile.AnnotationValue.OfClass</title>
<g id="a_node14"><a xlink:href="../../../java/lang/classfile/AnnotationValue.OfClass.html" xlink:title="java.lang.classfile.AnnotationValue.OfClass">
<text text-anchor="middle" x="602.14" y="-104.2" font-family="DejaVuSans" font-size="12.00" fill="#e76f00">OfClass</text>
</a>
</g>
</g>
<!-- java.lang.classfile.AnnotationValue.OfClass&#45;&gt;java.lang.classfile.AnnotationValue -->
<g id="edge13" class="edge">
<title>java.lang.classfile.AnnotationValue.OfClass&#45;&gt;java.lang.classfile.AnnotationValue</title>
<path fill="none" stroke="#999999" stroke-width="2" d="M572.54,-129.4C556.9,-140.28 537.49,-153.79 520.58,-165.55"/>
<polygon fill="#999999" stroke="#999999" stroke-width="2" points="512.44,-171.22 518.07,-161.82 514.25,-169.35 520.36,-165.1 520.64,-165.51 520.93,-165.92 514.83,-170.17 523.21,-169.2 512.44,-171.22"/>
</g>
<!-- java.lang.classfile.AnnotationValue.OfEnum -->
<g id="node15" class="node">
<title>java.lang.classfile.AnnotationValue.OfEnum</title>
<g id="a_node15"><a xlink:href="../../../java/lang/classfile/AnnotationValue.OfEnum.html" xlink:title="java.lang.classfile.AnnotationValue.OfEnum">
<text text-anchor="middle" x="713.14" y="-104.2" font-family="DejaVuSans" font-size="12.00" fill="#e76f00">OfEnum</text>
</a>
</g>
</g>
<!-- java.lang.classfile.AnnotationValue.OfEnum&#45;&gt;java.lang.classfile.AnnotationValue -->
<g id="edge14" class="edge">
<title>java.lang.classfile.AnnotationValue.OfEnum&#45;&gt;java.lang.classfile.AnnotationValue</title>
<path fill="none" stroke="#999999" stroke-width="2" d="M674.89,-122.9C668.95,-125.08 662.88,-127.31 657.14,-129.4 621.8,-142.29 582.43,-156.52 549.9,-168.26"/>
<polygon fill="#999999" stroke="#999999" stroke-width="2" points="540.53,-171.63 548.41,-164.01 542.77,-170.29 549.77,-167.77 549.94,-168.24 550.11,-168.71 543.11,-171.23 551.47,-172.47 540.53,-171.63"/>
</g>
</g>
</svg>
