<?xml version="1.0" encoding="UTF-8" standalone="no"?>
<!DOCTYPE svg PUBLIC "-//W3C//DTD SVG 1.1//EN"
 "http://www.w3.org/Graphics/SVG/1.1/DTD/svg11.dtd">
<!-- Generated by graphviz version 9.0.0 (20230911.1827)
 -->
<!-- Title: G Pages: 1 -->
<svg width="711pt" height="224pt"
 viewBox="0.00 0.00 710.89 223.60" xmlns="http://www.w3.org/2000/svg" xmlns:xlink="http://www.w3.org/1999/xlink">
<g id="graph0" class="graph" transform="scale(1 1) rotate(0) translate(4 219.6)">
<title>G</title>
<polygon fill="white" stroke="none" points="-4,4 -4,-219.6 706.89,-219.6 706.89,4 -4,4"/>
<!-- java.lang.classfile.ClassModel -->
<g id="node1" class="node">
<title>java.lang.classfile.ClassModel</title>
<g id="a_node1"><a xlink:href="../../../java/lang/classfile/ClassModel.html" xlink:title="java.lang.classfile.ClassModel">
<text text-anchor="middle" x="48.2" y="-104.2" font-family="DejaVuSans" font-size="12.00" fill="#e76f00">ClassModel</text>
</a>
</g>
</g>
<!-- java.lang.classfile.AttributedElement -->
<g id="node2" class="node">
<title>java.lang.classfile.AttributedElement</title>
<g id="a_node2"><a xlink:href="../../../java/lang/classfile/AttributedElement.html" xlink:title="java.lang.classfile.AttributedElement">
<text text-anchor="middle" x="310.2" y="-190.4" font-family="DejaVuSans" font-size="12.00" fill="#e76f00">AttributedElement</text>
</a>
</g>
</g>
<!-- java.lang.classfile.ClassModel&#45;&gt;java.lang.classfile.AttributedElement -->
<g id="edge1" class="edge">
<title>java.lang.classfile.ClassModel&#45;&gt;java.lang.classfile.AttributedElement</title>
<path fill="none" stroke="#999999" stroke-width="2" d="M96.25,-124.24C134.9,-136.66 189.92,-154.34 234.48,-168.66"/>
<polygon fill="#999999" stroke="#999999" stroke-width="2" points="243.83,-171.67 232.94,-172.9 241.24,-171.36 234.16,-169.09 234.31,-168.61 234.47,-168.14 241.55,-170.41 235.69,-164.33 243.83,-171.67"/>
</g>
<!-- java.lang.classfile.CodeModel -->
<g id="node3" class="node">
<title>java.lang.classfile.CodeModel</title>
<g id="a_node3"><a xlink:href="../../../java/lang/classfile/CodeModel.html" xlink:title="java.lang.classfile.CodeModel">
<text text-anchor="middle" x="180.2" y="-104.2" font-family="DejaVuSans" font-size="12.00" fill="#e76f00">CodeModel</text>
</a>
</g>
</g>
<!-- java.lang.classfile.CodeModel&#45;&gt;java.lang.classfile.AttributedElement -->
<g id="edge2" class="edge">
<title>java.lang.classfile.CodeModel&#45;&gt;java.lang.classfile.AttributedElement</title>
<path fill="none" stroke="#999999" stroke-width="2" d="M212,-129.4C228.97,-140.39 250.06,-154.05 268.34,-165.89"/>
<polygon fill="#999999" stroke="#999999" stroke-width="2" points="276.68,-171.29 265.84,-169.63 274.26,-170.32 268.02,-166.27 268.29,-165.85 268.56,-165.43 274.8,-169.48 270.73,-162.08 276.68,-171.29"/>
</g>
<!-- java.lang.classfile.attribute.CodeAttribute -->
<g id="node4" class="node">
<title>java.lang.classfile.attribute.CodeAttribute</title>
<g id="a_node4"><a xlink:href="../../../java/lang/classfile/attribute/CodeAttribute.html" xlink:title="java.lang.classfile.attribute.CodeAttribute">
<text text-anchor="middle" x="180.2" y="-18" font-family="DejaVuSans" font-size="12.00" fill="#e76f00">CodeAttribute</text>
</a>
</g>
</g>
<!-- java.lang.classfile.attribute.CodeAttribute&#45;&gt;java.lang.classfile.CodeModel -->
<g id="edge3" class="edge">
<title>java.lang.classfile.attribute.CodeAttribute&#45;&gt;java.lang.classfile.CodeModel</title>
<path fill="none" stroke="#999999" stroke-width="2" d="M180.2,-42.98C180.2,-52.32 180.2,-63.63 180.2,-74.12"/>
<polygon fill="#999999" stroke="#999999" stroke-width="2" points="180.2,-83.88 175.7,-73.88 179.7,-81.31 179.7,-73.88 180.2,-73.88 180.7,-73.88 180.7,-81.31 184.7,-73.88 180.2,-83.88"/>
</g>
<!-- java.lang.classfile.FieldModel -->
<g id="node5" class="node">
<title>java.lang.classfile.FieldModel</title>
<g id="a_node5"><a xlink:href="../../../java/lang/classfile/FieldModel.html" xlink:title="java.lang.classfile.FieldModel">
<text text-anchor="middle" x="310.2" y="-104.2" font-family="DejaVuSans" font-size="12.00" fill="#e76f00">FieldModel</text>
</a>
</g>
</g>
<!-- java.lang.classfile.FieldModel&#45;&gt;java.lang.classfile.AttributedElement -->
<g id="edge4" class="edge">
<title>java.lang.classfile.FieldModel&#45;&gt;java.lang.classfile.AttributedElement</title>
<path fill="none" stroke="#999999" stroke-width="2" d="M310.2,-129.18C310.2,-138.52 310.2,-149.83 310.2,-160.32"/>
<polygon fill="#999999" stroke="#999999" stroke-width="2" points="310.2,-170.08 305.7,-160.08 309.7,-167.51 309.7,-160.08 310.2,-160.08 310.7,-160.08 310.7,-167.51 314.7,-160.08 310.2,-170.08"/>
</g>
<!-- java.lang.classfile.MethodModel -->
<g id="node6" class="node">
<title>java.lang.classfile.MethodModel</title>
<g id="a_node6"><a xlink:href="../../../java/lang/classfile/MethodModel.html" xlink:title="java.lang.classfile.MethodModel">
<text text-anchor="middle" x="448.2" y="-104.2" font-family="DejaVuSans" font-size="12.00" fill="#e76f00">MethodModel</text>
</a>
</g>
</g>
<!-- java.lang.classfile.MethodModel&#45;&gt;java.lang.classfile.AttributedElement -->
<g id="edge5" class="edge">
<title>java.lang.classfile.MethodModel&#45;&gt;java.lang.classfile.AttributedElement</title>
<path fill="none" stroke="#999999" stroke-width="2" d="M414.44,-129.4C396.26,-140.49 373.62,-154.3 354.09,-166.22"/>
<polygon fill="#999999" stroke="#999999" stroke-width="2" points="345.69,-171.35 351.88,-162.3 347.62,-169.58 353.97,-165.71 354.23,-166.14 354.49,-166.56 348.14,-170.44 356.57,-169.98 345.69,-171.35"/>
</g>
<!-- java.lang.classfile.attribute.RecordComponentInfo -->
<g id="node7" class="node">
<title>java.lang.classfile.attribute.RecordComponentInfo</title>
<g id="a_node7"><a xlink:href="../../../java/lang/classfile/attribute/RecordComponentInfo.html" xlink:title="java.lang.classfile.attribute.RecordComponentInfo">
<text text-anchor="middle" x="621.2" y="-104.2" font-family="DejaVuSans" font-size="12.00" fill="#e76f00">RecordComponentInfo</text>
</a>
</g>
</g>
<!-- java.lang.classfile.attribute.RecordComponentInfo&#45;&gt;java.lang.classfile.AttributedElement -->
<g id="edge6" class="edge">
<title>java.lang.classfile.attribute.RecordComponentInfo&#45;&gt;java.lang.classfile.AttributedElement</title>
<path fill="none" stroke="#999999" stroke-width="2" d="M545.12,-129.4C498.54,-142.01 438.96,-158.14 391.45,-171"/>
<polygon fill="#999999" stroke="#999999" stroke-width="2" points="382,-173.56 390.48,-166.6 384.35,-172.41 391.52,-170.46 391.66,-170.95 391.79,-171.43 384.61,-173.37 392.83,-175.29 382,-173.56"/>
</g>
</g>
</svg>
