<?xml version="1.0" encoding="UTF-8" standalone="no"?>
<!DOCTYPE svg PUBLIC "-//W3C//DTD SVG 1.1//EN"
 "http://www.w3.org/Graphics/SVG/1.1/DTD/svg11.dtd">
<!-- Generated by graphviz version 9.0.0 (20230911.1827)
 -->
<!-- Title: G Pages: 1 -->
<svg width="8386pt" height="224pt"
 viewBox="0.00 0.00 8385.81 223.60" xmlns="http://www.w3.org/2000/svg" xmlns:xlink="http://www.w3.org/1999/xlink">
<g id="graph0" class="graph" transform="scale(1 1) rotate(0) translate(4 219.6)">
<title>G</title>
<polygon fill="white" stroke="none" points="-4,4 -4,-219.6 8381.81,-219.6 8381.81,4 -4,4"/>
<!-- java.lang.classfile.attribute.AnnotationDefaultAttribute -->
<g id="node1" class="node">
<title>java.lang.classfile.attribute.AnnotationDefaultAttribute</title>
<g id="a_node1"><a xlink:href="../../../java/lang/classfile/attribute/AnnotationDefaultAttribute.html" xlink:title="java.lang.classfile.attribute.AnnotationDefaultAttribute">
<text text-anchor="middle" x="95.82" y="-104.2" font-family="DejaVuSans" font-size="12.00" fill="#e76f00">AnnotationDefaultAttribute</text>
</a>
</g>
</g>
<!-- java.lang.classfile.Attribute -->
<g id="node2" class="node">
<title>java.lang.classfile.Attribute</title>
<g id="a_node2"><a xlink:href="../../../java/lang/classfile/Attribute.html" xlink:title="java.lang.classfile.Attribute">
<text text-anchor="middle" x="4006.82" y="-190.4" font-family="DejaVuSans" font-size="12.00" fill="#e76f00">Attribute</text>
</a>
</g>
</g>
<!-- java.lang.classfile.attribute.AnnotationDefaultAttribute&#45;&gt;java.lang.classfile.Attribute -->
<g id="edge1" class="edge">
<title>java.lang.classfile.attribute.AnnotationDefaultAttribute&#45;&gt;java.lang.classfile.Attribute</title>
<path fill="none" stroke="#999999" stroke-width="2" d="M191.46,-127.24C197.66,-128.08 203.82,-128.81 209.82,-129.4 598.56,-167.52 3521.31,-189.57 3953.49,-192.63"/>
<polygon fill="#999999" stroke="#999999" stroke-width="2" points="3963.4,-192.7 3953.36,-197.13 3960.83,-193.18 3953.39,-193.13 3953.4,-192.63 3953.4,-192.13 3960.84,-192.18 3953.43,-188.13 3963.4,-192.7"/>
</g>
<!-- java.lang.classfile.attribute.BootstrapMethodsAttribute -->
<g id="node3" class="node">
<title>java.lang.classfile.attribute.BootstrapMethodsAttribute</title>
<g id="a_node3"><a xlink:href="../../../java/lang/classfile/attribute/BootstrapMethodsAttribute.html" xlink:title="java.lang.classfile.attribute.BootstrapMethodsAttribute">
<text text-anchor="middle" x="323.82" y="-104.2" font-family="DejaVuSans" font-size="12.00" fill="#e76f00">BootstrapMethodsAttribute</text>
</a>
</g>
</g>
<!-- java.lang.classfile.attribute.BootstrapMethodsAttribute&#45;&gt;java.lang.classfile.Attribute -->
<g id="edge2" class="edge">
<title>java.lang.classfile.attribute.BootstrapMethodsAttribute&#45;&gt;java.lang.classfile.Attribute</title>
<path fill="none" stroke="#999999" stroke-width="2" d="M419.46,-127.23C425.66,-128.07 431.82,-128.81 437.82,-129.4 802.35,-165.35 3537.65,-189.14 3953.81,-192.57"/>
<polygon fill="#999999" stroke="#999999" stroke-width="2" points="3963.56,-192.65 3953.52,-197.07 3960.99,-193.13 3953.55,-193.07 3953.56,-192.57 3953.56,-192.07 3961,-192.13 3953.59,-188.07 3963.56,-192.65"/>
</g>
<!-- java.lang.classfile.attribute.CharacterRangeTableAttribute -->
<g id="node4" class="node">
<title>java.lang.classfile.attribute.CharacterRangeTableAttribute</title>
<g id="a_node4"><a xlink:href="../../../java/lang/classfile/attribute/CharacterRangeTableAttribute.html" xlink:title="java.lang.classfile.attribute.CharacterRangeTableAttribute">
<text text-anchor="middle" x="561.82" y="-104.2" font-family="DejaVuSans" font-size="12.00" fill="#e76f00">CharacterRangeTableAttribute</text>
</a>
</g>
</g>
<!-- java.lang.classfile.attribute.CharacterRangeTableAttribute&#45;&gt;java.lang.classfile.Attribute -->
<g id="edge3" class="edge">
<title>java.lang.classfile.attribute.CharacterRangeTableAttribute&#45;&gt;java.lang.classfile.Attribute</title>
<path fill="none" stroke="#999999" stroke-width="2" d="M668.07,-127.38C674.41,-128.15 680.69,-128.84 686.82,-129.4 1359.32,-190.93 3581.49,-193.11 3953.71,-193.03"/>
<polygon fill="#999999" stroke="#999999" stroke-width="2" points="3963.48,-193.03 3953.48,-197.53 3960.92,-193.53 3953.48,-193.53 3953.48,-193.03 3953.48,-192.53 3960.92,-192.53 3953.48,-188.53 3963.48,-193.03"/>
</g>
<!-- java.lang.classfile.attribute.CodeAttribute -->
<g id="node5" class="node">
<title>java.lang.classfile.attribute.CodeAttribute</title>
<g id="a_node5"><a xlink:href="../../../java/lang/classfile/attribute/CodeAttribute.html" xlink:title="java.lang.classfile.attribute.CodeAttribute">
<text text-anchor="middle" x="760.82" y="-104.2" font-family="DejaVuSans" font-size="12.00" fill="#e76f00">CodeAttribute</text>
</a>
</g>
</g>
<!-- java.lang.classfile.attribute.CodeAttribute&#45;&gt;java.lang.classfile.Attribute -->
<g id="edge4" class="edge">
<title>java.lang.classfile.attribute.CodeAttribute&#45;&gt;java.lang.classfile.Attribute</title>
<path fill="none" stroke="#999999" stroke-width="2" d="M817.02,-125.84C823.32,-127.27 829.68,-128.51 835.82,-129.4 1156.24,-175.88 3564.53,-190.64 3953.77,-192.73"/>
<polygon fill="#999999" stroke="#999999" stroke-width="2" points="3963.55,-192.78 3953.53,-197.23 3960.99,-193.27 3953.55,-193.23 3953.55,-192.73 3953.55,-192.23 3960.99,-192.27 3953.58,-188.23 3963.55,-192.78"/>
</g>
<!-- java.lang.classfile.attribute.CompilationIDAttribute -->
<g id="node6" class="node">
<title>java.lang.classfile.attribute.CompilationIDAttribute</title>
<g id="a_node6"><a xlink:href="../../../java/lang/classfile/attribute/CompilationIDAttribute.html" xlink:title="java.lang.classfile.attribute.CompilationIDAttribute">
<text text-anchor="middle" x="936.82" y="-104.2" font-family="DejaVuSans" font-size="12.00" fill="#e76f00">CompilationIDAttribute</text>
</a>
</g>
</g>
<!-- java.lang.classfile.attribute.CompilationIDAttribute&#45;&gt;java.lang.classfile.Attribute -->
<g id="edge5" class="edge">
<title>java.lang.classfile.attribute.CompilationIDAttribute&#45;&gt;java.lang.classfile.Attribute</title>
<path fill="none" stroke="#999999" stroke-width="2" d="M1020.14,-127.01C1026.1,-127.94 1032.04,-128.75 1037.82,-129.4 1634.74,-196.12 3604.48,-194.07 3953.67,-193.17"/>
<polygon fill="#999999" stroke="#999999" stroke-width="2" points="3963.43,-193.14 3953.44,-197.67 3960.87,-193.65 3953.43,-193.67 3953.43,-193.17 3953.43,-192.67 3960.87,-192.65 3953.42,-188.67 3963.43,-193.14"/>
</g>
<!-- java.lang.classfile.attribute.ConstantValueAttribute -->
<g id="node7" class="node">
<title>java.lang.classfile.attribute.ConstantValueAttribute</title>
<g id="a_node7"><a xlink:href="../../../java/lang/classfile/attribute/ConstantValueAttribute.html" xlink:title="java.lang.classfile.attribute.ConstantValueAttribute">
<text text-anchor="middle" x="1140.82" y="-104.2" font-family="DejaVuSans" font-size="12.00" fill="#e76f00">ConstantValueAttribute</text>
</a>
</g>
</g>
<!-- java.lang.classfile.attribute.ConstantValueAttribute&#45;&gt;java.lang.classfile.Attribute -->
<g id="edge6" class="edge">
<title>java.lang.classfile.attribute.ConstantValueAttribute&#45;&gt;java.lang.classfile.Attribute</title>
<path fill="none" stroke="#999999" stroke-width="2" d="M1225.52,-126.95C1231.69,-127.9 1237.84,-128.74 1243.82,-129.4 1797.37,-190.65 3618.97,-193.11 3953.72,-193.04"/>
<polygon fill="#999999" stroke="#999999" stroke-width="2" points="3963.45,-193.04 3953.45,-197.54 3960.89,-193.54 3953.45,-193.54 3953.45,-193.04 3953.45,-192.54 3960.89,-192.54 3953.45,-188.54 3963.45,-193.04"/>
</g>
<!-- java.lang.classfile.attribute.DeprecatedAttribute -->
<g id="node8" class="node">
<title>java.lang.classfile.attribute.DeprecatedAttribute</title>
<g id="a_node8"><a xlink:href="../../../java/lang/classfile/attribute/DeprecatedAttribute.html" xlink:title="java.lang.classfile.attribute.DeprecatedAttribute">
<text text-anchor="middle" x="1337.82" y="-104.2" font-family="DejaVuSans" font-size="12.00" fill="#e76f00">DeprecatedAttribute</text>
</a>
</g>
</g>
<!-- java.lang.classfile.attribute.DeprecatedAttribute&#45;&gt;java.lang.classfile.Attribute -->
<g id="edge7" class="edge">
<title>java.lang.classfile.attribute.DeprecatedAttribute&#45;&gt;java.lang.classfile.Attribute</title>
<path fill="none" stroke="#999999" stroke-width="2" d="M1413.8,-126.74C1419.87,-127.78 1425.94,-128.69 1431.82,-129.4 1945.23,-191.42 3632.76,-193.29 3953.81,-193.07"/>
<polygon fill="#999999" stroke="#999999" stroke-width="2" points="3963.51,-193.06 3953.51,-197.57 3960.94,-193.56 3953.51,-193.57 3953.51,-193.07 3953.51,-192.57 3960.94,-192.56 3953.5,-188.57 3963.51,-193.06"/>
</g>
<!-- java.lang.classfile.attribute.EnclosingMethodAttribute -->
<g id="node9" class="node">
<title>java.lang.classfile.attribute.EnclosingMethodAttribute</title>
<g id="a_node9"><a xlink:href="../../../java/lang/classfile/attribute/EnclosingMethodAttribute.html" xlink:title="java.lang.classfile.attribute.EnclosingMethodAttribute">
<text text-anchor="middle" x="1541.82" y="-104.2" font-family="DejaVuSans" font-size="12.00" fill="#e76f00">EnclosingMethodAttribute</text>
</a>
</g>
</g>
<!-- java.lang.classfile.attribute.EnclosingMethodAttribute&#45;&gt;java.lang.classfile.Attribute -->
<g id="edge8" class="edge">
<title>java.lang.classfile.attribute.EnclosingMethodAttribute&#45;&gt;java.lang.classfile.Attribute</title>
<path fill="none" stroke="#999999" stroke-width="2" d="M1633.8,-127.13C1639.88,-128 1645.93,-128.77 1651.82,-129.4 2119.68,-179.21 3648.7,-190.86 3953.64,-192.71"/>
<polygon fill="#999999" stroke="#999999" stroke-width="2" points="3963.58,-192.77 3953.55,-197.21 3961.01,-193.25 3953.57,-193.21 3953.58,-192.71 3953.58,-192.21 3961.02,-192.25 3953.6,-188.21 3963.58,-192.77"/>
</g>
<!-- java.lang.classfile.attribute.ExceptionsAttribute -->
<g id="node10" class="node">
<title>java.lang.classfile.attribute.ExceptionsAttribute</title>
<g id="a_node10"><a xlink:href="../../../java/lang/classfile/attribute/ExceptionsAttribute.html" xlink:title="java.lang.classfile.attribute.ExceptionsAttribute">
<text text-anchor="middle" x="1743.82" y="-104.2" font-family="DejaVuSans" font-size="12.00" fill="#e76f00">ExceptionsAttribute</text>
</a>
</g>
</g>
<!-- java.lang.classfile.attribute.ExceptionsAttribute&#45;&gt;java.lang.classfile.Attribute -->
<g id="edge9" class="edge">
<title>java.lang.classfile.attribute.ExceptionsAttribute&#45;&gt;java.lang.classfile.Attribute</title>
<path fill="none" stroke="#999999" stroke-width="2" d="M1817.42,-126.58C1823.62,-127.68 1829.82,-128.65 1835.82,-129.4 2264.16,-183.13 3663.04,-191.62 3953.66,-192.82"/>
<polygon fill="#999999" stroke="#999999" stroke-width="2" points="3963.44,-192.86 3953.42,-197.32 3960.87,-193.35 3953.44,-193.32 3953.44,-192.82 3953.44,-192.32 3960.88,-192.35 3953.46,-188.32 3963.44,-192.86"/>
</g>
<!-- java.lang.classfile.attribute.InnerClassesAttribute -->
<g id="node11" class="node">
<title>java.lang.classfile.attribute.InnerClassesAttribute</title>
<g id="a_node11"><a xlink:href="../../../java/lang/classfile/attribute/InnerClassesAttribute.html" xlink:title="java.lang.classfile.attribute.InnerClassesAttribute">
<text text-anchor="middle" x="1932.82" y="-104.2" font-family="DejaVuSans" font-size="12.00" fill="#e76f00">InnerClassesAttribute</text>
</a>
</g>
</g>
<!-- java.lang.classfile.attribute.InnerClassesAttribute&#45;&gt;java.lang.classfile.Attribute -->
<g id="edge10" class="edge">
<title>java.lang.classfile.attribute.InnerClassesAttribute&#45;&gt;java.lang.classfile.Attribute</title>
<path fill="none" stroke="#999999" stroke-width="2" d="M2011.77,-126.77C2017.86,-127.79 2023.93,-128.68 2029.82,-129.4 2417.84,-176.47 3678.99,-190.12 3953.69,-192.56"/>
<polygon fill="#999999" stroke="#999999" stroke-width="2" points="3963.58,-192.65 3953.54,-197.06 3961.01,-193.13 3953.57,-193.06 3953.58,-192.56 3953.58,-192.06 3961.02,-192.13 3953.62,-188.06 3963.58,-192.65"/>
</g>
<!-- java.lang.classfile.attribute.LineNumberTableAttribute -->
<g id="node12" class="node">
<title>java.lang.classfile.attribute.LineNumberTableAttribute</title>
<g id="a_node12"><a xlink:href="../../../java/lang/classfile/attribute/LineNumberTableAttribute.html" xlink:title="java.lang.classfile.attribute.LineNumberTableAttribute">
<text text-anchor="middle" x="2141.82" y="-104.2" font-family="DejaVuSans" font-size="12.00" fill="#e76f00">LineNumberTableAttribute</text>
</a>
</g>
</g>
<!-- java.lang.classfile.attribute.LineNumberTableAttribute&#45;&gt;java.lang.classfile.Attribute -->
<g id="edge11" class="edge">
<title>java.lang.classfile.attribute.LineNumberTableAttribute&#45;&gt;java.lang.classfile.Attribute</title>
<path fill="none" stroke="#999999" stroke-width="2" d="M2235.79,-127.11C2241.88,-127.98 2247.93,-128.75 2253.82,-129.4 2595.63,-166.83 3698.39,-187.71 3953.71,-192.12"/>
<polygon fill="#999999" stroke="#999999" stroke-width="2" points="3963.47,-192.28 3953.39,-196.61 3960.9,-192.74 3953.46,-192.61 3953.47,-192.11 3953.48,-191.61 3960.91,-191.74 3953.55,-187.61 3963.47,-192.28"/>
</g>
<!-- java.lang.classfile.attribute.LocalVariableTableAttribute -->
<g id="node13" class="node">
<title>java.lang.classfile.attribute.LocalVariableTableAttribute</title>
<g id="a_node13"><a xlink:href="../../../java/lang/classfile/attribute/LocalVariableTableAttribute.html" xlink:title="java.lang.classfile.attribute.LocalVariableTableAttribute">
<text text-anchor="middle" x="2369.82" y="-104.2" font-family="DejaVuSans" font-size="12.00" fill="#e76f00">LocalVariableTableAttribute</text>
</a>
</g>
</g>
<!-- java.lang.classfile.attribute.LocalVariableTableAttribute&#45;&gt;java.lang.classfile.Attribute -->
<g id="edge12" class="edge">
<title>java.lang.classfile.attribute.LocalVariableTableAttribute&#45;&gt;java.lang.classfile.Attribute</title>
<path fill="none" stroke="#999999" stroke-width="2" d="M2467.47,-127.1C2473.67,-127.97 2479.83,-128.74 2485.82,-129.4 3058.16,-191.9 3757.81,-194.09 3953.67,-193.35"/>
<polygon fill="#999999" stroke="#999999" stroke-width="2" points="3963.4,-193.31 3953.42,-197.85 3960.84,-193.82 3953.4,-193.85 3953.4,-193.35 3953.4,-192.85 3960.83,-192.82 3953.38,-188.85 3963.4,-193.31"/>
</g>
<!-- java.lang.classfile.attribute.LocalVariableTypeTableAttribute -->
<g id="node14" class="node">
<title>java.lang.classfile.attribute.LocalVariableTypeTableAttribute</title>
<g id="a_node14"><a xlink:href="../../../java/lang/classfile/attribute/LocalVariableTypeTableAttribute.html" xlink:title="java.lang.classfile.attribute.LocalVariableTypeTableAttribute">
<text text-anchor="middle" x="2616.82" y="-104.2" font-family="DejaVuSans" font-size="12.00" fill="#e76f00">LocalVariableTypeTableAttribute</text>
</a>
</g>
</g>
<!-- java.lang.classfile.attribute.LocalVariableTypeTableAttribute&#45;&gt;java.lang.classfile.Attribute -->
<g id="edge13" class="edge">
<title>java.lang.classfile.attribute.LocalVariableTypeTableAttribute&#45;&gt;java.lang.classfile.Attribute</title>
<path fill="none" stroke="#999999" stroke-width="2" d="M2729.27,-127.27C2735.54,-128.05 2741.76,-128.77 2747.82,-129.4 3213.46,-177.64 3779.92,-189.67 3953.65,-192.32"/>
<polygon fill="#999999" stroke="#999999" stroke-width="2" points="3963.51,-192.46 3953.44,-196.82 3960.94,-192.93 3953.5,-192.82 3953.51,-192.32 3953.52,-191.82 3960.95,-191.93 3953.58,-187.82 3963.51,-192.46"/>
</g>
<!-- java.lang.classfile.attribute.MethodParametersAttribute -->
<g id="node15" class="node">
<title>java.lang.classfile.attribute.MethodParametersAttribute</title>
<g id="a_node15"><a xlink:href="../../../java/lang/classfile/attribute/MethodParametersAttribute.html" xlink:title="java.lang.classfile.attribute.MethodParametersAttribute">
<text text-anchor="middle" x="2863.82" y="-104.2" font-family="DejaVuSans" font-size="12.00" fill="#e76f00">MethodParametersAttribute</text>
</a>
</g>
</g>
<!-- java.lang.classfile.attribute.MethodParametersAttribute&#45;&gt;java.lang.classfile.Attribute -->
<g id="edge14" class="edge">
<title>java.lang.classfile.attribute.MethodParametersAttribute&#45;&gt;java.lang.classfile.Attribute</title>
<path fill="none" stroke="#999999" stroke-width="2" d="M2961.8,-127.01C2967.89,-127.89 2973.93,-128.7 2979.82,-129.4 3351.2,-173.73 3802.03,-188.09 3953.97,-191.85"/>
<polygon fill="#999999" stroke="#999999" stroke-width="2" points="3963.63,-192.08 3953.52,-196.34 3961.06,-192.52 3953.62,-192.34 3953.63,-191.84 3953.64,-191.34 3961.08,-191.52 3953.74,-187.34 3963.63,-192.08"/>
</g>
<!-- java.lang.classfile.attribute.ModuleAttribute -->
<g id="node16" class="node">
<title>java.lang.classfile.attribute.ModuleAttribute</title>
<g id="a_node16"><a xlink:href="../../../java/lang/classfile/attribute/ModuleAttribute.html" xlink:title="java.lang.classfile.attribute.ModuleAttribute">
<text text-anchor="middle" x="3060.82" y="-104.2" font-family="DejaVuSans" font-size="12.00" fill="#e76f00">ModuleAttribute</text>
</a>
</g>
</g>
<!-- java.lang.classfile.attribute.ModuleAttribute&#45;&gt;java.lang.classfile.Attribute -->
<g id="edge15" class="edge">
<title>java.lang.classfile.attribute.ModuleAttribute&#45;&gt;java.lang.classfile.Attribute</title>
<path fill="none" stroke="#999999" stroke-width="2" d="M3123.39,-125.87C3129.59,-127.21 3135.81,-128.42 3141.82,-129.4 3446.35,-178.92 3817.51,-189.91 3953.57,-192.33"/>
<polygon fill="#999999" stroke="#999999" stroke-width="2" points="3963.56,-192.5 3953.48,-196.83 3960.99,-192.95 3953.55,-192.83 3953.56,-192.33 3953.57,-191.83 3961,-191.95 3953.64,-187.83 3963.56,-192.5"/>
</g>
<!-- java.lang.classfile.attribute.ModuleHashesAttribute -->
<g id="node17" class="node">
<title>java.lang.classfile.attribute.ModuleHashesAttribute</title>
<g id="a_node17"><a xlink:href="../../../java/lang/classfile/attribute/ModuleHashesAttribute.html" xlink:title="java.lang.classfile.attribute.ModuleHashesAttribute">
<text text-anchor="middle" x="3244.82" y="-104.2" font-family="DejaVuSans" font-size="12.00" fill="#e76f00">ModuleHashesAttribute</text>
</a>
</g>
</g>
<!-- java.lang.classfile.attribute.ModuleHashesAttribute&#45;&gt;java.lang.classfile.Attribute -->
<g id="edge16" class="edge">
<title>java.lang.classfile.attribute.ModuleHashesAttribute&#45;&gt;java.lang.classfile.Attribute</title>
<path fill="none" stroke="#999999" stroke-width="2" d="M3329.3,-126.41C3335.56,-127.49 3341.78,-128.51 3347.82,-129.4 3572,-162.55 3841.74,-182.36 3953.9,-189.72"/>
<polygon fill="#999999" stroke="#999999" stroke-width="2" points="3963.73,-190.35 3953.45,-194.2 3961.14,-190.69 3953.71,-190.21 3953.75,-189.71 3953.78,-189.21 3961.2,-189.69 3954.04,-185.22 3963.73,-190.35"/>
</g>
<!-- java.lang.classfile.attribute.ModuleMainClassAttribute -->
<g id="node18" class="node">
<title>java.lang.classfile.attribute.ModuleMainClassAttribute</title>
<g id="a_node18"><a xlink:href="../../../java/lang/classfile/attribute/ModuleMainClassAttribute.html" xlink:title="java.lang.classfile.attribute.ModuleMainClassAttribute">
<text text-anchor="middle" x="3458.82" y="-104.2" font-family="DejaVuSans" font-size="12.00" fill="#e76f00">ModuleMainClassAttribute</text>
</a>
</g>
</g>
<!-- java.lang.classfile.attribute.ModuleMainClassAttribute&#45;&gt;java.lang.classfile.Attribute -->
<g id="edge17" class="edge">
<title>java.lang.classfile.attribute.ModuleMainClassAttribute&#45;&gt;java.lang.classfile.Attribute</title>
<path fill="none" stroke="#999999" stroke-width="2" d="M3551.75,-126.32C3557.86,-127.39 3563.93,-128.42 3569.82,-129.4 3708,-152.27 3871.49,-174.88 3953.82,-185.96"/>
<polygon fill="#999999" stroke="#999999" stroke-width="2" points="3963.66,-187.29 3953.15,-190.41 3961.05,-187.44 3953.68,-186.45 3953.75,-185.95 3953.82,-185.46 3961.19,-186.45 3954.35,-181.49 3963.66,-187.29"/>
</g>
<!-- java.lang.classfile.attribute.ModulePackagesAttribute -->
<g id="node19" class="node">
<title>java.lang.classfile.attribute.ModulePackagesAttribute</title>
<g id="a_node19"><a xlink:href="../../../java/lang/classfile/attribute/ModulePackagesAttribute.html" xlink:title="java.lang.classfile.attribute.ModulePackagesAttribute">
<text text-anchor="middle" x="3678.82" y="-104.2" font-family="DejaVuSans" font-size="12.00" fill="#e76f00">ModulePackagesAttribute</text>
</a>
</g>
</g>
<!-- java.lang.classfile.attribute.ModulePackagesAttribute&#45;&gt;java.lang.classfile.Attribute -->
<g id="edge18" class="edge">
<title>java.lang.classfile.attribute.ModulePackagesAttribute&#45;&gt;java.lang.classfile.Attribute</title>
<path fill="none" stroke="#999999" stroke-width="2" d="M3759.06,-129.4C3819.77,-144.98 3901.4,-165.94 3954.07,-179.46"/>
<polygon fill="#999999" stroke="#999999" stroke-width="2" points="3963.47,-181.87 3952.66,-183.74 3960.86,-181.72 3953.66,-179.87 3953.78,-179.38 3953.9,-178.9 3961.11,-180.75 3954.9,-175.02 3963.47,-181.87"/>
</g>
<!-- java.lang.classfile.attribute.ModuleResolutionAttribute -->
<g id="node20" class="node">
<title>java.lang.classfile.attribute.ModuleResolutionAttribute</title>
<g id="a_node20"><a xlink:href="../../../java/lang/classfile/attribute/ModuleResolutionAttribute.html" xlink:title="java.lang.classfile.attribute.ModuleResolutionAttribute">
<text text-anchor="middle" x="3900.82" y="-104.2" font-family="DejaVuSans" font-size="12.00" fill="#e76f00">ModuleResolutionAttribute</text>
</a>
</g>
</g>
<!-- java.lang.classfile.attribute.ModuleResolutionAttribute&#45;&gt;java.lang.classfile.Attribute -->
<g id="edge19" class="edge">
<title>java.lang.classfile.attribute.ModuleResolutionAttribute&#45;&gt;java.lang.classfile.Attribute</title>
<path fill="none" stroke="#999999" stroke-width="2" d="M3926.76,-129.4C3940.2,-140.08 3956.82,-153.28 3971.43,-164.89"/>
<polygon fill="#999999" stroke="#999999" stroke-width="2" points="3979.25,-171.1 3968.62,-168.4 3976.94,-169.9 3971.11,-165.27 3971.42,-164.88 3971.73,-164.49 3977.56,-169.11 3974.22,-161.36 3979.25,-171.1"/>
</g>
<!-- java.lang.classfile.attribute.ModuleTargetAttribute -->
<g id="node21" class="node">
<title>java.lang.classfile.attribute.ModuleTargetAttribute</title>
<g id="a_node21"><a xlink:href="../../../java/lang/classfile/attribute/ModuleTargetAttribute.html" xlink:title="java.lang.classfile.attribute.ModuleTargetAttribute">
<text text-anchor="middle" x="4113.82" y="-104.2" font-family="DejaVuSans" font-size="12.00" fill="#e76f00">ModuleTargetAttribute</text>
</a>
</g>
</g>
<!-- java.lang.classfile.attribute.ModuleTargetAttribute&#45;&gt;java.lang.classfile.Attribute -->
<g id="edge20" class="edge">
<title>java.lang.classfile.attribute.ModuleTargetAttribute&#45;&gt;java.lang.classfile.Attribute</title>
<path fill="none" stroke="#999999" stroke-width="2" d="M4087.65,-129.4C4073.95,-140.18 4056.97,-153.54 4042.13,-165.22"/>
<polygon fill="#999999" stroke="#999999" stroke-width="2" points="4034.64,-171.11 4039.72,-161.39 4036.35,-169.13 4042.19,-164.53 4042.5,-164.92 4042.81,-165.32 4036.97,-169.92 4045.29,-168.46 4034.64,-171.11"/>
</g>
<!-- java.lang.classfile.attribute.NestHostAttribute -->
<g id="node22" class="node">
<title>java.lang.classfile.attribute.NestHostAttribute</title>
<g id="a_node22"><a xlink:href="../../../java/lang/classfile/attribute/NestHostAttribute.html" xlink:title="java.lang.classfile.attribute.NestHostAttribute">
<text text-anchor="middle" x="4300.82" y="-104.2" font-family="DejaVuSans" font-size="12.00" fill="#e76f00">NestHostAttribute</text>
</a>
</g>
</g>
<!-- java.lang.classfile.attribute.NestHostAttribute&#45;&gt;java.lang.classfile.Attribute -->
<g id="edge21" class="edge">
<title>java.lang.classfile.attribute.NestHostAttribute&#45;&gt;java.lang.classfile.Attribute</title>
<path fill="none" stroke="#999999" stroke-width="2" d="M4232.64,-128.33C4179.78,-143.47 4107.62,-164.13 4059.24,-177.99"/>
<polygon fill="#999999" stroke="#999999" stroke-width="2" points="4049.82,-180.69 4058.19,-173.61 4052.14,-179.5 4059.29,-177.45 4059.43,-177.93 4059.57,-178.42 4052.42,-180.46 4060.67,-182.26 4049.82,-180.69"/>
</g>
<!-- java.lang.classfile.attribute.NestMembersAttribute -->
<g id="node23" class="node">
<title>java.lang.classfile.attribute.NestMembersAttribute</title>
<g id="a_node23"><a xlink:href="../../../java/lang/classfile/attribute/NestMembersAttribute.html" xlink:title="java.lang.classfile.attribute.NestMembersAttribute">
<text text-anchor="middle" x="4487.82" y="-104.2" font-family="DejaVuSans" font-size="12.00" fill="#e76f00">NestMembersAttribute</text>
</a>
</g>
</g>
<!-- java.lang.classfile.attribute.NestMembersAttribute&#45;&gt;java.lang.classfile.Attribute -->
<g id="edge22" class="edge">
<title>java.lang.classfile.attribute.NestMembersAttribute&#45;&gt;java.lang.classfile.Attribute</title>
<path fill="none" stroke="#999999" stroke-width="2" d="M4405.47,-125.85C4399.16,-127.08 4392.9,-128.27 4386.82,-129.4 4270.41,-151.01 4133.31,-173.14 4059.78,-184.74"/>
<polygon fill="#999999" stroke="#999999" stroke-width="2" points="4050.09,-186.27 4059.26,-180.27 4052.54,-185.38 4059.89,-184.22 4059.96,-184.71 4060.04,-185.21 4052.7,-186.36 4060.66,-189.16 4050.09,-186.27"/>
</g>
<!-- java.lang.classfile.attribute.PermittedSubclassesAttribute -->
<g id="node24" class="node">
<title>java.lang.classfile.attribute.PermittedSubclassesAttribute</title>
<g id="a_node24"><a xlink:href="../../../java/lang/classfile/attribute/PermittedSubclassesAttribute.html" xlink:title="java.lang.classfile.attribute.PermittedSubclassesAttribute">
<text text-anchor="middle" x="4709.82" y="-104.2" font-family="DejaVuSans" font-size="12.00" fill="#e76f00">PermittedSubclassesAttribute</text>
</a>
</g>
</g>
<!-- java.lang.classfile.attribute.PermittedSubclassesAttribute&#45;&gt;java.lang.classfile.Attribute -->
<g id="edge23" class="edge">
<title>java.lang.classfile.attribute.PermittedSubclassesAttribute&#45;&gt;java.lang.classfile.Attribute</title>
<path fill="none" stroke="#999999" stroke-width="2" d="M4606.39,-126.69C4600.11,-127.65 4593.89,-128.56 4587.82,-129.4 4393.9,-156.36 4162.24,-178.81 4059.9,-188.23"/>
<polygon fill="#999999" stroke="#999999" stroke-width="2" points="4050.21,-189.12 4059.76,-183.73 4052.71,-188.39 4060.12,-187.71 4060.17,-188.21 4060.21,-188.71 4052.81,-189.39 4060.58,-192.69 4050.21,-189.12"/>
</g>
<!-- java.lang.classfile.attribute.RecordAttribute -->
<g id="node25" class="node">
<title>java.lang.classfile.attribute.RecordAttribute</title>
<g id="a_node25"><a xlink:href="../../../java/lang/classfile/attribute/RecordAttribute.html" xlink:title="java.lang.classfile.attribute.RecordAttribute">
<text text-anchor="middle" x="4911.82" y="-104.2" font-family="DejaVuSans" font-size="12.00" fill="#e76f00">RecordAttribute</text>
</a>
</g>
</g>
<!-- java.lang.classfile.attribute.RecordAttribute&#45;&gt;java.lang.classfile.Attribute -->
<g id="edge24" class="edge">
<title>java.lang.classfile.attribute.RecordAttribute&#45;&gt;java.lang.classfile.Attribute</title>
<path fill="none" stroke="#999999" stroke-width="2" d="M4850.04,-125.85C4843.91,-127.2 4837.77,-128.41 4831.82,-129.4 4543.13,-177.32 4191.47,-189.25 4059.88,-192.12"/>
<polygon fill="#999999" stroke="#999999" stroke-width="2" points="4049.91,-192.33 4059.81,-187.62 4052.46,-191.78 4059.9,-191.62 4059.91,-192.12 4059.92,-192.62 4052.48,-192.78 4060,-196.62 4049.91,-192.33"/>
</g>
<!-- java.lang.classfile.attribute.RuntimeInvisibleAnnotationsAttribute -->
<g id="node26" class="node">
<title>java.lang.classfile.attribute.RuntimeInvisibleAnnotationsAttribute</title>
<g id="a_node26"><a xlink:href="../../../java/lang/classfile/attribute/RuntimeInvisibleAnnotationsAttribute.html" xlink:title="java.lang.classfile.attribute.RuntimeInvisibleAnnotationsAttribute">
<text text-anchor="middle" x="5136.82" y="-104.2" font-family="DejaVuSans" font-size="12.00" fill="#e76f00">RuntimeInvisibleAnnotationsAttribute</text>
</a>
</g>
</g>
<!-- java.lang.classfile.attribute.RuntimeInvisibleAnnotationsAttribute&#45;&gt;java.lang.classfile.Attribute -->
<g id="edge25" class="edge">
<title>java.lang.classfile.attribute.RuntimeInvisibleAnnotationsAttribute&#45;&gt;java.lang.classfile.Attribute</title>
<path fill="none" stroke="#999999" stroke-width="2" d="M5009.97,-127.39C5003.84,-128.11 4997.77,-128.79 4991.82,-129.4 4636.96,-166.01 4207.86,-185.14 4059.94,-191"/>
<polygon fill="#999999" stroke="#999999" stroke-width="2" points="4050.17,-191.39 4059.98,-186.5 4052.71,-190.79 4060.14,-190.5 4060.16,-191 4060.18,-191.49 4052.75,-191.79 4060.34,-195.49 4050.17,-191.39"/>
</g>
<!-- java.lang.classfile.attribute.RuntimeInvisibleParameterAnnotationsAttribute -->
<g id="node27" class="node">
<title>java.lang.classfile.attribute.RuntimeInvisibleParameterAnnotationsAttribute</title>
<g id="a_node27"><a xlink:href="../../../java/lang/classfile/attribute/RuntimeInvisibleParameterAnnotationsAttribute.html" xlink:title="java.lang.classfile.attribute.RuntimeInvisibleParameterAnnotationsAttribute">
<text text-anchor="middle" x="5458.82" y="-104.2" font-family="DejaVuSans" font-size="12.00" fill="#e76f00">RuntimeInvisibleParameterAnnotationsAttribute</text>
</a>
</g>
</g>
<!-- java.lang.classfile.attribute.RuntimeInvisibleParameterAnnotationsAttribute&#45;&gt;java.lang.classfile.Attribute -->
<g id="edge26" class="edge">
<title>java.lang.classfile.attribute.RuntimeInvisibleParameterAnnotationsAttribute&#45;&gt;java.lang.classfile.Attribute</title>
<path fill="none" stroke="#999999" stroke-width="2" d="M5300.62,-127.74C5294.27,-128.33 5287.99,-128.89 5281.82,-129.4 4808.85,-168.68 4235.02,-186.75 4060.01,-191.61"/>
<polygon fill="#999999" stroke="#999999" stroke-width="2" points="4050.06,-191.88 4059.93,-187.11 4052.61,-191.31 4060.04,-191.1 4060.06,-191.6 4060.07,-192.1 4052.64,-192.31 4060.18,-196.1 4050.06,-191.88"/>
</g>
<!-- java.lang.classfile.attribute.RuntimeInvisibleTypeAnnotationsAttribute -->
<g id="node28" class="node">
<title>java.lang.classfile.attribute.RuntimeInvisibleTypeAnnotationsAttribute</title>
<g id="a_node28"><a xlink:href="../../../java/lang/classfile/attribute/RuntimeInvisibleTypeAnnotationsAttribute.html" xlink:title="java.lang.classfile.attribute.RuntimeInvisibleTypeAnnotationsAttribute">
<text text-anchor="middle" x="5794.82" y="-104.2" font-family="DejaVuSans" font-size="12.00" fill="#e76f00">RuntimeInvisibleTypeAnnotationsAttribute</text>
</a>
</g>
</g>
<!-- java.lang.classfile.attribute.RuntimeInvisibleTypeAnnotationsAttribute&#45;&gt;java.lang.classfile.Attribute -->
<g id="edge27" class="edge">
<title>java.lang.classfile.attribute.RuntimeInvisibleTypeAnnotationsAttribute&#45;&gt;java.lang.classfile.Attribute</title>
<path fill="none" stroke="#999999" stroke-width="2" d="M5653.16,-127.81C5647.31,-128.39 5641.51,-128.92 5635.82,-129.4 5017.68,-181.4 4263.94,-190.98 4059.88,-192.66"/>
<polygon fill="#999999" stroke="#999999" stroke-width="2" points="4049.95,-192.74 4059.92,-188.16 4052.51,-192.22 4059.95,-192.16 4059.95,-192.66 4059.96,-193.16 4052.52,-193.22 4059.99,-197.16 4049.95,-192.74"/>
</g>
<!-- java.lang.classfile.attribute.RuntimeVisibleAnnotationsAttribute -->
<g id="node29" class="node">
<title>java.lang.classfile.attribute.RuntimeVisibleAnnotationsAttribute</title>
<g id="a_node29"><a xlink:href="../../../java/lang/classfile/attribute/RuntimeVisibleAnnotationsAttribute.html" xlink:title="java.lang.classfile.attribute.RuntimeVisibleAnnotationsAttribute">
<text text-anchor="middle" x="6094.82" y="-104.2" font-family="DejaVuSans" font-size="12.00" fill="#e76f00">RuntimeVisibleAnnotationsAttribute</text>
</a>
</g>
</g>
<!-- java.lang.classfile.attribute.RuntimeVisibleAnnotationsAttribute&#45;&gt;java.lang.classfile.Attribute -->
<g id="edge28" class="edge">
<title>java.lang.classfile.attribute.RuntimeVisibleAnnotationsAttribute&#45;&gt;java.lang.classfile.Attribute</title>
<path fill="none" stroke="#999999" stroke-width="2" d="M5972.75,-127.59C5966.7,-128.27 5960.7,-128.87 5954.82,-129.4 5205.22,-196.57 4287.7,-195.03 4059.89,-193.47"/>
<polygon fill="#999999" stroke="#999999" stroke-width="2" points="4050.15,-193.4 4060.18,-188.97 4052.72,-192.92 4060.16,-192.97 4060.15,-193.47 4060.15,-193.97 4052.71,-193.92 4060.12,-197.97 4050.15,-193.4"/>
</g>
<!-- java.lang.classfile.attribute.RuntimeVisibleParameterAnnotationsAttribute -->
<g id="node30" class="node">
<title>java.lang.classfile.attribute.RuntimeVisibleParameterAnnotationsAttribute</title>
<g id="a_node30"><a xlink:href="../../../java/lang/classfile/attribute/RuntimeVisibleParameterAnnotationsAttribute.html" xlink:title="java.lang.classfile.attribute.RuntimeVisibleParameterAnnotationsAttribute">
<text text-anchor="middle" x="6406.82" y="-104.2" font-family="DejaVuSans" font-size="12.00" fill="#e76f00">RuntimeVisibleParameterAnnotationsAttribute</text>
</a>
</g>
</g>
<!-- java.lang.classfile.attribute.RuntimeVisibleParameterAnnotationsAttribute&#45;&gt;java.lang.classfile.Attribute -->
<g id="edge29" class="edge">
<title>java.lang.classfile.attribute.RuntimeVisibleParameterAnnotationsAttribute&#45;&gt;java.lang.classfile.Attribute</title>
<path fill="none" stroke="#999999" stroke-width="2" d="M6253.57,-127.87C6247.24,-128.43 6240.97,-128.94 6234.82,-129.4 5367.62,-193.58 4306.12,-194.09 4059.65,-193.26"/>
<polygon fill="#999999" stroke="#999999" stroke-width="2" points="4049.98,-193.22 4059.99,-188.76 4052.54,-192.73 4059.98,-192.76 4059.98,-193.26 4059.98,-193.76 4052.54,-193.73 4059.96,-197.76 4049.98,-193.22"/>
</g>
<!-- java.lang.classfile.attribute.RuntimeVisibleTypeAnnotationsAttribute -->
<g id="node31" class="node">
<title>java.lang.classfile.attribute.RuntimeVisibleTypeAnnotationsAttribute</title>
<g id="a_node31"><a xlink:href="../../../java/lang/classfile/attribute/RuntimeVisibleTypeAnnotationsAttribute.html" xlink:title="java.lang.classfile.attribute.RuntimeVisibleTypeAnnotationsAttribute">
<text text-anchor="middle" x="6732.82" y="-104.2" font-family="DejaVuSans" font-size="12.00" fill="#e76f00">RuntimeVisibleTypeAnnotationsAttribute</text>
</a>
</g>
</g>
<!-- java.lang.classfile.attribute.RuntimeVisibleTypeAnnotationsAttribute&#45;&gt;java.lang.classfile.Attribute -->
<g id="edge30" class="edge">
<title>java.lang.classfile.attribute.RuntimeVisibleTypeAnnotationsAttribute&#45;&gt;java.lang.classfile.Attribute</title>
<path fill="none" stroke="#999999" stroke-width="2" d="M6596.04,-127.88C6590.23,-128.44 6584.47,-128.95 6578.82,-129.4 6063.9,-170.09 4380.04,-189.17 4059.71,-192.47"/>
<polygon fill="#999999" stroke="#999999" stroke-width="2" points="4050.05,-192.57 4060,-187.97 4052.61,-192.05 4060.04,-191.97 4060.05,-192.47 4060.05,-192.97 4052.62,-193.05 4060.09,-196.97 4050.05,-192.57"/>
</g>
<!-- java.lang.classfile.attribute.SignatureAttribute -->
<g id="node32" class="node">
<title>java.lang.classfile.attribute.SignatureAttribute</title>
<g id="a_node32"><a xlink:href="../../../java/lang/classfile/attribute/SignatureAttribute.html" xlink:title="java.lang.classfile.attribute.SignatureAttribute">
<text text-anchor="middle" x="6975.82" y="-104.2" font-family="DejaVuSans" font-size="12.00" fill="#e76f00">SignatureAttribute</text>
</a>
</g>
</g>
<!-- java.lang.classfile.attribute.SignatureAttribute&#45;&gt;java.lang.classfile.Attribute -->
<g id="edge31" class="edge">
<title>java.lang.classfile.attribute.SignatureAttribute&#45;&gt;java.lang.classfile.Attribute</title>
<path fill="none" stroke="#999999" stroke-width="2" d="M6905.93,-126.54C6899.84,-127.67 6893.74,-128.65 6887.82,-129.4 6597.35,-166.2 4428.98,-188.88 4060.1,-192.49"/>
<polygon fill="#999999" stroke="#999999" stroke-width="2" points="4050.18,-192.59 4060.13,-187.99 4052.73,-192.06 4060.17,-191.99 4060.18,-192.49 4060.18,-192.99 4052.74,-193.06 4060.22,-196.99 4050.18,-192.59"/>
</g>
<!-- java.lang.classfile.attribute.SourceDebugExtensionAttribute -->
<g id="node33" class="node">
<title>java.lang.classfile.attribute.SourceDebugExtensionAttribute</title>
<g id="a_node33"><a xlink:href="../../../java/lang/classfile/attribute/SourceDebugExtensionAttribute.html" xlink:title="java.lang.classfile.attribute.SourceDebugExtensionAttribute">
<text text-anchor="middle" x="7192.82" y="-104.2" font-family="DejaVuSans" font-size="12.00" fill="#e76f00">SourceDebugExtensionAttribute</text>
</a>
</g>
</g>
<!-- java.lang.classfile.attribute.SourceDebugExtensionAttribute&#45;&gt;java.lang.classfile.Attribute -->
<g id="edge32" class="edge">
<title>java.lang.classfile.attribute.SourceDebugExtensionAttribute&#45;&gt;java.lang.classfile.Attribute</title>
<path fill="none" stroke="#999999" stroke-width="2" d="M7082.12,-127.49C7075.94,-128.22 7069.81,-128.86 7063.82,-129.4 6447.07,-184.8 4415.48,-192.05 4060.1,-192.9"/>
<polygon fill="#999999" stroke="#999999" stroke-width="2" points="4050.14,-192.92 4060.13,-188.4 4052.7,-192.41 4060.14,-192.4 4060.14,-192.9 4060.14,-193.4 4052.7,-193.41 4060.15,-197.39 4050.14,-192.92"/>
</g>
<!-- java.lang.classfile.attribute.SourceFileAttribute -->
<g id="node34" class="node">
<title>java.lang.classfile.attribute.SourceFileAttribute</title>
<g id="a_node34"><a xlink:href="../../../java/lang/classfile/attribute/SourceFileAttribute.html" xlink:title="java.lang.classfile.attribute.SourceFileAttribute">
<text text-anchor="middle" x="7411.82" y="-104.2" font-family="DejaVuSans" font-size="12.00" fill="#e76f00">SourceFileAttribute</text>
</a>
</g>
</g>
<!-- java.lang.classfile.attribute.SourceFileAttribute&#45;&gt;java.lang.classfile.Attribute -->
<g id="edge33" class="edge">
<title>java.lang.classfile.attribute.SourceFileAttribute&#45;&gt;java.lang.classfile.Attribute</title>
<path fill="none" stroke="#999999" stroke-width="2" d="M7339.85,-126.65C7333.78,-127.73 7327.71,-128.68 7321.82,-129.4 6985.26,-170.7 4459.85,-189.85 4060.06,-192.64"/>
<polygon fill="#999999" stroke="#999999" stroke-width="2" points="4050.23,-192.71 4060.2,-188.14 4052.79,-192.19 4060.23,-192.14 4060.23,-192.64 4060.24,-193.14 4052.8,-193.19 4060.27,-197.14 4050.23,-192.71"/>
</g>
<!-- java.lang.classfile.attribute.SourceIDAttribute -->
<g id="node35" class="node">
<title>java.lang.classfile.attribute.SourceIDAttribute</title>
<g id="a_node35"><a xlink:href="../../../java/lang/classfile/attribute/SourceIDAttribute.html" xlink:title="java.lang.classfile.attribute.SourceIDAttribute">
<text text-anchor="middle" x="7587.82" y="-104.2" font-family="DejaVuSans" font-size="12.00" fill="#e76f00">SourceIDAttribute</text>
</a>
</g>
</g>
<!-- java.lang.classfile.attribute.SourceIDAttribute&#45;&gt;java.lang.classfile.Attribute -->
<g id="edge34" class="edge">
<title>java.lang.classfile.attribute.SourceIDAttribute&#45;&gt;java.lang.classfile.Attribute</title>
<path fill="none" stroke="#999999" stroke-width="2" d="M7520.01,-126.48C7513.89,-127.64 7507.76,-128.64 7501.82,-129.4 7146.37,-174.66 4471.97,-190.54 4060.03,-192.73"/>
<polygon fill="#999999" stroke="#999999" stroke-width="2" points="4050.12,-192.78 4060.1,-188.23 4052.68,-192.27 4060.12,-192.23 4060.12,-192.73 4060.13,-193.23 4052.69,-193.27 4060.15,-197.23 4050.12,-192.78"/>
</g>
<!-- java.lang.classfile.attribute.StackMapTableAttribute -->
<g id="node36" class="node">
<title>java.lang.classfile.attribute.StackMapTableAttribute</title>
<g id="a_node36"><a xlink:href="../../../java/lang/classfile/attribute/StackMapTableAttribute.html" xlink:title="java.lang.classfile.attribute.StackMapTableAttribute">
<text text-anchor="middle" x="7778.82" y="-104.2" font-family="DejaVuSans" font-size="12.00" fill="#e76f00">StackMapTableAttribute</text>
</a>
</g>
</g>
<!-- java.lang.classfile.attribute.StackMapTableAttribute&#45;&gt;java.lang.classfile.Attribute -->
<g id="edge35" class="edge">
<title>java.lang.classfile.attribute.StackMapTableAttribute&#45;&gt;java.lang.classfile.Attribute</title>
<path fill="none" stroke="#999999" stroke-width="2" d="M7692.2,-127.03C7686,-127.96 7679.83,-128.76 7673.82,-129.4 7299.18,-169.09 4483.04,-189.75 4059.96,-192.65"/>
<polygon fill="#999999" stroke="#999999" stroke-width="2" points="4050.03,-192.71 4060,-188.15 4052.59,-192.2 4060.02,-192.15 4060.03,-192.65 4060.03,-193.15 4052.59,-193.2 4060.06,-197.15 4050.03,-192.71"/>
</g>
<!-- java.lang.classfile.attribute.SyntheticAttribute -->
<g id="node37" class="node">
<title>java.lang.classfile.attribute.SyntheticAttribute</title>
<g id="a_node37"><a xlink:href="../../../java/lang/classfile/attribute/SyntheticAttribute.html" xlink:title="java.lang.classfile.attribute.SyntheticAttribute">
<text text-anchor="middle" x="7970.82" y="-104.2" font-family="DejaVuSans" font-size="12.00" fill="#e76f00">SyntheticAttribute</text>
</a>
</g>
</g>
<!-- java.lang.classfile.attribute.SyntheticAttribute&#45;&gt;java.lang.classfile.Attribute -->
<g id="edge36" class="edge">
<title>java.lang.classfile.attribute.SyntheticAttribute&#45;&gt;java.lang.classfile.Attribute</title>
<path fill="none" stroke="#999999" stroke-width="2" d="M7901.74,-126.58C7895.71,-127.7 7889.68,-128.67 7883.82,-129.4 7487.68,-178.96 4496.59,-191.28 4059.94,-192.82"/>
<polygon fill="#999999" stroke="#999999" stroke-width="2" points="4050.21,-192.86 4060.2,-188.32 4052.77,-192.35 4060.21,-192.32 4060.21,-192.82 4060.21,-193.32 4052.78,-193.35 4060.23,-197.32 4050.21,-192.86"/>
</g>
<!-- java.lang.classfile.attribute.UnknownAttribute -->
<g id="node38" class="node">
<title>java.lang.classfile.attribute.UnknownAttribute</title>
<g id="a_node38"><a xlink:href="../../../java/lang/classfile/attribute/UnknownAttribute.html" xlink:title="java.lang.classfile.attribute.UnknownAttribute">
<text text-anchor="middle" x="8144.82" y="-104.2" font-family="DejaVuSans" font-size="12.00" fill="#e76f00">UnknownAttribute</text>
</a>
</g>
</g>
<!-- java.lang.classfile.attribute.UnknownAttribute&#45;&gt;java.lang.classfile.Attribute -->
<g id="edge37" class="edge">
<title>java.lang.classfile.attribute.UnknownAttribute&#45;&gt;java.lang.classfile.Attribute</title>
<path fill="none" stroke="#999999" stroke-width="2" d="M8076.22,-126.5C8070.03,-127.65 8063.83,-128.65 8057.82,-129.4 7643.13,-181.13 4507.23,-191.63 4059.87,-192.86"/>
<polygon fill="#999999" stroke="#999999" stroke-width="2" points="4050.16,-192.89 4060.15,-188.36 4052.72,-192.38 4060.16,-192.36 4060.16,-192.86 4060.16,-193.36 4052.72,-193.38 4060.17,-197.36 4050.16,-192.89"/>
</g>
<!-- java.lang.classfile.CustomAttribute -->
<g id="node39" class="node">
<title>java.lang.classfile.CustomAttribute</title>
<g id="a_node39"><a xlink:href="../../../java/lang/classfile/CustomAttribute.html" xlink:title="java.lang.classfile.CustomAttribute">
<text text-anchor="middle" x="8313.82" y="-104.2" font-family="DejaVuSans" font-size="12.00" fill="#e76f00">CustomAttribute</text>
</a>
</g>
</g>
<!-- java.lang.classfile.CustomAttribute&#45;&gt;java.lang.classfile.Attribute -->
<g id="edge38" class="edge">
<title>java.lang.classfile.CustomAttribute&#45;&gt;java.lang.classfile.Attribute</title>
<path fill="none" stroke="#999999" stroke-width="2" d="M8250.09,-126.33C8243.95,-127.56 8237.79,-128.62 8231.82,-129.4 7798.9,-186.26 4516.93,-192.37 4059.65,-192.94"/>
<polygon fill="#999999" stroke="#999999" stroke-width="2" points="4049.99,-192.96 4059.99,-188.44 4052.55,-192.45 4059.99,-192.44 4059.99,-192.94 4059.99,-193.44 4052.55,-193.45 4060,-197.44 4049.99,-192.96"/>
</g>
<!-- open node #0 -->
<g id="node40" class="node">
<title>open node #0</title>
<g id="a_node40"><a xlink:title="Non&#45;sealed Hierarchy">
<text text-anchor="start" x="8292.74" y="-19" font-family="DejaVuSans" font-style="italic" font-size="12.00" fill="#e76f00">&lt;any&gt;</text>
</a>
</g>
</g>
<!-- open node #0&#45;&gt;java.lang.classfile.CustomAttribute -->
<g id="edge39" class="edge">
<title>open node #0&#45;&gt;java.lang.classfile.CustomAttribute</title>
<path fill="none" stroke="#999999" stroke-width="2" stroke-dasharray="5,2" d="M8313.82,-42.98C8313.82,-52.32 8313.82,-63.63 8313.82,-74.12"/>
<polygon fill="#999999" stroke="#999999" stroke-width="2" points="8313.82,-83.88 8309.32,-73.88 8313.32,-81.31 8313.32,-73.88 8313.82,-73.88 8314.32,-73.88 8314.32,-81.31 8318.32,-73.88 8313.82,-83.88"/>
</g>
</g>
</svg>
