<?xml version="1.0" encoding="UTF-8" standalone="no"?>
<!DOCTYPE svg PUBLIC "-//W3C//DTD SVG 1.1//EN"
 "http://www.w3.org/Graphics/SVG/1.1/DTD/svg11.dtd">
<!-- Generated by graphviz version 9.0.0 (20230911.1827)
 -->
<!-- Title: G Pages: 1 -->
<svg width="6118pt" height="224pt"
 viewBox="0.00 0.00 6117.63 223.60" xmlns="http://www.w3.org/2000/svg" xmlns:xlink="http://www.w3.org/1999/xlink">
<g id="graph0" class="graph" transform="scale(1 1) rotate(0) translate(4 219.6)">
<title>G</title>
<polygon fill="white" stroke="none" points="-4,4 -4,-219.6 6113.63,-219.6 6113.63,4 -4,4"/>
<!-- java.lang.classfile.AccessFlags -->
<g id="node1" class="node">
<title>java.lang.classfile.AccessFlags</title>
<g id="a_node1"><a xlink:href="../../../java/lang/classfile/AccessFlags.html" xlink:title="java.lang.classfile.AccessFlags">
<text text-anchor="middle" x="50.78" y="-104.2" font-family="DejaVuSans" font-size="12.00" fill="#e76f00">AccessFlags</text>
</a>
</g>
</g>
<!-- java.lang.classfile.ClassElement -->
<g id="node2" class="node">
<title>java.lang.classfile.ClassElement</title>
<g id="a_node2"><a xlink:href="../../../java/lang/classfile/ClassElement.html" xlink:title="java.lang.classfile.ClassElement">
<text text-anchor="middle" x="2702.78" y="-190.4" font-family="DejaVuSans" font-size="12.00" fill="#e76f00">ClassElement</text>
</a>
</g>
</g>
<!-- java.lang.classfile.AccessFlags&#45;&gt;java.lang.classfile.ClassElement -->
<g id="edge1" class="edge">
<title>java.lang.classfile.AccessFlags&#45;&gt;java.lang.classfile.ClassElement</title>
<path fill="none" stroke="#999999" stroke-width="2" d="M101.29,-125.54C107.46,-127.09 113.72,-128.44 119.78,-129.4 374.39,-169.8 2254.67,-188.93 2635.59,-192.41"/>
<polygon fill="#999999" stroke="#999999" stroke-width="2" points="2645.55,-192.5 2635.51,-196.91 2642.98,-192.98 2635.54,-192.91 2635.55,-192.41 2635.55,-191.91 2642.99,-191.98 2635.59,-187.91 2645.55,-192.5"/>
</g>
<!-- java.lang.classfile.Superclass -->
<g id="node3" class="node">
<title>java.lang.classfile.Superclass</title>
<g id="a_node3"><a xlink:href="../../../java/lang/classfile/Superclass.html" xlink:title="java.lang.classfile.Superclass">
<text text-anchor="middle" x="184.78" y="-104.2" font-family="DejaVuSans" font-size="12.00" fill="#e76f00">Superclass</text>
</a>
</g>
</g>
<!-- java.lang.classfile.Superclass&#45;&gt;java.lang.classfile.ClassElement -->
<g id="edge2" class="edge">
<title>java.lang.classfile.Superclass&#45;&gt;java.lang.classfile.ClassElement</title>
<path fill="none" stroke="#999999" stroke-width="2" d="M231.61,-125.35C237.66,-126.98 243.82,-128.4 249.78,-129.4 490.52,-169.84 2266.69,-188.85 2635.74,-192.38"/>
<polygon fill="#999999" stroke="#999999" stroke-width="2" points="2645.58,-192.48 2635.54,-196.88 2643.01,-192.95 2635.57,-192.88 2635.58,-192.38 2635.58,-191.88 2643.02,-191.95 2635.62,-187.88 2645.58,-192.48"/>
</g>
<!-- java.lang.classfile.Interfaces -->
<g id="node4" class="node">
<title>java.lang.classfile.Interfaces</title>
<g id="a_node4"><a xlink:href="../../../java/lang/classfile/Interfaces.html" xlink:title="java.lang.classfile.Interfaces">
<text text-anchor="middle" x="311.78" y="-104.2" font-family="DejaVuSans" font-size="12.00" fill="#e76f00">Interfaces</text>
</a>
</g>
</g>
<!-- java.lang.classfile.Interfaces&#45;&gt;java.lang.classfile.ClassElement -->
<g id="edge3" class="edge">
<title>java.lang.classfile.Interfaces&#45;&gt;java.lang.classfile.ClassElement</title>
<path fill="none" stroke="#999999" stroke-width="2" d="M356.11,-125.05C362.31,-126.81 368.65,-128.34 374.78,-129.4 602.27,-168.84 2277.23,-188.53 2635.47,-192.32"/>
<polygon fill="#999999" stroke="#999999" stroke-width="2" points="2645.46,-192.42 2635.41,-196.82 2642.89,-192.9 2635.45,-192.82 2635.46,-192.32 2635.46,-191.82 2642.9,-191.9 2635.51,-187.82 2645.46,-192.42"/>
</g>
<!-- java.lang.classfile.ClassFileVersion -->
<g id="node5" class="node">
<title>java.lang.classfile.ClassFileVersion</title>
<g id="a_node5"><a xlink:href="../../../java/lang/classfile/ClassFileVersion.html" xlink:title="java.lang.classfile.ClassFileVersion">
<text text-anchor="middle" x="455.78" y="-104.2" font-family="DejaVuSans" font-size="12.00" fill="#e76f00">ClassFileVersion</text>
</a>
</g>
</g>
<!-- java.lang.classfile.ClassFileVersion&#45;&gt;java.lang.classfile.ClassElement -->
<g id="edge4" class="edge">
<title>java.lang.classfile.ClassFileVersion&#45;&gt;java.lang.classfile.ClassElement</title>
<path fill="none" stroke="#999999" stroke-width="2" d="M518.74,-126.24C524.8,-127.49 530.88,-128.57 536.78,-129.4 956.82,-188.25 2317.35,-192.77 2635.7,-193.01"/>
<polygon fill="#999999" stroke="#999999" stroke-width="2" points="2645.46,-193.02 2635.46,-197.51 2642.9,-193.52 2635.46,-193.51 2635.46,-193.01 2635.46,-192.51 2642.9,-192.52 2635.46,-188.51 2645.46,-193.02"/>
</g>
<!-- java.lang.classfile.FieldModel -->
<g id="node6" class="node">
<title>java.lang.classfile.FieldModel</title>
<g id="a_node6"><a xlink:href="../../../java/lang/classfile/FieldModel.html" xlink:title="java.lang.classfile.FieldModel">
<text text-anchor="middle" x="601.78" y="-104.2" font-family="DejaVuSans" font-size="12.00" fill="#e76f00">FieldModel</text>
</a>
</g>
</g>
<!-- java.lang.classfile.FieldModel&#45;&gt;java.lang.classfile.ClassElement -->
<g id="edge5" class="edge">
<title>java.lang.classfile.FieldModel&#45;&gt;java.lang.classfile.ClassElement</title>
<path fill="none" stroke="#999999" stroke-width="2" d="M648.26,-125.22C654.42,-126.9 660.71,-128.36 666.78,-129.4 1058.1,-196.2 2329,-194.75 2635.71,-193.38"/>
<polygon fill="#999999" stroke="#999999" stroke-width="2" points="2645.47,-193.34 2635.49,-197.88 2642.91,-193.85 2635.47,-193.88 2635.47,-193.38 2635.46,-192.88 2642.9,-192.85 2635.45,-188.88 2645.47,-193.34"/>
</g>
<!-- java.lang.classfile.MethodModel -->
<g id="node7" class="node">
<title>java.lang.classfile.MethodModel</title>
<g id="a_node7"><a xlink:href="../../../java/lang/classfile/MethodModel.html" xlink:title="java.lang.classfile.MethodModel">
<text text-anchor="middle" x="739.78" y="-104.2" font-family="DejaVuSans" font-size="12.00" fill="#e76f00">MethodModel</text>
</a>
</g>
</g>
<!-- java.lang.classfile.MethodModel&#45;&gt;java.lang.classfile.ClassElement -->
<g id="edge6" class="edge">
<title>java.lang.classfile.MethodModel&#45;&gt;java.lang.classfile.ClassElement</title>
<path fill="none" stroke="#999999" stroke-width="2" d="M794.47,-125.76C800.6,-127.21 806.79,-128.47 812.78,-129.4 1174.96,-185.75 2343.23,-192.19 2635.84,-192.91"/>
<polygon fill="#999999" stroke="#999999" stroke-width="2" points="2645.47,-192.93 2635.46,-197.41 2642.9,-193.43 2635.47,-193.41 2635.47,-192.91 2635.47,-192.41 2642.9,-192.43 2635.48,-188.41 2645.47,-192.93"/>
</g>
<!-- java.lang.classfile.CustomAttribute -->
<g id="node8" class="node">
<title>java.lang.classfile.CustomAttribute</title>
<g id="a_node8"><a xlink:href="../../../java/lang/classfile/CustomAttribute.html" xlink:title="java.lang.classfile.CustomAttribute">
<text text-anchor="middle" x="894.78" y="-104.2" font-family="DejaVuSans" font-size="12.00" fill="#e76f00">CustomAttribute</text>
</a>
</g>
</g>
<!-- java.lang.classfile.CustomAttribute&#45;&gt;java.lang.classfile.ClassElement -->
<g id="edge7" class="edge">
<title>java.lang.classfile.CustomAttribute&#45;&gt;java.lang.classfile.ClassElement</title>
<path fill="none" stroke="#999999" stroke-width="2" d="M958.53,-126.19C964.66,-127.45 970.82,-128.55 976.78,-129.4 1305.87,-176.27 2359.59,-189.66 2635.91,-192.41"/>
<polygon fill="#999999" stroke="#999999" stroke-width="2" points="2645.66,-192.5 2635.61,-196.9 2643.09,-192.98 2635.65,-192.9 2635.66,-192.4 2635.66,-191.9 2643.1,-191.98 2635.7,-187.9 2645.66,-192.5"/>
</g>
<!-- open node #0 -->
<g id="node9" class="node">
<title>open node #0</title>
<g id="a_node9"><a xlink:title="Non&#45;sealed Hierarchy">
<text text-anchor="start" x="873.69" y="-19" font-family="DejaVuSans" font-style="italic" font-size="12.00" fill="#e76f00">&lt;any&gt;</text>
</a>
</g>
</g>
<!-- open node #0&#45;&gt;java.lang.classfile.CustomAttribute -->
<g id="edge8" class="edge">
<title>open node #0&#45;&gt;java.lang.classfile.CustomAttribute</title>
<path fill="none" stroke="#999999" stroke-width="2" stroke-dasharray="5,2" d="M894.78,-42.98C894.78,-52.32 894.78,-63.63 894.78,-74.12"/>
<polygon fill="#999999" stroke="#999999" stroke-width="2" points="894.78,-83.88 890.28,-73.88 894.28,-81.31 894.28,-73.88 894.78,-73.88 895.28,-73.88 895.28,-81.31 899.28,-73.88 894.78,-83.88"/>
</g>
<!-- java.lang.classfile.attribute.CompilationIDAttribute -->
<g id="node10" class="node">
<title>java.lang.classfile.attribute.CompilationIDAttribute</title>
<g id="a_node10"><a xlink:href="../../../java/lang/classfile/attribute/CompilationIDAttribute.html" xlink:title="java.lang.classfile.attribute.CompilationIDAttribute">
<text text-anchor="middle" x="1077.78" y="-104.2" font-family="DejaVuSans" font-size="12.00" fill="#e76f00">CompilationIDAttribute</text>
</a>
</g>
</g>
<!-- java.lang.classfile.attribute.CompilationIDAttribute&#45;&gt;java.lang.classfile.ClassElement -->
<g id="edge9" class="edge">
<title>java.lang.classfile.attribute.CompilationIDAttribute&#45;&gt;java.lang.classfile.ClassElement</title>
<path fill="none" stroke="#999999" stroke-width="2" d="M1161.1,-126.74C1167.4,-127.76 1173.68,-128.66 1179.78,-129.4 1467.85,-164.28 2379.98,-186.07 2635.6,-191.6"/>
<polygon fill="#999999" stroke="#999999" stroke-width="2" points="2645.54,-191.82 2635.45,-196.1 2642.97,-192.26 2635.54,-192.1 2635.55,-191.6 2635.56,-191.1 2642.99,-191.26 2635.64,-187.1 2645.54,-191.82"/>
</g>
<!-- java.lang.classfile.attribute.DeprecatedAttribute -->
<g id="node11" class="node">
<title>java.lang.classfile.attribute.DeprecatedAttribute</title>
<g id="a_node11"><a xlink:href="../../../java/lang/classfile/attribute/DeprecatedAttribute.html" xlink:title="java.lang.classfile.attribute.DeprecatedAttribute">
<text text-anchor="middle" x="1273.78" y="-104.2" font-family="DejaVuSans" font-size="12.00" fill="#e76f00">DeprecatedAttribute</text>
</a>
</g>
</g>
<!-- java.lang.classfile.attribute.DeprecatedAttribute&#45;&gt;java.lang.classfile.ClassElement -->
<g id="edge10" class="edge">
<title>java.lang.classfile.attribute.DeprecatedAttribute&#45;&gt;java.lang.classfile.ClassElement</title>
<path fill="none" stroke="#999999" stroke-width="2" d="M1349.77,-126.59C1355.84,-127.66 1361.9,-128.62 1367.78,-129.4 1616.94,-162.4 2400.43,-185.09 2635.47,-191.29"/>
<polygon fill="#999999" stroke="#999999" stroke-width="2" points="2645.45,-191.55 2635.33,-195.79 2642.87,-191.99 2635.44,-191.79 2635.45,-191.29 2635.46,-190.79 2642.9,-190.99 2635.57,-186.79 2645.45,-191.55"/>
</g>
<!-- java.lang.classfile.attribute.EnclosingMethodAttribute -->
<g id="node12" class="node">
<title>java.lang.classfile.attribute.EnclosingMethodAttribute</title>
<g id="a_node12"><a xlink:href="../../../java/lang/classfile/attribute/EnclosingMethodAttribute.html" xlink:title="java.lang.classfile.attribute.EnclosingMethodAttribute">
<text text-anchor="middle" x="1477.78" y="-104.2" font-family="DejaVuSans" font-size="12.00" fill="#e76f00">EnclosingMethodAttribute</text>
</a>
</g>
</g>
<!-- java.lang.classfile.attribute.EnclosingMethodAttribute&#45;&gt;java.lang.classfile.ClassElement -->
<g id="edge11" class="edge">
<title>java.lang.classfile.attribute.EnclosingMethodAttribute&#45;&gt;java.lang.classfile.ClassElement</title>
<path fill="none" stroke="#999999" stroke-width="2" d="M1569.77,-126.93C1575.85,-127.85 1581.89,-128.68 1587.78,-129.4 1983.24,-177.51 2462.14,-189.36 2635.81,-192.17"/>
<polygon fill="#999999" stroke="#999999" stroke-width="2" points="2645.59,-192.32 2635.52,-196.66 2643.02,-192.78 2635.58,-192.66 2635.59,-192.16 2635.6,-191.66 2643.03,-191.78 2635.66,-187.66 2645.59,-192.32"/>
</g>
<!-- java.lang.classfile.attribute.InnerClassesAttribute -->
<g id="node13" class="node">
<title>java.lang.classfile.attribute.InnerClassesAttribute</title>
<g id="a_node13"><a xlink:href="../../../java/lang/classfile/attribute/InnerClassesAttribute.html" xlink:title="java.lang.classfile.attribute.InnerClassesAttribute">
<text text-anchor="middle" x="1684.78" y="-104.2" font-family="DejaVuSans" font-size="12.00" fill="#e76f00">InnerClassesAttribute</text>
</a>
</g>
</g>
<!-- java.lang.classfile.attribute.InnerClassesAttribute&#45;&gt;java.lang.classfile.ClassElement -->
<g id="edge12" class="edge">
<title>java.lang.classfile.attribute.InnerClassesAttribute&#45;&gt;java.lang.classfile.ClassElement</title>
<path fill="none" stroke="#999999" stroke-width="2" d="M1763.75,-126.53C1769.83,-127.6 1775.89,-128.58 1781.78,-129.4 2099.43,-173.87 2483.27,-187.68 2635.7,-191.59"/>
<polygon fill="#999999" stroke="#999999" stroke-width="2" points="2645.56,-191.84 2635.45,-196.08 2642.99,-192.27 2635.55,-192.09 2635.57,-191.59 2635.58,-191.09 2643.01,-191.27 2635.68,-187.09 2645.56,-191.84"/>
</g>
<!-- java.lang.classfile.attribute.ModuleAttribute -->
<g id="node14" class="node">
<title>java.lang.classfile.attribute.ModuleAttribute</title>
<g id="a_node14"><a xlink:href="../../../java/lang/classfile/attribute/ModuleAttribute.html" xlink:title="java.lang.classfile.attribute.ModuleAttribute">
<text text-anchor="middle" x="1862.78" y="-104.2" font-family="DejaVuSans" font-size="12.00" fill="#e76f00">ModuleAttribute</text>
</a>
</g>
</g>
<!-- java.lang.classfile.attribute.ModuleAttribute&#45;&gt;java.lang.classfile.ClassElement -->
<g id="edge13" class="edge">
<title>java.lang.classfile.attribute.ModuleAttribute&#45;&gt;java.lang.classfile.ClassElement</title>
<path fill="none" stroke="#999999" stroke-width="2" d="M1925.35,-125.8C1931.55,-127.16 1937.76,-128.39 1943.78,-129.4 2197.07,-171.92 2502.93,-186.53 2635.78,-191.11"/>
<polygon fill="#999999" stroke="#999999" stroke-width="2" points="2645.65,-191.44 2635.51,-195.6 2643.08,-191.85 2635.64,-191.6 2635.66,-191.1 2635.68,-190.6 2643.11,-190.85 2635.81,-186.6 2645.65,-191.44"/>
</g>
<!-- java.lang.classfile.attribute.ModuleHashesAttribute -->
<g id="node15" class="node">
<title>java.lang.classfile.attribute.ModuleHashesAttribute</title>
<g id="a_node15"><a xlink:href="../../../java/lang/classfile/attribute/ModuleHashesAttribute.html" xlink:title="java.lang.classfile.attribute.ModuleHashesAttribute">
<text text-anchor="middle" x="2046.78" y="-104.2" font-family="DejaVuSans" font-size="12.00" fill="#e76f00">ModuleHashesAttribute</text>
</a>
</g>
</g>
<!-- java.lang.classfile.attribute.ModuleHashesAttribute&#45;&gt;java.lang.classfile.ClassElement -->
<g id="edge14" class="edge">
<title>java.lang.classfile.attribute.ModuleHashesAttribute&#45;&gt;java.lang.classfile.ClassElement</title>
<path fill="none" stroke="#999999" stroke-width="2" d="M2131.27,-126.28C2137.52,-127.4 2143.74,-128.45 2149.78,-129.4 2324.31,-156.84 2531.58,-177.52 2635.83,-187.11"/>
<polygon fill="#999999" stroke="#999999" stroke-width="2" points="2645.59,-188 2635.23,-191.57 2643,-188.26 2635.59,-187.59 2635.63,-187.09 2635.68,-186.59 2643.09,-187.27 2636.04,-182.61 2645.59,-188"/>
</g>
<!-- java.lang.classfile.attribute.ModuleMainClassAttribute -->
<g id="node16" class="node">
<title>java.lang.classfile.attribute.ModuleMainClassAttribute</title>
<g id="a_node16"><a xlink:href="../../../java/lang/classfile/attribute/ModuleMainClassAttribute.html" xlink:title="java.lang.classfile.attribute.ModuleMainClassAttribute">
<text text-anchor="middle" x="2260.78" y="-104.2" font-family="DejaVuSans" font-size="12.00" fill="#e76f00">ModuleMainClassAttribute</text>
</a>
</g>
</g>
<!-- java.lang.classfile.attribute.ModuleMainClassAttribute&#45;&gt;java.lang.classfile.ClassElement -->
<g id="edge15" class="edge">
<title>java.lang.classfile.attribute.ModuleMainClassAttribute&#45;&gt;java.lang.classfile.ClassElement</title>
<path fill="none" stroke="#999999" stroke-width="2" d="M2353.43,-126.45C2437.84,-142.53 2560.47,-165.89 2635.74,-180.23"/>
<polygon fill="#999999" stroke="#999999" stroke-width="2" points="2645.46,-182.08 2634.8,-184.63 2642.85,-182.09 2635.55,-180.7 2635.64,-180.21 2635.73,-179.72 2643.04,-181.11 2636.48,-175.79 2645.46,-182.08"/>
</g>
<!-- java.lang.classfile.attribute.ModulePackagesAttribute -->
<g id="node17" class="node">
<title>java.lang.classfile.attribute.ModulePackagesAttribute</title>
<g id="a_node17"><a xlink:href="../../../java/lang/classfile/attribute/ModulePackagesAttribute.html" xlink:title="java.lang.classfile.attribute.ModulePackagesAttribute">
<text text-anchor="middle" x="2480.78" y="-104.2" font-family="DejaVuSans" font-size="12.00" fill="#e76f00">ModulePackagesAttribute</text>
</a>
</g>
</g>
<!-- java.lang.classfile.attribute.ModulePackagesAttribute&#45;&gt;java.lang.classfile.ClassElement -->
<g id="edge16" class="edge">
<title>java.lang.classfile.attribute.ModulePackagesAttribute&#45;&gt;java.lang.classfile.ClassElement</title>
<path fill="none" stroke="#999999" stroke-width="2" d="M2535.08,-129.4C2565.97,-141.11 2604.87,-155.86 2637.42,-168.21"/>
<polygon fill="#999999" stroke="#999999" stroke-width="2" points="2646.37,-171.61 2635.42,-172.27 2643.79,-171.16 2636.84,-168.53 2637.02,-168.06 2637.19,-167.59 2644.15,-170.23 2638.61,-163.85 2646.37,-171.61"/>
</g>
<!-- java.lang.classfile.attribute.ModuleResolutionAttribute -->
<g id="node18" class="node">
<title>java.lang.classfile.attribute.ModuleResolutionAttribute</title>
<g id="a_node18"><a xlink:href="../../../java/lang/classfile/attribute/ModuleResolutionAttribute.html" xlink:title="java.lang.classfile.attribute.ModuleResolutionAttribute">
<text text-anchor="middle" x="2702.78" y="-104.2" font-family="DejaVuSans" font-size="12.00" fill="#e76f00">ModuleResolutionAttribute</text>
</a>
</g>
</g>
<!-- java.lang.classfile.attribute.ModuleResolutionAttribute&#45;&gt;java.lang.classfile.ClassElement -->
<g id="edge17" class="edge">
<title>java.lang.classfile.attribute.ModuleResolutionAttribute&#45;&gt;java.lang.classfile.ClassElement</title>
<path fill="none" stroke="#999999" stroke-width="2" d="M2702.78,-129.18C2702.78,-138.52 2702.78,-149.83 2702.78,-160.32"/>
<polygon fill="#999999" stroke="#999999" stroke-width="2" points="2702.78,-170.08 2698.28,-160.08 2702.28,-167.51 2702.28,-160.08 2702.78,-160.08 2703.28,-160.08 2703.28,-167.51 2707.28,-160.08 2702.78,-170.08"/>
</g>
<!-- java.lang.classfile.attribute.ModuleTargetAttribute -->
<g id="node19" class="node">
<title>java.lang.classfile.attribute.ModuleTargetAttribute</title>
<g id="a_node19"><a xlink:href="../../../java/lang/classfile/attribute/ModuleTargetAttribute.html" xlink:title="java.lang.classfile.attribute.ModuleTargetAttribute">
<text text-anchor="middle" x="2915.78" y="-104.2" font-family="DejaVuSans" font-size="12.00" fill="#e76f00">ModuleTargetAttribute</text>
</a>
</g>
</g>
<!-- java.lang.classfile.attribute.ModuleTargetAttribute&#45;&gt;java.lang.classfile.ClassElement -->
<g id="edge18" class="edge">
<title>java.lang.classfile.attribute.ModuleTargetAttribute&#45;&gt;java.lang.classfile.ClassElement</title>
<path fill="none" stroke="#999999" stroke-width="2" d="M2863.67,-129.4C2834.16,-141.06 2797.04,-155.74 2765.89,-168.05"/>
<polygon fill="#999999" stroke="#999999" stroke-width="2" points="2756.98,-171.57 2764.62,-163.71 2759.18,-170.17 2766.09,-167.43 2766.28,-167.9 2766.46,-168.36 2759.55,-171.1 2767.93,-172.08 2756.98,-171.57"/>
</g>
<!-- java.lang.classfile.attribute.NestHostAttribute -->
<g id="node20" class="node">
<title>java.lang.classfile.attribute.NestHostAttribute</title>
<g id="a_node20"><a xlink:href="../../../java/lang/classfile/attribute/NestHostAttribute.html" xlink:title="java.lang.classfile.attribute.NestHostAttribute">
<text text-anchor="middle" x="3102.78" y="-104.2" font-family="DejaVuSans" font-size="12.00" fill="#e76f00">NestHostAttribute</text>
</a>
</g>
</g>
<!-- java.lang.classfile.attribute.NestHostAttribute&#45;&gt;java.lang.classfile.ClassElement -->
<g id="edge19" class="edge">
<title>java.lang.classfile.attribute.NestHostAttribute&#45;&gt;java.lang.classfile.ClassElement</title>
<path fill="none" stroke="#999999" stroke-width="2" d="M3034.91,-125.09C3028.45,-126.58 3021.99,-128.03 3015.78,-129.4 2931.06,-148.03 2833.02,-167.64 2769.56,-180.07"/>
<polygon fill="#999999" stroke="#999999" stroke-width="2" points="2760.12,-181.92 2769.07,-175.58 2762.54,-180.94 2769.84,-179.51 2769.94,-180 2770.03,-180.49 2762.74,-181.92 2770.8,-184.42 2760.12,-181.92"/>
</g>
<!-- java.lang.classfile.attribute.NestMembersAttribute -->
<g id="node21" class="node">
<title>java.lang.classfile.attribute.NestMembersAttribute</title>
<g id="a_node21"><a xlink:href="../../../java/lang/classfile/attribute/NestMembersAttribute.html" xlink:title="java.lang.classfile.attribute.NestMembersAttribute">
<text text-anchor="middle" x="3289.78" y="-104.2" font-family="DejaVuSans" font-size="12.00" fill="#e76f00">NestMembersAttribute</text>
</a>
</g>
</g>
<!-- java.lang.classfile.attribute.NestMembersAttribute&#45;&gt;java.lang.classfile.ClassElement -->
<g id="edge20" class="edge">
<title>java.lang.classfile.attribute.NestMembersAttribute&#45;&gt;java.lang.classfile.ClassElement</title>
<path fill="none" stroke="#999999" stroke-width="2" d="M3207.46,-126.09C3201.15,-127.26 3194.86,-128.38 3188.78,-129.4 3039.78,-154.31 2863.71,-175.26 2769.77,-185.76"/>
<polygon fill="#999999" stroke="#999999" stroke-width="2" points="2760.05,-186.84 2769.49,-181.26 2762.54,-186.06 2769.93,-185.24 2769.99,-185.73 2770.04,-186.23 2762.65,-187.05 2770.48,-190.21 2760.05,-186.84"/>
</g>
<!-- java.lang.classfile.attribute.PermittedSubclassesAttribute -->
<g id="node22" class="node">
<title>java.lang.classfile.attribute.PermittedSubclassesAttribute</title>
<g id="a_node22"><a xlink:href="../../../java/lang/classfile/attribute/PermittedSubclassesAttribute.html" xlink:title="java.lang.classfile.attribute.PermittedSubclassesAttribute">
<text text-anchor="middle" x="3511.78" y="-104.2" font-family="DejaVuSans" font-size="12.00" fill="#e76f00">PermittedSubclassesAttribute</text>
</a>
</g>
</g>
<!-- java.lang.classfile.attribute.PermittedSubclassesAttribute&#45;&gt;java.lang.classfile.ClassElement -->
<g id="edge21" class="edge">
<title>java.lang.classfile.attribute.PermittedSubclassesAttribute&#45;&gt;java.lang.classfile.ClassElement</title>
<path fill="none" stroke="#999999" stroke-width="2" d="M3408.36,-126.81C3402.08,-127.74 3395.85,-128.61 3389.78,-129.4 3163.27,-158.96 2893,-179.77 2769.86,-188.47"/>
<polygon fill="#999999" stroke="#999999" stroke-width="2" points="2760.13,-189.15 2769.79,-183.96 2762.65,-188.47 2770.07,-187.95 2770.1,-188.45 2770.14,-188.95 2762.72,-189.47 2770.42,-192.94 2760.13,-189.15"/>
</g>
<!-- java.lang.classfile.attribute.RecordAttribute -->
<g id="node23" class="node">
<title>java.lang.classfile.attribute.RecordAttribute</title>
<g id="a_node23"><a xlink:href="../../../java/lang/classfile/attribute/RecordAttribute.html" xlink:title="java.lang.classfile.attribute.RecordAttribute">
<text text-anchor="middle" x="3713.78" y="-104.2" font-family="DejaVuSans" font-size="12.00" fill="#e76f00">RecordAttribute</text>
</a>
</g>
</g>
<!-- java.lang.classfile.attribute.RecordAttribute&#45;&gt;java.lang.classfile.ClassElement -->
<g id="edge22" class="edge">
<title>java.lang.classfile.attribute.RecordAttribute&#45;&gt;java.lang.classfile.ClassElement</title>
<path fill="none" stroke="#999999" stroke-width="2" d="M3651.99,-125.91C3645.87,-127.24 3639.72,-128.44 3633.78,-129.4 3313.32,-181.15 2924.17,-190.85 2770.17,-192.63"/>
<polygon fill="#999999" stroke="#999999" stroke-width="2" points="2760.18,-192.73 2770.13,-188.13 2762.74,-192.21 2770.17,-192.13 2770.18,-192.63 2770.18,-193.13 2762.75,-193.21 2770.23,-197.13 2760.18,-192.73"/>
</g>
<!-- java.lang.classfile.attribute.RuntimeInvisibleAnnotationsAttribute -->
<g id="node24" class="node">
<title>java.lang.classfile.attribute.RuntimeInvisibleAnnotationsAttribute</title>
<g id="a_node24"><a xlink:href="../../../java/lang/classfile/attribute/RuntimeInvisibleAnnotationsAttribute.html" xlink:title="java.lang.classfile.attribute.RuntimeInvisibleAnnotationsAttribute">
<text text-anchor="middle" x="3938.78" y="-104.2" font-family="DejaVuSans" font-size="12.00" fill="#e76f00">RuntimeInvisibleAnnotationsAttribute</text>
</a>
</g>
</g>
<!-- java.lang.classfile.attribute.RuntimeInvisibleAnnotationsAttribute&#45;&gt;java.lang.classfile.ClassElement -->
<g id="edge23" class="edge">
<title>java.lang.classfile.attribute.RuntimeInvisibleAnnotationsAttribute&#45;&gt;java.lang.classfile.ClassElement</title>
<path fill="none" stroke="#999999" stroke-width="2" d="M3811.93,-127.44C3805.8,-128.15 3799.72,-128.81 3793.78,-129.4 3407.23,-168.06 2941.1,-185.56 2769.96,-191.02"/>
<polygon fill="#999999" stroke="#999999" stroke-width="2" points="2760.11,-191.33 2769.97,-186.52 2762.66,-190.75 2770.09,-190.52 2770.11,-191.02 2770.12,-191.52 2762.69,-191.75 2770.25,-195.51 2760.11,-191.33"/>
</g>
<!-- java.lang.classfile.attribute.RuntimeInvisibleTypeAnnotationsAttribute -->
<g id="node25" class="node">
<title>java.lang.classfile.attribute.RuntimeInvisibleTypeAnnotationsAttribute</title>
<g id="a_node25"><a xlink:href="../../../java/lang/classfile/attribute/RuntimeInvisibleTypeAnnotationsAttribute.html" xlink:title="java.lang.classfile.attribute.RuntimeInvisibleTypeAnnotationsAttribute">
<text text-anchor="middle" x="4243.77" y="-104.2" font-family="DejaVuSans" font-size="12.00" fill="#e76f00">RuntimeInvisibleTypeAnnotationsAttribute</text>
</a>
</g>
</g>
<!-- java.lang.classfile.attribute.RuntimeInvisibleTypeAnnotationsAttribute&#45;&gt;java.lang.classfile.ClassElement -->
<g id="edge24" class="edge">
<title>java.lang.classfile.attribute.RuntimeInvisibleTypeAnnotationsAttribute&#45;&gt;java.lang.classfile.ClassElement</title>
<path fill="none" stroke="#999999" stroke-width="2" d="M4102.07,-127.67C4095.89,-128.3 4089.77,-128.88 4083.78,-129.4 3579.91,-173.36 2969.81,-188.04 2769.79,-191.86"/>
<polygon fill="#999999" stroke="#999999" stroke-width="2" points="2759.93,-192.05 2769.84,-187.36 2762.48,-191.5 2769.91,-191.36 2769.92,-191.86 2769.93,-192.36 2762.5,-192.5 2770.01,-196.36 2759.93,-192.05"/>
</g>
<!-- java.lang.classfile.attribute.RuntimeVisibleAnnotationsAttribute -->
<g id="node26" class="node">
<title>java.lang.classfile.attribute.RuntimeVisibleAnnotationsAttribute</title>
<g id="a_node26"><a xlink:href="../../../java/lang/classfile/attribute/RuntimeVisibleAnnotationsAttribute.html" xlink:title="java.lang.classfile.attribute.RuntimeVisibleAnnotationsAttribute">
<text text-anchor="middle" x="4543.77" y="-104.2" font-family="DejaVuSans" font-size="12.00" fill="#e76f00">RuntimeVisibleAnnotationsAttribute</text>
</a>
</g>
</g>
<!-- java.lang.classfile.attribute.RuntimeVisibleAnnotationsAttribute&#45;&gt;java.lang.classfile.ClassElement -->
<g id="edge25" class="edge">
<title>java.lang.classfile.attribute.RuntimeVisibleAnnotationsAttribute&#45;&gt;java.lang.classfile.ClassElement</title>
<path fill="none" stroke="#999999" stroke-width="2" d="M4421.7,-127.56C4415.65,-128.24 4409.65,-128.86 4403.77,-129.4 3770.18,-187.69 2999.15,-192.92 2770.03,-193.11"/>
<polygon fill="#999999" stroke="#999999" stroke-width="2" points="2760.06,-193.11 2770.06,-188.61 2762.62,-192.61 2770.06,-192.61 2770.06,-193.11 2770.06,-193.61 2762.62,-193.61 2770.06,-197.61 2760.06,-193.11"/>
</g>
<!-- java.lang.classfile.attribute.RuntimeVisibleTypeAnnotationsAttribute -->
<g id="node27" class="node">
<title>java.lang.classfile.attribute.RuntimeVisibleTypeAnnotationsAttribute</title>
<g id="a_node27"><a xlink:href="../../../java/lang/classfile/attribute/RuntimeVisibleTypeAnnotationsAttribute.html" xlink:title="java.lang.classfile.attribute.RuntimeVisibleTypeAnnotationsAttribute">
<text text-anchor="middle" x="4838.77" y="-104.2" font-family="DejaVuSans" font-size="12.00" fill="#e76f00">RuntimeVisibleTypeAnnotationsAttribute</text>
</a>
</g>
</g>
<!-- java.lang.classfile.attribute.RuntimeVisibleTypeAnnotationsAttribute&#45;&gt;java.lang.classfile.ClassElement -->
<g id="edge26" class="edge">
<title>java.lang.classfile.attribute.RuntimeVisibleTypeAnnotationsAttribute&#45;&gt;java.lang.classfile.ClassElement</title>
<path fill="none" stroke="#999999" stroke-width="2" d="M4702.35,-127.7C4696.08,-128.33 4689.86,-128.9 4683.77,-129.4 3934.66,-191.05 3021.63,-193.8 2769.82,-193.28"/>
<polygon fill="#999999" stroke="#999999" stroke-width="2" points="2760.08,-193.25 2770.09,-188.78 2762.64,-192.76 2770.08,-192.78 2770.08,-193.28 2770.08,-193.78 2762.64,-193.76 2770.07,-197.78 2760.08,-193.25"/>
</g>
<!-- java.lang.classfile.attribute.SignatureAttribute -->
<g id="node28" class="node">
<title>java.lang.classfile.attribute.SignatureAttribute</title>
<g id="a_node28"><a xlink:href="../../../java/lang/classfile/attribute/SignatureAttribute.html" xlink:title="java.lang.classfile.attribute.SignatureAttribute">
<text text-anchor="middle" x="5081.77" y="-104.2" font-family="DejaVuSans" font-size="12.00" fill="#e76f00">SignatureAttribute</text>
</a>
</g>
</g>
<!-- java.lang.classfile.attribute.SignatureAttribute&#45;&gt;java.lang.classfile.ClassElement -->
<g id="edge27" class="edge">
<title>java.lang.classfile.attribute.SignatureAttribute&#45;&gt;java.lang.classfile.ClassElement</title>
<path fill="none" stroke="#999999" stroke-width="2" d="M5011.88,-126.51C5005.78,-127.64 4999.69,-128.63 4993.77,-129.4 4547.21,-187.26 3099.42,-192.52 2769.93,-192.97"/>
<polygon fill="#999999" stroke="#999999" stroke-width="2" points="2760.21,-192.98 2770.21,-188.47 2762.77,-192.48 2770.21,-192.47 2770.21,-192.97 2770.21,-193.47 2762.78,-193.48 2770.22,-197.47 2760.21,-192.98"/>
</g>
<!-- java.lang.classfile.attribute.SourceDebugExtensionAttribute -->
<g id="node29" class="node">
<title>java.lang.classfile.attribute.SourceDebugExtensionAttribute</title>
<g id="a_node29"><a xlink:href="../../../java/lang/classfile/attribute/SourceDebugExtensionAttribute.html" xlink:title="java.lang.classfile.attribute.SourceDebugExtensionAttribute">
<text text-anchor="middle" x="5298.77" y="-104.2" font-family="DejaVuSans" font-size="12.00" fill="#e76f00">SourceDebugExtensionAttribute</text>
</a>
</g>
</g>
<!-- java.lang.classfile.attribute.SourceDebugExtensionAttribute&#45;&gt;java.lang.classfile.ClassElement -->
<g id="edge28" class="edge">
<title>java.lang.classfile.attribute.SourceDebugExtensionAttribute&#45;&gt;java.lang.classfile.ClassElement</title>
<path fill="none" stroke="#999999" stroke-width="2" d="M5188.06,-127.45C5181.89,-128.19 5175.76,-128.85 5169.77,-129.4 4684.62,-174.19 3114.28,-189.6 2769.93,-192.47"/>
<polygon fill="#999999" stroke="#999999" stroke-width="2" points="2760.16,-192.56 2770.12,-187.97 2762.72,-192.03 2770.16,-191.97 2770.16,-192.47 2770.17,-192.97 2762.73,-193.03 2770.2,-196.97 2760.16,-192.56"/>
</g>
<!-- java.lang.classfile.attribute.SourceFileAttribute -->
<g id="node30" class="node">
<title>java.lang.classfile.attribute.SourceFileAttribute</title>
<g id="a_node30"><a xlink:href="../../../java/lang/classfile/attribute/SourceFileAttribute.html" xlink:title="java.lang.classfile.attribute.SourceFileAttribute">
<text text-anchor="middle" x="5517.77" y="-104.2" font-family="DejaVuSans" font-size="12.00" fill="#e76f00">SourceFileAttribute</text>
</a>
</g>
</g>
<!-- java.lang.classfile.attribute.SourceFileAttribute&#45;&gt;java.lang.classfile.ClassElement -->
<g id="edge29" class="edge">
<title>java.lang.classfile.attribute.SourceFileAttribute&#45;&gt;java.lang.classfile.ClassElement</title>
<path fill="none" stroke="#999999" stroke-width="2" d="M5445.79,-126.62C5439.72,-127.71 5433.66,-128.67 5427.77,-129.4 4890.47,-196.46 3136.17,-194.45 2770.1,-193.27"/>
<polygon fill="#999999" stroke="#999999" stroke-width="2" points="2760.1,-193.24 2770.12,-188.77 2762.67,-192.74 2770.1,-192.77 2770.1,-193.27 2770.1,-193.77 2762.66,-193.74 2770.09,-197.77 2760.1,-193.24"/>
</g>
<!-- java.lang.classfile.attribute.SourceIDAttribute -->
<g id="node31" class="node">
<title>java.lang.classfile.attribute.SourceIDAttribute</title>
<g id="a_node31"><a xlink:href="../../../java/lang/classfile/attribute/SourceIDAttribute.html" xlink:title="java.lang.classfile.attribute.SourceIDAttribute">
<text text-anchor="middle" x="5693.77" y="-104.2" font-family="DejaVuSans" font-size="12.00" fill="#e76f00">SourceIDAttribute</text>
</a>
</g>
</g>
<!-- java.lang.classfile.attribute.SourceIDAttribute&#45;&gt;java.lang.classfile.ClassElement -->
<g id="edge30" class="edge">
<title>java.lang.classfile.attribute.SourceIDAttribute&#45;&gt;java.lang.classfile.ClassElement</title>
<path fill="none" stroke="#999999" stroke-width="2" d="M5625.96,-126.46C5619.84,-127.62 5613.71,-128.63 5607.77,-129.4 5318.33,-166.8 3178.27,-188.55 2769.97,-192.39"/>
<polygon fill="#999999" stroke="#999999" stroke-width="2" points="2760,-192.48 2769.96,-187.89 2762.56,-191.96 2770,-191.89 2770,-192.39 2770.01,-192.89 2762.57,-192.96 2770.04,-196.89 2760,-192.48"/>
</g>
<!-- java.lang.classfile.attribute.SyntheticAttribute -->
<g id="node32" class="node">
<title>java.lang.classfile.attribute.SyntheticAttribute</title>
<g id="a_node32"><a xlink:href="../../../java/lang/classfile/attribute/SyntheticAttribute.html" xlink:title="java.lang.classfile.attribute.SyntheticAttribute">
<text text-anchor="middle" x="5866.77" y="-104.2" font-family="DejaVuSans" font-size="12.00" fill="#e76f00">SyntheticAttribute</text>
</a>
</g>
</g>
<!-- java.lang.classfile.attribute.SyntheticAttribute&#45;&gt;java.lang.classfile.ClassElement -->
<g id="edge31" class="edge">
<title>java.lang.classfile.attribute.SyntheticAttribute&#45;&gt;java.lang.classfile.ClassElement</title>
<path fill="none" stroke="#999999" stroke-width="2" d="M5797.69,-126.55C5791.66,-127.68 5785.63,-128.66 5779.77,-129.4 5472.15,-168.55 3192.03,-189 2769.89,-192.47"/>
<polygon fill="#999999" stroke="#999999" stroke-width="2" points="2760.1,-192.55 2770.06,-187.96 2762.66,-192.03 2770.1,-191.96 2770.1,-192.46 2770.1,-192.96 2762.67,-193.03 2770.14,-196.96 2760.1,-192.55"/>
</g>
<!-- java.lang.classfile.attribute.UnknownAttribute -->
<g id="node33" class="node">
<title>java.lang.classfile.attribute.UnknownAttribute</title>
<g id="a_node33"><a xlink:href="../../../java/lang/classfile/attribute/UnknownAttribute.html" xlink:title="java.lang.classfile.attribute.UnknownAttribute">
<text text-anchor="middle" x="6040.77" y="-104.2" font-family="DejaVuSans" font-size="12.00" fill="#e76f00">UnknownAttribute</text>
</a>
</g>
</g>
<!-- java.lang.classfile.attribute.UnknownAttribute&#45;&gt;java.lang.classfile.ClassElement -->
<g id="edge32" class="edge">
<title>java.lang.classfile.attribute.UnknownAttribute&#45;&gt;java.lang.classfile.ClassElement</title>
<path fill="none" stroke="#999999" stroke-width="2" d="M5972.16,-126.47C5965.98,-127.63 5959.78,-128.64 5953.77,-129.4 5627.79,-170.7 3205.64,-189.48 2769.84,-192.55"/>
<polygon fill="#999999" stroke="#999999" stroke-width="2" points="2759.97,-192.62 2769.94,-188.05 2762.53,-192.1 2769.97,-192.05 2769.97,-192.55 2769.97,-193.05 2762.54,-193.1 2770,-197.05 2759.97,-192.62"/>
</g>
</g>
</svg>
