<?xml version="1.0" encoding="UTF-8" standalone="no"?>
<!DOCTYPE svg PUBLIC "-//W3C//DTD SVG 1.1//EN"
 "http://www.w3.org/Graphics/SVG/1.1/DTD/svg11.dtd">
<!-- Generated by graphviz version 9.0.0 (20230911.1827)
 -->
<!-- Title: G Pages: 1 -->
<svg width="614pt" height="224pt"
 viewBox="0.00 0.00 613.53 223.60" xmlns="http://www.w3.org/2000/svg" xmlns:xlink="http://www.w3.org/1999/xlink">
<g id="graph0" class="graph" transform="scale(1 1) rotate(0) translate(4 219.6)">
<title>G</title>
<polygon fill="white" stroke="none" points="-4,4 -4,-219.6 609.53,-219.6 609.53,4 -4,4"/>
<!-- java.lang.classfile.ClassTransform -->
<g id="node1" class="node">
<title>java.lang.classfile.ClassTransform</title>
<g id="a_node1"><a xlink:href="../../../java/lang/classfile/ClassTransform.html" xlink:title="java.lang.classfile.ClassTransform">
<text text-anchor="middle" x="544.52" y="-104.2" font-family="DejaVuSans" font-size="12.00" fill="#e76f00">ClassTransform</text>
</a>
</g>
</g>
<!-- java.lang.classfile.ClassFileTransform -->
<g id="node2" class="node">
<title>java.lang.classfile.ClassFileTransform</title>
<g id="a_node2"><a xlink:href="../../../java/lang/classfile/ClassFileTransform.html" xlink:title="java.lang.classfile.ClassFileTransform">
<text text-anchor="middle" x="304.52" y="-190.4" font-family="DejaVuSans" font-size="12.00" fill="#e76f00">ClassFileTransform</text>
</a>
</g>
</g>
<!-- java.lang.classfile.ClassTransform&#45;&gt;java.lang.classfile.ClassFileTransform -->
<g id="edge1" class="edge">
<title>java.lang.classfile.ClassTransform&#45;&gt;java.lang.classfile.ClassFileTransform</title>
<path fill="none" stroke="#999999" stroke-width="2" d="M485.81,-129.4C452.27,-141.16 410,-155.99 374.71,-168.37"/>
<polygon fill="#999999" stroke="#999999" stroke-width="2" points="365.34,-171.66 373.28,-164.11 367.59,-170.34 374.61,-167.88 374.77,-168.35 374.94,-168.82 367.92,-171.29 376.26,-172.6 365.34,-171.66"/>
</g>
<!-- open node #0 -->
<g id="node3" class="node">
<title>open node #0</title>
<g id="a_node3"><a xlink:title="Non&#45;sealed Hierarchy">
<text text-anchor="start" x="523.43" y="-19" font-family="DejaVuSans" font-style="italic" font-size="12.00" fill="#e76f00">&lt;any&gt;</text>
</a>
</g>
</g>
<!-- open node #0&#45;&gt;java.lang.classfile.ClassTransform -->
<g id="edge2" class="edge">
<title>open node #0&#45;&gt;java.lang.classfile.ClassTransform</title>
<path fill="none" stroke="#999999" stroke-width="2" stroke-dasharray="5,2" d="M544.52,-42.98C544.52,-52.32 544.52,-63.63 544.52,-74.12"/>
<polygon fill="#999999" stroke="#999999" stroke-width="2" points="544.52,-83.88 540.02,-73.88 544.02,-81.31 544.02,-73.88 544.52,-73.88 545.02,-73.88 545.02,-81.31 549.02,-73.88 544.52,-83.88"/>
</g>
<!-- java.lang.classfile.FieldTransform -->
<g id="node4" class="node">
<title>java.lang.classfile.FieldTransform</title>
<g id="a_node4"><a xlink:href="../../../java/lang/classfile/FieldTransform.html" xlink:title="java.lang.classfile.FieldTransform">
<text text-anchor="middle" x="59.52" y="-104.2" font-family="DejaVuSans" font-size="12.00" fill="#e76f00">FieldTransform</text>
</a>
</g>
</g>
<!-- java.lang.classfile.FieldTransform&#45;&gt;java.lang.classfile.ClassFileTransform -->
<g id="edge3" class="edge">
<title>java.lang.classfile.FieldTransform&#45;&gt;java.lang.classfile.ClassFileTransform</title>
<path fill="none" stroke="#999999" stroke-width="2" d="M118.82,-129.18C153.33,-141.04 197.04,-156.06 233.39,-168.55"/>
<polygon fill="#999999" stroke="#999999" stroke-width="2" points="242.6,-171.72 231.68,-172.73 240.02,-171.36 232.98,-168.94 233.14,-168.47 233.31,-168 240.34,-170.42 234.61,-164.22 242.6,-171.72"/>
</g>
<!-- open node #1 -->
<g id="node5" class="node">
<title>open node #1</title>
<g id="a_node5"><a xlink:title="Non&#45;sealed Hierarchy">
<text text-anchor="start" x="38.43" y="-19" font-family="DejaVuSans" font-style="italic" font-size="12.00" fill="#e76f00">&lt;any&gt;</text>
</a>
</g>
</g>
<!-- open node #1&#45;&gt;java.lang.classfile.FieldTransform -->
<g id="edge4" class="edge">
<title>open node #1&#45;&gt;java.lang.classfile.FieldTransform</title>
<path fill="none" stroke="#999999" stroke-width="2" stroke-dasharray="5,2" d="M59.52,-42.98C59.52,-52.32 59.52,-63.63 59.52,-74.12"/>
<polygon fill="#999999" stroke="#999999" stroke-width="2" points="59.52,-83.88 55.02,-73.88 59.02,-81.31 59.02,-73.88 59.52,-73.88 60.02,-73.88 60.02,-81.31 64.02,-73.88 59.52,-83.88"/>
</g>
<!-- java.lang.classfile.MethodTransform -->
<g id="node6" class="node">
<title>java.lang.classfile.MethodTransform</title>
<g id="a_node6"><a xlink:href="../../../java/lang/classfile/MethodTransform.html" xlink:title="java.lang.classfile.MethodTransform">
<text text-anchor="middle" x="222.52" y="-104.2" font-family="DejaVuSans" font-size="12.00" fill="#e76f00">MethodTransform</text>
</a>
</g>
</g>
<!-- java.lang.classfile.MethodTransform&#45;&gt;java.lang.classfile.ClassFileTransform -->
<g id="edge5" class="edge">
<title>java.lang.classfile.MethodTransform&#45;&gt;java.lang.classfile.ClassFileTransform</title>
<path fill="none" stroke="#999999" stroke-width="2" d="M242.37,-129.18C252.47,-139.55 264.92,-152.34 276.02,-163.74"/>
<polygon fill="#999999" stroke="#999999" stroke-width="2" points="282.87,-170.77 272.66,-166.74 280.72,-169.28 275.53,-163.95 275.89,-163.6 276.25,-163.25 281.44,-168.58 279.11,-160.46 282.87,-170.77"/>
</g>
<!-- open node #2 -->
<g id="node7" class="node">
<title>open node #2</title>
<g id="a_node7"><a xlink:title="Non&#45;sealed Hierarchy">
<text text-anchor="start" x="201.43" y="-19" font-family="DejaVuSans" font-style="italic" font-size="12.00" fill="#e76f00">&lt;any&gt;</text>
</a>
</g>
</g>
<!-- open node #2&#45;&gt;java.lang.classfile.MethodTransform -->
<g id="edge6" class="edge">
<title>open node #2&#45;&gt;java.lang.classfile.MethodTransform</title>
<path fill="none" stroke="#999999" stroke-width="2" stroke-dasharray="5,2" d="M222.52,-42.98C222.52,-52.32 222.52,-63.63 222.52,-74.12"/>
<polygon fill="#999999" stroke="#999999" stroke-width="2" points="222.52,-83.88 218.02,-73.88 222.02,-81.31 222.02,-73.88 222.52,-73.88 223.02,-73.88 223.02,-81.31 227.02,-73.88 222.52,-83.88"/>
</g>
<!-- java.lang.classfile.CodeTransform -->
<g id="node8" class="node">
<title>java.lang.classfile.CodeTransform</title>
<g id="a_node8"><a xlink:href="../../../java/lang/classfile/CodeTransform.html" xlink:title="java.lang.classfile.CodeTransform">
<text text-anchor="middle" x="386.52" y="-104.2" font-family="DejaVuSans" font-size="12.00" fill="#e76f00">CodeTransform</text>
</a>
</g>
</g>
<!-- java.lang.classfile.CodeTransform&#45;&gt;java.lang.classfile.ClassFileTransform -->
<g id="edge7" class="edge">
<title>java.lang.classfile.CodeTransform&#45;&gt;java.lang.classfile.ClassFileTransform</title>
<path fill="none" stroke="#999999" stroke-width="2" d="M366.67,-129.18C356.57,-139.55 344.11,-152.34 333.01,-163.74"/>
<polygon fill="#999999" stroke="#999999" stroke-width="2" points="326.17,-170.77 329.92,-160.46 327.6,-168.58 332.79,-163.25 333.15,-163.6 333.5,-163.95 328.32,-169.28 336.37,-166.74 326.17,-170.77"/>
</g>
<!-- open node #3 -->
<g id="node9" class="node">
<title>open node #3</title>
<g id="a_node9"><a xlink:title="Non&#45;sealed Hierarchy">
<text text-anchor="start" x="365.43" y="-19" font-family="DejaVuSans" font-style="italic" font-size="12.00" fill="#e76f00">&lt;any&gt;</text>
</a>
</g>
</g>
<!-- open node #3&#45;&gt;java.lang.classfile.CodeTransform -->
<g id="edge8" class="edge">
<title>open node #3&#45;&gt;java.lang.classfile.CodeTransform</title>
<path fill="none" stroke="#999999" stroke-width="2" stroke-dasharray="5,2" d="M386.52,-42.98C386.52,-52.32 386.52,-63.63 386.52,-74.12"/>
<polygon fill="#999999" stroke="#999999" stroke-width="2" points="386.52,-83.88 382.02,-73.88 386.02,-81.31 386.02,-73.88 386.52,-73.88 387.02,-73.88 387.02,-81.31 391.02,-73.88 386.52,-83.88"/>
</g>
</g>
</svg>
