<?xml version="1.0" encoding="UTF-8" standalone="no"?>
<!DOCTYPE svg PUBLIC "-//W3C//DTD SVG 1.1//EN"
 "http://www.w3.org/Graphics/SVG/1.1/DTD/svg11.dtd">
<!-- Generated by graphviz version 9.0.0 (20230911.1827)
 -->
<!-- Title: G Pages: 1 -->
<svg width="553pt" height="224pt"
 viewBox="0.00 0.00 552.61 223.60" xmlns="http://www.w3.org/2000/svg" xmlns:xlink="http://www.w3.org/1999/xlink">
<g id="graph0" class="graph" transform="scale(1 1) rotate(0) translate(4 219.6)">
<title>G</title>
<polygon fill="white" stroke="none" points="-4,4 -4,-219.6 548.61,-219.6 548.61,4 -4,4"/>
<!-- java.lang.classfile.ClassBuilder -->
<g id="node1" class="node">
<title>java.lang.classfile.ClassBuilder</title>
<g id="a_node1"><a xlink:href="../../../java/lang/classfile/ClassBuilder.html" xlink:title="java.lang.classfile.ClassBuilder">
<text text-anchor="middle" x="51.4" y="-104.2" font-family="DejaVuSans" font-size="12.00" fill="#e76f00">ClassBuilder</text>
</a>
</g>
</g>
<!-- java.lang.classfile.ClassFileBuilder -->
<g id="node2" class="node">
<title>java.lang.classfile.ClassFileBuilder</title>
<g id="a_node2"><a xlink:href="../../../java/lang/classfile/ClassFileBuilder.html" xlink:title="java.lang.classfile.ClassFileBuilder">
<text text-anchor="middle" x="260.4" y="-190.4" font-family="DejaVuSans" font-size="12.00" fill="#e76f00">ClassFileBuilder</text>
</a>
</g>
</g>
<!-- java.lang.classfile.ClassBuilder&#45;&gt;java.lang.classfile.ClassFileBuilder -->
<g id="edge1" class="edge">
<title>java.lang.classfile.ClassBuilder&#45;&gt;java.lang.classfile.ClassFileBuilder</title>
<path fill="none" stroke="#999999" stroke-width="2" d="M102.53,-129.4C131.36,-141.01 167.59,-155.61 198.07,-167.89"/>
<polygon fill="#999999" stroke="#999999" stroke-width="2" points="207.18,-171.56 196.23,-172 204.62,-171.06 197.72,-168.29 197.91,-167.82 198.09,-167.36 204.99,-170.14 199.59,-163.65 207.18,-171.56"/>
</g>
<!-- java.lang.classfile.FieldBuilder -->
<g id="node3" class="node">
<title>java.lang.classfile.FieldBuilder</title>
<g id="a_node3"><a xlink:href="../../../java/lang/classfile/FieldBuilder.html" xlink:title="java.lang.classfile.FieldBuilder">
<text text-anchor="middle" x="188.4" y="-104.2" font-family="DejaVuSans" font-size="12.00" fill="#e76f00">FieldBuilder</text>
</a>
</g>
</g>
<!-- java.lang.classfile.FieldBuilder&#45;&gt;java.lang.classfile.ClassFileBuilder -->
<g id="edge2" class="edge">
<title>java.lang.classfile.FieldBuilder&#45;&gt;java.lang.classfile.ClassFileBuilder</title>
<path fill="none" stroke="#999999" stroke-width="2" d="M205.83,-129.18C214.53,-139.35 225.2,-151.84 234.81,-163.06"/>
<polygon fill="#999999" stroke="#999999" stroke-width="2" points="241.3,-170.66 231.38,-165.99 239.26,-169.04 234.42,-163.39 234.8,-163.06 235.18,-162.74 240.02,-168.39 238.22,-160.14 241.3,-170.66"/>
</g>
<!-- java.lang.classfile.MethodBuilder -->
<g id="node4" class="node">
<title>java.lang.classfile.MethodBuilder</title>
<g id="a_node4"><a xlink:href="../../../java/lang/classfile/MethodBuilder.html" xlink:title="java.lang.classfile.MethodBuilder">
<text text-anchor="middle" x="332.4" y="-104.2" font-family="DejaVuSans" font-size="12.00" fill="#e76f00">MethodBuilder</text>
</a>
</g>
</g>
<!-- java.lang.classfile.MethodBuilder&#45;&gt;java.lang.classfile.ClassFileBuilder -->
<g id="edge3" class="edge">
<title>java.lang.classfile.MethodBuilder&#45;&gt;java.lang.classfile.ClassFileBuilder</title>
<path fill="none" stroke="#999999" stroke-width="2" d="M314.98,-129.18C306.28,-139.35 295.6,-151.84 286,-163.06"/>
<polygon fill="#999999" stroke="#999999" stroke-width="2" points="279.51,-170.66 282.59,-160.14 280.79,-168.39 285.63,-162.74 286.01,-163.06 286.39,-163.39 281.55,-169.04 289.43,-165.99 279.51,-170.66"/>
</g>
<!-- java.lang.classfile.CodeBuilder -->
<g id="node5" class="node">
<title>java.lang.classfile.CodeBuilder</title>
<g id="a_node5"><a xlink:href="../../../java/lang/classfile/CodeBuilder.html" xlink:title="java.lang.classfile.CodeBuilder">
<text text-anchor="middle" x="477.4" y="-104.2" font-family="DejaVuSans" font-size="12.00" fill="#e76f00">CodeBuilder</text>
</a>
</g>
</g>
<!-- java.lang.classfile.CodeBuilder&#45;&gt;java.lang.classfile.ClassFileBuilder -->
<g id="edge4" class="edge">
<title>java.lang.classfile.CodeBuilder&#45;&gt;java.lang.classfile.ClassFileBuilder</title>
<path fill="none" stroke="#999999" stroke-width="2" d="M426.53,-128.54C396.05,-140.37 357.02,-155.51 324.45,-168.15"/>
<polygon fill="#999999" stroke="#999999" stroke-width="2" points="315.5,-171.62 323.2,-163.81 317.71,-170.23 324.64,-167.54 324.82,-168 325,-168.47 318.07,-171.16 326.45,-172.2 315.5,-171.62"/>
</g>
<!-- java.lang.classfile.CodeBuilder.BlockCodeBuilder -->
<g id="node6" class="node">
<title>java.lang.classfile.CodeBuilder.BlockCodeBuilder</title>
<g id="a_node6"><a xlink:href="../../../java/lang/classfile/CodeBuilder.BlockCodeBuilder.html" xlink:title="java.lang.classfile.CodeBuilder.BlockCodeBuilder">
<text text-anchor="middle" x="477.4" y="-18" font-family="DejaVuSans" font-size="12.00" fill="#e76f00">BlockCodeBuilder</text>
</a>
</g>
</g>
<!-- java.lang.classfile.CodeBuilder.BlockCodeBuilder&#45;&gt;java.lang.classfile.CodeBuilder -->
<g id="edge5" class="edge">
<title>java.lang.classfile.CodeBuilder.BlockCodeBuilder&#45;&gt;java.lang.classfile.CodeBuilder</title>
<path fill="none" stroke="#999999" stroke-width="2" d="M477.4,-42.98C477.4,-52.32 477.4,-63.63 477.4,-74.12"/>
<polygon fill="#999999" stroke="#999999" stroke-width="2" points="477.4,-83.88 472.9,-73.88 476.9,-81.31 476.9,-73.88 477.4,-73.88 477.9,-73.88 477.9,-81.31 481.9,-73.88 477.4,-83.88"/>
</g>
</g>
</svg>
