<?xml version="1.0" encoding="UTF-8" standalone="no"?>
<!DOCTYPE svg PUBLIC "-//W3C//DTD SVG 1.1//EN"
 "http://www.w3.org/Graphics/SVG/1.1/DTD/svg11.dtd">
<!-- Generated by graphviz version 9.0.0 (20230911.1827)
 -->
<!-- Title: G Pages: 1 -->
<svg width="5696pt" height="310pt"
 viewBox="0.00 0.00 5695.86 309.80" xmlns="http://www.w3.org/2000/svg" xmlns:xlink="http://www.w3.org/1999/xlink">
<g id="graph0" class="graph" transform="scale(1 1) rotate(0) translate(4 305.8)">
<title>G</title>
<polygon fill="white" stroke="none" points="-4,4 -4,-305.8 5691.86,-305.8 5691.86,4 -4,4"/>
<!-- java.lang.classfile.Instruction -->
<g id="node1" class="node">
<title>java.lang.classfile.Instruction</title>
<g id="a_node1"><a xlink:href="../../../java/lang/classfile/Instruction.html" xlink:title="java.lang.classfile.Instruction">
<text text-anchor="middle" x="3191.17" y="-190.4" font-family="DejaVuSans" font-size="12.00" fill="#e76f00">Instruction</text>
</a>
</g>
</g>
<!-- java.lang.classfile.CodeElement -->
<g id="node2" class="node">
<title>java.lang.classfile.CodeElement</title>
<g id="a_node2"><a xlink:href="../../../java/lang/classfile/CodeElement.html" xlink:title="java.lang.classfile.CodeElement">
<text text-anchor="middle" x="1504.17" y="-276.6" font-family="DejaVuSans" font-size="12.00" fill="#e76f00">CodeElement</text>
</a>
</g>
</g>
<!-- java.lang.classfile.Instruction&#45;&gt;java.lang.classfile.CodeElement -->
<g id="edge1" class="edge">
<title>java.lang.classfile.Instruction&#45;&gt;java.lang.classfile.CodeElement</title>
<path fill="none" stroke="#999999" stroke-width="2" d="M3144.73,-197.32C2909.4,-209.06 1848.83,-262 1570.98,-275.87"/>
<polygon fill="#999999" stroke="#999999" stroke-width="2" points="1561.16,-276.36 1570.93,-271.36 1563.7,-275.73 1571.13,-275.36 1571.15,-275.86 1571.18,-276.36 1563.75,-276.73 1571.37,-280.35 1561.16,-276.36"/>
</g>
<!-- java.lang.classfile.instruction.ArrayLoadInstruction -->
<g id="node3" class="node">
<title>java.lang.classfile.instruction.ArrayLoadInstruction</title>
<g id="a_node3"><a xlink:href="../../../java/lang/classfile/instruction/ArrayLoadInstruction.html" xlink:title="java.lang.classfile.instruction.ArrayLoadInstruction">
<text text-anchor="middle" x="1101.17" y="-104.2" font-family="DejaVuSans" font-size="12.00" fill="#e76f00">ArrayLoadInstruction</text>
</a>
</g>
</g>
<!-- java.lang.classfile.instruction.ArrayLoadInstruction&#45;&gt;java.lang.classfile.Instruction -->
<g id="edge2" class="edge">
<title>java.lang.classfile.instruction.ArrayLoadInstruction&#45;&gt;java.lang.classfile.Instruction</title>
<path fill="none" stroke="#999999" stroke-width="2" d="M1178.22,-126.73C1184.27,-127.77 1190.31,-128.68 1196.17,-129.4 1392.39,-153.6 2824.17,-185.2 3132.69,-191.77"/>
<polygon fill="#999999" stroke="#999999" stroke-width="2" points="3142.43,-191.98 3132.34,-196.26 3139.86,-192.42 3132.42,-192.26 3132.43,-191.76 3132.44,-191.26 3139.88,-191.42 3132.53,-187.27 3142.43,-191.98"/>
</g>
<!-- java.lang.classfile.instruction.ArrayStoreInstruction -->
<g id="node4" class="node">
<title>java.lang.classfile.instruction.ArrayStoreInstruction</title>
<g id="a_node4"><a xlink:href="../../../java/lang/classfile/instruction/ArrayStoreInstruction.html" xlink:title="java.lang.classfile.instruction.ArrayStoreInstruction">
<text text-anchor="middle" x="1293.17" y="-104.2" font-family="DejaVuSans" font-size="12.00" fill="#e76f00">ArrayStoreInstruction</text>
</a>
</g>
</g>
<!-- java.lang.classfile.instruction.ArrayStoreInstruction&#45;&gt;java.lang.classfile.Instruction -->
<g id="edge3" class="edge">
<title>java.lang.classfile.instruction.ArrayStoreInstruction&#45;&gt;java.lang.classfile.Instruction</title>
<path fill="none" stroke="#999999" stroke-width="2" d="M1371.83,-126.84C1377.68,-127.83 1383.5,-128.7 1389.17,-129.4 1738.18,-172.66 2862.65,-188.98 3132.54,-192.32"/>
<polygon fill="#999999" stroke="#999999" stroke-width="2" points="3142.3,-192.44 3132.25,-196.82 3139.73,-192.91 3132.3,-192.82 3132.3,-192.32 3132.31,-191.82 3139.74,-191.91 3132.36,-187.82 3142.3,-192.44"/>
</g>
<!-- java.lang.classfile.instruction.BranchInstruction -->
<g id="node5" class="node">
<title>java.lang.classfile.instruction.BranchInstruction</title>
<g id="a_node5"><a xlink:href="../../../java/lang/classfile/instruction/BranchInstruction.html" xlink:title="java.lang.classfile.instruction.BranchInstruction">
<text text-anchor="middle" x="1475.17" y="-104.2" font-family="DejaVuSans" font-size="12.00" fill="#e76f00">BranchInstruction</text>
</a>
</g>
</g>
<!-- java.lang.classfile.instruction.BranchInstruction&#45;&gt;java.lang.classfile.Instruction -->
<g id="edge4" class="edge">
<title>java.lang.classfile.instruction.BranchInstruction&#45;&gt;java.lang.classfile.Instruction</title>
<path fill="none" stroke="#999999" stroke-width="2" d="M1542.53,-126.26C1548.8,-127.48 1555.09,-128.56 1561.17,-129.4 1874.13,-172.56 2879.65,-188.8 3132.86,-192.26"/>
<polygon fill="#999999" stroke="#999999" stroke-width="2" points="3142.6,-192.39 3132.54,-196.75 3140.03,-192.85 3132.59,-192.75 3132.6,-192.25 3132.61,-191.75 3140.04,-191.85 3132.66,-187.75 3142.6,-192.39"/>
</g>
<!-- java.lang.classfile.instruction.ConstantInstruction -->
<g id="node6" class="node">
<title>java.lang.classfile.instruction.ConstantInstruction</title>
<g id="a_node6"><a xlink:href="../../../java/lang/classfile/instruction/ConstantInstruction.html" xlink:title="java.lang.classfile.instruction.ConstantInstruction">
<text text-anchor="middle" x="1652.17" y="-104.2" font-family="DejaVuSans" font-size="12.00" fill="#e76f00">ConstantInstruction</text>
</a>
</g>
</g>
<!-- java.lang.classfile.instruction.ConstantInstruction&#45;&gt;java.lang.classfile.Instruction -->
<g id="edge5" class="edge">
<title>java.lang.classfile.instruction.ConstantInstruction&#45;&gt;java.lang.classfile.Instruction</title>
<path fill="none" stroke="#999999" stroke-width="2" d="M1725.53,-126.44C1731.81,-127.58 1738.09,-128.59 1744.17,-129.4 2019.53,-165.99 2897.35,-186.79 3132.66,-191.81"/>
<polygon fill="#999999" stroke="#999999" stroke-width="2" points="3142.55,-192.02 3132.46,-196.3 3139.98,-192.46 3132.55,-192.3 3132.56,-191.8 3132.57,-191.3 3140,-191.46 3132.65,-187.31 3142.55,-192.02"/>
</g>
<!-- java.lang.classfile.instruction.ConstantInstruction.IntrinsicConstantInstruction -->
<g id="node7" class="node">
<title>java.lang.classfile.instruction.ConstantInstruction.IntrinsicConstantInstruction</title>
<g id="a_node7"><a xlink:href="../../../java/lang/classfile/instruction/ConstantInstruction.IntrinsicConstantInstruction.html" xlink:title="java.lang.classfile.instruction.ConstantInstruction.IntrinsicConstantInstruction">
<text text-anchor="middle" x="1382.17" y="-18" font-family="DejaVuSans" font-size="12.00" fill="#e76f00">IntrinsicConstantInstruction</text>
</a>
</g>
</g>
<!-- java.lang.classfile.instruction.ConstantInstruction.IntrinsicConstantInstruction&#45;&gt;java.lang.classfile.instruction.ConstantInstruction -->
<g id="edge6" class="edge">
<title>java.lang.classfile.instruction.ConstantInstruction.IntrinsicConstantInstruction&#45;&gt;java.lang.classfile.instruction.ConstantInstruction</title>
<path fill="none" stroke="#999999" stroke-width="2" d="M1448.22,-43.2C1486.36,-55.09 1534.54,-70.12 1574.49,-82.58"/>
<polygon fill="#999999" stroke="#999999" stroke-width="2" points="1584.01,-85.54 1573.12,-86.86 1581.41,-85.26 1574.31,-83.04 1574.46,-82.57 1574.61,-82.09 1581.71,-84.3 1575.8,-78.27 1584.01,-85.54"/>
</g>
<!-- java.lang.classfile.instruction.ConstantInstruction.ArgumentConstantInstruction -->
<g id="node8" class="node">
<title>java.lang.classfile.instruction.ConstantInstruction.ArgumentConstantInstruction</title>
<g id="a_node8"><a xlink:href="../../../java/lang/classfile/instruction/ConstantInstruction.ArgumentConstantInstruction.html" xlink:title="java.lang.classfile.instruction.ConstantInstruction.ArgumentConstantInstruction">
<text text-anchor="middle" x="1619.17" y="-18" font-family="DejaVuSans" font-size="12.00" fill="#e76f00">ArgumentConstantInstruction</text>
</a>
</g>
</g>
<!-- java.lang.classfile.instruction.ConstantInstruction.ArgumentConstantInstruction&#45;&gt;java.lang.classfile.instruction.ConstantInstruction -->
<g id="edge7" class="edge">
<title>java.lang.classfile.instruction.ConstantInstruction.ArgumentConstantInstruction&#45;&gt;java.lang.classfile.instruction.ConstantInstruction</title>
<path fill="none" stroke="#999999" stroke-width="2" d="M1627.16,-42.98C1630.9,-52.53 1635.45,-64.13 1639.63,-74.81"/>
<polygon fill="#999999" stroke="#999999" stroke-width="2" points="1643.25,-84.04 1635.41,-76.38 1641.85,-81.84 1639.14,-74.92 1639.6,-74.73 1640.07,-74.55 1642.78,-81.48 1643.79,-73.09 1643.25,-84.04"/>
</g>
<!-- java.lang.classfile.instruction.ConstantInstruction.LoadConstantInstruction -->
<g id="node9" class="node">
<title>java.lang.classfile.instruction.ConstantInstruction.LoadConstantInstruction</title>
<g id="a_node9"><a xlink:href="../../../java/lang/classfile/instruction/ConstantInstruction.LoadConstantInstruction.html" xlink:title="java.lang.classfile.instruction.ConstantInstruction.LoadConstantInstruction">
<text text-anchor="middle" x="1846.17" y="-18" font-family="DejaVuSans" font-size="12.00" fill="#e76f00">LoadConstantInstruction</text>
</a>
</g>
</g>
<!-- java.lang.classfile.instruction.ConstantInstruction.LoadConstantInstruction&#45;&gt;java.lang.classfile.instruction.ConstantInstruction -->
<g id="edge8" class="edge">
<title>java.lang.classfile.instruction.ConstantInstruction.LoadConstantInstruction&#45;&gt;java.lang.classfile.instruction.ConstantInstruction</title>
<path fill="none" stroke="#999999" stroke-width="2" d="M1798.71,-43.2C1772.19,-54.71 1738.92,-69.15 1710.78,-81.36"/>
<polygon fill="#999999" stroke="#999999" stroke-width="2" points="1701.71,-85.3 1709.09,-77.19 1703.86,-83.82 1710.68,-80.86 1710.88,-81.32 1711.08,-81.78 1704.26,-84.74 1712.67,-85.45 1701.71,-85.3"/>
</g>
<!-- java.lang.classfile.instruction.ConvertInstruction -->
<g id="node10" class="node">
<title>java.lang.classfile.instruction.ConvertInstruction</title>
<g id="a_node10"><a xlink:href="../../../java/lang/classfile/instruction/ConvertInstruction.html" xlink:title="java.lang.classfile.instruction.ConvertInstruction">
<text text-anchor="middle" x="1832.17" y="-104.2" font-family="DejaVuSans" font-size="12.00" fill="#e76f00">ConvertInstruction</text>
</a>
</g>
</g>
<!-- java.lang.classfile.instruction.ConvertInstruction&#45;&gt;java.lang.classfile.Instruction -->
<g id="edge9" class="edge">
<title>java.lang.classfile.instruction.ConvertInstruction&#45;&gt;java.lang.classfile.Instruction</title>
<path fill="none" stroke="#999999" stroke-width="2" d="M1902.08,-126.36C1908.18,-127.53 1914.27,-128.57 1920.17,-129.4 2159.07,-163.06 2915.41,-185.58 3132.43,-191.47"/>
<polygon fill="#999999" stroke="#999999" stroke-width="2" points="3142.31,-191.73 3132.19,-195.96 3139.74,-192.16 3132.3,-191.96 3132.32,-191.46 3132.33,-190.96 3139.76,-191.16 3132.44,-186.96 3142.31,-191.73"/>
</g>
<!-- java.lang.classfile.instruction.DiscontinuedInstruction -->
<g id="node11" class="node">
<title>java.lang.classfile.instruction.DiscontinuedInstruction</title>
<g id="a_node11"><a xlink:href="../../../java/lang/classfile/instruction/DiscontinuedInstruction.html" xlink:title="java.lang.classfile.instruction.DiscontinuedInstruction">
<text text-anchor="middle" x="2024.17" y="-104.2" font-family="DejaVuSans" font-size="12.00" fill="#e76f00">DiscontinuedInstruction</text>
</a>
</g>
</g>
<!-- java.lang.classfile.instruction.DiscontinuedInstruction&#45;&gt;java.lang.classfile.Instruction -->
<g id="edge10" class="edge">
<title>java.lang.classfile.instruction.DiscontinuedInstruction&#45;&gt;java.lang.classfile.Instruction</title>
<path fill="none" stroke="#999999" stroke-width="2" d="M2109.72,-126.7C2115.95,-127.71 2122.15,-128.63 2128.17,-129.4 2508.91,-178.27 2971.29,-189.7 3132.43,-192.28"/>
<polygon fill="#999999" stroke="#999999" stroke-width="2" points="3142.42,-192.43 3132.35,-196.78 3139.85,-192.89 3132.41,-192.78 3132.42,-192.28 3132.43,-191.78 3139.86,-191.89 3132.49,-187.78 3142.42,-192.43"/>
</g>
<!-- java.lang.classfile.instruction.DiscontinuedInstruction.JsrInstruction -->
<g id="node12" class="node">
<title>java.lang.classfile.instruction.DiscontinuedInstruction.JsrInstruction</title>
<g id="a_node12"><a xlink:href="../../../java/lang/classfile/instruction/DiscontinuedInstruction.JsrInstruction.html" xlink:title="java.lang.classfile.instruction.DiscontinuedInstruction.JsrInstruction">
<text text-anchor="middle" x="2024.17" y="-18" font-family="DejaVuSans" font-size="12.00" fill="#e76f00">JsrInstruction</text>
</a>
</g>
</g>
<!-- java.lang.classfile.instruction.DiscontinuedInstruction.JsrInstruction&#45;&gt;java.lang.classfile.instruction.DiscontinuedInstruction -->
<g id="edge11" class="edge">
<title>java.lang.classfile.instruction.DiscontinuedInstruction.JsrInstruction&#45;&gt;java.lang.classfile.instruction.DiscontinuedInstruction</title>
<path fill="none" stroke="#999999" stroke-width="2" d="M2024.17,-42.98C2024.17,-52.32 2024.17,-63.63 2024.17,-74.12"/>
<polygon fill="#999999" stroke="#999999" stroke-width="2" points="2024.17,-83.88 2019.67,-73.88 2023.67,-81.31 2023.67,-73.88 2024.17,-73.88 2024.67,-73.88 2024.67,-81.31 2028.67,-73.88 2024.17,-83.88"/>
</g>
<!-- java.lang.classfile.instruction.DiscontinuedInstruction.RetInstruction -->
<g id="node13" class="node">
<title>java.lang.classfile.instruction.DiscontinuedInstruction.RetInstruction</title>
<g id="a_node13"><a xlink:href="../../../java/lang/classfile/instruction/DiscontinuedInstruction.RetInstruction.html" xlink:title="java.lang.classfile.instruction.DiscontinuedInstruction.RetInstruction">
<text text-anchor="middle" x="2171.17" y="-18" font-family="DejaVuSans" font-size="12.00" fill="#e76f00">RetInstruction</text>
</a>
</g>
</g>
<!-- java.lang.classfile.instruction.DiscontinuedInstruction.RetInstruction&#45;&gt;java.lang.classfile.instruction.DiscontinuedInstruction -->
<g id="edge12" class="edge">
<title>java.lang.classfile.instruction.DiscontinuedInstruction.RetInstruction&#45;&gt;java.lang.classfile.instruction.DiscontinuedInstruction</title>
<path fill="none" stroke="#999999" stroke-width="2" d="M2135.21,-43.2C2115.74,-54.35 2091.46,-68.25 2070.58,-80.22"/>
<polygon fill="#999999" stroke="#999999" stroke-width="2" points="2062.13,-85.06 2068.57,-76.18 2064.1,-83.35 2070.56,-79.65 2070.81,-80.09 2071.05,-80.52 2064.6,-84.22 2073.04,-83.99 2062.13,-85.06"/>
</g>
<!-- java.lang.classfile.instruction.FieldInstruction -->
<g id="node14" class="node">
<title>java.lang.classfile.instruction.FieldInstruction</title>
<g id="a_node14"><a xlink:href="../../../java/lang/classfile/instruction/FieldInstruction.html" xlink:title="java.lang.classfile.instruction.FieldInstruction">
<text text-anchor="middle" x="2207.17" y="-104.2" font-family="DejaVuSans" font-size="12.00" fill="#e76f00">FieldInstruction</text>
</a>
</g>
</g>
<!-- java.lang.classfile.instruction.FieldInstruction&#45;&gt;java.lang.classfile.Instruction -->
<g id="edge13" class="edge">
<title>java.lang.classfile.instruction.FieldInstruction&#45;&gt;java.lang.classfile.Instruction</title>
<path fill="none" stroke="#999999" stroke-width="2" d="M2267.74,-125.8C2273.93,-127.18 2280.16,-128.41 2286.17,-129.4 2602.57,-181.31 2988.02,-190.88 3132.65,-192.62"/>
<polygon fill="#999999" stroke="#999999" stroke-width="2" points="3142.23,-192.73 3132.18,-197.12 3139.67,-193.2 3132.23,-193.12 3132.23,-192.62 3132.24,-192.12 3139.68,-192.2 3132.28,-188.12 3142.23,-192.73"/>
</g>
<!-- java.lang.classfile.instruction.InvokeDynamicInstruction -->
<g id="node15" class="node">
<title>java.lang.classfile.instruction.InvokeDynamicInstruction</title>
<g id="a_node15"><a xlink:href="../../../java/lang/classfile/instruction/InvokeDynamicInstruction.html" xlink:title="java.lang.classfile.instruction.InvokeDynamicInstruction">
<text text-anchor="middle" x="2397.17" y="-104.2" font-family="DejaVuSans" font-size="12.00" fill="#e76f00">InvokeDynamicInstruction</text>
</a>
</g>
</g>
<!-- java.lang.classfile.instruction.InvokeDynamicInstruction&#45;&gt;java.lang.classfile.Instruction -->
<g id="edge14" class="edge">
<title>java.lang.classfile.instruction.InvokeDynamicInstruction&#45;&gt;java.lang.classfile.Instruction</title>
<path fill="none" stroke="#999999" stroke-width="2" d="M2490.04,-126.68C2496.16,-127.66 2502.25,-128.58 2508.17,-129.4 2738.35,-161.41 3014.47,-181.57 3132.75,-189.35"/>
<polygon fill="#999999" stroke="#999999" stroke-width="2" points="3142.61,-190 3132.33,-193.84 3140.01,-190.33 3132.59,-189.84 3132.63,-189.34 3132.66,-188.85 3140.08,-189.33 3132.92,-184.85 3142.61,-190"/>
</g>
<!-- java.lang.classfile.instruction.InvokeInstruction -->
<g id="node16" class="node">
<title>java.lang.classfile.instruction.InvokeInstruction</title>
<g id="a_node16"><a xlink:href="../../../java/lang/classfile/instruction/InvokeInstruction.html" xlink:title="java.lang.classfile.instruction.InvokeInstruction">
<text text-anchor="middle" x="2592.17" y="-104.2" font-family="DejaVuSans" font-size="12.00" fill="#e76f00">InvokeInstruction</text>
</a>
</g>
</g>
<!-- java.lang.classfile.instruction.InvokeInstruction&#45;&gt;java.lang.classfile.Instruction -->
<g id="edge15" class="edge">
<title>java.lang.classfile.instruction.InvokeInstruction&#45;&gt;java.lang.classfile.Instruction</title>
<path fill="none" stroke="#999999" stroke-width="2" d="M2658.5,-125.83C2664.46,-127.13 2670.41,-128.34 2676.17,-129.4 2840.26,-159.54 3036.44,-179.36 3132.42,-188.01"/>
<polygon fill="#999999" stroke="#999999" stroke-width="2" points="3142.3,-188.89 3131.94,-192.49 3139.7,-189.16 3132.3,-188.5 3132.34,-188.01 3132.38,-187.51 3139.79,-188.17 3132.74,-183.52 3142.3,-188.89"/>
</g>
<!-- java.lang.classfile.instruction.LoadInstruction -->
<g id="node17" class="node">
<title>java.lang.classfile.instruction.LoadInstruction</title>
<g id="a_node17"><a xlink:href="../../../java/lang/classfile/instruction/LoadInstruction.html" xlink:title="java.lang.classfile.instruction.LoadInstruction">
<text text-anchor="middle" x="2755.17" y="-104.2" font-family="DejaVuSans" font-size="12.00" fill="#e76f00">LoadInstruction</text>
</a>
</g>
</g>
<!-- java.lang.classfile.instruction.LoadInstruction&#45;&gt;java.lang.classfile.Instruction -->
<g id="edge16" class="edge">
<title>java.lang.classfile.instruction.LoadInstruction&#45;&gt;java.lang.classfile.Instruction</title>
<path fill="none" stroke="#999999" stroke-width="2" d="M2815.87,-125.14C2822.03,-126.65 2828.22,-128.1 2834.17,-129.4 2938.59,-152.28 3061.56,-172.79 3132.52,-184.01"/>
<polygon fill="#999999" stroke="#999999" stroke-width="2" points="3142.32,-185.55 3131.74,-188.44 3139.71,-185.64 3132.36,-184.49 3132.44,-183.99 3132.52,-183.5 3139.87,-184.65 3133.14,-179.55 3142.32,-185.55"/>
</g>
<!-- java.lang.classfile.instruction.StoreInstruction -->
<g id="node18" class="node">
<title>java.lang.classfile.instruction.StoreInstruction</title>
<g id="a_node18"><a xlink:href="../../../java/lang/classfile/instruction/StoreInstruction.html" xlink:title="java.lang.classfile.instruction.StoreInstruction">
<text text-anchor="middle" x="2915.17" y="-104.2" font-family="DejaVuSans" font-size="12.00" fill="#e76f00">StoreInstruction</text>
</a>
</g>
</g>
<!-- java.lang.classfile.instruction.StoreInstruction&#45;&gt;java.lang.classfile.Instruction -->
<g id="edge17" class="edge">
<title>java.lang.classfile.instruction.StoreInstruction&#45;&gt;java.lang.classfile.Instruction</title>
<path fill="none" stroke="#999999" stroke-width="2" d="M2977.45,-127.8C3024.16,-142.05 3087.62,-161.41 3133.24,-175.33"/>
<polygon fill="#999999" stroke="#999999" stroke-width="2" points="3142.68,-178.21 3131.8,-179.59 3140.08,-177.94 3132.97,-175.77 3133.12,-175.29 3133.26,-174.81 3140.38,-176.98 3134.43,-170.99 3142.68,-178.21"/>
</g>
<!-- java.lang.classfile.instruction.IncrementInstruction -->
<g id="node19" class="node">
<title>java.lang.classfile.instruction.IncrementInstruction</title>
<g id="a_node19"><a xlink:href="../../../java/lang/classfile/instruction/IncrementInstruction.html" xlink:title="java.lang.classfile.instruction.IncrementInstruction">
<text text-anchor="middle" x="3091.17" y="-104.2" font-family="DejaVuSans" font-size="12.00" fill="#e76f00">IncrementInstruction</text>
</a>
</g>
</g>
<!-- java.lang.classfile.instruction.IncrementInstruction&#45;&gt;java.lang.classfile.Instruction -->
<g id="edge18" class="edge">
<title>java.lang.classfile.instruction.IncrementInstruction&#45;&gt;java.lang.classfile.Instruction</title>
<path fill="none" stroke="#999999" stroke-width="2" d="M3115.63,-129.4C3128.32,-140.08 3144,-153.28 3157.78,-164.89"/>
<polygon fill="#999999" stroke="#999999" stroke-width="2" points="3165.1,-171.05 3154.55,-168.05 3162.81,-169.78 3157.12,-164.99 3157.45,-164.6 3157.77,-164.22 3163.46,-169.01 3160.35,-161.16 3165.1,-171.05"/>
</g>
<!-- java.lang.classfile.instruction.LookupSwitchInstruction -->
<g id="node20" class="node">
<title>java.lang.classfile.instruction.LookupSwitchInstruction</title>
<g id="a_node20"><a xlink:href="../../../java/lang/classfile/instruction/LookupSwitchInstruction.html" xlink:title="java.lang.classfile.instruction.LookupSwitchInstruction">
<text text-anchor="middle" x="3292.17" y="-104.2" font-family="DejaVuSans" font-size="12.00" fill="#e76f00">LookupSwitchInstruction</text>
</a>
</g>
</g>
<!-- java.lang.classfile.instruction.LookupSwitchInstruction&#45;&gt;java.lang.classfile.Instruction -->
<g id="edge19" class="edge">
<title>java.lang.classfile.instruction.LookupSwitchInstruction&#45;&gt;java.lang.classfile.Instruction</title>
<path fill="none" stroke="#999999" stroke-width="2" d="M3267.46,-129.4C3254.65,-140.08 3238.81,-153.28 3224.89,-164.89"/>
<polygon fill="#999999" stroke="#999999" stroke-width="2" points="3217.49,-171.05 3222.29,-161.19 3219.14,-169.03 3224.86,-164.27 3225.18,-164.65 3225.5,-165.04 3219.78,-169.8 3228.06,-168.11 3217.49,-171.05"/>
</g>
<!-- java.lang.classfile.instruction.MonitorInstruction -->
<g id="node21" class="node">
<title>java.lang.classfile.instruction.MonitorInstruction</title>
<g id="a_node21"><a xlink:href="../../../java/lang/classfile/instruction/MonitorInstruction.html" xlink:title="java.lang.classfile.instruction.MonitorInstruction">
<text text-anchor="middle" x="3485.17" y="-104.2" font-family="DejaVuSans" font-size="12.00" fill="#e76f00">MonitorInstruction</text>
</a>
</g>
</g>
<!-- java.lang.classfile.instruction.MonitorInstruction&#45;&gt;java.lang.classfile.Instruction -->
<g id="edge20" class="edge">
<title>java.lang.classfile.instruction.MonitorInstruction&#45;&gt;java.lang.classfile.Instruction</title>
<path fill="none" stroke="#999999" stroke-width="2" d="M3415.87,-128.65C3365.16,-143.17 3297.15,-162.65 3249.27,-176.36"/>
<polygon fill="#999999" stroke="#999999" stroke-width="2" points="3239.9,-179.04 3248.28,-171.96 3242.23,-177.86 3249.38,-175.81 3249.52,-176.29 3249.65,-176.77 3242.5,-178.82 3250.76,-180.62 3239.9,-179.04"/>
</g>
<!-- java.lang.classfile.instruction.NewMultiArrayInstruction -->
<g id="node22" class="node">
<title>java.lang.classfile.instruction.NewMultiArrayInstruction</title>
<g id="a_node22"><a xlink:href="../../../java/lang/classfile/instruction/NewMultiArrayInstruction.html" xlink:title="java.lang.classfile.instruction.NewMultiArrayInstruction">
<text text-anchor="middle" x="3681.17" y="-104.2" font-family="DejaVuSans" font-size="12.00" fill="#e76f00">NewMultiArrayInstruction</text>
</a>
</g>
</g>
<!-- java.lang.classfile.instruction.NewMultiArrayInstruction&#45;&gt;java.lang.classfile.Instruction -->
<g id="edge21" class="edge">
<title>java.lang.classfile.instruction.NewMultiArrayInstruction&#45;&gt;java.lang.classfile.Instruction</title>
<path fill="none" stroke="#999999" stroke-width="2" d="M3590.79,-126.04C3584.49,-127.19 3578.24,-128.32 3572.17,-129.4 3458.03,-149.71 3324.3,-171.59 3249.49,-183.66"/>
<polygon fill="#999999" stroke="#999999" stroke-width="2" points="3239.96,-185.2 3249.12,-179.16 3242.42,-184.3 3249.76,-183.11 3249.84,-183.61 3249.92,-184.1 3242.57,-185.28 3250.55,-188.05 3239.96,-185.2"/>
</g>
<!-- java.lang.classfile.instruction.NewObjectInstruction -->
<g id="node23" class="node">
<title>java.lang.classfile.instruction.NewObjectInstruction</title>
<g id="a_node23"><a xlink:href="../../../java/lang/classfile/instruction/NewObjectInstruction.html" xlink:title="java.lang.classfile.instruction.NewObjectInstruction">
<text text-anchor="middle" x="3887.17" y="-104.2" font-family="DejaVuSans" font-size="12.00" fill="#e76f00">NewObjectInstruction</text>
</a>
</g>
</g>
<!-- java.lang.classfile.instruction.NewObjectInstruction&#45;&gt;java.lang.classfile.Instruction -->
<g id="edge22" class="edge">
<title>java.lang.classfile.instruction.NewObjectInstruction&#45;&gt;java.lang.classfile.Instruction</title>
<path fill="none" stroke="#999999" stroke-width="2" d="M3808.16,-126.29C3802.08,-127.41 3796.04,-128.47 3790.17,-129.4 3593.21,-160.68 3357.3,-180.65 3249.76,-188.8"/>
<polygon fill="#999999" stroke="#999999" stroke-width="2" points="3240.04,-189.53 3249.67,-184.3 3242.55,-188.84 3249.97,-188.29 3250.01,-188.78 3250.04,-189.28 3242.63,-189.84 3250.34,-193.27 3240.04,-189.53"/>
</g>
<!-- java.lang.classfile.instruction.NewPrimitiveArrayInstruction -->
<g id="node24" class="node">
<title>java.lang.classfile.instruction.NewPrimitiveArrayInstruction</title>
<g id="a_node24"><a xlink:href="../../../java/lang/classfile/instruction/NewPrimitiveArrayInstruction.html" xlink:title="java.lang.classfile.instruction.NewPrimitiveArrayInstruction">
<text text-anchor="middle" x="4105.17" y="-104.2" font-family="DejaVuSans" font-size="12.00" fill="#e76f00">NewPrimitiveArrayInstruction</text>
</a>
</g>
</g>
<!-- java.lang.classfile.instruction.NewPrimitiveArrayInstruction&#45;&gt;java.lang.classfile.Instruction -->
<g id="edge23" class="edge">
<title>java.lang.classfile.instruction.NewPrimitiveArrayInstruction&#45;&gt;java.lang.classfile.Instruction</title>
<path fill="none" stroke="#999999" stroke-width="2" d="M4002.94,-126.86C3996.6,-127.78 3990.3,-128.63 3984.17,-129.4 3710.34,-163.62 3380.89,-183.17 3249.44,-190.1"/>
<polygon fill="#999999" stroke="#999999" stroke-width="2" points="3239.78,-190.6 3249.54,-185.59 3242.32,-189.97 3249.74,-189.58 3249.77,-190.08 3249.8,-190.58 3242.37,-190.97 3250.01,-194.58 3239.78,-190.6"/>
</g>
<!-- java.lang.classfile.instruction.NewReferenceArrayInstruction -->
<g id="node25" class="node">
<title>java.lang.classfile.instruction.NewReferenceArrayInstruction</title>
<g id="a_node25"><a xlink:href="../../../java/lang/classfile/instruction/NewReferenceArrayInstruction.html" xlink:title="java.lang.classfile.instruction.NewReferenceArrayInstruction">
<text text-anchor="middle" x="4350.17" y="-104.2" font-family="DejaVuSans" font-size="12.00" fill="#e76f00">NewReferenceArrayInstruction</text>
</a>
</g>
</g>
<!-- java.lang.classfile.instruction.NewReferenceArrayInstruction&#45;&gt;java.lang.classfile.Instruction -->
<g id="edge24" class="edge">
<title>java.lang.classfile.instruction.NewReferenceArrayInstruction&#45;&gt;java.lang.classfile.Instruction</title>
<path fill="none" stroke="#999999" stroke-width="2" d="M4243.89,-127.07C4237.57,-127.92 4231.29,-128.71 4225.17,-129.4 3855.19,-171.15 3407.42,-186.97 3249.61,-191.49"/>
<polygon fill="#999999" stroke="#999999" stroke-width="2" points="3239.87,-191.77 3249.74,-186.99 3242.42,-191.19 3249.85,-190.98 3249.87,-191.48 3249.88,-191.98 3242.45,-192.19 3249.99,-195.98 3239.87,-191.77"/>
</g>
<!-- java.lang.classfile.instruction.NopInstruction -->
<g id="node26" class="node">
<title>java.lang.classfile.instruction.NopInstruction</title>
<g id="a_node26"><a xlink:href="../../../java/lang/classfile/instruction/NopInstruction.html" xlink:title="java.lang.classfile.instruction.NopInstruction">
<text text-anchor="middle" x="4551.17" y="-104.2" font-family="DejaVuSans" font-size="12.00" fill="#e76f00">NopInstruction</text>
</a>
</g>
</g>
<!-- java.lang.classfile.instruction.NopInstruction&#45;&gt;java.lang.classfile.Instruction -->
<g id="edge25" class="edge">
<title>java.lang.classfile.instruction.NopInstruction&#45;&gt;java.lang.classfile.Instruction</title>
<path fill="none" stroke="#999999" stroke-width="2" d="M4493.01,-125.75C4486.69,-127.17 4480.32,-128.44 4474.17,-129.4 4233.3,-167.15 3467.99,-186.81 3249.77,-191.74"/>
<polygon fill="#999999" stroke="#999999" stroke-width="2" points="3239.82,-191.97 3249.72,-187.24 3242.37,-191.41 3249.81,-191.24 3249.82,-191.74 3249.83,-192.24 3242.4,-192.41 3249.92,-196.24 3239.82,-191.97"/>
</g>
<!-- java.lang.classfile.instruction.OperatorInstruction -->
<g id="node27" class="node">
<title>java.lang.classfile.instruction.OperatorInstruction</title>
<g id="a_node27"><a xlink:href="../../../java/lang/classfile/instruction/OperatorInstruction.html" xlink:title="java.lang.classfile.instruction.OperatorInstruction">
<text text-anchor="middle" x="4719.17" y="-104.2" font-family="DejaVuSans" font-size="12.00" fill="#e76f00">OperatorInstruction</text>
</a>
</g>
</g>
<!-- java.lang.classfile.instruction.OperatorInstruction&#45;&gt;java.lang.classfile.Instruction -->
<g id="edge26" class="edge">
<title>java.lang.classfile.instruction.OperatorInstruction&#45;&gt;java.lang.classfile.Instruction</title>
<path fill="none" stroke="#999999" stroke-width="2" d="M4645.81,-126.43C4639.53,-127.58 4633.25,-128.59 4627.17,-129.4 4354.06,-165.74 3483.72,-186.71 3249.62,-191.79"/>
<polygon fill="#999999" stroke="#999999" stroke-width="2" points="3239.79,-192 3249.69,-187.28 3242.34,-191.44 3249.78,-191.28 3249.79,-191.78 3249.8,-192.28 3242.37,-192.44 3249.89,-196.28 3239.79,-192"/>
</g>
<!-- java.lang.classfile.instruction.ReturnInstruction -->
<g id="node28" class="node">
<title>java.lang.classfile.instruction.ReturnInstruction</title>
<g id="a_node28"><a xlink:href="../../../java/lang/classfile/instruction/ReturnInstruction.html" xlink:title="java.lang.classfile.instruction.ReturnInstruction">
<text text-anchor="middle" x="4895.17" y="-104.2" font-family="DejaVuSans" font-size="12.00" fill="#e76f00">ReturnInstruction</text>
</a>
</g>
</g>
<!-- java.lang.classfile.instruction.ReturnInstruction&#45;&gt;java.lang.classfile.Instruction -->
<g id="edge27" class="edge">
<title>java.lang.classfile.instruction.ReturnInstruction&#45;&gt;java.lang.classfile.Instruction</title>
<path fill="none" stroke="#999999" stroke-width="2" d="M4828.6,-126.26C4822.4,-127.48 4816.19,-128.56 4810.17,-129.4 4499.55,-172.7 3501.71,-188.82 3249.51,-192.26"/>
<polygon fill="#999999" stroke="#999999" stroke-width="2" points="3239.81,-192.39 3249.75,-187.76 3242.37,-191.86 3249.81,-191.76 3249.81,-192.26 3249.82,-192.76 3242.38,-192.86 3249.87,-196.76 3239.81,-192.39"/>
</g>
<!-- java.lang.classfile.instruction.StackInstruction -->
<g id="node29" class="node">
<title>java.lang.classfile.instruction.StackInstruction</title>
<g id="a_node29"><a xlink:href="../../../java/lang/classfile/instruction/StackInstruction.html" xlink:title="java.lang.classfile.instruction.StackInstruction">
<text text-anchor="middle" x="5061.17" y="-104.2" font-family="DejaVuSans" font-size="12.00" fill="#e76f00">StackInstruction</text>
</a>
</g>
</g>
<!-- java.lang.classfile.instruction.StackInstruction&#45;&gt;java.lang.classfile.Instruction -->
<g id="edge28" class="edge">
<title>java.lang.classfile.instruction.StackInstruction&#45;&gt;java.lang.classfile.Instruction</title>
<path fill="none" stroke="#999999" stroke-width="2" d="M4998.2,-126.2C4992.14,-127.45 4986.06,-128.56 4980.17,-129.4 4634.56,-178.91 3517.54,-190.5 3249.42,-192.6"/>
<polygon fill="#999999" stroke="#999999" stroke-width="2" points="3239.74,-192.67 3249.7,-188.1 3242.3,-192.15 3249.73,-192.1 3249.74,-192.6 3249.74,-193.1 3242.3,-193.15 3249.77,-197.1 3239.74,-192.67"/>
</g>
<!-- java.lang.classfile.instruction.TableSwitchInstruction -->
<g id="node30" class="node">
<title>java.lang.classfile.instruction.TableSwitchInstruction</title>
<g id="a_node30"><a xlink:href="../../../java/lang/classfile/instruction/TableSwitchInstruction.html" xlink:title="java.lang.classfile.instruction.TableSwitchInstruction">
<text text-anchor="middle" x="5243.17" y="-104.2" font-family="DejaVuSans" font-size="12.00" fill="#e76f00">TableSwitchInstruction</text>
</a>
</g>
</g>
<!-- java.lang.classfile.instruction.TableSwitchInstruction&#45;&gt;java.lang.classfile.Instruction -->
<g id="edge29" class="edge">
<title>java.lang.classfile.instruction.TableSwitchInstruction&#45;&gt;java.lang.classfile.Instruction</title>
<path fill="none" stroke="#999999" stroke-width="2" d="M5160.4,-126.85C5154.25,-127.83 5148.12,-128.7 5142.17,-129.4 4762,-174.04 3533.56,-189.42 3249.96,-192.42"/>
<polygon fill="#999999" stroke="#999999" stroke-width="2" points="3240,-192.52 3249.95,-187.92 3242.56,-192 3250,-191.92 3250,-192.42 3250.01,-192.92 3242.57,-193 3250.05,-196.92 3240,-192.52"/>
</g>
<!-- java.lang.classfile.instruction.ThrowInstruction -->
<g id="node31" class="node">
<title>java.lang.classfile.instruction.ThrowInstruction</title>
<g id="a_node31"><a xlink:href="../../../java/lang/classfile/instruction/ThrowInstruction.html" xlink:title="java.lang.classfile.instruction.ThrowInstruction">
<text text-anchor="middle" x="5427.17" y="-104.2" font-family="DejaVuSans" font-size="12.00" fill="#e76f00">ThrowInstruction</text>
</a>
</g>
</g>
<!-- java.lang.classfile.instruction.ThrowInstruction&#45;&gt;java.lang.classfile.Instruction -->
<g id="edge30" class="edge">
<title>java.lang.classfile.instruction.ThrowInstruction&#45;&gt;java.lang.classfile.Instruction</title>
<path fill="none" stroke="#999999" stroke-width="2" d="M5362.18,-126.32C5356.13,-127.53 5350.05,-128.59 5344.17,-129.4 4922.79,-187.24 3550.25,-192.51 3249.68,-192.96"/>
<polygon fill="#999999" stroke="#999999" stroke-width="2" points="3239.84,-192.97 3249.83,-188.46 3242.4,-192.47 3249.84,-192.46 3249.84,-192.96 3249.84,-193.46 3242.4,-193.47 3249.84,-197.46 3239.84,-192.97"/>
</g>
<!-- java.lang.classfile.instruction.TypeCheckInstruction -->
<g id="node32" class="node">
<title>java.lang.classfile.instruction.TypeCheckInstruction</title>
<g id="a_node32"><a xlink:href="../../../java/lang/classfile/instruction/TypeCheckInstruction.html" xlink:title="java.lang.classfile.instruction.TypeCheckInstruction">
<text text-anchor="middle" x="5608.17" y="-104.2" font-family="DejaVuSans" font-size="12.00" fill="#e76f00">TypeCheckInstruction</text>
</a>
</g>
</g>
<!-- java.lang.classfile.instruction.TypeCheckInstruction&#45;&gt;java.lang.classfile.Instruction -->
<g id="edge31" class="edge">
<title>java.lang.classfile.instruction.TypeCheckInstruction&#45;&gt;java.lang.classfile.Instruction</title>
<path fill="none" stroke="#999999" stroke-width="2" d="M5528.68,-126.76C5522.44,-127.79 5516.21,-128.69 5510.17,-129.4 5053.27,-183.24 3565,-191.64 3250.05,-192.82"/>
<polygon fill="#999999" stroke="#999999" stroke-width="2" points="3240.08,-192.86 3250.06,-188.32 3242.64,-192.35 3250.07,-192.32 3250.08,-192.82 3250.08,-193.32 3242.64,-193.35 3250.09,-197.32 3240.08,-192.86"/>
</g>
<!-- java.lang.classfile.PseudoInstruction -->
<g id="node33" class="node">
<title>java.lang.classfile.PseudoInstruction</title>
<g id="a_node33"><a xlink:href="../../../java/lang/classfile/PseudoInstruction.html" xlink:title="java.lang.classfile.PseudoInstruction">
<text text-anchor="middle" x="509.17" y="-190.4" font-family="DejaVuSans" font-size="12.00" fill="#e76f00">PseudoInstruction</text>
</a>
</g>
</g>
<!-- java.lang.classfile.PseudoInstruction&#45;&gt;java.lang.classfile.CodeElement -->
<g id="edge32" class="edge">
<title>java.lang.classfile.PseudoInstruction&#45;&gt;java.lang.classfile.CodeElement</title>
<path fill="none" stroke="#999999" stroke-width="2" d="M577.17,-200.75C759.36,-216.17 1256.86,-258.27 1437.5,-273.56"/>
<polygon fill="#999999" stroke="#999999" stroke-width="2" points="1447.27,-274.39 1436.93,-278.03 1444.68,-274.67 1437.27,-274.04 1437.31,-273.54 1437.35,-273.04 1444.76,-273.67 1437.69,-269.06 1447.27,-274.39"/>
</g>
<!-- java.lang.classfile.instruction.CharacterRange -->
<g id="node34" class="node">
<title>java.lang.classfile.instruction.CharacterRange</title>
<g id="a_node34"><a xlink:href="../../../java/lang/classfile/instruction/CharacterRange.html" xlink:title="java.lang.classfile.instruction.CharacterRange">
<text text-anchor="middle" x="63.17" y="-104.2" font-family="DejaVuSans" font-size="12.00" fill="#e76f00">CharacterRange</text>
</a>
</g>
</g>
<!-- java.lang.classfile.instruction.CharacterRange&#45;&gt;java.lang.classfile.PseudoInstruction -->
<g id="edge33" class="edge">
<title>java.lang.classfile.instruction.CharacterRange&#45;&gt;java.lang.classfile.PseudoInstruction</title>
<path fill="none" stroke="#999999" stroke-width="2" d="M126.19,-125.12C132.58,-126.63 139,-128.09 145.17,-129.4 242.35,-150.07 355.18,-169.01 429.14,-180.74"/>
<polygon fill="#999999" stroke="#999999" stroke-width="2" points="438.72,-182.26 428.14,-185.14 436.11,-182.35 428.76,-181.19 428.84,-180.7 428.92,-180.2 436.27,-181.36 429.54,-176.25 438.72,-182.26"/>
</g>
<!-- java.lang.classfile.instruction.ExceptionCatch -->
<g id="node35" class="node">
<title>java.lang.classfile.instruction.ExceptionCatch</title>
<g id="a_node35"><a xlink:href="../../../java/lang/classfile/instruction/ExceptionCatch.html" xlink:title="java.lang.classfile.instruction.ExceptionCatch">
<text text-anchor="middle" x="224.17" y="-104.2" font-family="DejaVuSans" font-size="12.00" fill="#e76f00">ExceptionCatch</text>
</a>
</g>
</g>
<!-- java.lang.classfile.instruction.ExceptionCatch&#45;&gt;java.lang.classfile.PseudoInstruction -->
<g id="edge34" class="edge">
<title>java.lang.classfile.instruction.ExceptionCatch&#45;&gt;java.lang.classfile.PseudoInstruction</title>
<path fill="none" stroke="#999999" stroke-width="2" d="M285.31,-126.86C327.44,-139.31 383.84,-155.97 429.48,-169.46"/>
<polygon fill="#999999" stroke="#999999" stroke-width="2" points="438.81,-172.21 427.94,-173.69 436.21,-171.97 429.07,-169.86 429.22,-169.38 429.36,-168.9 436.49,-171.01 430.49,-165.06 438.81,-172.21"/>
</g>
<!-- java.lang.classfile.instruction.LabelTarget -->
<g id="node36" class="node">
<title>java.lang.classfile.instruction.LabelTarget</title>
<g id="a_node36"><a xlink:href="../../../java/lang/classfile/instruction/LabelTarget.html" xlink:title="java.lang.classfile.instruction.LabelTarget">
<text text-anchor="middle" x="372.17" y="-104.2" font-family="DejaVuSans" font-size="12.00" fill="#e76f00">LabelTarget</text>
</a>
</g>
</g>
<!-- java.lang.classfile.instruction.LabelTarget&#45;&gt;java.lang.classfile.PseudoInstruction -->
<g id="edge35" class="edge">
<title>java.lang.classfile.instruction.LabelTarget&#45;&gt;java.lang.classfile.PseudoInstruction</title>
<path fill="none" stroke="#999999" stroke-width="2" d="M405.68,-129.4C423.73,-140.49 446.21,-154.3 465.6,-166.22"/>
<polygon fill="#999999" stroke="#999999" stroke-width="2" points="473.93,-171.34 463.05,-169.94 471.48,-170.42 465.15,-166.53 465.41,-166.1 465.67,-165.68 472,-169.57 467.76,-162.27 473.93,-171.34"/>
</g>
<!-- java.lang.classfile.instruction.LineNumber -->
<g id="node37" class="node">
<title>java.lang.classfile.instruction.LineNumber</title>
<g id="a_node37"><a xlink:href="../../../java/lang/classfile/instruction/LineNumber.html" xlink:title="java.lang.classfile.instruction.LineNumber">
<text text-anchor="middle" x="509.17" y="-104.2" font-family="DejaVuSans" font-size="12.00" fill="#e76f00">LineNumber</text>
</a>
</g>
</g>
<!-- java.lang.classfile.instruction.LineNumber&#45;&gt;java.lang.classfile.PseudoInstruction -->
<g id="edge36" class="edge">
<title>java.lang.classfile.instruction.LineNumber&#45;&gt;java.lang.classfile.PseudoInstruction</title>
<path fill="none" stroke="#999999" stroke-width="2" d="M509.17,-129.18C509.17,-138.52 509.17,-149.83 509.17,-160.32"/>
<polygon fill="#999999" stroke="#999999" stroke-width="2" points="509.17,-170.08 504.67,-160.08 508.67,-167.51 508.67,-160.08 509.17,-160.08 509.67,-160.08 509.67,-167.51 513.67,-160.08 509.17,-170.08"/>
</g>
<!-- java.lang.classfile.instruction.LocalVariable -->
<g id="node38" class="node">
<title>java.lang.classfile.instruction.LocalVariable</title>
<g id="a_node38"><a xlink:href="../../../java/lang/classfile/instruction/LocalVariable.html" xlink:title="java.lang.classfile.instruction.LocalVariable">
<text text-anchor="middle" x="651.17" y="-104.2" font-family="DejaVuSans" font-size="12.00" fill="#e76f00">LocalVariable</text>
</a>
</g>
</g>
<!-- java.lang.classfile.instruction.LocalVariable&#45;&gt;java.lang.classfile.PseudoInstruction -->
<g id="edge37" class="edge">
<title>java.lang.classfile.instruction.LocalVariable&#45;&gt;java.lang.classfile.PseudoInstruction</title>
<path fill="none" stroke="#999999" stroke-width="2" d="M616.43,-129.4C597.64,-140.54 574.22,-154.43 554.06,-166.38"/>
<polygon fill="#999999" stroke="#999999" stroke-width="2" points="545.65,-171.37 551.95,-162.4 547.59,-169.63 553.99,-165.84 554.25,-166.27 554.5,-166.7 548.1,-170.49 556.54,-170.14 545.65,-171.37"/>
</g>
<!-- java.lang.classfile.instruction.LocalVariableType -->
<g id="node39" class="node">
<title>java.lang.classfile.instruction.LocalVariableType</title>
<g id="a_node39"><a xlink:href="../../../java/lang/classfile/instruction/LocalVariableType.html" xlink:title="java.lang.classfile.instruction.LocalVariableType">
<text text-anchor="middle" x="811.17" y="-104.2" font-family="DejaVuSans" font-size="12.00" fill="#e76f00">LocalVariableType</text>
</a>
</g>
</g>
<!-- java.lang.classfile.instruction.LocalVariableType&#45;&gt;java.lang.classfile.PseudoInstruction -->
<g id="edge38" class="edge">
<title>java.lang.classfile.instruction.LocalVariableType&#45;&gt;java.lang.classfile.PseudoInstruction</title>
<path fill="none" stroke="#999999" stroke-width="2" d="M741.89,-128.12C696.37,-140.81 636.69,-157.45 589.16,-170.7"/>
<polygon fill="#999999" stroke="#999999" stroke-width="2" points="579.7,-173.34 588.12,-166.32 582.03,-172.17 589.2,-170.17 589.33,-170.65 589.47,-171.13 582.3,-173.13 590.54,-174.98 579.7,-173.34"/>
</g>
<!-- java.lang.classfile.CustomAttribute -->
<g id="node40" class="node">
<title>java.lang.classfile.CustomAttribute</title>
<g id="a_node40"><a xlink:href="../../../java/lang/classfile/CustomAttribute.html" xlink:title="java.lang.classfile.CustomAttribute">
<text text-anchor="middle" x="952.17" y="-190.4" font-family="DejaVuSans" font-size="12.00" fill="#e76f00">CustomAttribute</text>
</a>
</g>
</g>
<!-- java.lang.classfile.CustomAttribute&#45;&gt;java.lang.classfile.CodeElement -->
<g id="edge39" class="edge">
<title>java.lang.classfile.CustomAttribute&#45;&gt;java.lang.classfile.CodeElement</title>
<path fill="none" stroke="#999999" stroke-width="2" d="M1016.03,-211.78C1022.14,-213.16 1028.26,-214.46 1034.17,-215.6 1176.79,-243.08 1346.01,-262.88 1437.46,-272.55"/>
<polygon fill="#999999" stroke="#999999" stroke-width="2" points="1447.15,-273.56 1436.73,-276.99 1444.55,-273.79 1437.15,-273.01 1437.2,-272.52 1437.25,-272.02 1444.65,-272.79 1437.67,-268.04 1447.15,-273.56"/>
</g>
<!-- open node #0 -->
<g id="node41" class="node">
<title>open node #0</title>
<g id="a_node41"><a xlink:title="Non&#45;sealed Hierarchy">
<text text-anchor="start" x="931.09" y="-105.2" font-family="DejaVuSans" font-style="italic" font-size="12.00" fill="#e76f00">&lt;any&gt;</text>
</a>
</g>
</g>
<!-- open node #0&#45;&gt;java.lang.classfile.CustomAttribute -->
<g id="edge40" class="edge">
<title>open node #0&#45;&gt;java.lang.classfile.CustomAttribute</title>
<path fill="none" stroke="#999999" stroke-width="2" stroke-dasharray="5,2" d="M952.17,-129.18C952.17,-138.52 952.17,-149.83 952.17,-160.32"/>
<polygon fill="#999999" stroke="#999999" stroke-width="2" points="952.17,-170.08 947.67,-160.08 951.67,-167.51 951.67,-160.08 952.17,-160.08 952.67,-160.08 952.67,-167.51 956.67,-160.08 952.17,-170.08"/>
</g>
<!-- java.lang.classfile.attribute.RuntimeVisibleTypeAnnotationsAttribute -->
<g id="node42" class="node">
<title>java.lang.classfile.attribute.RuntimeVisibleTypeAnnotationsAttribute</title>
<g id="a_node42"><a xlink:href="../../../java/lang/classfile/attribute/RuntimeVisibleTypeAnnotationsAttribute.html" xlink:title="java.lang.classfile.attribute.RuntimeVisibleTypeAnnotationsAttribute">
<text text-anchor="middle" x="1189.17" y="-190.4" font-family="DejaVuSans" font-size="12.00" fill="#e76f00">RuntimeVisibleTypeAnnotationsAttribute</text>
</a>
</g>
</g>
<!-- java.lang.classfile.attribute.RuntimeVisibleTypeAnnotationsAttribute&#45;&gt;java.lang.classfile.CodeElement -->
<g id="edge41" class="edge">
<title>java.lang.classfile.attribute.RuntimeVisibleTypeAnnotationsAttribute&#45;&gt;java.lang.classfile.CodeElement</title>
<path fill="none" stroke="#999999" stroke-width="2" d="M1266.23,-215.6C1318.73,-229.63 1387.53,-248.02 1437.63,-261.41"/>
<polygon fill="#999999" stroke="#999999" stroke-width="2" points="1447.27,-263.99 1436.45,-265.76 1444.67,-263.81 1437.48,-261.89 1437.61,-261.41 1437.74,-260.93 1444.93,-262.85 1438.77,-257.06 1447.27,-263.99"/>
</g>
<!-- java.lang.classfile.attribute.RuntimeInvisibleTypeAnnotationsAttribute -->
<g id="node43" class="node">
<title>java.lang.classfile.attribute.RuntimeInvisibleTypeAnnotationsAttribute</title>
<g id="a_node43"><a xlink:href="../../../java/lang/classfile/attribute/RuntimeInvisibleTypeAnnotationsAttribute.html" xlink:title="java.lang.classfile.attribute.RuntimeInvisibleTypeAnnotationsAttribute">
<text text-anchor="middle" x="1504.17" y="-190.4" font-family="DejaVuSans" font-size="12.00" fill="#e76f00">RuntimeInvisibleTypeAnnotationsAttribute</text>
</a>
</g>
</g>
<!-- java.lang.classfile.attribute.RuntimeInvisibleTypeAnnotationsAttribute&#45;&gt;java.lang.classfile.CodeElement -->
<g id="edge42" class="edge">
<title>java.lang.classfile.attribute.RuntimeInvisibleTypeAnnotationsAttribute&#45;&gt;java.lang.classfile.CodeElement</title>
<path fill="none" stroke="#999999" stroke-width="2" d="M1504.17,-215.38C1504.17,-224.72 1504.17,-236.03 1504.17,-246.52"/>
<polygon fill="#999999" stroke="#999999" stroke-width="2" points="1504.17,-256.28 1499.67,-246.28 1503.67,-253.71 1503.67,-246.28 1504.17,-246.28 1504.67,-246.28 1504.67,-253.71 1508.67,-246.28 1504.17,-256.28"/>
</g>
<!-- java.lang.classfile.attribute.StackMapTableAttribute -->
<g id="node44" class="node">
<title>java.lang.classfile.attribute.StackMapTableAttribute</title>
<g id="a_node44"><a xlink:href="../../../java/lang/classfile/attribute/StackMapTableAttribute.html" xlink:title="java.lang.classfile.attribute.StackMapTableAttribute">
<text text-anchor="middle" x="1769.17" y="-190.4" font-family="DejaVuSans" font-size="12.00" fill="#e76f00">StackMapTableAttribute</text>
</a>
</g>
</g>
<!-- java.lang.classfile.attribute.StackMapTableAttribute&#45;&gt;java.lang.classfile.CodeElement -->
<g id="edge43" class="edge">
<title>java.lang.classfile.attribute.StackMapTableAttribute&#45;&gt;java.lang.classfile.CodeElement</title>
<path fill="none" stroke="#999999" stroke-width="2" d="M1704.34,-215.6C1663.62,-228.54 1611.24,-245.18 1570.28,-258.2"/>
<polygon fill="#999999" stroke="#999999" stroke-width="2" points="1560.82,-261.2 1568.99,-253.88 1563.12,-259.95 1570.2,-257.69 1570.35,-258.17 1570.51,-258.65 1563.42,-260.9 1571.72,-262.46 1560.82,-261.2"/>
</g>
<!-- java.lang.classfile.attribute.UnknownAttribute -->
<g id="node45" class="node">
<title>java.lang.classfile.attribute.UnknownAttribute</title>
<g id="a_node45"><a xlink:href="../../../java/lang/classfile/attribute/UnknownAttribute.html" xlink:title="java.lang.classfile.attribute.UnknownAttribute">
<text text-anchor="middle" x="1961.17" y="-190.4" font-family="DejaVuSans" font-size="12.00" fill="#e76f00">UnknownAttribute</text>
</a>
</g>
</g>
<!-- java.lang.classfile.attribute.UnknownAttribute&#45;&gt;java.lang.classfile.CodeElement -->
<g id="edge44" class="edge">
<title>java.lang.classfile.attribute.UnknownAttribute&#45;&gt;java.lang.classfile.CodeElement</title>
<path fill="none" stroke="#999999" stroke-width="2" d="M1892.4,-211.7C1886.24,-213.07 1880.1,-214.39 1874.17,-215.6 1768.46,-237.18 1644.75,-257.44 1570.53,-269.07"/>
<polygon fill="#999999" stroke="#999999" stroke-width="2" points="1561.01,-270.56 1570.19,-264.57 1563.46,-269.67 1570.81,-268.52 1570.89,-269.01 1570.97,-269.51 1563.62,-270.65 1571.58,-273.46 1561.01,-270.56"/>
</g>
</g>
</svg>
