<?xml version="1.0" encoding="UTF-8" standalone="no"?>
<!DOCTYPE svg PUBLIC "-//W3C//DTD SVG 1.1//EN"
 "http://www.w3.org/Graphics/SVG/1.1/DTD/svg11.dtd">
<!-- Generated by graphviz version 9.0.0 (20230911.1827)
 -->
<!-- Title: G Pages: 1 -->
<svg width="511pt" height="224pt"
 viewBox="0.00 0.00 511.12 223.60" xmlns="http://www.w3.org/2000/svg" xmlns:xlink="http://www.w3.org/1999/xlink">
<g id="graph0" class="graph" transform="scale(1 1) rotate(0) translate(4 219.6)">
<title>G</title>
<polygon fill="white" stroke="none" points="-4,4 -4,-219.6 507.12,-219.6 507.12,4 -4,4"/>
<!-- java.lang.classfile.ClassModel -->
<g id="node1" class="node">
<title>java.lang.classfile.ClassModel</title>
<g id="a_node1"><a xlink:href="../../../java/lang/classfile/ClassModel.html" xlink:title="java.lang.classfile.ClassModel">
<text text-anchor="middle" x="48.2" y="-104.2" font-family="DejaVuSans" font-size="12.00" fill="#e76f00">ClassModel</text>
</a>
</g>
</g>
<!-- java.lang.classfile.CompoundElement -->
<g id="node2" class="node">
<title>java.lang.classfile.CompoundElement</title>
<g id="a_node2"><a xlink:href="../../../java/lang/classfile/CompoundElement.html" xlink:title="java.lang.classfile.CompoundElement">
<text text-anchor="middle" x="245.2" y="-190.4" font-family="DejaVuSans" font-size="12.00" fill="#e76f00">CompoundElement</text>
</a>
</g>
</g>
<!-- java.lang.classfile.ClassModel&#45;&gt;java.lang.classfile.CompoundElement -->
<g id="edge1" class="edge">
<title>java.lang.classfile.ClassModel&#45;&gt;java.lang.classfile.CompoundElement</title>
<path fill="none" stroke="#999999" stroke-width="2" d="M96.39,-129.4C123.44,-140.96 157.41,-155.48 186.06,-167.72"/>
<polygon fill="#999999" stroke="#999999" stroke-width="2" points="194.92,-171.51 183.96,-171.72 192.37,-170.96 185.53,-168.04 185.73,-167.58 185.93,-167.12 192.76,-170.04 187.5,-163.44 194.92,-171.51"/>
</g>
<!-- java.lang.classfile.CodeModel -->
<g id="node3" class="node">
<title>java.lang.classfile.CodeModel</title>
<g id="a_node3"><a xlink:href="../../../java/lang/classfile/CodeModel.html" xlink:title="java.lang.classfile.CodeModel">
<text text-anchor="middle" x="180.2" y="-104.2" font-family="DejaVuSans" font-size="12.00" fill="#e76f00">CodeModel</text>
</a>
</g>
</g>
<!-- java.lang.classfile.CodeModel&#45;&gt;java.lang.classfile.CompoundElement -->
<g id="edge2" class="edge">
<title>java.lang.classfile.CodeModel&#45;&gt;java.lang.classfile.CompoundElement</title>
<path fill="none" stroke="#999999" stroke-width="2" d="M195.93,-129.18C203.7,-139.24 213.23,-151.58 221.83,-162.72"/>
<polygon fill="#999999" stroke="#999999" stroke-width="2" points="227.9,-170.58 218.22,-165.42 225.93,-168.86 221.39,-162.97 221.78,-162.67 222.18,-162.36 226.73,-168.25 225.35,-159.92 227.9,-170.58"/>
</g>
<!-- java.lang.classfile.attribute.CodeAttribute -->
<g id="node4" class="node">
<title>java.lang.classfile.attribute.CodeAttribute</title>
<g id="a_node4"><a xlink:href="../../../java/lang/classfile/attribute/CodeAttribute.html" xlink:title="java.lang.classfile.attribute.CodeAttribute">
<text text-anchor="middle" x="180.2" y="-18" font-family="DejaVuSans" font-size="12.00" fill="#e76f00">CodeAttribute</text>
</a>
</g>
</g>
<!-- java.lang.classfile.attribute.CodeAttribute&#45;&gt;java.lang.classfile.CodeModel -->
<g id="edge3" class="edge">
<title>java.lang.classfile.attribute.CodeAttribute&#45;&gt;java.lang.classfile.CodeModel</title>
<path fill="none" stroke="#999999" stroke-width="2" d="M180.2,-42.98C180.2,-52.32 180.2,-63.63 180.2,-74.12"/>
<polygon fill="#999999" stroke="#999999" stroke-width="2" points="180.2,-83.88 175.7,-73.88 179.7,-81.31 179.7,-73.88 180.2,-73.88 180.7,-73.88 180.7,-81.31 184.7,-73.88 180.2,-83.88"/>
</g>
<!-- java.lang.classfile.FieldModel -->
<g id="node5" class="node">
<title>java.lang.classfile.FieldModel</title>
<g id="a_node5"><a xlink:href="../../../java/lang/classfile/FieldModel.html" xlink:title="java.lang.classfile.FieldModel">
<text text-anchor="middle" x="310.2" y="-104.2" font-family="DejaVuSans" font-size="12.00" fill="#e76f00">FieldModel</text>
</a>
</g>
</g>
<!-- java.lang.classfile.FieldModel&#45;&gt;java.lang.classfile.CompoundElement -->
<g id="edge4" class="edge">
<title>java.lang.classfile.FieldModel&#45;&gt;java.lang.classfile.CompoundElement</title>
<path fill="none" stroke="#999999" stroke-width="2" d="M294.47,-129.18C286.7,-139.24 277.17,-151.58 268.57,-162.72"/>
<polygon fill="#999999" stroke="#999999" stroke-width="2" points="262.5,-170.58 265.05,-159.92 263.67,-168.25 268.22,-162.36 268.61,-162.67 269.01,-162.97 264.47,-168.86 272.18,-165.42 262.5,-170.58"/>
</g>
<!-- java.lang.classfile.MethodModel -->
<g id="node6" class="node">
<title>java.lang.classfile.MethodModel</title>
<g id="a_node6"><a xlink:href="../../../java/lang/classfile/MethodModel.html" xlink:title="java.lang.classfile.MethodModel">
<text text-anchor="middle" x="448.2" y="-104.2" font-family="DejaVuSans" font-size="12.00" fill="#e76f00">MethodModel</text>
</a>
</g>
</g>
<!-- java.lang.classfile.MethodModel&#45;&gt;java.lang.classfile.CompoundElement -->
<g id="edge5" class="edge">
<title>java.lang.classfile.MethodModel&#45;&gt;java.lang.classfile.CompoundElement</title>
<path fill="none" stroke="#999999" stroke-width="2" d="M398.54,-129.4C370.67,-140.96 335.66,-155.48 306.14,-167.72"/>
<polygon fill="#999999" stroke="#999999" stroke-width="2" points="296.95,-171.54 304.46,-163.55 299.12,-170.09 305.99,-167.24 306.19,-167.7 306.38,-168.17 299.51,-171.02 307.91,-171.86 296.95,-171.54"/>
</g>
</g>
</svg>
