<?xml version="1.0" encoding="UTF-8" standalone="no"?>
<!DOCTYPE svg PUBLIC "-//W3C//DTD SVG 1.1//EN"
 "http://www.w3.org/Graphics/SVG/1.1/DTD/svg11.dtd">
<!-- Generated by graphviz version 9.0.0 (20230911.1827)
 -->
<!-- Title: G Pages: 1 -->
<svg width="2392pt" height="224pt"
 viewBox="0.00 0.00 2391.63 223.60" xmlns="http://www.w3.org/2000/svg" xmlns:xlink="http://www.w3.org/1999/xlink">
<g id="graph0" class="graph" transform="scale(1 1) rotate(0) translate(4 219.6)">
<title>G</title>
<polygon fill="white" stroke="none" points="-4,4 -4,-219.6 2387.63,-219.6 2387.63,4 -4,4"/>
<!-- java.lang.classfile.AccessFlags -->
<g id="node1" class="node">
<title>java.lang.classfile.AccessFlags</title>
<g id="a_node1"><a xlink:href="../../../java/lang/classfile/AccessFlags.html" xlink:title="java.lang.classfile.AccessFlags">
<text text-anchor="middle" x="50.78" y="-104.2" font-family="DejaVuSans" font-size="12.00" fill="#e76f00">AccessFlags</text>
</a>
</g>
</g>
<!-- java.lang.classfile.FieldElement -->
<g id="node2" class="node">
<title>java.lang.classfile.FieldElement</title>
<g id="a_node2"><a xlink:href="../../../java/lang/classfile/FieldElement.html" xlink:title="java.lang.classfile.FieldElement">
<text text-anchor="middle" x="1127.78" y="-190.4" font-family="DejaVuSans" font-size="12.00" fill="#e76f00">FieldElement</text>
</a>
</g>
</g>
<!-- java.lang.classfile.AccessFlags&#45;&gt;java.lang.classfile.FieldElement -->
<g id="edge1" class="edge">
<title>java.lang.classfile.AccessFlags&#45;&gt;java.lang.classfile.FieldElement</title>
<path fill="none" stroke="#999999" stroke-width="2" d="M101.33,-125.31C107.49,-126.91 113.74,-128.32 119.78,-129.4 301.88,-161.89 868.53,-184.03 1062.15,-190.81"/>
<polygon fill="#999999" stroke="#999999" stroke-width="2" points="1071.92,-191.15 1061.77,-195.3 1069.34,-191.56 1061.91,-191.3 1061.92,-190.8 1061.94,-190.3 1069.37,-190.56 1062.08,-186.3 1071.92,-191.15"/>
</g>
<!-- java.lang.classfile.CustomAttribute -->
<g id="node3" class="node">
<title>java.lang.classfile.CustomAttribute</title>
<g id="a_node3"><a xlink:href="../../../java/lang/classfile/CustomAttribute.html" xlink:title="java.lang.classfile.CustomAttribute">
<text text-anchor="middle" x="201.78" y="-104.2" font-family="DejaVuSans" font-size="12.00" fill="#e76f00">CustomAttribute</text>
</a>
</g>
</g>
<!-- java.lang.classfile.CustomAttribute&#45;&gt;java.lang.classfile.FieldElement -->
<g id="edge2" class="edge">
<title>java.lang.classfile.CustomAttribute&#45;&gt;java.lang.classfile.FieldElement</title>
<path fill="none" stroke="#999999" stroke-width="2" d="M265.57,-125.95C271.69,-127.25 277.83,-128.44 283.78,-129.4 571.36,-176.01 919.73,-188.57 1062.24,-191.87"/>
<polygon fill="#999999" stroke="#999999" stroke-width="2" points="1072.13,-192.09 1062.04,-196.36 1069.56,-192.53 1062.13,-192.36 1062.14,-191.86 1062.15,-191.36 1069.58,-191.53 1062.24,-187.37 1072.13,-192.09"/>
</g>
<!-- open node #0 -->
<g id="node4" class="node">
<title>open node #0</title>
<g id="a_node4"><a xlink:title="Non&#45;sealed Hierarchy">
<text text-anchor="start" x="180.69" y="-19" font-family="DejaVuSans" font-style="italic" font-size="12.00" fill="#e76f00">&lt;any&gt;</text>
</a>
</g>
</g>
<!-- open node #0&#45;&gt;java.lang.classfile.CustomAttribute -->
<g id="edge3" class="edge">
<title>open node #0&#45;&gt;java.lang.classfile.CustomAttribute</title>
<path fill="none" stroke="#999999" stroke-width="2" stroke-dasharray="5,2" d="M201.78,-42.98C201.78,-52.32 201.78,-63.63 201.78,-74.12"/>
<polygon fill="#999999" stroke="#999999" stroke-width="2" points="201.78,-83.88 197.28,-73.88 201.28,-81.31 201.28,-73.88 201.78,-73.88 202.28,-73.88 202.28,-81.31 206.28,-73.88 201.78,-83.88"/>
</g>
<!-- java.lang.classfile.attribute.ConstantValueAttribute -->
<g id="node5" class="node">
<title>java.lang.classfile.attribute.ConstantValueAttribute</title>
<g id="a_node5"><a xlink:href="../../../java/lang/classfile/attribute/ConstantValueAttribute.html" xlink:title="java.lang.classfile.attribute.ConstantValueAttribute">
<text text-anchor="middle" x="386.78" y="-104.2" font-family="DejaVuSans" font-size="12.00" fill="#e76f00">ConstantValueAttribute</text>
</a>
</g>
</g>
<!-- java.lang.classfile.attribute.ConstantValueAttribute&#45;&gt;java.lang.classfile.FieldElement -->
<g id="edge4" class="edge">
<title>java.lang.classfile.attribute.ConstantValueAttribute&#45;&gt;java.lang.classfile.FieldElement</title>
<path fill="none" stroke="#999999" stroke-width="2" d="M471.53,-126.44C477.69,-127.51 483.82,-128.51 489.78,-129.4 697.97,-160.52 946.72,-180.37 1062.5,-188.62"/>
<polygon fill="#999999" stroke="#999999" stroke-width="2" points="1072.19,-189.3 1061.9,-193.08 1069.6,-189.62 1062.18,-189.09 1062.22,-188.6 1062.25,-188.1 1069.67,-188.62 1062.53,-184.11 1072.19,-189.3"/>
</g>
<!-- java.lang.classfile.attribute.DeprecatedAttribute -->
<g id="node6" class="node">
<title>java.lang.classfile.attribute.DeprecatedAttribute</title>
<g id="a_node6"><a xlink:href="../../../java/lang/classfile/attribute/DeprecatedAttribute.html" xlink:title="java.lang.classfile.attribute.DeprecatedAttribute">
<text text-anchor="middle" x="583.78" y="-104.2" font-family="DejaVuSans" font-size="12.00" fill="#e76f00">DeprecatedAttribute</text>
</a>
</g>
</g>
<!-- java.lang.classfile.attribute.DeprecatedAttribute&#45;&gt;java.lang.classfile.FieldElement -->
<g id="edge5" class="edge">
<title>java.lang.classfile.attribute.DeprecatedAttribute&#45;&gt;java.lang.classfile.FieldElement</title>
<path fill="none" stroke="#999999" stroke-width="2" d="M659.86,-125.98C665.91,-127.19 671.94,-128.35 677.78,-129.4 813.91,-153.9 974.64,-174.67 1062.42,-185.33"/>
<polygon fill="#999999" stroke="#999999" stroke-width="2" points="1072.15,-186.51 1061.69,-189.77 1069.55,-186.7 1062.17,-185.8 1062.23,-185.31 1062.29,-184.81 1069.67,-185.7 1062.77,-180.84 1072.15,-186.51"/>
</g>
<!-- java.lang.classfile.attribute.RuntimeInvisibleAnnotationsAttribute -->
<g id="node7" class="node">
<title>java.lang.classfile.attribute.RuntimeInvisibleAnnotationsAttribute</title>
<g id="a_node7"><a xlink:href="../../../java/lang/classfile/attribute/RuntimeInvisibleAnnotationsAttribute.html" xlink:title="java.lang.classfile.attribute.RuntimeInvisibleAnnotationsAttribute">
<text text-anchor="middle" x="822.78" y="-104.2" font-family="DejaVuSans" font-size="12.00" fill="#e76f00">RuntimeInvisibleAnnotationsAttribute</text>
</a>
</g>
</g>
<!-- java.lang.classfile.attribute.RuntimeInvisibleAnnotationsAttribute&#45;&gt;java.lang.classfile.FieldElement -->
<g id="edge6" class="edge">
<title>java.lang.classfile.attribute.RuntimeInvisibleAnnotationsAttribute&#45;&gt;java.lang.classfile.FieldElement</title>
<path fill="none" stroke="#999999" stroke-width="2" d="M897.39,-129.4C947.95,-143.36 1014.13,-161.63 1062.58,-175"/>
<polygon fill="#999999" stroke="#999999" stroke-width="2" points="1072.14,-177.64 1061.31,-179.32 1069.54,-177.44 1062.37,-175.46 1062.5,-174.98 1062.64,-174.5 1069.8,-176.48 1063.7,-170.64 1072.14,-177.64"/>
</g>
<!-- java.lang.classfile.attribute.RuntimeInvisibleTypeAnnotationsAttribute -->
<g id="node8" class="node">
<title>java.lang.classfile.attribute.RuntimeInvisibleTypeAnnotationsAttribute</title>
<g id="a_node8"><a xlink:href="../../../java/lang/classfile/attribute/RuntimeInvisibleTypeAnnotationsAttribute.html" xlink:title="java.lang.classfile.attribute.RuntimeInvisibleTypeAnnotationsAttribute">
<text text-anchor="middle" x="1127.78" y="-104.2" font-family="DejaVuSans" font-size="12.00" fill="#e76f00">RuntimeInvisibleTypeAnnotationsAttribute</text>
</a>
</g>
</g>
<!-- java.lang.classfile.attribute.RuntimeInvisibleTypeAnnotationsAttribute&#45;&gt;java.lang.classfile.FieldElement -->
<g id="edge7" class="edge">
<title>java.lang.classfile.attribute.RuntimeInvisibleTypeAnnotationsAttribute&#45;&gt;java.lang.classfile.FieldElement</title>
<path fill="none" stroke="#999999" stroke-width="2" d="M1127.78,-129.18C1127.78,-138.52 1127.78,-149.83 1127.78,-160.32"/>
<polygon fill="#999999" stroke="#999999" stroke-width="2" points="1127.78,-170.08 1123.28,-160.08 1127.28,-167.51 1127.28,-160.08 1127.78,-160.08 1128.28,-160.08 1128.28,-167.51 1132.28,-160.08 1127.78,-170.08"/>
</g>
<!-- java.lang.classfile.attribute.RuntimeVisibleAnnotationsAttribute -->
<g id="node9" class="node">
<title>java.lang.classfile.attribute.RuntimeVisibleAnnotationsAttribute</title>
<g id="a_node9"><a xlink:href="../../../java/lang/classfile/attribute/RuntimeVisibleAnnotationsAttribute.html" xlink:title="java.lang.classfile.attribute.RuntimeVisibleAnnotationsAttribute">
<text text-anchor="middle" x="1427.78" y="-104.2" font-family="DejaVuSans" font-size="12.00" fill="#e76f00">RuntimeVisibleAnnotationsAttribute</text>
</a>
</g>
</g>
<!-- java.lang.classfile.attribute.RuntimeVisibleAnnotationsAttribute&#45;&gt;java.lang.classfile.FieldElement -->
<g id="edge8" class="edge">
<title>java.lang.classfile.attribute.RuntimeVisibleAnnotationsAttribute&#45;&gt;java.lang.classfile.FieldElement</title>
<path fill="none" stroke="#999999" stroke-width="2" d="M1354.39,-129.4C1304.97,-143.27 1240.4,-161.39 1192.83,-174.74"/>
<polygon fill="#999999" stroke="#999999" stroke-width="2" points="1183.46,-177.37 1191.88,-170.33 1185.8,-176.2 1192.96,-174.19 1193.09,-174.67 1193.23,-175.15 1186.07,-177.16 1194.31,-179 1183.46,-177.37"/>
</g>
<!-- java.lang.classfile.attribute.RuntimeVisibleTypeAnnotationsAttribute -->
<g id="node10" class="node">
<title>java.lang.classfile.attribute.RuntimeVisibleTypeAnnotationsAttribute</title>
<g id="a_node10"><a xlink:href="../../../java/lang/classfile/attribute/RuntimeVisibleTypeAnnotationsAttribute.html" xlink:title="java.lang.classfile.attribute.RuntimeVisibleTypeAnnotationsAttribute">
<text text-anchor="middle" x="1722.78" y="-104.2" font-family="DejaVuSans" font-size="12.00" fill="#e76f00">RuntimeVisibleTypeAnnotationsAttribute</text>
</a>
</g>
</g>
<!-- java.lang.classfile.attribute.RuntimeVisibleTypeAnnotationsAttribute&#45;&gt;java.lang.classfile.FieldElement -->
<g id="edge9" class="edge">
<title>java.lang.classfile.attribute.RuntimeVisibleTypeAnnotationsAttribute&#45;&gt;java.lang.classfile.FieldElement</title>
<path fill="none" stroke="#999999" stroke-width="2" d="M1586.27,-128.12C1463.14,-145.54 1287.35,-170.42 1193.23,-183.74"/>
<polygon fill="#999999" stroke="#999999" stroke-width="2" points="1183.47,-185.12 1192.74,-179.26 1185.93,-184.26 1193.3,-183.22 1193.37,-183.72 1193.44,-184.21 1186.07,-185.25 1194,-188.17 1183.47,-185.12"/>
</g>
<!-- java.lang.classfile.attribute.SignatureAttribute -->
<g id="node11" class="node">
<title>java.lang.classfile.attribute.SignatureAttribute</title>
<g id="a_node11"><a xlink:href="../../../java/lang/classfile/attribute/SignatureAttribute.html" xlink:title="java.lang.classfile.attribute.SignatureAttribute">
<text text-anchor="middle" x="1965.78" y="-104.2" font-family="DejaVuSans" font-size="12.00" fill="#e76f00">SignatureAttribute</text>
</a>
</g>
</g>
<!-- java.lang.classfile.attribute.SignatureAttribute&#45;&gt;java.lang.classfile.FieldElement -->
<g id="edge10" class="edge">
<title>java.lang.classfile.attribute.SignatureAttribute&#45;&gt;java.lang.classfile.FieldElement</title>
<path fill="none" stroke="#999999" stroke-width="2" d="M1895.83,-126.14C1889.74,-127.36 1883.66,-128.47 1877.78,-129.4 1626.78,-169.2 1324.3,-185.24 1193.42,-190.64"/>
<polygon fill="#999999" stroke="#999999" stroke-width="2" points="1183.73,-191.03 1193.54,-186.13 1186.27,-190.43 1193.7,-190.13 1193.72,-190.63 1193.74,-191.13 1186.31,-191.43 1193.9,-195.13 1183.73,-191.03"/>
</g>
<!-- java.lang.classfile.attribute.SyntheticAttribute -->
<g id="node12" class="node">
<title>java.lang.classfile.attribute.SyntheticAttribute</title>
<g id="a_node12"><a xlink:href="../../../java/lang/classfile/attribute/SyntheticAttribute.html" xlink:title="java.lang.classfile.attribute.SyntheticAttribute">
<text text-anchor="middle" x="2140.78" y="-104.2" font-family="DejaVuSans" font-size="12.00" fill="#e76f00">SyntheticAttribute</text>
</a>
</g>
</g>
<!-- java.lang.classfile.attribute.SyntheticAttribute&#45;&gt;java.lang.classfile.FieldElement -->
<g id="edge11" class="edge">
<title>java.lang.classfile.attribute.SyntheticAttribute&#45;&gt;java.lang.classfile.FieldElement</title>
<path fill="none" stroke="#999999" stroke-width="2" d="M2071.64,-126.25C2065.62,-127.44 2059.61,-128.52 2053.78,-129.4 1733.58,-177.97 1345.42,-189.48 1193.35,-192.18"/>
<polygon fill="#999999" stroke="#999999" stroke-width="2" points="1183.53,-192.35 1193.45,-187.68 1186.08,-191.8 1193.52,-191.68 1193.52,-192.18 1193.53,-192.68 1186.1,-192.8 1193.6,-196.68 1183.53,-192.35"/>
</g>
<!-- java.lang.classfile.attribute.UnknownAttribute -->
<g id="node13" class="node">
<title>java.lang.classfile.attribute.UnknownAttribute</title>
<g id="a_node13"><a xlink:href="../../../java/lang/classfile/attribute/UnknownAttribute.html" xlink:title="java.lang.classfile.attribute.UnknownAttribute">
<text text-anchor="middle" x="2314.78" y="-104.2" font-family="DejaVuSans" font-size="12.00" fill="#e76f00">UnknownAttribute</text>
</a>
</g>
</g>
<!-- java.lang.classfile.attribute.UnknownAttribute&#45;&gt;java.lang.classfile.FieldElement -->
<g id="edge12" class="edge">
<title>java.lang.classfile.attribute.UnknownAttribute&#45;&gt;java.lang.classfile.FieldElement</title>
<path fill="none" stroke="#999999" stroke-width="2" d="M2246.13,-126.22C2239.95,-127.44 2233.76,-128.52 2227.78,-129.4 1838.38,-186.31 1364.45,-192.83 1193.33,-193.19"/>
<polygon fill="#999999" stroke="#999999" stroke-width="2" points="1183.49,-193.2 1193.49,-188.69 1186.05,-192.7 1193.49,-192.69 1193.49,-193.19 1193.49,-193.69 1186.06,-193.7 1193.5,-197.69 1183.49,-193.2"/>
</g>
</g>
</svg>
