<?xml version="1.0" encoding="UTF-8" standalone="no"?>
<!DOCTYPE svg PUBLIC "-//W3C//DTD SVG 1.1//EN"
 "http://www.w3.org/Graphics/SVG/1.1/DTD/svg11.dtd">
<!-- Generated by graphviz version 9.0.0 (20230911.1827)
 -->
<!-- Title: G Pages: 1 -->
<svg width="4672pt" height="224pt"
 viewBox="0.00 0.00 4671.96 223.60" xmlns="http://www.w3.org/2000/svg" xmlns:xlink="http://www.w3.org/1999/xlink">
<g id="graph0" class="graph" transform="scale(1 1) rotate(0) translate(4 219.6)">
<title>G</title>
<polygon fill="white" stroke="none" points="-4,4 -4,-219.6 4667.96,-219.6 4667.96,4 -4,4"/>
<!-- java.lang.classfile.instruction.ArrayLoadInstruction -->
<g id="node1" class="node">
<title>java.lang.classfile.instruction.ArrayLoadInstruction</title>
<g id="a_node1"><a xlink:href="../../../java/lang/classfile/instruction/ArrayLoadInstruction.html" xlink:title="java.lang.classfile.instruction.ArrayLoadInstruction">
<text text-anchor="middle" x="77.28" y="-104.2" font-family="DejaVuSans" font-size="12.00" fill="#e76f00">ArrayLoadInstruction</text>
</a>
</g>
</g>
<!-- java.lang.classfile.Instruction -->
<g id="node2" class="node">
<title>java.lang.classfile.Instruction</title>
<g id="a_node2"><a xlink:href="../../../java/lang/classfile/Instruction.html" xlink:title="java.lang.classfile.Instruction">
<text text-anchor="middle" x="2268.28" y="-190.4" font-family="DejaVuSans" font-size="12.00" fill="#e76f00">Instruction</text>
</a>
</g>
</g>
<!-- java.lang.classfile.instruction.ArrayLoadInstruction&#45;&gt;java.lang.classfile.Instruction -->
<g id="edge1" class="edge">
<title>java.lang.classfile.instruction.ArrayLoadInstruction&#45;&gt;java.lang.classfile.Instruction</title>
<path fill="none" stroke="#999999" stroke-width="2" d="M154.33,-126.74C160.38,-127.77 166.41,-128.68 172.28,-129.4 582.62,-179.68 1914.54,-190.8 2209.91,-192.67"/>
<polygon fill="#999999" stroke="#999999" stroke-width="2" points="2219.55,-192.73 2209.53,-197.17 2216.99,-193.22 2209.55,-193.17 2209.55,-192.67 2209.56,-192.17 2216.99,-192.22 2209.58,-188.17 2219.55,-192.73"/>
</g>
<!-- java.lang.classfile.instruction.ArrayStoreInstruction -->
<g id="node3" class="node">
<title>java.lang.classfile.instruction.ArrayStoreInstruction</title>
<g id="a_node3"><a xlink:href="../../../java/lang/classfile/instruction/ArrayStoreInstruction.html" xlink:title="java.lang.classfile.instruction.ArrayStoreInstruction">
<text text-anchor="middle" x="269.28" y="-104.2" font-family="DejaVuSans" font-size="12.00" fill="#e76f00">ArrayStoreInstruction</text>
</a>
</g>
</g>
<!-- java.lang.classfile.instruction.ArrayStoreInstruction&#45;&gt;java.lang.classfile.Instruction -->
<g id="edge2" class="edge">
<title>java.lang.classfile.instruction.ArrayStoreInstruction&#45;&gt;java.lang.classfile.Instruction</title>
<path fill="none" stroke="#999999" stroke-width="2" d="M347.93,-126.85C353.78,-127.84 359.61,-128.7 365.28,-129.4 735.26,-174.91 1930.34,-189.6 2209.55,-192.45"/>
<polygon fill="#999999" stroke="#999999" stroke-width="2" points="2219.34,-192.54 2209.29,-196.94 2216.77,-193.02 2209.33,-192.94 2209.34,-192.44 2209.34,-191.94 2216.78,-192.02 2209.38,-187.94 2219.34,-192.54"/>
</g>
<!-- java.lang.classfile.instruction.BranchInstruction -->
<g id="node4" class="node">
<title>java.lang.classfile.instruction.BranchInstruction</title>
<g id="a_node4"><a xlink:href="../../../java/lang/classfile/instruction/BranchInstruction.html" xlink:title="java.lang.classfile.instruction.BranchInstruction">
<text text-anchor="middle" x="451.28" y="-104.2" font-family="DejaVuSans" font-size="12.00" fill="#e76f00">BranchInstruction</text>
</a>
</g>
</g>
<!-- java.lang.classfile.instruction.BranchInstruction&#45;&gt;java.lang.classfile.Instruction -->
<g id="edge3" class="edge">
<title>java.lang.classfile.instruction.BranchInstruction&#45;&gt;java.lang.classfile.Instruction</title>
<path fill="none" stroke="#999999" stroke-width="2" d="M518.64,-126.27C524.91,-127.49 531.19,-128.57 537.28,-129.4 871.1,-175.05 1946.77,-189.51 2209.82,-192.41"/>
<polygon fill="#999999" stroke="#999999" stroke-width="2" points="2219.65,-192.52 2209.6,-196.91 2217.08,-192.99 2209.65,-192.91 2209.65,-192.41 2209.66,-191.91 2217.09,-191.99 2209.7,-187.91 2219.65,-192.52"/>
</g>
<!-- java.lang.classfile.instruction.ConstantInstruction -->
<g id="node5" class="node">
<title>java.lang.classfile.instruction.ConstantInstruction</title>
<g id="a_node5"><a xlink:href="../../../java/lang/classfile/instruction/ConstantInstruction.html" xlink:title="java.lang.classfile.instruction.ConstantInstruction">
<text text-anchor="middle" x="628.28" y="-104.2" font-family="DejaVuSans" font-size="12.00" fill="#e76f00">ConstantInstruction</text>
</a>
</g>
</g>
<!-- java.lang.classfile.instruction.ConstantInstruction&#45;&gt;java.lang.classfile.Instruction -->
<g id="edge4" class="edge">
<title>java.lang.classfile.instruction.ConstantInstruction&#45;&gt;java.lang.classfile.Instruction</title>
<path fill="none" stroke="#999999" stroke-width="2" d="M701.63,-126.46C707.91,-127.59 714.19,-128.6 720.28,-129.4 1016.48,-168.33 1964.2,-187.59 2209.74,-192"/>
<polygon fill="#999999" stroke="#999999" stroke-width="2" points="2219.46,-192.17 2209.38,-196.49 2216.89,-192.63 2209.46,-192.49 2209.46,-191.99 2209.47,-191.49 2216.91,-191.63 2209.54,-187.5 2219.46,-192.17"/>
</g>
<!-- java.lang.classfile.instruction.ConstantInstruction.IntrinsicConstantInstruction -->
<g id="node6" class="node">
<title>java.lang.classfile.instruction.ConstantInstruction.IntrinsicConstantInstruction</title>
<g id="a_node6"><a xlink:href="../../../java/lang/classfile/instruction/ConstantInstruction.IntrinsicConstantInstruction.html" xlink:title="java.lang.classfile.instruction.ConstantInstruction.IntrinsicConstantInstruction">
<text text-anchor="middle" x="358.28" y="-18" font-family="DejaVuSans" font-size="12.00" fill="#e76f00">IntrinsicConstantInstruction</text>
</a>
</g>
</g>
<!-- java.lang.classfile.instruction.ConstantInstruction.IntrinsicConstantInstruction&#45;&gt;java.lang.classfile.instruction.ConstantInstruction -->
<g id="edge5" class="edge">
<title>java.lang.classfile.instruction.ConstantInstruction.IntrinsicConstantInstruction&#45;&gt;java.lang.classfile.instruction.ConstantInstruction</title>
<path fill="none" stroke="#999999" stroke-width="2" d="M424.33,-43.2C462.47,-55.09 510.65,-70.12 550.6,-82.58"/>
<polygon fill="#999999" stroke="#999999" stroke-width="2" points="560.12,-85.54 549.23,-86.86 557.52,-85.26 550.42,-83.04 550.57,-82.57 550.72,-82.09 557.82,-84.3 551.91,-78.27 560.12,-85.54"/>
</g>
<!-- java.lang.classfile.instruction.ConstantInstruction.ArgumentConstantInstruction -->
<g id="node7" class="node">
<title>java.lang.classfile.instruction.ConstantInstruction.ArgumentConstantInstruction</title>
<g id="a_node7"><a xlink:href="../../../java/lang/classfile/instruction/ConstantInstruction.ArgumentConstantInstruction.html" xlink:title="java.lang.classfile.instruction.ConstantInstruction.ArgumentConstantInstruction">
<text text-anchor="middle" x="595.28" y="-18" font-family="DejaVuSans" font-size="12.00" fill="#e76f00">ArgumentConstantInstruction</text>
</a>
</g>
</g>
<!-- java.lang.classfile.instruction.ConstantInstruction.ArgumentConstantInstruction&#45;&gt;java.lang.classfile.instruction.ConstantInstruction -->
<g id="edge6" class="edge">
<title>java.lang.classfile.instruction.ConstantInstruction.ArgumentConstantInstruction&#45;&gt;java.lang.classfile.instruction.ConstantInstruction</title>
<path fill="none" stroke="#999999" stroke-width="2" d="M603.27,-42.98C607.01,-52.53 611.55,-64.13 615.74,-74.81"/>
<polygon fill="#999999" stroke="#999999" stroke-width="2" points="619.36,-84.04 611.52,-76.38 617.96,-81.84 615.24,-74.92 615.71,-74.73 616.18,-74.55 618.89,-81.48 619.9,-73.09 619.36,-84.04"/>
</g>
<!-- java.lang.classfile.instruction.ConstantInstruction.LoadConstantInstruction -->
<g id="node8" class="node">
<title>java.lang.classfile.instruction.ConstantInstruction.LoadConstantInstruction</title>
<g id="a_node8"><a xlink:href="../../../java/lang/classfile/instruction/ConstantInstruction.LoadConstantInstruction.html" xlink:title="java.lang.classfile.instruction.ConstantInstruction.LoadConstantInstruction">
<text text-anchor="middle" x="822.28" y="-18" font-family="DejaVuSans" font-size="12.00" fill="#e76f00">LoadConstantInstruction</text>
</a>
</g>
</g>
<!-- java.lang.classfile.instruction.ConstantInstruction.LoadConstantInstruction&#45;&gt;java.lang.classfile.instruction.ConstantInstruction -->
<g id="edge7" class="edge">
<title>java.lang.classfile.instruction.ConstantInstruction.LoadConstantInstruction&#45;&gt;java.lang.classfile.instruction.ConstantInstruction</title>
<path fill="none" stroke="#999999" stroke-width="2" d="M774.82,-43.2C748.3,-54.71 715.02,-69.15 686.89,-81.36"/>
<polygon fill="#999999" stroke="#999999" stroke-width="2" points="677.82,-85.3 685.2,-77.19 679.97,-83.82 686.79,-80.86 686.99,-81.32 687.19,-81.78 680.37,-84.74 688.78,-85.45 677.82,-85.3"/>
</g>
<!-- java.lang.classfile.instruction.ConvertInstruction -->
<g id="node9" class="node">
<title>java.lang.classfile.instruction.ConvertInstruction</title>
<g id="a_node9"><a xlink:href="../../../java/lang/classfile/instruction/ConvertInstruction.html" xlink:title="java.lang.classfile.instruction.ConvertInstruction">
<text text-anchor="middle" x="808.28" y="-104.2" font-family="DejaVuSans" font-size="12.00" fill="#e76f00">ConvertInstruction</text>
</a>
</g>
</g>
<!-- java.lang.classfile.instruction.ConvertInstruction&#45;&gt;java.lang.classfile.Instruction -->
<g id="edge8" class="edge">
<title>java.lang.classfile.instruction.ConvertInstruction&#45;&gt;java.lang.classfile.Instruction</title>
<path fill="none" stroke="#999999" stroke-width="2" d="M878.19,-126.39C884.28,-127.55 890.37,-128.58 896.28,-129.4 1156.03,-165.51 1982.35,-186.52 2209.82,-191.72"/>
<polygon fill="#999999" stroke="#999999" stroke-width="2" points="2219.64,-191.94 2209.54,-196.22 2217.06,-192.39 2209.63,-192.22 2209.64,-191.72 2209.65,-191.22 2217.08,-191.39 2209.74,-187.22 2219.64,-191.94"/>
</g>
<!-- java.lang.classfile.instruction.DiscontinuedInstruction -->
<g id="node10" class="node">
<title>java.lang.classfile.instruction.DiscontinuedInstruction</title>
<g id="a_node10"><a xlink:href="../../../java/lang/classfile/instruction/DiscontinuedInstruction.html" xlink:title="java.lang.classfile.instruction.DiscontinuedInstruction">
<text text-anchor="middle" x="1000.28" y="-104.2" font-family="DejaVuSans" font-size="12.00" fill="#e76f00">DiscontinuedInstruction</text>
</a>
</g>
</g>
<!-- java.lang.classfile.instruction.DiscontinuedInstruction&#45;&gt;java.lang.classfile.Instruction -->
<g id="edge9" class="edge">
<title>java.lang.classfile.instruction.DiscontinuedInstruction&#45;&gt;java.lang.classfile.Instruction</title>
<path fill="none" stroke="#999999" stroke-width="2" d="M1085.82,-126.74C1092.05,-127.74 1098.25,-128.64 1104.28,-129.4 1525.71,-182.38 2038.47,-191.24 2209.57,-192.71"/>
<polygon fill="#999999" stroke="#999999" stroke-width="2" points="2219.33,-192.79 2209.29,-197.21 2216.76,-193.27 2209.33,-193.21 2209.33,-192.71 2209.33,-192.21 2216.77,-192.27 2209.37,-188.21 2219.33,-192.79"/>
</g>
<!-- java.lang.classfile.instruction.DiscontinuedInstruction.JsrInstruction -->
<g id="node11" class="node">
<title>java.lang.classfile.instruction.DiscontinuedInstruction.JsrInstruction</title>
<g id="a_node11"><a xlink:href="../../../java/lang/classfile/instruction/DiscontinuedInstruction.JsrInstruction.html" xlink:title="java.lang.classfile.instruction.DiscontinuedInstruction.JsrInstruction">
<text text-anchor="middle" x="1000.28" y="-18" font-family="DejaVuSans" font-size="12.00" fill="#e76f00">JsrInstruction</text>
</a>
</g>
</g>
<!-- java.lang.classfile.instruction.DiscontinuedInstruction.JsrInstruction&#45;&gt;java.lang.classfile.instruction.DiscontinuedInstruction -->
<g id="edge10" class="edge">
<title>java.lang.classfile.instruction.DiscontinuedInstruction.JsrInstruction&#45;&gt;java.lang.classfile.instruction.DiscontinuedInstruction</title>
<path fill="none" stroke="#999999" stroke-width="2" d="M1000.28,-42.98C1000.28,-52.32 1000.28,-63.63 1000.28,-74.12"/>
<polygon fill="#999999" stroke="#999999" stroke-width="2" points="1000.28,-83.88 995.78,-73.88 999.78,-81.31 999.78,-73.88 1000.28,-73.88 1000.78,-73.88 1000.78,-81.31 1004.78,-73.88 1000.28,-83.88"/>
</g>
<!-- java.lang.classfile.instruction.DiscontinuedInstruction.RetInstruction -->
<g id="node12" class="node">
<title>java.lang.classfile.instruction.DiscontinuedInstruction.RetInstruction</title>
<g id="a_node12"><a xlink:href="../../../java/lang/classfile/instruction/DiscontinuedInstruction.RetInstruction.html" xlink:title="java.lang.classfile.instruction.DiscontinuedInstruction.RetInstruction">
<text text-anchor="middle" x="1147.28" y="-18" font-family="DejaVuSans" font-size="12.00" fill="#e76f00">RetInstruction</text>
</a>
</g>
</g>
<!-- java.lang.classfile.instruction.DiscontinuedInstruction.RetInstruction&#45;&gt;java.lang.classfile.instruction.DiscontinuedInstruction -->
<g id="edge11" class="edge">
<title>java.lang.classfile.instruction.DiscontinuedInstruction.RetInstruction&#45;&gt;java.lang.classfile.instruction.DiscontinuedInstruction</title>
<path fill="none" stroke="#999999" stroke-width="2" d="M1111.32,-43.2C1091.85,-54.35 1067.57,-68.25 1046.69,-80.22"/>
<polygon fill="#999999" stroke="#999999" stroke-width="2" points="1038.23,-85.06 1044.68,-76.18 1040.21,-83.35 1046.66,-79.65 1046.91,-80.09 1047.16,-80.52 1040.71,-84.22 1049.15,-83.99 1038.23,-85.06"/>
</g>
<!-- java.lang.classfile.instruction.FieldInstruction -->
<g id="node13" class="node">
<title>java.lang.classfile.instruction.FieldInstruction</title>
<g id="a_node13"><a xlink:href="../../../java/lang/classfile/instruction/FieldInstruction.html" xlink:title="java.lang.classfile.instruction.FieldInstruction">
<text text-anchor="middle" x="1183.28" y="-104.2" font-family="DejaVuSans" font-size="12.00" fill="#e76f00">FieldInstruction</text>
</a>
</g>
</g>
<!-- java.lang.classfile.instruction.FieldInstruction&#45;&gt;java.lang.classfile.Instruction -->
<g id="edge12" class="edge">
<title>java.lang.classfile.instruction.FieldInstruction&#45;&gt;java.lang.classfile.Instruction</title>
<path fill="none" stroke="#999999" stroke-width="2" d="M1243.84,-125.85C1250.03,-127.21 1256.26,-128.43 1262.28,-129.4 1618.94,-186.63 2054.46,-192.92 2209.8,-193.21"/>
<polygon fill="#999999" stroke="#999999" stroke-width="2" points="2219.37,-193.22 2209.36,-197.71 2216.8,-193.71 2209.36,-193.71 2209.37,-193.21 2209.37,-192.71 2216.8,-192.71 2209.37,-188.71 2219.37,-193.22"/>
</g>
<!-- java.lang.classfile.instruction.InvokeDynamicInstruction -->
<g id="node14" class="node">
<title>java.lang.classfile.instruction.InvokeDynamicInstruction</title>
<g id="a_node14"><a xlink:href="../../../java/lang/classfile/instruction/InvokeDynamicInstruction.html" xlink:title="java.lang.classfile.instruction.InvokeDynamicInstruction">
<text text-anchor="middle" x="1373.28" y="-104.2" font-family="DejaVuSans" font-size="12.00" fill="#e76f00">InvokeDynamicInstruction</text>
</a>
</g>
</g>
<!-- java.lang.classfile.instruction.InvokeDynamicInstruction&#45;&gt;java.lang.classfile.Instruction -->
<g id="edge13" class="edge">
<title>java.lang.classfile.instruction.InvokeDynamicInstruction&#45;&gt;java.lang.classfile.Instruction</title>
<path fill="none" stroke="#999999" stroke-width="2" d="M1466.13,-126.76C1472.26,-127.72 1478.35,-128.61 1484.28,-129.4 1754.14,-165.29 2079.16,-183.85 2209.76,-190.31"/>
<polygon fill="#999999" stroke="#999999" stroke-width="2" points="2219.72,-190.79 2209.51,-194.8 2217.13,-191.17 2209.7,-190.81 2209.73,-190.31 2209.75,-189.81 2217.18,-190.17 2209.95,-185.81 2219.72,-190.79"/>
</g>
<!-- java.lang.classfile.instruction.InvokeInstruction -->
<g id="node15" class="node">
<title>java.lang.classfile.instruction.InvokeInstruction</title>
<g id="a_node15"><a xlink:href="../../../java/lang/classfile/instruction/InvokeInstruction.html" xlink:title="java.lang.classfile.instruction.InvokeInstruction">
<text text-anchor="middle" x="1568.28" y="-104.2" font-family="DejaVuSans" font-size="12.00" fill="#e76f00">InvokeInstruction</text>
</a>
</g>
</g>
<!-- java.lang.classfile.instruction.InvokeInstruction&#45;&gt;java.lang.classfile.Instruction -->
<g id="edge14" class="edge">
<title>java.lang.classfile.instruction.InvokeInstruction&#45;&gt;java.lang.classfile.Instruction</title>
<path fill="none" stroke="#999999" stroke-width="2" d="M1634.58,-125.95C1640.55,-127.23 1646.51,-128.4 1652.28,-129.4 1855.51,-164.64 2100.1,-182.78 2209.92,-189.66"/>
<polygon fill="#999999" stroke="#999999" stroke-width="2" points="2219.57,-190.25 2209.31,-194.13 2216.98,-190.6 2209.56,-190.14 2209.59,-189.64 2209.62,-189.14 2217.04,-189.6 2209.86,-185.15 2219.57,-190.25"/>
</g>
<!-- java.lang.classfile.instruction.LoadInstruction -->
<g id="node16" class="node">
<title>java.lang.classfile.instruction.LoadInstruction</title>
<g id="a_node16"><a xlink:href="../../../java/lang/classfile/instruction/LoadInstruction.html" xlink:title="java.lang.classfile.instruction.LoadInstruction">
<text text-anchor="middle" x="1731.28" y="-104.2" font-family="DejaVuSans" font-size="12.00" fill="#e76f00">LoadInstruction</text>
</a>
</g>
</g>
<!-- java.lang.classfile.instruction.LoadInstruction&#45;&gt;java.lang.classfile.Instruction -->
<g id="edge15" class="edge">
<title>java.lang.classfile.instruction.LoadInstruction&#45;&gt;java.lang.classfile.Instruction</title>
<path fill="none" stroke="#999999" stroke-width="2" d="M1791.92,-125.38C1798.1,-126.84 1804.3,-128.21 1810.28,-129.4 1952.48,-157.71 2122.01,-177.73 2209.52,-187.07"/>
<polygon fill="#999999" stroke="#999999" stroke-width="2" points="2219.4,-188.11 2208.98,-191.54 2216.8,-188.34 2209.4,-187.56 2209.45,-187.06 2209.51,-186.56 2216.9,-187.35 2209.93,-182.59 2219.4,-188.11"/>
</g>
<!-- java.lang.classfile.instruction.StoreInstruction -->
<g id="node17" class="node">
<title>java.lang.classfile.instruction.StoreInstruction</title>
<g id="a_node17"><a xlink:href="../../../java/lang/classfile/instruction/StoreInstruction.html" xlink:title="java.lang.classfile.instruction.StoreInstruction">
<text text-anchor="middle" x="1891.28" y="-104.2" font-family="DejaVuSans" font-size="12.00" fill="#e76f00">StoreInstruction</text>
</a>
</g>
</g>
<!-- java.lang.classfile.instruction.StoreInstruction&#45;&gt;java.lang.classfile.Instruction -->
<g id="edge16" class="edge">
<title>java.lang.classfile.instruction.StoreInstruction&#45;&gt;java.lang.classfile.Instruction</title>
<path fill="none" stroke="#999999" stroke-width="2" d="M1953.57,-124.89C1959.88,-126.45 1966.2,-127.98 1972.28,-129.4 2054.62,-148.71 2150.4,-168.87 2210.19,-181.19"/>
<polygon fill="#999999" stroke="#999999" stroke-width="2" points="2219.63,-183.13 2208.93,-185.52 2217.02,-183.1 2209.73,-181.6 2209.83,-181.11 2209.93,-180.62 2217.22,-182.12 2210.74,-176.71 2219.63,-183.13"/>
</g>
<!-- java.lang.classfile.instruction.IncrementInstruction -->
<g id="node18" class="node">
<title>java.lang.classfile.instruction.IncrementInstruction</title>
<g id="a_node18"><a xlink:href="../../../java/lang/classfile/instruction/IncrementInstruction.html" xlink:title="java.lang.classfile.instruction.IncrementInstruction">
<text text-anchor="middle" x="2067.28" y="-104.2" font-family="DejaVuSans" font-size="12.00" fill="#e76f00">IncrementInstruction</text>
</a>
</g>
</g>
<!-- java.lang.classfile.instruction.IncrementInstruction&#45;&gt;java.lang.classfile.Instruction -->
<g id="edge17" class="edge">
<title>java.lang.classfile.instruction.IncrementInstruction&#45;&gt;java.lang.classfile.Instruction</title>
<path fill="none" stroke="#999999" stroke-width="2" d="M2116.45,-129.4C2144.99,-141.36 2181.09,-156.48 2210.93,-168.98"/>
<polygon fill="#999999" stroke="#999999" stroke-width="2" points="2219.78,-172.68 2208.82,-172.97 2217.22,-172.16 2210.36,-169.28 2210.56,-168.82 2210.75,-168.36 2217.61,-171.23 2212.3,-164.67 2219.78,-172.68"/>
</g>
<!-- java.lang.classfile.instruction.LookupSwitchInstruction -->
<g id="node19" class="node">
<title>java.lang.classfile.instruction.LookupSwitchInstruction</title>
<g id="a_node19"><a xlink:href="../../../java/lang/classfile/instruction/LookupSwitchInstruction.html" xlink:title="java.lang.classfile.instruction.LookupSwitchInstruction">
<text text-anchor="middle" x="2268.28" y="-104.2" font-family="DejaVuSans" font-size="12.00" fill="#e76f00">LookupSwitchInstruction</text>
</a>
</g>
</g>
<!-- java.lang.classfile.instruction.LookupSwitchInstruction&#45;&gt;java.lang.classfile.Instruction -->
<g id="edge18" class="edge">
<title>java.lang.classfile.instruction.LookupSwitchInstruction&#45;&gt;java.lang.classfile.Instruction</title>
<path fill="none" stroke="#999999" stroke-width="2" d="M2268.28,-129.18C2268.28,-138.52 2268.28,-149.83 2268.28,-160.32"/>
<polygon fill="#999999" stroke="#999999" stroke-width="2" points="2268.28,-170.08 2263.78,-160.08 2267.78,-167.51 2267.78,-160.08 2268.28,-160.08 2268.78,-160.08 2268.78,-167.51 2272.78,-160.08 2268.28,-170.08"/>
</g>
<!-- java.lang.classfile.instruction.MonitorInstruction -->
<g id="node20" class="node">
<title>java.lang.classfile.instruction.MonitorInstruction</title>
<g id="a_node20"><a xlink:href="../../../java/lang/classfile/instruction/MonitorInstruction.html" xlink:title="java.lang.classfile.instruction.MonitorInstruction">
<text text-anchor="middle" x="2461.28" y="-104.2" font-family="DejaVuSans" font-size="12.00" fill="#e76f00">MonitorInstruction</text>
</a>
</g>
</g>
<!-- java.lang.classfile.instruction.MonitorInstruction&#45;&gt;java.lang.classfile.Instruction -->
<g id="edge19" class="edge">
<title>java.lang.classfile.instruction.MonitorInstruction&#45;&gt;java.lang.classfile.Instruction</title>
<path fill="none" stroke="#999999" stroke-width="2" d="M2414.06,-129.4C2387.48,-140.99 2354.08,-155.57 2325.96,-167.83"/>
<polygon fill="#999999" stroke="#999999" stroke-width="2" points="2316.9,-171.79 2324.27,-163.66 2319.05,-170.3 2325.87,-167.33 2326.07,-167.79 2326.27,-168.25 2319.45,-171.22 2327.87,-171.91 2316.9,-171.79"/>
</g>
<!-- java.lang.classfile.instruction.NewMultiArrayInstruction -->
<g id="node21" class="node">
<title>java.lang.classfile.instruction.NewMultiArrayInstruction</title>
<g id="a_node21"><a xlink:href="../../../java/lang/classfile/instruction/NewMultiArrayInstruction.html" xlink:title="java.lang.classfile.instruction.NewMultiArrayInstruction">
<text text-anchor="middle" x="2657.28" y="-104.2" font-family="DejaVuSans" font-size="12.00" fill="#e76f00">NewMultiArrayInstruction</text>
</a>
</g>
</g>
<!-- java.lang.classfile.instruction.NewMultiArrayInstruction&#45;&gt;java.lang.classfile.Instruction -->
<g id="edge20" class="edge">
<title>java.lang.classfile.instruction.NewMultiArrayInstruction&#45;&gt;java.lang.classfile.Instruction</title>
<path fill="none" stroke="#999999" stroke-width="2" d="M2567.05,-128.33C2492.94,-144.37 2390.14,-166.62 2326.49,-180.4"/>
<polygon fill="#999999" stroke="#999999" stroke-width="2" points="2317.07,-182.44 2325.9,-175.92 2319.47,-181.41 2326.74,-179.83 2326.85,-180.32 2326.95,-180.81 2319.69,-182.38 2327.8,-184.72 2317.07,-182.44"/>
</g>
<!-- java.lang.classfile.instruction.NewObjectInstruction -->
<g id="node22" class="node">
<title>java.lang.classfile.instruction.NewObjectInstruction</title>
<g id="a_node22"><a xlink:href="../../../java/lang/classfile/instruction/NewObjectInstruction.html" xlink:title="java.lang.classfile.instruction.NewObjectInstruction">
<text text-anchor="middle" x="2863.28" y="-104.2" font-family="DejaVuSans" font-size="12.00" fill="#e76f00">NewObjectInstruction</text>
</a>
</g>
</g>
<!-- java.lang.classfile.instruction.NewObjectInstruction&#45;&gt;java.lang.classfile.Instruction -->
<g id="edge21" class="edge">
<title>java.lang.classfile.instruction.NewObjectInstruction&#45;&gt;java.lang.classfile.Instruction</title>
<path fill="none" stroke="#999999" stroke-width="2" d="M2784.24,-126.15C2778.17,-127.31 2772.13,-128.41 2766.28,-129.4 2608.13,-156.24 2419.99,-177.36 2326.71,-187.11"/>
<polygon fill="#999999" stroke="#999999" stroke-width="2" points="2316.89,-188.13 2326.37,-182.62 2319.39,-187.37 2326.78,-186.6 2326.84,-187.1 2326.89,-187.6 2319.49,-188.37 2327.3,-191.58 2316.89,-188.13"/>
</g>
<!-- java.lang.classfile.instruction.NewPrimitiveArrayInstruction -->
<g id="node23" class="node">
<title>java.lang.classfile.instruction.NewPrimitiveArrayInstruction</title>
<g id="a_node23"><a xlink:href="../../../java/lang/classfile/instruction/NewPrimitiveArrayInstruction.html" xlink:title="java.lang.classfile.instruction.NewPrimitiveArrayInstruction">
<text text-anchor="middle" x="3081.28" y="-104.2" font-family="DejaVuSans" font-size="12.00" fill="#e76f00">NewPrimitiveArrayInstruction</text>
</a>
</g>
</g>
<!-- java.lang.classfile.instruction.NewPrimitiveArrayInstruction&#45;&gt;java.lang.classfile.Instruction -->
<g id="edge22" class="edge">
<title>java.lang.classfile.instruction.NewPrimitiveArrayInstruction&#45;&gt;java.lang.classfile.Instruction</title>
<path fill="none" stroke="#999999" stroke-width="2" d="M2979.04,-126.78C2972.7,-127.71 2966.4,-128.6 2960.28,-129.4 2726.32,-160.02 2445.94,-180.98 2326.63,-189.16"/>
<polygon fill="#999999" stroke="#999999" stroke-width="2" points="2317.01,-189.82 2326.68,-184.65 2319.53,-189.14 2326.95,-188.64 2326.98,-189.14 2327.02,-189.64 2319.6,-190.14 2327.29,-193.63 2317.01,-189.82"/>
</g>
<!-- java.lang.classfile.instruction.NewReferenceArrayInstruction -->
<g id="node24" class="node">
<title>java.lang.classfile.instruction.NewReferenceArrayInstruction</title>
<g id="a_node24"><a xlink:href="../../../java/lang/classfile/instruction/NewReferenceArrayInstruction.html" xlink:title="java.lang.classfile.instruction.NewReferenceArrayInstruction">
<text text-anchor="middle" x="3326.28" y="-104.2" font-family="DejaVuSans" font-size="12.00" fill="#e76f00">NewReferenceArrayInstruction</text>
</a>
</g>
</g>
<!-- java.lang.classfile.instruction.NewReferenceArrayInstruction&#45;&gt;java.lang.classfile.Instruction -->
<g id="edge23" class="edge">
<title>java.lang.classfile.instruction.NewReferenceArrayInstruction&#45;&gt;java.lang.classfile.Instruction</title>
<path fill="none" stroke="#999999" stroke-width="2" d="M3219.99,-127.02C3213.67,-127.89 3207.39,-128.69 3201.28,-129.4 2871.81,-167.69 2474.01,-185.37 2326.76,-190.95"/>
<polygon fill="#999999" stroke="#999999" stroke-width="2" points="2316.97,-191.32 2326.79,-186.45 2319.51,-190.72 2326.94,-190.44 2326.96,-190.94 2326.98,-191.44 2319.55,-191.72 2327.13,-195.44 2316.97,-191.32"/>
</g>
<!-- java.lang.classfile.instruction.NopInstruction -->
<g id="node25" class="node">
<title>java.lang.classfile.instruction.NopInstruction</title>
<g id="a_node25"><a xlink:href="../../../java/lang/classfile/instruction/NopInstruction.html" xlink:title="java.lang.classfile.instruction.NopInstruction">
<text text-anchor="middle" x="3527.28" y="-104.2" font-family="DejaVuSans" font-size="12.00" fill="#e76f00">NopInstruction</text>
</a>
</g>
</g>
<!-- java.lang.classfile.instruction.NopInstruction&#45;&gt;java.lang.classfile.Instruction -->
<g id="edge24" class="edge">
<title>java.lang.classfile.instruction.NopInstruction&#45;&gt;java.lang.classfile.Instruction</title>
<path fill="none" stroke="#999999" stroke-width="2" d="M3469.11,-125.72C3462.79,-127.15 3456.43,-128.42 3450.28,-129.4 3230.11,-164.38 2534.16,-185.75 2327.01,-191.45"/>
<polygon fill="#999999" stroke="#999999" stroke-width="2" points="2317.08,-191.73 2326.95,-186.95 2319.63,-191.16 2327.06,-190.95 2327.08,-191.45 2327.09,-191.95 2319.66,-192.16 2327.2,-195.95 2317.08,-191.73"/>
</g>
<!-- java.lang.classfile.instruction.OperatorInstruction -->
<g id="node26" class="node">
<title>java.lang.classfile.instruction.OperatorInstruction</title>
<g id="a_node26"><a xlink:href="../../../java/lang/classfile/instruction/OperatorInstruction.html" xlink:title="java.lang.classfile.instruction.OperatorInstruction">
<text text-anchor="middle" x="3695.28" y="-104.2" font-family="DejaVuSans" font-size="12.00" fill="#e76f00">OperatorInstruction</text>
</a>
</g>
</g>
<!-- java.lang.classfile.instruction.OperatorInstruction&#45;&gt;java.lang.classfile.Instruction -->
<g id="edge25" class="edge">
<title>java.lang.classfile.instruction.OperatorInstruction&#45;&gt;java.lang.classfile.Instruction</title>
<path fill="none" stroke="#999999" stroke-width="2" d="M3621.91,-126.41C3615.63,-127.56 3609.36,-128.58 3603.28,-129.4 3351.05,-163.39 2550.83,-185.83 2326.97,-191.55"/>
<polygon fill="#999999" stroke="#999999" stroke-width="2" points="2317.03,-191.81 2326.91,-187.05 2319.58,-191.24 2327.01,-191.05 2327.03,-191.55 2327.04,-192.05 2319.6,-192.24 2327.14,-196.05 2317.03,-191.81"/>
</g>
<!-- java.lang.classfile.instruction.ReturnInstruction -->
<g id="node27" class="node">
<title>java.lang.classfile.instruction.ReturnInstruction</title>
<g id="a_node27"><a xlink:href="../../../java/lang/classfile/instruction/ReturnInstruction.html" xlink:title="java.lang.classfile.instruction.ReturnInstruction">
<text text-anchor="middle" x="3871.28" y="-104.2" font-family="DejaVuSans" font-size="12.00" fill="#e76f00">ReturnInstruction</text>
</a>
</g>
</g>
<!-- java.lang.classfile.instruction.ReturnInstruction&#45;&gt;java.lang.classfile.Instruction -->
<g id="edge26" class="edge">
<title>java.lang.classfile.instruction.ReturnInstruction&#45;&gt;java.lang.classfile.Instruction</title>
<path fill="none" stroke="#999999" stroke-width="2" d="M3804.7,-126.24C3798.5,-127.47 3792.29,-128.55 3786.28,-129.4 3496.63,-170.16 2569.53,-188.03 2326.87,-192.08"/>
<polygon fill="#999999" stroke="#999999" stroke-width="2" points="2316.94,-192.24 2326.87,-187.58 2319.5,-191.7 2326.93,-191.58 2326.94,-192.08 2326.95,-192.58 2319.51,-192.7 2327.01,-196.58 2316.94,-192.24"/>
</g>
<!-- java.lang.classfile.instruction.StackInstruction -->
<g id="node28" class="node">
<title>java.lang.classfile.instruction.StackInstruction</title>
<g id="a_node28"><a xlink:href="../../../java/lang/classfile/instruction/StackInstruction.html" xlink:title="java.lang.classfile.instruction.StackInstruction">
<text text-anchor="middle" x="4037.28" y="-104.2" font-family="DejaVuSans" font-size="12.00" fill="#e76f00">StackInstruction</text>
</a>
</g>
</g>
<!-- java.lang.classfile.instruction.StackInstruction&#45;&gt;java.lang.classfile.Instruction -->
<g id="edge27" class="edge">
<title>java.lang.classfile.instruction.StackInstruction&#45;&gt;java.lang.classfile.Instruction</title>
<path fill="none" stroke="#999999" stroke-width="2" d="M3974.3,-126.19C3968.24,-127.44 3962.17,-128.55 3956.28,-129.4 3631.61,-176.26 2585.33,-189.79 2326.57,-192.46"/>
<polygon fill="#999999" stroke="#999999" stroke-width="2" points="2316.93,-192.55 2326.89,-187.95 2319.49,-192.03 2326.93,-191.95 2326.93,-192.45 2326.94,-192.95 2319.5,-193.03 2326.98,-196.95 2316.93,-192.55"/>
</g>
<!-- java.lang.classfile.instruction.TableSwitchInstruction -->
<g id="node29" class="node">
<title>java.lang.classfile.instruction.TableSwitchInstruction</title>
<g id="a_node29"><a xlink:href="../../../java/lang/classfile/instruction/TableSwitchInstruction.html" xlink:title="java.lang.classfile.instruction.TableSwitchInstruction">
<text text-anchor="middle" x="4219.28" y="-104.2" font-family="DejaVuSans" font-size="12.00" fill="#e76f00">TableSwitchInstruction</text>
</a>
</g>
</g>
<!-- java.lang.classfile.instruction.TableSwitchInstruction&#45;&gt;java.lang.classfile.Instruction -->
<g id="edge28" class="edge">
<title>java.lang.classfile.instruction.TableSwitchInstruction&#45;&gt;java.lang.classfile.Instruction</title>
<path fill="none" stroke="#999999" stroke-width="2" d="M4136.5,-126.84C4130.36,-127.82 4124.23,-128.7 4118.28,-129.4 3759.16,-171.89 2601.7,-188.83 2327.1,-192.3"/>
<polygon fill="#999999" stroke="#999999" stroke-width="2" points="2317.14,-192.42 2327.08,-187.8 2319.69,-191.89 2327.13,-191.8 2327.14,-192.3 2327.14,-192.8 2319.71,-192.89 2327.19,-196.8 2317.14,-192.42"/>
</g>
<!-- java.lang.classfile.instruction.ThrowInstruction -->
<g id="node30" class="node">
<title>java.lang.classfile.instruction.ThrowInstruction</title>
<g id="a_node30"><a xlink:href="../../../java/lang/classfile/instruction/ThrowInstruction.html" xlink:title="java.lang.classfile.instruction.ThrowInstruction">
<text text-anchor="middle" x="4403.28" y="-104.2" font-family="DejaVuSans" font-size="12.00" fill="#e76f00">ThrowInstruction</text>
</a>
</g>
</g>
<!-- java.lang.classfile.instruction.ThrowInstruction&#45;&gt;java.lang.classfile.Instruction -->
<g id="edge29" class="edge">
<title>java.lang.classfile.instruction.ThrowInstruction&#45;&gt;java.lang.classfile.Instruction</title>
<path fill="none" stroke="#999999" stroke-width="2" d="M4338.29,-126.31C4332.23,-127.53 4326.16,-128.59 4320.28,-129.4 3919.97,-184.64 2618.88,-191.92 2326.83,-192.86"/>
<polygon fill="#999999" stroke="#999999" stroke-width="2" points="2316.91,-192.89 2326.9,-188.36 2319.48,-192.38 2326.91,-192.36 2326.91,-192.86 2326.92,-193.36 2319.48,-193.38 2326.93,-197.36 2316.91,-192.89"/>
</g>
<!-- java.lang.classfile.instruction.TypeCheckInstruction -->
<g id="node31" class="node">
<title>java.lang.classfile.instruction.TypeCheckInstruction</title>
<g id="a_node31"><a xlink:href="../../../java/lang/classfile/instruction/TypeCheckInstruction.html" xlink:title="java.lang.classfile.instruction.TypeCheckInstruction">
<text text-anchor="middle" x="4584.28" y="-104.2" font-family="DejaVuSans" font-size="12.00" fill="#e76f00">TypeCheckInstruction</text>
</a>
</g>
</g>
<!-- java.lang.classfile.instruction.TypeCheckInstruction&#45;&gt;java.lang.classfile.Instruction -->
<g id="edge30" class="edge">
<title>java.lang.classfile.instruction.TypeCheckInstruction&#45;&gt;java.lang.classfile.Instruction</title>
<path fill="none" stroke="#999999" stroke-width="2" d="M4504.78,-126.75C4498.54,-127.78 4492.32,-128.68 4486.28,-129.4 4050.23,-181.06 2631.97,-191.15 2326.56,-192.74"/>
<polygon fill="#999999" stroke="#999999" stroke-width="2" points="2316.95,-192.79 2326.92,-188.24 2319.51,-192.27 2326.94,-192.24 2326.95,-192.74 2326.95,-193.24 2319.51,-193.27 2326.97,-197.24 2316.95,-192.79"/>
</g>
</g>
</svg>
