<?xml version="1.0" encoding="UTF-8" standalone="no"?>
<!DOCTYPE svg PUBLIC "-//W3C//DTD SVG 1.1//EN"
 "http://www.w3.org/Graphics/SVG/1.1/DTD/svg11.dtd">
<!-- Generated by graphviz version 9.0.0 (20230911.1827)
 -->
<!-- Title: G Pages: 1 -->
<svg width="3658pt" height="224pt"
 viewBox="0.00 0.00 3657.63 223.60" xmlns="http://www.w3.org/2000/svg" xmlns:xlink="http://www.w3.org/1999/xlink">
<g id="graph0" class="graph" transform="scale(1 1) rotate(0) translate(4 219.6)">
<title>G</title>
<polygon fill="white" stroke="none" points="-4,4 -4,-219.6 3653.63,-219.6 3653.63,4 -4,4"/>
<!-- java.lang.classfile.AccessFlags -->
<g id="node1" class="node">
<title>java.lang.classfile.AccessFlags</title>
<g id="a_node1"><a xlink:href="../../../java/lang/classfile/AccessFlags.html" xlink:title="java.lang.classfile.AccessFlags">
<text text-anchor="middle" x="50.78" y="-104.2" font-family="DejaVuSans" font-size="12.00" fill="#e76f00">AccessFlags</text>
</a>
</g>
</g>
<!-- java.lang.classfile.MethodElement -->
<g id="node2" class="node">
<title>java.lang.classfile.MethodElement</title>
<g id="a_node2"><a xlink:href="../../../java/lang/classfile/MethodElement.html" xlink:title="java.lang.classfile.MethodElement">
<text text-anchor="middle" x="1553.78" y="-190.4" font-family="DejaVuSans" font-size="12.00" fill="#e76f00">MethodElement</text>
</a>
</g>
</g>
<!-- java.lang.classfile.AccessFlags&#45;&gt;java.lang.classfile.MethodElement -->
<g id="edge1" class="edge">
<title>java.lang.classfile.AccessFlags&#45;&gt;java.lang.classfile.MethodElement</title>
<path fill="none" stroke="#999999" stroke-width="2" d="M101.31,-125.42C107.48,-127 113.73,-128.38 119.78,-129.4 385.44,-174.24 1225.34,-188.71 1479.92,-192.12"/>
<polygon fill="#999999" stroke="#999999" stroke-width="2" points="1489.87,-192.25 1479.81,-196.62 1487.3,-192.72 1479.86,-192.62 1479.87,-192.12 1479.88,-191.62 1487.31,-191.72 1479.93,-187.62 1489.87,-192.25"/>
</g>
<!-- java.lang.classfile.CodeModel -->
<g id="node3" class="node">
<title>java.lang.classfile.CodeModel</title>
<g id="a_node3"><a xlink:href="../../../java/lang/classfile/CodeModel.html" xlink:title="java.lang.classfile.CodeModel">
<text text-anchor="middle" x="185.78" y="-104.2" font-family="DejaVuSans" font-size="12.00" fill="#e76f00">CodeModel</text>
</a>
</g>
</g>
<!-- java.lang.classfile.CodeModel&#45;&gt;java.lang.classfile.MethodElement -->
<g id="edge2" class="edge">
<title>java.lang.classfile.CodeModel&#45;&gt;java.lang.classfile.MethodElement</title>
<path fill="none" stroke="#999999" stroke-width="2" d="M233.36,-125.21C239.5,-126.87 245.75,-128.33 251.78,-129.4 490.39,-171.75 1241.01,-187.76 1479.95,-191.85"/>
<polygon fill="#999999" stroke="#999999" stroke-width="2" points="1489.85,-192.02 1479.77,-196.35 1487.28,-192.48 1479.84,-192.35 1479.85,-191.85 1479.86,-191.35 1487.29,-191.48 1479.92,-187.35 1489.85,-192.02"/>
</g>
<!-- java.lang.classfile.attribute.CodeAttribute -->
<g id="node4" class="node">
<title>java.lang.classfile.attribute.CodeAttribute</title>
<g id="a_node4"><a xlink:href="../../../java/lang/classfile/attribute/CodeAttribute.html" xlink:title="java.lang.classfile.attribute.CodeAttribute">
<text text-anchor="middle" x="185.78" y="-18" font-family="DejaVuSans" font-size="12.00" fill="#e76f00">CodeAttribute</text>
</a>
</g>
</g>
<!-- java.lang.classfile.attribute.CodeAttribute&#45;&gt;java.lang.classfile.CodeModel -->
<g id="edge3" class="edge">
<title>java.lang.classfile.attribute.CodeAttribute&#45;&gt;java.lang.classfile.CodeModel</title>
<path fill="none" stroke="#999999" stroke-width="2" d="M185.78,-42.98C185.78,-52.32 185.78,-63.63 185.78,-74.12"/>
<polygon fill="#999999" stroke="#999999" stroke-width="2" points="185.78,-83.88 181.28,-73.88 185.28,-81.31 185.28,-73.88 185.78,-73.88 186.28,-73.88 186.28,-81.31 190.28,-73.88 185.78,-83.88"/>
</g>
<!-- java.lang.classfile.CustomAttribute -->
<g id="node5" class="node">
<title>java.lang.classfile.CustomAttribute</title>
<g id="a_node5"><a xlink:href="../../../java/lang/classfile/CustomAttribute.html" xlink:title="java.lang.classfile.CustomAttribute">
<text text-anchor="middle" x="333.78" y="-104.2" font-family="DejaVuSans" font-size="12.00" fill="#e76f00">CustomAttribute</text>
</a>
</g>
</g>
<!-- java.lang.classfile.CustomAttribute&#45;&gt;java.lang.classfile.MethodElement -->
<g id="edge4" class="edge">
<title>java.lang.classfile.CustomAttribute&#45;&gt;java.lang.classfile.MethodElement</title>
<path fill="none" stroke="#999999" stroke-width="2" d="M397.55,-126.07C403.68,-127.35 409.83,-128.49 415.78,-129.4 813.82,-189.96 1298.02,-194.43 1479.97,-193.71"/>
<polygon fill="#999999" stroke="#999999" stroke-width="2" points="1489.85,-193.67 1479.87,-198.22 1487.29,-194.18 1479.85,-194.22 1479.85,-193.72 1479.85,-193.22 1487.29,-193.18 1479.83,-189.22 1489.85,-193.67"/>
</g>
<!-- open node #0 -->
<g id="node6" class="node">
<title>open node #0</title>
<g id="a_node6"><a xlink:title="Non&#45;sealed Hierarchy">
<text text-anchor="start" x="312.69" y="-19" font-family="DejaVuSans" font-style="italic" font-size="12.00" fill="#e76f00">&lt;any&gt;</text>
</a>
</g>
</g>
<!-- open node #0&#45;&gt;java.lang.classfile.CustomAttribute -->
<g id="edge5" class="edge">
<title>open node #0&#45;&gt;java.lang.classfile.CustomAttribute</title>
<path fill="none" stroke="#999999" stroke-width="2" stroke-dasharray="5,2" d="M333.78,-42.98C333.78,-52.32 333.78,-63.63 333.78,-74.12"/>
<polygon fill="#999999" stroke="#999999" stroke-width="2" points="333.78,-83.88 329.28,-73.88 333.28,-81.31 333.28,-73.88 333.78,-73.88 334.28,-73.88 334.28,-81.31 338.28,-73.88 333.78,-83.88"/>
</g>
<!-- java.lang.classfile.attribute.AnnotationDefaultAttribute -->
<g id="node7" class="node">
<title>java.lang.classfile.attribute.AnnotationDefaultAttribute</title>
<g id="a_node7"><a xlink:href="../../../java/lang/classfile/attribute/AnnotationDefaultAttribute.html" xlink:title="java.lang.classfile.attribute.AnnotationDefaultAttribute">
<text text-anchor="middle" x="529.78" y="-104.2" font-family="DejaVuSans" font-size="12.00" fill="#e76f00">AnnotationDefaultAttribute</text>
</a>
</g>
</g>
<!-- java.lang.classfile.attribute.AnnotationDefaultAttribute&#45;&gt;java.lang.classfile.MethodElement -->
<g id="edge6" class="edge">
<title>java.lang.classfile.attribute.AnnotationDefaultAttribute&#45;&gt;java.lang.classfile.MethodElement</title>
<path fill="none" stroke="#999999" stroke-width="2" d="M625.45,-126.87C631.64,-127.8 637.79,-128.65 643.78,-129.4 953.04,-168.03 1324.58,-184.85 1479.9,-190.57"/>
<polygon fill="#999999" stroke="#999999" stroke-width="2" points="1489.6,-190.92 1479.44,-195.05 1487.02,-191.33 1479.59,-191.06 1479.6,-190.56 1479.62,-190.06 1487.05,-190.33 1479.77,-186.06 1489.6,-190.92"/>
</g>
<!-- java.lang.classfile.attribute.DeprecatedAttribute -->
<g id="node8" class="node">
<title>java.lang.classfile.attribute.DeprecatedAttribute</title>
<g id="a_node8"><a xlink:href="../../../java/lang/classfile/attribute/DeprecatedAttribute.html" xlink:title="java.lang.classfile.attribute.DeprecatedAttribute">
<text text-anchor="middle" x="737.78" y="-104.2" font-family="DejaVuSans" font-size="12.00" fill="#e76f00">DeprecatedAttribute</text>
</a>
</g>
</g>
<!-- java.lang.classfile.attribute.DeprecatedAttribute&#45;&gt;java.lang.classfile.MethodElement -->
<g id="edge7" class="edge">
<title>java.lang.classfile.attribute.DeprecatedAttribute&#45;&gt;java.lang.classfile.MethodElement</title>
<path fill="none" stroke="#999999" stroke-width="2" d="M813.81,-126.33C819.87,-127.46 825.91,-128.5 831.78,-129.4 1067.05,-165.39 1348.8,-182.92 1479.91,-189.62"/>
<polygon fill="#999999" stroke="#999999" stroke-width="2" points="1489.69,-190.11 1479.48,-194.1 1487.11,-190.48 1479.68,-190.11 1479.71,-189.61 1479.73,-189.11 1487.16,-189.48 1479.93,-185.11 1489.69,-190.11"/>
</g>
<!-- java.lang.classfile.attribute.ExceptionsAttribute -->
<g id="node9" class="node">
<title>java.lang.classfile.attribute.ExceptionsAttribute</title>
<g id="a_node9"><a xlink:href="../../../java/lang/classfile/attribute/ExceptionsAttribute.html" xlink:title="java.lang.classfile.attribute.ExceptionsAttribute">
<text text-anchor="middle" x="923.78" y="-104.2" font-family="DejaVuSans" font-size="12.00" fill="#e76f00">ExceptionsAttribute</text>
</a>
</g>
</g>
<!-- java.lang.classfile.attribute.ExceptionsAttribute&#45;&gt;java.lang.classfile.MethodElement -->
<g id="edge8" class="edge">
<title>java.lang.classfile.attribute.ExceptionsAttribute&#45;&gt;java.lang.classfile.MethodElement</title>
<path fill="none" stroke="#999999" stroke-width="2" d="M997.46,-126C1003.64,-127.23 1009.81,-128.38 1015.78,-129.4 1180.6,-157.52 1375.94,-177.25 1479.94,-186.69"/>
<polygon fill="#999999" stroke="#999999" stroke-width="2" points="1489.73,-187.57 1479.37,-191.16 1487.14,-187.84 1479.73,-187.17 1479.77,-186.68 1479.82,-186.18 1487.23,-186.84 1480.18,-182.19 1489.73,-187.57"/>
</g>
<!-- java.lang.classfile.attribute.MethodParametersAttribute -->
<g id="node10" class="node">
<title>java.lang.classfile.attribute.MethodParametersAttribute</title>
<g id="a_node10"><a xlink:href="../../../java/lang/classfile/attribute/MethodParametersAttribute.html" xlink:title="java.lang.classfile.attribute.MethodParametersAttribute">
<text text-anchor="middle" x="1131.78" y="-104.2" font-family="DejaVuSans" font-size="12.00" fill="#e76f00">MethodParametersAttribute</text>
</a>
</g>
</g>
<!-- java.lang.classfile.attribute.MethodParametersAttribute&#45;&gt;java.lang.classfile.MethodElement -->
<g id="edge9" class="edge">
<title>java.lang.classfile.attribute.MethodParametersAttribute&#45;&gt;java.lang.classfile.MethodElement</title>
<path fill="none" stroke="#999999" stroke-width="2" d="M1229.65,-128.33C1306.02,-143.57 1410.47,-164.41 1479.93,-178.27"/>
<polygon fill="#999999" stroke="#999999" stroke-width="2" points="1489.66,-180.21 1478.97,-182.66 1487.04,-180.2 1479.75,-178.74 1479.85,-178.25 1479.95,-177.76 1487.24,-179.21 1480.73,-173.84 1489.66,-180.21"/>
</g>
<!-- java.lang.classfile.attribute.RuntimeInvisibleAnnotationsAttribute -->
<g id="node11" class="node">
<title>java.lang.classfile.attribute.RuntimeInvisibleAnnotationsAttribute</title>
<g id="a_node11"><a xlink:href="../../../java/lang/classfile/attribute/RuntimeInvisibleAnnotationsAttribute.html" xlink:title="java.lang.classfile.attribute.RuntimeInvisibleAnnotationsAttribute">
<text text-anchor="middle" x="1392.78" y="-104.2" font-family="DejaVuSans" font-size="12.00" fill="#e76f00">RuntimeInvisibleAnnotationsAttribute</text>
</a>
</g>
</g>
<!-- java.lang.classfile.attribute.RuntimeInvisibleAnnotationsAttribute&#45;&gt;java.lang.classfile.MethodElement -->
<g id="edge10" class="edge">
<title>java.lang.classfile.attribute.RuntimeInvisibleAnnotationsAttribute&#45;&gt;java.lang.classfile.MethodElement</title>
<path fill="none" stroke="#999999" stroke-width="2" d="M1432.16,-129.4C1453.68,-140.65 1480.56,-154.71 1503.57,-166.74"/>
<polygon fill="#999999" stroke="#999999" stroke-width="2" points="1512.36,-171.34 1501.41,-170.69 1509.86,-170.6 1503.27,-167.15 1503.5,-166.71 1503.73,-166.26 1510.32,-169.71 1505.58,-162.72 1512.36,-171.34"/>
</g>
<!-- java.lang.classfile.attribute.RuntimeInvisibleParameterAnnotationsAttribute -->
<g id="node12" class="node">
<title>java.lang.classfile.attribute.RuntimeInvisibleParameterAnnotationsAttribute</title>
<g id="a_node12"><a xlink:href="../../../java/lang/classfile/attribute/RuntimeInvisibleParameterAnnotationsAttribute.html" xlink:title="java.lang.classfile.attribute.RuntimeInvisibleParameterAnnotationsAttribute">
<text text-anchor="middle" x="1714.78" y="-104.2" font-family="DejaVuSans" font-size="12.00" fill="#e76f00">RuntimeInvisibleParameterAnnotationsAttribute</text>
</a>
</g>
</g>
<!-- java.lang.classfile.attribute.RuntimeInvisibleParameterAnnotationsAttribute&#45;&gt;java.lang.classfile.MethodElement -->
<g id="edge11" class="edge">
<title>java.lang.classfile.attribute.RuntimeInvisibleParameterAnnotationsAttribute&#45;&gt;java.lang.classfile.MethodElement</title>
<path fill="none" stroke="#999999" stroke-width="2" d="M1675.39,-129.4C1653.87,-140.65 1626.99,-154.71 1603.98,-166.74"/>
<polygon fill="#999999" stroke="#999999" stroke-width="2" points="1595.19,-171.34 1601.97,-162.72 1597.23,-169.71 1603.82,-166.26 1604.05,-166.71 1604.28,-167.15 1597.69,-170.6 1606.14,-170.69 1595.19,-171.34"/>
</g>
<!-- java.lang.classfile.attribute.RuntimeInvisibleTypeAnnotationsAttribute -->
<g id="node13" class="node">
<title>java.lang.classfile.attribute.RuntimeInvisibleTypeAnnotationsAttribute</title>
<g id="a_node13"><a xlink:href="../../../java/lang/classfile/attribute/RuntimeInvisibleTypeAnnotationsAttribute.html" xlink:title="java.lang.classfile.attribute.RuntimeInvisibleTypeAnnotationsAttribute">
<text text-anchor="middle" x="2050.78" y="-104.2" font-family="DejaVuSans" font-size="12.00" fill="#e76f00">RuntimeInvisibleTypeAnnotationsAttribute</text>
</a>
</g>
</g>
<!-- java.lang.classfile.attribute.RuntimeInvisibleTypeAnnotationsAttribute&#45;&gt;java.lang.classfile.MethodElement -->
<g id="edge12" class="edge">
<title>java.lang.classfile.attribute.RuntimeInvisibleTypeAnnotationsAttribute&#45;&gt;java.lang.classfile.MethodElement</title>
<path fill="none" stroke="#999999" stroke-width="2" d="M1929.2,-129.4C1834.62,-145.42 1706.51,-167.12 1627.06,-180.58"/>
<polygon fill="#999999" stroke="#999999" stroke-width="2" points="1617.62,-182.18 1626.73,-176.08 1620.07,-181.26 1627.4,-180.02 1627.48,-180.51 1627.56,-181.01 1620.23,-182.25 1628.23,-184.95 1617.62,-182.18"/>
</g>
<!-- java.lang.classfile.attribute.RuntimeVisibleAnnotationsAttribute -->
<g id="node14" class="node">
<title>java.lang.classfile.attribute.RuntimeVisibleAnnotationsAttribute</title>
<g id="a_node14"><a xlink:href="../../../java/lang/classfile/attribute/RuntimeVisibleAnnotationsAttribute.html" xlink:title="java.lang.classfile.attribute.RuntimeVisibleAnnotationsAttribute">
<text text-anchor="middle" x="2350.78" y="-104.2" font-family="DejaVuSans" font-size="12.00" fill="#e76f00">RuntimeVisibleAnnotationsAttribute</text>
</a>
</g>
</g>
<!-- java.lang.classfile.attribute.RuntimeVisibleAnnotationsAttribute&#45;&gt;java.lang.classfile.MethodElement -->
<g id="edge13" class="edge">
<title>java.lang.classfile.attribute.RuntimeVisibleAnnotationsAttribute&#45;&gt;java.lang.classfile.MethodElement</title>
<path fill="none" stroke="#999999" stroke-width="2" d="M2229.03,-127.08C2222.86,-127.89 2216.75,-128.67 2210.78,-129.4 1999.62,-155.14 1749.25,-176.99 1627.56,-187.06"/>
<polygon fill="#999999" stroke="#999999" stroke-width="2" points="1617.91,-187.85 1627.51,-182.55 1620.42,-187.15 1627.83,-186.53 1627.87,-187.03 1627.92,-187.53 1620.5,-188.14 1628.24,-191.52 1617.91,-187.85"/>
</g>
<!-- java.lang.classfile.attribute.RuntimeVisibleParameterAnnotationsAttribute -->
<g id="node15" class="node">
<title>java.lang.classfile.attribute.RuntimeVisibleParameterAnnotationsAttribute</title>
<g id="a_node15"><a xlink:href="../../../java/lang/classfile/attribute/RuntimeVisibleParameterAnnotationsAttribute.html" xlink:title="java.lang.classfile.attribute.RuntimeVisibleParameterAnnotationsAttribute">
<text text-anchor="middle" x="2662.78" y="-104.2" font-family="DejaVuSans" font-size="12.00" fill="#e76f00">RuntimeVisibleParameterAnnotationsAttribute</text>
</a>
</g>
</g>
<!-- java.lang.classfile.attribute.RuntimeVisibleParameterAnnotationsAttribute&#45;&gt;java.lang.classfile.MethodElement -->
<g id="edge14" class="edge">
<title>java.lang.classfile.attribute.RuntimeVisibleParameterAnnotationsAttribute&#45;&gt;java.lang.classfile.MethodElement</title>
<path fill="none" stroke="#999999" stroke-width="2" d="M2509.49,-127.56C2503.17,-128.21 2496.91,-128.82 2490.78,-129.4 2169.92,-159.48 1785.98,-181.02 1627.62,-189.28"/>
<polygon fill="#999999" stroke="#999999" stroke-width="2" points="1617.69,-189.8 1627.44,-184.79 1620.22,-189.17 1627.65,-188.78 1627.68,-189.28 1627.7,-189.78 1620.28,-190.16 1627.91,-193.77 1617.69,-189.8"/>
</g>
<!-- java.lang.classfile.attribute.RuntimeVisibleTypeAnnotationsAttribute -->
<g id="node16" class="node">
<title>java.lang.classfile.attribute.RuntimeVisibleTypeAnnotationsAttribute</title>
<g id="a_node16"><a xlink:href="../../../java/lang/classfile/attribute/RuntimeVisibleTypeAnnotationsAttribute.html" xlink:title="java.lang.classfile.attribute.RuntimeVisibleTypeAnnotationsAttribute">
<text text-anchor="middle" x="2988.78" y="-104.2" font-family="DejaVuSans" font-size="12.00" fill="#e76f00">RuntimeVisibleTypeAnnotationsAttribute</text>
</a>
</g>
</g>
<!-- java.lang.classfile.attribute.RuntimeVisibleTypeAnnotationsAttribute&#45;&gt;java.lang.classfile.MethodElement -->
<g id="edge15" class="edge">
<title>java.lang.classfile.attribute.RuntimeVisibleTypeAnnotationsAttribute&#45;&gt;java.lang.classfile.MethodElement</title>
<path fill="none" stroke="#999999" stroke-width="2" d="M2851.97,-127.7C2846.17,-128.31 2840.42,-128.88 2834.78,-129.4 2376.72,-171.33 1823.82,-187 1627.38,-191.49"/>
<polygon fill="#999999" stroke="#999999" stroke-width="2" points="1617.67,-191.71 1627.57,-186.99 1620.22,-191.15 1627.66,-190.99 1627.67,-191.49 1627.68,-191.99 1620.24,-192.15 1627.77,-195.98 1617.67,-191.71"/>
</g>
<!-- java.lang.classfile.attribute.SignatureAttribute -->
<g id="node17" class="node">
<title>java.lang.classfile.attribute.SignatureAttribute</title>
<g id="a_node17"><a xlink:href="../../../java/lang/classfile/attribute/SignatureAttribute.html" xlink:title="java.lang.classfile.attribute.SignatureAttribute">
<text text-anchor="middle" x="3231.78" y="-104.2" font-family="DejaVuSans" font-size="12.00" fill="#e76f00">SignatureAttribute</text>
</a>
</g>
</g>
<!-- java.lang.classfile.attribute.SignatureAttribute&#45;&gt;java.lang.classfile.MethodElement -->
<g id="edge16" class="edge">
<title>java.lang.classfile.attribute.SignatureAttribute&#45;&gt;java.lang.classfile.MethodElement</title>
<path fill="none" stroke="#999999" stroke-width="2" d="M3161.87,-126.43C3155.78,-127.58 3149.68,-128.6 3143.78,-129.4 2844.85,-169.99 1898.78,-187.61 1627.28,-191.91"/>
<polygon fill="#999999" stroke="#999999" stroke-width="2" points="1617.68,-192.06 1627.61,-187.41 1620.23,-191.52 1627.67,-191.41 1627.68,-191.91 1627.68,-192.41 1620.25,-192.52 1627.75,-196.41 1617.68,-192.06"/>
</g>
<!-- java.lang.classfile.attribute.SyntheticAttribute -->
<g id="node18" class="node">
<title>java.lang.classfile.attribute.SyntheticAttribute</title>
<g id="a_node18"><a xlink:href="../../../java/lang/classfile/attribute/SyntheticAttribute.html" xlink:title="java.lang.classfile.attribute.SyntheticAttribute">
<text text-anchor="middle" x="3406.78" y="-104.2" font-family="DejaVuSans" font-size="12.00" fill="#e76f00">SyntheticAttribute</text>
</a>
</g>
</g>
<!-- java.lang.classfile.attribute.SyntheticAttribute&#45;&gt;java.lang.classfile.MethodElement -->
<g id="edge17" class="edge">
<title>java.lang.classfile.attribute.SyntheticAttribute&#45;&gt;java.lang.classfile.MethodElement</title>
<path fill="none" stroke="#999999" stroke-width="2" d="M3337.67,-126.46C3331.65,-127.6 3325.62,-128.61 3319.78,-129.4 2984.83,-174.64 1918.23,-189.12 1627.55,-192.27"/>
<polygon fill="#999999" stroke="#999999" stroke-width="2" points="1617.95,-192.38 1627.9,-187.77 1620.5,-191.85 1627.94,-191.77 1627.94,-192.27 1627.95,-192.77 1620.51,-192.85 1627.99,-196.77 1617.95,-192.38"/>
</g>
<!-- java.lang.classfile.attribute.UnknownAttribute -->
<g id="node19" class="node">
<title>java.lang.classfile.attribute.UnknownAttribute</title>
<g id="a_node19"><a xlink:href="../../../java/lang/classfile/attribute/UnknownAttribute.html" xlink:title="java.lang.classfile.attribute.UnknownAttribute">
<text text-anchor="middle" x="3580.78" y="-104.2" font-family="DejaVuSans" font-size="12.00" fill="#e76f00">UnknownAttribute</text>
</a>
</g>
</g>
<!-- java.lang.classfile.attribute.UnknownAttribute&#45;&gt;java.lang.classfile.MethodElement -->
<g id="edge18" class="edge">
<title>java.lang.classfile.attribute.UnknownAttribute&#45;&gt;java.lang.classfile.MethodElement</title>
<path fill="none" stroke="#999999" stroke-width="2" d="M3512.15,-126.39C3505.97,-127.56 3499.78,-128.6 3493.78,-129.4 3122.93,-178.88 1935.88,-190.37 1627.53,-192.55"/>
<polygon fill="#999999" stroke="#999999" stroke-width="2" points="1617.65,-192.62 1627.62,-188.05 1620.21,-192.1 1627.65,-192.05 1627.65,-192.55 1627.66,-193.05 1620.22,-193.1 1627.68,-197.05 1617.65,-192.62"/>
</g>
</g>
</svg>
