<?xml version="1.0" encoding="UTF-8" standalone="no"?>
<!DOCTYPE svg PUBLIC "-//W3C//DTD SVG 1.1//EN"
 "http://www.w3.org/Graphics/SVG/1.1/DTD/svg11.dtd">
<!-- Generated by graphviz version 9.0.0 (20230911.1827)
 -->
<!-- Title: G Pages: 1 -->
<svg width="889pt" height="137pt"
 viewBox="0.00 0.00 888.70 137.40" xmlns="http://www.w3.org/2000/svg" xmlns:xlink="http://www.w3.org/1999/xlink">
<g id="graph0" class="graph" transform="scale(1 1) rotate(0) translate(4 133.4)">
<title>G</title>
<polygon fill="white" stroke="none" points="-4,4 -4,-133.4 884.7,-133.4 884.7,4 -4,4"/>
<!-- java.lang.classfile.instruction.CharacterRange -->
<g id="node1" class="node">
<title>java.lang.classfile.instruction.CharacterRange</title>
<g id="a_node1"><a xlink:href="../../../java/lang/classfile/instruction/CharacterRange.html" xlink:title="java.lang.classfile.instruction.CharacterRange">
<text text-anchor="middle" x="63.17" y="-18" font-family="DejaVuSans" font-size="12.00" fill="#e76f00">CharacterRange</text>
</a>
</g>
</g>
<!-- java.lang.classfile.PseudoInstruction -->
<g id="node2" class="node">
<title>java.lang.classfile.PseudoInstruction</title>
<g id="a_node2"><a xlink:href="../../../java/lang/classfile/PseudoInstruction.html" xlink:title="java.lang.classfile.PseudoInstruction">
<text text-anchor="middle" x="440.17" y="-104.2" font-family="DejaVuSans" font-size="12.00" fill="#e76f00">PseudoInstruction</text>
</a>
</g>
</g>
<!-- java.lang.classfile.instruction.CharacterRange&#45;&gt;java.lang.classfile.PseudoInstruction -->
<g id="edge1" class="edge">
<title>java.lang.classfile.instruction.CharacterRange&#45;&gt;java.lang.classfile.PseudoInstruction</title>
<path fill="none" stroke="#999999" stroke-width="2" d="M126.24,-38.67C132.63,-40.23 139.02,-41.77 145.17,-43.2 217.72,-60.13 300.7,-77.88 360.13,-90.31"/>
<polygon fill="#999999" stroke="#999999" stroke-width="2" points="369.68,-92.3 358.97,-94.66 367.07,-92.27 359.79,-90.75 359.89,-90.26 359.99,-89.77 367.27,-91.29 360.81,-85.85 369.68,-92.3"/>
</g>
<!-- java.lang.classfile.instruction.ExceptionCatch -->
<g id="node3" class="node">
<title>java.lang.classfile.instruction.ExceptionCatch</title>
<g id="a_node3"><a xlink:href="../../../java/lang/classfile/instruction/ExceptionCatch.html" xlink:title="java.lang.classfile.instruction.ExceptionCatch">
<text text-anchor="middle" x="224.17" y="-18" font-family="DejaVuSans" font-size="12.00" fill="#e76f00">ExceptionCatch</text>
</a>
</g>
</g>
<!-- java.lang.classfile.instruction.ExceptionCatch&#45;&gt;java.lang.classfile.PseudoInstruction -->
<g id="edge2" class="edge">
<title>java.lang.classfile.instruction.ExceptionCatch&#45;&gt;java.lang.classfile.PseudoInstruction</title>
<path fill="none" stroke="#999999" stroke-width="2" d="M277.01,-43.2C306.93,-54.86 344.58,-69.54 376.16,-81.85"/>
<polygon fill="#999999" stroke="#999999" stroke-width="2" points="385.23,-85.38 374.28,-85.94 382.66,-84.92 375.73,-82.22 375.91,-81.75 376.1,-81.29 383.03,-83.99 377.55,-77.56 385.23,-85.38"/>
</g>
<!-- java.lang.classfile.instruction.LabelTarget -->
<g id="node4" class="node">
<title>java.lang.classfile.instruction.LabelTarget</title>
<g id="a_node4"><a xlink:href="../../../java/lang/classfile/instruction/LabelTarget.html" xlink:title="java.lang.classfile.instruction.LabelTarget">
<text text-anchor="middle" x="372.17" y="-18" font-family="DejaVuSans" font-size="12.00" fill="#e76f00">LabelTarget</text>
</a>
</g>
</g>
<!-- java.lang.classfile.instruction.LabelTarget&#45;&gt;java.lang.classfile.PseudoInstruction -->
<g id="edge3" class="edge">
<title>java.lang.classfile.instruction.LabelTarget&#45;&gt;java.lang.classfile.PseudoInstruction</title>
<path fill="none" stroke="#999999" stroke-width="2" d="M388.63,-42.98C396.84,-53.15 406.93,-65.64 415.99,-76.86"/>
<polygon fill="#999999" stroke="#999999" stroke-width="2" points="422.09,-84.42 412.31,-79.47 420.1,-82.74 415.42,-76.95 415.81,-76.64 416.2,-76.32 420.87,-82.11 419.31,-73.81 422.09,-84.42"/>
</g>
<!-- java.lang.classfile.instruction.LineNumber -->
<g id="node5" class="node">
<title>java.lang.classfile.instruction.LineNumber</title>
<g id="a_node5"><a xlink:href="../../../java/lang/classfile/instruction/LineNumber.html" xlink:title="java.lang.classfile.instruction.LineNumber">
<text text-anchor="middle" x="509.17" y="-18" font-family="DejaVuSans" font-size="12.00" fill="#e76f00">LineNumber</text>
</a>
</g>
</g>
<!-- java.lang.classfile.instruction.LineNumber&#45;&gt;java.lang.classfile.PseudoInstruction -->
<g id="edge4" class="edge">
<title>java.lang.classfile.instruction.LineNumber&#45;&gt;java.lang.classfile.PseudoInstruction</title>
<path fill="none" stroke="#999999" stroke-width="2" d="M492.47,-42.98C484.14,-53.15 473.9,-65.64 464.7,-76.86"/>
<polygon fill="#999999" stroke="#999999" stroke-width="2" points="458.5,-84.43 461.36,-73.84 459.74,-82.13 464.46,-76.38 464.84,-76.69 465.23,-77.01 460.51,-82.76 468.32,-79.55 458.5,-84.43"/>
</g>
<!-- java.lang.classfile.instruction.LocalVariable -->
<g id="node6" class="node">
<title>java.lang.classfile.instruction.LocalVariable</title>
<g id="a_node6"><a xlink:href="../../../java/lang/classfile/instruction/LocalVariable.html" xlink:title="java.lang.classfile.instruction.LocalVariable">
<text text-anchor="middle" x="651.17" y="-18" font-family="DejaVuSans" font-size="12.00" fill="#e76f00">LocalVariable</text>
</a>
</g>
</g>
<!-- java.lang.classfile.instruction.LocalVariable&#45;&gt;java.lang.classfile.PseudoInstruction -->
<g id="edge5" class="edge">
<title>java.lang.classfile.instruction.LocalVariable&#45;&gt;java.lang.classfile.PseudoInstruction</title>
<path fill="none" stroke="#999999" stroke-width="2" d="M599.55,-43.2C570.45,-54.81 533.87,-69.41 503.1,-81.69"/>
<polygon fill="#999999" stroke="#999999" stroke-width="2" points="493.88,-85.37 501.5,-77.48 496.08,-83.95 502.99,-81.2 503.17,-81.66 503.36,-82.12 496.45,-84.88 504.84,-85.84 493.88,-85.37"/>
</g>
<!-- java.lang.classfile.instruction.LocalVariableType -->
<g id="node7" class="node">
<title>java.lang.classfile.instruction.LocalVariableType</title>
<g id="a_node7"><a xlink:href="../../../java/lang/classfile/instruction/LocalVariableType.html" xlink:title="java.lang.classfile.instruction.LocalVariableType">
<text text-anchor="middle" x="811.17" y="-18" font-family="DejaVuSans" font-size="12.00" fill="#e76f00">LocalVariableType</text>
</a>
</g>
</g>
<!-- java.lang.classfile.instruction.LocalVariableType&#45;&gt;java.lang.classfile.PseudoInstruction -->
<g id="edge6" class="edge">
<title>java.lang.classfile.instruction.LocalVariableType&#45;&gt;java.lang.classfile.PseudoInstruction</title>
<path fill="none" stroke="#999999" stroke-width="2" d="M741.86,-39.09C735.88,-40.49 729.92,-41.88 724.17,-43.2 655.33,-59.06 576.98,-76.56 520.04,-89.19"/>
<polygon fill="#999999" stroke="#999999" stroke-width="2" points="510.6,-91.28 519.39,-84.72 513,-90.23 520.26,-88.63 520.36,-89.11 520.47,-89.6 513.21,-91.21 521.34,-93.51 510.6,-91.28"/>
</g>
</g>
</svg>
