<?xml version="1.0" encoding="UTF-8" standalone="no"?>
<!DOCTYPE svg PUBLIC "-//W3C//DTD SVG 1.1//EN"
 "http://www.w3.org/Graphics/SVG/1.1/DTD/svg11.dtd">
<!-- Generated by graphviz version 9.0.0 (20230911.1827)
 -->
<!-- Title: G Pages: 1 -->
<svg width="396pt" height="224pt"
 viewBox="0.00 0.00 395.71 223.60" xmlns="http://www.w3.org/2000/svg" xmlns:xlink="http://www.w3.org/1999/xlink">
<g id="graph0" class="graph" transform="scale(1 1) rotate(0) translate(4 219.6)">
<title>G</title>
<polygon fill="white" stroke="none" points="-4,4 -4,-219.6 391.71,-219.6 391.71,4 -4,4"/>
<!-- java.lang.classfile.Signature.BaseTypeSig -->
<g id="node1" class="node">
<title>java.lang.classfile.Signature.BaseTypeSig</title>
<g id="a_node1"><a xlink:href="../../../java/lang/classfile/Signature.BaseTypeSig.html" xlink:title="java.lang.classfile.Signature.BaseTypeSig">
<text text-anchor="middle" x="56.67" y="-104.2" font-family="DejaVuSans" font-size="12.00" fill="#e76f00">BaseTypeSig</text>
</a>
</g>
</g>
<!-- java.lang.classfile.Signature -->
<g id="node2" class="node">
<title>java.lang.classfile.Signature</title>
<g id="a_node2"><a xlink:href="../../../java/lang/classfile/Signature.html" xlink:title="java.lang.classfile.Signature">
<text text-anchor="middle" x="193.67" y="-190.4" font-family="DejaVuSans" font-size="12.00" fill="#e76f00">Signature</text>
</a>
</g>
</g>
<!-- java.lang.classfile.Signature.BaseTypeSig&#45;&gt;java.lang.classfile.Signature -->
<g id="edge1" class="edge">
<title>java.lang.classfile.Signature.BaseTypeSig&#45;&gt;java.lang.classfile.Signature</title>
<path fill="none" stroke="#999999" stroke-width="2" d="M90.18,-129.4C108.23,-140.49 130.7,-154.3 150.09,-166.22"/>
<polygon fill="#999999" stroke="#999999" stroke-width="2" points="158.42,-171.34 147.55,-169.94 155.98,-170.42 149.64,-166.53 149.9,-166.1 150.16,-165.68 156.5,-169.57 152.26,-162.27 158.42,-171.34"/>
</g>
<!-- java.lang.classfile.Signature.RefTypeSig -->
<g id="node3" class="node">
<title>java.lang.classfile.Signature.RefTypeSig</title>
<g id="a_node3"><a xlink:href="../../../java/lang/classfile/Signature.RefTypeSig.html" xlink:title="java.lang.classfile.Signature.RefTypeSig">
<text text-anchor="middle" x="193.67" y="-104.2" font-family="DejaVuSans" font-size="12.00" fill="#e76f00">RefTypeSig</text>
</a>
</g>
</g>
<!-- java.lang.classfile.Signature.RefTypeSig&#45;&gt;java.lang.classfile.Signature -->
<g id="edge2" class="edge">
<title>java.lang.classfile.Signature.RefTypeSig&#45;&gt;java.lang.classfile.Signature</title>
<path fill="none" stroke="#999999" stroke-width="2" d="M193.67,-129.18C193.67,-138.52 193.67,-149.83 193.67,-160.32"/>
<polygon fill="#999999" stroke="#999999" stroke-width="2" points="193.67,-170.08 189.17,-160.08 193.17,-167.51 193.17,-160.08 193.67,-160.08 194.17,-160.08 194.17,-167.51 198.17,-160.08 193.67,-170.08"/>
</g>
<!-- java.lang.classfile.Signature.ArrayTypeSig -->
<g id="node4" class="node">
<title>java.lang.classfile.Signature.ArrayTypeSig</title>
<g id="a_node4"><a xlink:href="../../../java/lang/classfile/Signature.ArrayTypeSig.html" xlink:title="java.lang.classfile.Signature.ArrayTypeSig">
<text text-anchor="middle" x="54.67" y="-18" font-family="DejaVuSans" font-size="12.00" fill="#e76f00">ArrayTypeSig</text>
</a>
</g>
</g>
<!-- java.lang.classfile.Signature.ArrayTypeSig&#45;&gt;java.lang.classfile.Signature.RefTypeSig -->
<g id="edge3" class="edge">
<title>java.lang.classfile.Signature.ArrayTypeSig&#45;&gt;java.lang.classfile.Signature.RefTypeSig</title>
<path fill="none" stroke="#999999" stroke-width="2" d="M88.67,-43.2C106.98,-54.29 129.78,-68.1 149.45,-80.02"/>
<polygon fill="#999999" stroke="#999999" stroke-width="2" points="157.93,-85.15 147.04,-83.82 155.48,-84.25 149.12,-80.4 149.38,-79.97 149.64,-79.54 156,-83.4 151.71,-76.12 157.93,-85.15"/>
</g>
<!-- java.lang.classfile.Signature.ClassTypeSig -->
<g id="node5" class="node">
<title>java.lang.classfile.Signature.ClassTypeSig</title>
<g id="a_node5"><a xlink:href="../../../java/lang/classfile/Signature.ClassTypeSig.html" xlink:title="java.lang.classfile.Signature.ClassTypeSig">
<text text-anchor="middle" x="332.67" y="-18" font-family="DejaVuSans" font-size="12.00" fill="#e76f00">ClassTypeSig</text>
</a>
</g>
</g>
<!-- java.lang.classfile.Signature.ClassTypeSig&#45;&gt;java.lang.classfile.Signature.RefTypeSig -->
<g id="edge4" class="edge">
<title>java.lang.classfile.Signature.ClassTypeSig&#45;&gt;java.lang.classfile.Signature.RefTypeSig</title>
<path fill="none" stroke="#999999" stroke-width="2" d="M298.66,-43.2C280.35,-54.29 257.55,-68.1 237.88,-80.02"/>
<polygon fill="#999999" stroke="#999999" stroke-width="2" points="229.4,-85.15 235.62,-76.12 231.34,-83.4 237.7,-79.54 237.96,-79.97 238.21,-80.4 231.85,-84.25 240.29,-83.82 229.4,-85.15"/>
</g>
<!-- java.lang.classfile.Signature.ThrowableSig -->
<g id="node7" class="node">
<title>java.lang.classfile.Signature.ThrowableSig</title>
<g id="a_node7"><a xlink:href="../../../java/lang/classfile/Signature.ThrowableSig.html" xlink:title="java.lang.classfile.Signature.ThrowableSig">
<text text-anchor="middle" x="332.67" y="-104.2" font-family="DejaVuSans" font-size="12.00" fill="#e76f00">ThrowableSig</text>
</a>
</g>
</g>
<!-- java.lang.classfile.Signature.ClassTypeSig&#45;&gt;java.lang.classfile.Signature.ThrowableSig -->
<g id="edge7" class="edge">
<title>java.lang.classfile.Signature.ClassTypeSig&#45;&gt;java.lang.classfile.Signature.ThrowableSig</title>
<path fill="none" stroke="#999999" stroke-width="2" d="M332.67,-42.98C332.67,-52.32 332.67,-63.63 332.67,-74.12"/>
<polygon fill="#999999" stroke="#999999" stroke-width="2" points="332.67,-83.88 328.17,-73.88 332.17,-81.31 332.17,-73.88 332.67,-73.88 333.17,-73.88 333.17,-81.31 337.17,-73.88 332.67,-83.88"/>
</g>
<!-- java.lang.classfile.Signature.TypeVarSig -->
<g id="node6" class="node">
<title>java.lang.classfile.Signature.TypeVarSig</title>
<g id="a_node6"><a xlink:href="../../../java/lang/classfile/Signature.TypeVarSig.html" xlink:title="java.lang.classfile.Signature.TypeVarSig">
<text text-anchor="middle" x="193.67" y="-18" font-family="DejaVuSans" font-size="12.00" fill="#e76f00">TypeVarSig</text>
</a>
</g>
</g>
<!-- java.lang.classfile.Signature.TypeVarSig&#45;&gt;java.lang.classfile.Signature.RefTypeSig -->
<g id="edge5" class="edge">
<title>java.lang.classfile.Signature.TypeVarSig&#45;&gt;java.lang.classfile.Signature.RefTypeSig</title>
<path fill="none" stroke="#999999" stroke-width="2" d="M193.67,-42.98C193.67,-52.32 193.67,-63.63 193.67,-74.12"/>
<polygon fill="#999999" stroke="#999999" stroke-width="2" points="193.67,-83.88 189.17,-73.88 193.17,-81.31 193.17,-73.88 193.67,-73.88 194.17,-73.88 194.17,-81.31 198.17,-73.88 193.67,-83.88"/>
</g>
<!-- java.lang.classfile.Signature.TypeVarSig&#45;&gt;java.lang.classfile.Signature.ThrowableSig -->
<g id="edge8" class="edge">
<title>java.lang.classfile.Signature.TypeVarSig&#45;&gt;java.lang.classfile.Signature.ThrowableSig</title>
<path fill="none" stroke="#999999" stroke-width="2" d="M227.67,-43.2C245.98,-54.29 268.78,-68.1 288.45,-80.02"/>
<polygon fill="#999999" stroke="#999999" stroke-width="2" points="296.93,-85.15 286.04,-83.82 294.48,-84.25 288.12,-80.4 288.38,-79.97 288.64,-79.54 295,-83.4 290.71,-76.12 296.93,-85.15"/>
</g>
<!-- java.lang.classfile.Signature.ThrowableSig&#45;&gt;java.lang.classfile.Signature -->
<g id="edge6" class="edge">
<title>java.lang.classfile.Signature.ThrowableSig&#45;&gt;java.lang.classfile.Signature</title>
<path fill="none" stroke="#999999" stroke-width="2" d="M298.66,-129.4C280.35,-140.49 257.55,-154.3 237.88,-166.22"/>
<polygon fill="#999999" stroke="#999999" stroke-width="2" points="229.4,-171.35 235.62,-162.32 231.34,-169.6 237.7,-165.74 237.96,-166.17 238.21,-166.6 231.85,-170.45 240.29,-170.02 229.4,-171.35"/>
</g>
</g>
</svg>
