<?xml version="1.0" encoding="UTF-8" standalone="no"?>
<!DOCTYPE svg PUBLIC "-//W3C//DTD SVG 1.1//EN"
 "http://www.w3.org/Graphics/SVG/1.1/DTD/svg11.dtd">
<!-- Generated by graphviz version 9.0.0 (20230911.1827)
 -->
<!-- Title: G Pages: 1 -->
<svg width="1743pt" height="224pt"
 viewBox="0.00 0.00 1743.48 223.60" xmlns="http://www.w3.org/2000/svg" xmlns:xlink="http://www.w3.org/1999/xlink">
<g id="graph0" class="graph" transform="scale(1 1) rotate(0) translate(4 219.6)">
<title>G</title>
<polygon fill="white" stroke="none" points="-4,4 -4,-219.6 1739.48,-219.6 1739.48,4 -4,4"/>
<!-- java.awt.desktop.AboutEvent -->
<g id="node1" class="node">
<title>java.awt.desktop.AboutEvent</title>
<g id="a_node1"><a xlink:href="../../../java/awt/desktop/AboutEvent.html" xlink:title="java.awt.desktop.AboutEvent">
<text text-anchor="middle" x="49.33" y="-104.2" font-family="DejaVuSans" font-size="12.00" fill="#e76f00">AboutEvent</text>
</a>
</g>
</g>
<!-- java.awt.desktop.AppEvent -->
<g id="node2" class="node">
<title>java.awt.desktop.AppEvent</title>
<g id="a_node2"><a xlink:href="../../../java/awt/desktop/AppEvent.html" xlink:title="java.awt.desktop.AppEvent">
<text text-anchor="middle" x="859.33" y="-190.4" font-family="DejaVuSans" font-size="12.00" fill="#e76f00">AppEvent</text>
</a>
</g>
</g>
<!-- java.awt.desktop.AboutEvent&#45;&gt;java.awt.desktop.AppEvent -->
<g id="edge1" class="edge">
<title>java.awt.desktop.AboutEvent&#45;&gt;java.awt.desktop.AppEvent</title>
<path fill="none" stroke="#999999" stroke-width="2" d="M98.42,-125.19C104.41,-126.81 110.47,-128.26 116.33,-129.4 370.05,-178.68 679.92,-189.78 804.05,-192.28"/>
<polygon fill="#999999" stroke="#999999" stroke-width="2" points="813.73,-192.46 803.65,-196.77 811.16,-192.91 803.73,-192.77 803.73,-192.27 803.74,-191.77 811.18,-191.91 803.82,-187.77 813.73,-192.46"/>
</g>
<!-- java.awt.desktop.AppForegroundEvent -->
<g id="node3" class="node">
<title>java.awt.desktop.AppForegroundEvent</title>
<g id="a_node3"><a xlink:href="../../../java/awt/desktop/AppForegroundEvent.html" xlink:title="java.awt.desktop.AppForegroundEvent">
<text text-anchor="middle" x="212.33" y="-104.2" font-family="DejaVuSans" font-size="12.00" fill="#e76f00">AppForegroundEvent</text>
</a>
</g>
</g>
<!-- java.awt.desktop.AppForegroundEvent&#45;&gt;java.awt.desktop.AppEvent -->
<g id="edge2" class="edge">
<title>java.awt.desktop.AppForegroundEvent&#45;&gt;java.awt.desktop.AppEvent</title>
<path fill="none" stroke="#999999" stroke-width="2" d="M290.27,-126.18C296.37,-127.34 302.44,-128.43 308.33,-129.4 488.74,-159.1 704.65,-179.73 804.15,-188.41"/>
<polygon fill="#999999" stroke="#999999" stroke-width="2" points="813.84,-189.24 803.49,-192.87 811.24,-189.52 803.83,-188.88 803.87,-188.38 803.92,-187.88 811.33,-188.53 804.26,-183.9 813.84,-189.24"/>
</g>
<!-- java.awt.desktop.AppHiddenEvent -->
<g id="node4" class="node">
<title>java.awt.desktop.AppHiddenEvent</title>
<g id="a_node4"><a xlink:href="../../../java/awt/desktop/AppHiddenEvent.html" xlink:title="java.awt.desktop.AppHiddenEvent">
<text text-anchor="middle" x="391.33" y="-104.2" font-family="DejaVuSans" font-size="12.00" fill="#e76f00">AppHiddenEvent</text>
</a>
</g>
</g>
<!-- java.awt.desktop.AppHiddenEvent&#45;&gt;java.awt.desktop.AppEvent -->
<g id="edge3" class="edge">
<title>java.awt.desktop.AppHiddenEvent&#45;&gt;java.awt.desktop.AppEvent</title>
<path fill="none" stroke="#999999" stroke-width="2" d="M455.67,-125.5C461.62,-126.88 467.58,-128.21 473.33,-129.4 590.49,-153.73 729.22,-174.69 804.34,-185.4"/>
<polygon fill="#999999" stroke="#999999" stroke-width="2" points="813.86,-186.75 803.33,-189.81 811.25,-186.89 803.89,-185.84 803.96,-185.35 804.03,-184.85 811.39,-185.9 804.59,-180.89 813.86,-186.75"/>
</g>
<!-- java.awt.desktop.AppReopenedEvent -->
<g id="node5" class="node">
<title>java.awt.desktop.AppReopenedEvent</title>
<g id="a_node5"><a xlink:href="../../../java/awt/desktop/AppReopenedEvent.html" xlink:title="java.awt.desktop.AppReopenedEvent">
<text text-anchor="middle" x="565.33" y="-104.2" font-family="DejaVuSans" font-size="12.00" fill="#e76f00">AppReopenedEvent</text>
</a>
</g>
</g>
<!-- java.awt.desktop.AppReopenedEvent&#45;&gt;java.awt.desktop.AppEvent -->
<g id="edge4" class="edge">
<title>java.awt.desktop.AppReopenedEvent&#45;&gt;java.awt.desktop.AppEvent</title>
<path fill="none" stroke="#999999" stroke-width="2" d="M637.25,-129.4C688.85,-144.18 757.34,-163.79 804.54,-177.31"/>
<polygon fill="#999999" stroke="#999999" stroke-width="2" points="814.02,-180.02 803.16,-181.6 811.41,-179.8 804.26,-177.75 804.4,-177.27 804.54,-176.79 811.69,-178.84 805.64,-172.94 814.02,-180.02"/>
</g>
<!-- java.awt.desktop.FilesEvent -->
<g id="node6" class="node">
<title>java.awt.desktop.FilesEvent</title>
<g id="a_node6"><a xlink:href="../../../java/awt/desktop/FilesEvent.html" xlink:title="java.awt.desktop.FilesEvent">
<text text-anchor="middle" x="720.33" y="-104.2" font-family="DejaVuSans" font-size="12.00" fill="#e76f00">FilesEvent</text>
</a>
</g>
</g>
<!-- java.awt.desktop.FilesEvent&#45;&gt;java.awt.desktop.AppEvent -->
<g id="edge5" class="edge">
<title>java.awt.desktop.FilesEvent&#45;&gt;java.awt.desktop.AppEvent</title>
<path fill="none" stroke="#999999" stroke-width="2" d="M754.33,-129.4C772.64,-140.49 795.44,-154.3 815.12,-166.22"/>
<polygon fill="#999999" stroke="#999999" stroke-width="2" points="823.59,-171.35 812.71,-170.02 821.14,-170.45 814.78,-166.6 815.04,-166.17 815.3,-165.74 821.66,-169.6 817.37,-162.32 823.59,-171.35"/>
</g>
<!-- java.awt.desktop.OpenFilesEvent -->
<g id="node7" class="node">
<title>java.awt.desktop.OpenFilesEvent</title>
<g id="a_node7"><a xlink:href="../../../java/awt/desktop/OpenFilesEvent.html" xlink:title="java.awt.desktop.OpenFilesEvent">
<text text-anchor="middle" x="642.33" y="-18" font-family="DejaVuSans" font-size="12.00" fill="#e76f00">OpenFilesEvent</text>
</a>
</g>
</g>
<!-- java.awt.desktop.OpenFilesEvent&#45;&gt;java.awt.desktop.FilesEvent -->
<g id="edge6" class="edge">
<title>java.awt.desktop.OpenFilesEvent&#45;&gt;java.awt.desktop.FilesEvent</title>
<path fill="none" stroke="#999999" stroke-width="2" d="M661.21,-42.98C670.72,-53.25 682.43,-65.89 692.91,-77.2"/>
<polygon fill="#999999" stroke="#999999" stroke-width="2" points="699.69,-84.53 689.6,-80.25 697.58,-82.99 692.53,-77.53 692.9,-77.19 693.26,-76.85 698.32,-82.31 696.2,-74.13 699.69,-84.53"/>
</g>
<!-- java.awt.desktop.PrintFilesEvent -->
<g id="node8" class="node">
<title>java.awt.desktop.PrintFilesEvent</title>
<g id="a_node8"><a xlink:href="../../../java/awt/desktop/PrintFilesEvent.html" xlink:title="java.awt.desktop.PrintFilesEvent">
<text text-anchor="middle" x="798.33" y="-18" font-family="DejaVuSans" font-size="12.00" fill="#e76f00">PrintFilesEvent</text>
</a>
</g>
</g>
<!-- java.awt.desktop.PrintFilesEvent&#45;&gt;java.awt.desktop.FilesEvent -->
<g id="edge7" class="edge">
<title>java.awt.desktop.PrintFilesEvent&#45;&gt;java.awt.desktop.FilesEvent</title>
<path fill="none" stroke="#999999" stroke-width="2" d="M779.45,-42.98C769.94,-53.25 758.23,-65.89 747.75,-77.2"/>
<polygon fill="#999999" stroke="#999999" stroke-width="2" points="740.96,-84.53 744.46,-74.13 742.34,-82.31 747.39,-76.85 747.76,-77.19 748.12,-77.53 743.07,-82.99 751.06,-80.25 740.96,-84.53"/>
</g>
<!-- java.awt.desktop.OpenURIEvent -->
<g id="node9" class="node">
<title>java.awt.desktop.OpenURIEvent</title>
<g id="a_node9"><a xlink:href="../../../java/awt/desktop/OpenURIEvent.html" xlink:title="java.awt.desktop.OpenURIEvent">
<text text-anchor="middle" x="859.33" y="-104.2" font-family="DejaVuSans" font-size="12.00" fill="#e76f00">OpenURIEvent</text>
</a>
</g>
</g>
<!-- java.awt.desktop.OpenURIEvent&#45;&gt;java.awt.desktop.AppEvent -->
<g id="edge8" class="edge">
<title>java.awt.desktop.OpenURIEvent&#45;&gt;java.awt.desktop.AppEvent</title>
<path fill="none" stroke="#999999" stroke-width="2" d="M859.33,-129.18C859.33,-138.52 859.33,-149.83 859.33,-160.32"/>
<polygon fill="#999999" stroke="#999999" stroke-width="2" points="859.33,-170.08 854.83,-160.08 858.83,-167.51 858.83,-160.08 859.33,-160.08 859.83,-160.08 859.83,-167.51 863.83,-160.08 859.33,-170.08"/>
</g>
<!-- java.awt.desktop.PreferencesEvent -->
<g id="node10" class="node">
<title>java.awt.desktop.PreferencesEvent</title>
<g id="a_node10"><a xlink:href="../../../java/awt/desktop/PreferencesEvent.html" xlink:title="java.awt.desktop.PreferencesEvent">
<text text-anchor="middle" x="1020.33" y="-104.2" font-family="DejaVuSans" font-size="12.00" fill="#e76f00">PreferencesEvent</text>
</a>
</g>
</g>
<!-- java.awt.desktop.PreferencesEvent&#45;&gt;java.awt.desktop.AppEvent -->
<g id="edge9" class="edge">
<title>java.awt.desktop.PreferencesEvent&#45;&gt;java.awt.desktop.AppEvent</title>
<path fill="none" stroke="#999999" stroke-width="2" d="M980.94,-129.4C959.42,-140.65 932.54,-154.71 909.53,-166.74"/>
<polygon fill="#999999" stroke="#999999" stroke-width="2" points="900.74,-171.34 907.52,-162.72 902.78,-169.71 909.37,-166.26 909.61,-166.71 909.84,-167.15 903.25,-170.6 911.69,-170.69 900.74,-171.34"/>
</g>
<!-- java.awt.desktop.QuitEvent -->
<g id="node11" class="node">
<title>java.awt.desktop.QuitEvent</title>
<g id="a_node11"><a xlink:href="../../../java/awt/desktop/QuitEvent.html" xlink:title="java.awt.desktop.QuitEvent">
<text text-anchor="middle" x="1167.33" y="-104.2" font-family="DejaVuSans" font-size="12.00" fill="#e76f00">QuitEvent</text>
</a>
</g>
</g>
<!-- java.awt.desktop.QuitEvent&#45;&gt;java.awt.desktop.AppEvent -->
<g id="edge10" class="edge">
<title>java.awt.desktop.QuitEvent&#45;&gt;java.awt.desktop.AppEvent</title>
<path fill="none" stroke="#999999" stroke-width="2" d="M1123.41,-123.8C1117.36,-125.75 1111.2,-127.67 1105.33,-129.4 1040.05,-148.66 964.11,-167.8 914.06,-179.98"/>
<polygon fill="#999999" stroke="#999999" stroke-width="2" points="904.6,-182.27 913.26,-175.54 906.97,-181.18 914.2,-179.43 914.32,-179.91 914.44,-180.4 907.21,-182.15 915.38,-184.29 904.6,-182.27"/>
</g>
<!-- java.awt.desktop.ScreenSleepEvent -->
<g id="node12" class="node">
<title>java.awt.desktop.ScreenSleepEvent</title>
<g id="a_node12"><a xlink:href="../../../java/awt/desktop/ScreenSleepEvent.html" xlink:title="java.awt.desktop.ScreenSleepEvent">
<text text-anchor="middle" x="1316.33" y="-104.2" font-family="DejaVuSans" font-size="12.00" fill="#e76f00">ScreenSleepEvent</text>
</a>
</g>
</g>
<!-- java.awt.desktop.ScreenSleepEvent&#45;&gt;java.awt.desktop.AppEvent -->
<g id="edge11" class="edge">
<title>java.awt.desktop.ScreenSleepEvent&#45;&gt;java.awt.desktop.AppEvent</title>
<path fill="none" stroke="#999999" stroke-width="2" d="M1247.56,-125.5C1241.4,-126.87 1235.26,-128.19 1229.33,-129.4 1118.1,-152.11 986.95,-173.36 914.47,-184.62"/>
<polygon fill="#999999" stroke="#999999" stroke-width="2" points="904.91,-186.1 914.1,-180.12 907.37,-185.21 914.72,-184.08 914.79,-184.57 914.87,-185.06 907.52,-186.2 915.48,-189.02 904.91,-186.1"/>
</g>
<!-- java.awt.desktop.SystemSleepEvent -->
<g id="node13" class="node">
<title>java.awt.desktop.SystemSleepEvent</title>
<g id="a_node13"><a xlink:href="../../../java/awt/desktop/SystemSleepEvent.html" xlink:title="java.awt.desktop.SystemSleepEvent">
<text text-anchor="middle" x="1492.33" y="-104.2" font-family="DejaVuSans" font-size="12.00" fill="#e76f00">SystemSleepEvent</text>
</a>
</g>
</g>
<!-- java.awt.desktop.SystemSleepEvent&#45;&gt;java.awt.desktop.AppEvent -->
<g id="edge12" class="edge">
<title>java.awt.desktop.SystemSleepEvent&#45;&gt;java.awt.desktop.AppEvent</title>
<path fill="none" stroke="#999999" stroke-width="2" d="M1422.03,-125.83C1415.72,-127.13 1409.42,-128.34 1403.33,-129.4 1226.07,-160.18 1013.67,-180.2 914.9,-188.56"/>
<polygon fill="#999999" stroke="#999999" stroke-width="2" points="905.01,-189.38 914.6,-184.07 907.52,-188.67 914.93,-188.05 914.97,-188.55 915.02,-189.05 907.6,-189.67 915.35,-193.03 905.01,-189.38"/>
</g>
<!-- java.awt.desktop.UserSessionEvent -->
<g id="node14" class="node">
<title>java.awt.desktop.UserSessionEvent</title>
<g id="a_node14"><a xlink:href="../../../java/awt/desktop/UserSessionEvent.html" xlink:title="java.awt.desktop.UserSessionEvent">
<text text-anchor="middle" x="1667.33" y="-104.2" font-family="DejaVuSans" font-size="12.00" fill="#e76f00">UserSessionEvent</text>
</a>
</g>
</g>
<!-- java.awt.desktop.UserSessionEvent&#45;&gt;java.awt.desktop.AppEvent -->
<g id="edge13" class="edge">
<title>java.awt.desktop.UserSessionEvent&#45;&gt;java.awt.desktop.AppEvent</title>
<path fill="none" stroke="#999999" stroke-width="2" d="M1599.45,-126.04C1593.34,-127.29 1587.24,-128.44 1581.33,-129.4 1334.53,-169.6 1035.84,-185.71 914.53,-190.91"/>
<polygon fill="#999999" stroke="#999999" stroke-width="2" points="904.76,-191.32 914.56,-186.41 907.3,-190.71 914.73,-190.4 914.75,-190.9 914.77,-191.4 907.34,-191.71 914.94,-195.4 904.76,-191.32"/>
</g>
</g>
</svg>
