<?xml version="1.0" encoding="UTF-8" standalone="no"?>
<!DOCTYPE svg PUBLIC "-//W3C//DTD SVG 1.1//EN"
 "http://www.w3.org/Graphics/SVG/1.1/DTD/svg11.dtd">
<!-- Generated by graphviz version 9.0.0 (20230911.1827)
 -->
<!-- Title: G Pages: 1 -->
<svg width="284pt" height="137pt"
 viewBox="0.00 0.00 284.31 137.40" xmlns="http://www.w3.org/2000/svg" xmlns:xlink="http://www.w3.org/1999/xlink">
<g id="graph0" class="graph" transform="scale(1 1) rotate(0) translate(4 133.4)">
<title>G</title>
<polygon fill="white" stroke="none" points="-4,4 -4,-133.4 280.31,-133.4 280.31,4 -4,4"/>
<!-- java.awt.desktop.OpenFilesEvent -->
<g id="node1" class="node">
<title>java.awt.desktop.OpenFilesEvent</title>
<g id="a_node1"><a xlink:href="../../../java/awt/desktop/OpenFilesEvent.html" xlink:title="java.awt.desktop.OpenFilesEvent">
<text text-anchor="middle" x="61.22" y="-18" font-family="DejaVuSans" font-size="12.00" fill="#e76f00">OpenFilesEvent</text>
</a>
</g>
</g>
<!-- java.awt.desktop.FilesEvent -->
<g id="node2" class="node">
<title>java.awt.desktop.FilesEvent</title>
<g id="a_node2"><a xlink:href="../../../java/awt/desktop/FilesEvent.html" xlink:title="java.awt.desktop.FilesEvent">
<text text-anchor="middle" x="139.22" y="-104.2" font-family="DejaVuSans" font-size="12.00" fill="#e76f00">FilesEvent</text>
</a>
</g>
</g>
<!-- java.awt.desktop.OpenFilesEvent&#45;&gt;java.awt.desktop.FilesEvent -->
<g id="edge1" class="edge">
<title>java.awt.desktop.OpenFilesEvent&#45;&gt;java.awt.desktop.FilesEvent</title>
<path fill="none" stroke="#999999" stroke-width="2" d="M80.1,-42.98C89.61,-53.25 101.32,-65.89 111.8,-77.2"/>
<polygon fill="#999999" stroke="#999999" stroke-width="2" points="118.58,-84.53 108.49,-80.25 116.47,-82.99 111.42,-77.53 111.79,-77.19 112.15,-76.85 117.21,-82.31 115.09,-74.13 118.58,-84.53"/>
</g>
<!-- java.awt.desktop.PrintFilesEvent -->
<g id="node3" class="node">
<title>java.awt.desktop.PrintFilesEvent</title>
<g id="a_node3"><a xlink:href="../../../java/awt/desktop/PrintFilesEvent.html" xlink:title="java.awt.desktop.PrintFilesEvent">
<text text-anchor="middle" x="217.22" y="-18" font-family="DejaVuSans" font-size="12.00" fill="#e76f00">PrintFilesEvent</text>
</a>
</g>
</g>
<!-- java.awt.desktop.PrintFilesEvent&#45;&gt;java.awt.desktop.FilesEvent -->
<g id="edge2" class="edge">
<title>java.awt.desktop.PrintFilesEvent&#45;&gt;java.awt.desktop.FilesEvent</title>
<path fill="none" stroke="#999999" stroke-width="2" d="M198.33,-42.98C188.82,-53.25 177.12,-65.89 166.63,-77.2"/>
<polygon fill="#999999" stroke="#999999" stroke-width="2" points="159.85,-84.53 163.35,-74.13 161.23,-82.31 166.28,-76.85 166.65,-77.19 167.01,-77.53 161.96,-82.99 169.95,-80.25 159.85,-84.53"/>
</g>
</g>
</svg>
