<?xml version="1.0" encoding="UTF-8" standalone="no"?>
<!DOCTYPE svg PUBLIC "-//W3C//DTD SVG 1.1//EN"
 "http://www.w3.org/Graphics/SVG/1.1/DTD/svg11.dtd">
<!-- Generated by graphviz version 9.0.0 (20230911.1827)
 -->
<!-- Title: jdk.javadoc Pages: 1 -->
<svg width="118pt" height="310pt"
 viewBox="0.00 0.00 117.99 309.80" xmlns="http://www.w3.org/2000/svg" xmlns:xlink="http://www.w3.org/1999/xlink">
<g id="graph0" class="graph" transform="scale(1 1) rotate(0) translate(4 305.8)">
<title>jdk.javadoc</title>
<polygon fill="white" stroke="none" points="-4,4 -4,-305.8 113.99,-305.8 113.99,4 -4,4"/>
<!-- java.compiler -->
<g id="node1" class="node">
<title>java.compiler</title>
<text text-anchor="middle" x="54.99" y="-104.2" font-family="DejaVuSans" font-size="12.00" fill="#e76f00">java.compiler</text>
</g>
<!-- java.base -->
<g id="node2" class="node">
<title>java.base</title>
<text text-anchor="middle" x="54.99" y="-18" font-family="DejaVuSans" font-size="12.00" fill="#e76f00">java.base</text>
</g>
<!-- java.compiler&#45;&gt;java.base -->
<g id="edge1" class="edge">
<title>java.compiler&#45;&gt;java.base</title>
<path fill="none" stroke="#dddddd" stroke-width="2" d="M54.99,-86.42C54.99,-77.08 54.99,-65.77 54.99,-55.28"/>
<polygon fill="#dddddd" stroke="#dddddd" stroke-width="2" points="54.99,-45.52 59.49,-55.52 55.49,-48.09 55.49,-55.52 54.99,-55.52 54.49,-55.52 54.49,-48.09 50.49,-55.52 54.99,-45.52"/>
</g>
<!-- jdk.compiler -->
<g id="node3" class="node">
<title>jdk.compiler</title>
<text text-anchor="middle" x="54.99" y="-190.4" font-family="DejaVuSans" font-size="12.00" fill="#437291">jdk.compiler</text>
</g>
<!-- jdk.compiler&#45;&gt;java.compiler -->
<g id="edge2" class="edge">
<title>jdk.compiler&#45;&gt;java.compiler</title>
<path fill="none" stroke="#999999" stroke-width="2" d="M54.99,-172.62C54.99,-163.28 54.99,-151.97 54.99,-141.48"/>
<polygon fill="#999999" stroke="#999999" stroke-width="2" points="54.99,-131.72 59.49,-141.72 55.49,-134.29 55.49,-141.72 54.99,-141.72 54.49,-141.72 54.49,-134.29 50.49,-141.72 54.99,-131.72"/>
</g>
<!-- jdk.javadoc -->
<g id="node4" class="node">
<title>jdk.javadoc</title>
<text text-anchor="middle" x="54.99" y="-276.6" font-family="DejaVuSans" font-size="12.00" fill="#437291">jdk.javadoc</text>
</g>
<!-- jdk.javadoc&#45;&gt;jdk.compiler -->
<g id="edge3" class="edge">
<title>jdk.javadoc&#45;&gt;jdk.compiler</title>
<path fill="none" stroke="#999999" stroke-width="2" d="M54.99,-258.82C54.99,-249.48 54.99,-238.17 54.99,-227.68"/>
<polygon fill="#999999" stroke="#999999" stroke-width="2" points="54.99,-217.92 59.49,-227.92 55.49,-220.49 55.49,-227.92 54.99,-227.92 54.49,-227.92 54.49,-220.49 50.49,-227.92 54.99,-217.92"/>
</g>
</g>
</svg>
