<?xml version="1.0" encoding="UTF-8" standalone="no"?>
<!DOCTYPE svg PUBLIC "-//W3C//DTD SVG 1.1//EN"
 "http://www.w3.org/Graphics/SVG/1.1/DTD/svg11.dtd">
<!-- Generated by graphviz version 9.0.0 (20230911.1827)
 -->
<!-- Title: G Pages: 1 -->
<svg width="462pt" height="224pt"
 viewBox="0.00 0.00 461.74 223.60" xmlns="http://www.w3.org/2000/svg" xmlns:xlink="http://www.w3.org/1999/xlink">
<g id="graph0" class="graph" transform="scale(1 1) rotate(0) translate(4 219.6)">
<title>G</title>
<polygon fill="white" stroke="none" points="-4,4 -4,-219.6 457.74,-219.6 457.74,4 -4,4"/>
<!-- java.lang.ref.PhantomReference -->
<g id="node1" class="node">
<title>java.lang.ref.PhantomReference</title>
<g id="a_node1"><a xlink:href="../../../java/lang/ref/PhantomReference.html" xlink:title="java.lang.ref.PhantomReference">
<text text-anchor="middle" x="381.96" y="-104.2" font-family="DejaVuSans" font-size="12.00" fill="#e76f00">PhantomReference</text>
</a>
</g>
</g>
<!-- java.lang.ref.Reference -->
<g id="node2" class="node">
<title>java.lang.ref.Reference</title>
<g id="a_node2"><a xlink:href="../../../java/lang/ref/Reference.html" xlink:title="java.lang.ref.Reference">
<text text-anchor="middle" x="211.96" y="-190.4" font-family="DejaVuSans" font-size="12.00" fill="#e76f00">Reference</text>
</a>
</g>
</g>
<!-- java.lang.ref.PhantomReference&#45;&gt;java.lang.ref.Reference -->
<g id="edge1" class="edge">
<title>java.lang.ref.PhantomReference&#45;&gt;java.lang.ref.Reference</title>
<path fill="none" stroke="#999999" stroke-width="2" d="M340.37,-129.4C317.44,-140.75 288.75,-154.97 264.31,-167.07"/>
<polygon fill="#999999" stroke="#999999" stroke-width="2" points="255.59,-171.39 262.56,-162.92 257.67,-169.8 264.33,-166.5 264.56,-166.95 264.78,-167.4 258.11,-170.7 266.55,-170.98 255.59,-171.39"/>
</g>
<!-- open node #0 -->
<g id="node3" class="node">
<title>open node #0</title>
<g id="a_node3"><a xlink:title="Non&#45;sealed Hierarchy">
<text text-anchor="start" x="360.87" y="-19" font-family="DejaVuSans" font-style="italic" font-size="12.00" fill="#e76f00">&lt;any&gt;</text>
</a>
</g>
</g>
<!-- open node #0&#45;&gt;java.lang.ref.PhantomReference -->
<g id="edge2" class="edge">
<title>open node #0&#45;&gt;java.lang.ref.PhantomReference</title>
<path fill="none" stroke="#999999" stroke-width="2" stroke-dasharray="5,2" d="M381.96,-42.98C381.96,-52.32 381.96,-63.63 381.96,-74.12"/>
<polygon fill="#999999" stroke="#999999" stroke-width="2" points="381.96,-83.88 377.46,-73.88 381.46,-81.31 381.46,-73.88 381.96,-73.88 382.46,-73.88 382.46,-81.31 386.46,-73.88 381.96,-83.88"/>
</g>
<!-- java.lang.ref.SoftReference -->
<g id="node4" class="node">
<title>java.lang.ref.SoftReference</title>
<g id="a_node4"><a xlink:href="../../../java/lang/ref/SoftReference.html" xlink:title="java.lang.ref.SoftReference">
<text text-anchor="middle" x="56.96" y="-104.2" font-family="DejaVuSans" font-size="12.00" fill="#e76f00">SoftReference</text>
</a>
</g>
</g>
<!-- java.lang.ref.SoftReference&#45;&gt;java.lang.ref.Reference -->
<g id="edge3" class="edge">
<title>java.lang.ref.SoftReference&#45;&gt;java.lang.ref.Reference</title>
<path fill="none" stroke="#999999" stroke-width="2" d="M94.88,-129.4C115.5,-140.6 141.24,-154.58 163.33,-166.58"/>
<polygon fill="#999999" stroke="#999999" stroke-width="2" points="172.02,-171.31 161.09,-170.49 169.53,-170.52 163,-166.97 163.24,-166.53 163.48,-166.09 170.01,-169.64 165.39,-162.58 172.02,-171.31"/>
</g>
<!-- open node #1 -->
<g id="node5" class="node">
<title>open node #1</title>
<g id="a_node5"><a xlink:title="Non&#45;sealed Hierarchy">
<text text-anchor="start" x="35.87" y="-19" font-family="DejaVuSans" font-style="italic" font-size="12.00" fill="#e76f00">&lt;any&gt;</text>
</a>
</g>
</g>
<!-- open node #1&#45;&gt;java.lang.ref.SoftReference -->
<g id="edge4" class="edge">
<title>open node #1&#45;&gt;java.lang.ref.SoftReference</title>
<path fill="none" stroke="#999999" stroke-width="2" stroke-dasharray="5,2" d="M56.96,-42.98C56.96,-52.32 56.96,-63.63 56.96,-74.12"/>
<polygon fill="#999999" stroke="#999999" stroke-width="2" points="56.96,-83.88 52.46,-73.88 56.46,-81.31 56.46,-73.88 56.96,-73.88 57.46,-73.88 57.46,-81.31 61.46,-73.88 56.96,-83.88"/>
</g>
<!-- java.lang.ref.WeakReference -->
<g id="node6" class="node">
<title>java.lang.ref.WeakReference</title>
<g id="a_node6"><a xlink:href="../../../java/lang/ref/WeakReference.html" xlink:title="java.lang.ref.WeakReference">
<text text-anchor="middle" x="211.96" y="-104.2" font-family="DejaVuSans" font-size="12.00" fill="#e76f00">WeakReference</text>
</a>
</g>
</g>
<!-- java.lang.ref.WeakReference&#45;&gt;java.lang.ref.Reference -->
<g id="edge5" class="edge">
<title>java.lang.ref.WeakReference&#45;&gt;java.lang.ref.Reference</title>
<path fill="none" stroke="#999999" stroke-width="2" d="M211.96,-129.18C211.96,-138.52 211.96,-149.83 211.96,-160.32"/>
<polygon fill="#999999" stroke="#999999" stroke-width="2" points="211.96,-170.08 207.46,-160.08 211.46,-167.51 211.46,-160.08 211.96,-160.08 212.46,-160.08 212.46,-167.51 216.46,-160.08 211.96,-170.08"/>
</g>
<!-- open node #2 -->
<g id="node7" class="node">
<title>open node #2</title>
<g id="a_node7"><a xlink:title="Non&#45;sealed Hierarchy">
<text text-anchor="start" x="190.87" y="-19" font-family="DejaVuSans" font-style="italic" font-size="12.00" fill="#e76f00">&lt;any&gt;</text>
</a>
</g>
</g>
<!-- open node #2&#45;&gt;java.lang.ref.WeakReference -->
<g id="edge6" class="edge">
<title>open node #2&#45;&gt;java.lang.ref.WeakReference</title>
<path fill="none" stroke="#999999" stroke-width="2" stroke-dasharray="5,2" d="M211.96,-42.98C211.96,-52.32 211.96,-63.63 211.96,-74.12"/>
<polygon fill="#999999" stroke="#999999" stroke-width="2" points="211.96,-83.88 207.46,-73.88 211.46,-81.31 211.46,-73.88 211.96,-73.88 212.46,-73.88 212.46,-81.31 216.46,-73.88 211.96,-83.88"/>
</g>
</g>
</svg>
