<?xml version="1.0" encoding="UTF-8" standalone="no"?>
<!DOCTYPE svg PUBLIC "-//W3C//DTD SVG 1.1//EN"
 "http://www.w3.org/Graphics/SVG/1.1/DTD/svg11.dtd">
<!-- Generated by graphviz version 9.0.0 (20230911.1827)
 -->
<!-- Title: java.desktop Pages: 1 -->
<svg width="259pt" height="224pt"
 viewBox="0.00 0.00 259.27 223.60" xmlns="http://www.w3.org/2000/svg" xmlns:xlink="http://www.w3.org/1999/xlink">
<g id="graph0" class="graph" transform="scale(1 1) rotate(0) translate(4 219.6)">
<title>java.desktop</title>
<polygon fill="white" stroke="none" points="-4,4 -4,-219.6 255.27,-219.6 255.27,4 -4,4"/>
<!-- java.xml -->
<g id="node1" class="node">
<title>java.xml</title>
<text text-anchor="middle" x="43.18" y="-104.2" font-family="DejaVuSans" font-size="12.00" fill="#e76f00">java.xml</text>
</g>
<!-- java.base -->
<g id="node3" class="node">
<title>java.base</title>
<text text-anchor="middle" x="43.18" y="-18" font-family="DejaVuSans" font-size="12.00" fill="#e76f00">java.base</text>
</g>
<!-- java.xml&#45;&gt;java.base -->
<g id="edge4" class="edge">
<title>java.xml&#45;&gt;java.base</title>
<path fill="none" stroke="#dddddd" stroke-width="2" d="M43.18,-86.42C43.18,-77.08 43.18,-65.77 43.18,-55.28"/>
<polygon fill="#dddddd" stroke="#dddddd" stroke-width="2" points="43.18,-45.52 47.68,-55.52 43.68,-48.09 43.68,-55.52 43.18,-55.52 42.68,-55.52 42.68,-48.09 38.68,-55.52 43.18,-45.52"/>
</g>
<!-- java.desktop -->
<g id="node2" class="node">
<title>java.desktop</title>
<text text-anchor="middle" x="114.18" y="-190.4" font-family="DejaVuSans" font-size="12.00" fill="#e76f00">java.desktop</text>
</g>
<!-- java.desktop&#45;&gt;java.xml -->
<g id="edge3" class="edge">
<title>java.desktop&#45;&gt;java.xml</title>
<path fill="none" stroke="#999999" stroke-width="2" d="M96.99,-172.62C88.42,-162.45 77.89,-149.96 68.43,-138.74"/>
<polygon fill="#999999" stroke="#999999" stroke-width="2" points="62.03,-131.15 71.91,-135.89 64.06,-132.79 68.86,-138.47 68.47,-138.79 68.09,-139.12 63.3,-133.43 65.03,-141.7 62.03,-131.15"/>
</g>
<!-- java.datatransfer -->
<g id="node4" class="node">
<title>java.datatransfer</title>
<text text-anchor="middle" x="185.18" y="-104.2" font-family="DejaVuSans" font-size="12.00" fill="#e76f00">java.datatransfer</text>
</g>
<!-- java.desktop&#45;&gt;java.datatransfer -->
<g id="edge2" class="edge">
<title>java.desktop&#45;&gt;java.datatransfer</title>
<path fill="none" stroke="#999999" stroke-width="2" d="M131.37,-172.62C139.94,-162.45 150.47,-149.96 159.94,-138.74"/>
<polygon fill="#999999" stroke="#999999" stroke-width="2" points="166.34,-131.15 163.33,-141.7 165.07,-133.43 160.27,-139.12 159.89,-138.79 159.51,-138.47 164.3,-132.79 156.45,-135.89 166.34,-131.15"/>
</g>
<!-- java.datatransfer&#45;&gt;java.base -->
<g id="edge1" class="edge">
<title>java.datatransfer&#45;&gt;java.base</title>
<path fill="none" stroke="#dddddd" stroke-width="2" d="M150.44,-86.2C131.65,-75.06 108.23,-61.17 88.07,-49.22"/>
<polygon fill="#dddddd" stroke="#dddddd" stroke-width="2" points="79.66,-44.23 90.55,-45.46 82.12,-45.11 88.51,-48.9 88.26,-49.33 88,-49.76 81.61,-45.97 85.96,-53.2 79.66,-44.23"/>
</g>
</g>
</svg>
