<?xml version="1.0" encoding="UTF-8" standalone="no"?>
<!DOCTYPE svg PUBLIC "-//W3C//DTD SVG 1.1//EN"
 "http://www.w3.org/Graphics/SVG/1.1/DTD/svg11.dtd">
<!-- Generated by graphviz version 9.0.0 (20230911.1827)
 -->
<!-- Title: G Pages: 1 -->
<svg width="254pt" height="137pt"
 viewBox="0.00 0.00 254.01 137.40" xmlns="http://www.w3.org/2000/svg" xmlns:xlink="http://www.w3.org/1999/xlink">
<g id="graph0" class="graph" transform="scale(1 1) rotate(0) translate(4 133.4)">
<title>G</title>
<polygon fill="white" stroke="none" points="-4,4 -4,-133.4 250.01,-133.4 250.01,4 -4,4"/>
<!-- java.lang.foreign.StructLayout -->
<g id="node1" class="node">
<title>java.lang.foreign.StructLayout</title>
<g id="a_node1"><a xlink:href="../../../java/lang/foreign/StructLayout.html" xlink:title="java.lang.foreign.StructLayout">
<text text-anchor="middle" x="52.88" y="-18" font-family="DejaVuSans" font-size="12.00" fill="#e76f00">StructLayout</text>
</a>
</g>
</g>
<!-- java.lang.foreign.GroupLayout -->
<g id="node2" class="node">
<title>java.lang.foreign.GroupLayout</title>
<g id="a_node2"><a xlink:href="../../../java/lang/foreign/GroupLayout.html" xlink:title="java.lang.foreign.GroupLayout">
<text text-anchor="middle" x="122.88" y="-104.2" font-family="DejaVuSans" font-size="12.00" fill="#e76f00">GroupLayout</text>
</a>
</g>
</g>
<!-- java.lang.foreign.StructLayout&#45;&gt;java.lang.foreign.GroupLayout -->
<g id="edge1" class="edge">
<title>java.lang.foreign.StructLayout&#45;&gt;java.lang.foreign.GroupLayout</title>
<path fill="none" stroke="#999999" stroke-width="2" d="M69.82,-42.98C78.27,-53.15 88.66,-65.64 97.99,-76.86"/>
<polygon fill="#999999" stroke="#999999" stroke-width="2" points="104.29,-84.44 94.44,-79.63 102.27,-82.79 97.51,-77.07 97.9,-76.75 98.28,-76.43 103.03,-82.15 101.36,-73.87 104.29,-84.44"/>
</g>
<!-- java.lang.foreign.UnionLayout -->
<g id="node3" class="node">
<title>java.lang.foreign.UnionLayout</title>
<g id="a_node3"><a xlink:href="../../../java/lang/foreign/UnionLayout.html" xlink:title="java.lang.foreign.UnionLayout">
<text text-anchor="middle" x="193.88" y="-18" font-family="DejaVuSans" font-size="12.00" fill="#e76f00">UnionLayout</text>
</a>
</g>
</g>
<!-- java.lang.foreign.UnionLayout&#45;&gt;java.lang.foreign.GroupLayout -->
<g id="edge2" class="edge">
<title>java.lang.foreign.UnionLayout&#45;&gt;java.lang.foreign.GroupLayout</title>
<path fill="none" stroke="#999999" stroke-width="2" d="M176.69,-42.98C168.12,-53.15 157.59,-65.64 148.12,-76.86"/>
<polygon fill="#999999" stroke="#999999" stroke-width="2" points="141.72,-84.45 144.73,-73.9 142.99,-82.17 147.79,-76.48 148.17,-76.81 148.55,-77.13 143.76,-82.81 151.61,-79.71 141.72,-84.45"/>
</g>
</g>
</svg>
