<?xml version="1.0" encoding="UTF-8" standalone="no"?>
<!DOCTYPE svg PUBLIC "-//W3C//DTD SVG 1.1//EN"
 "http://www.w3.org/Graphics/SVG/1.1/DTD/svg11.dtd">
<!-- Generated by graphviz version 9.0.0 (20230911.1827)
 -->
<!-- Title: G Pages: 1 -->
<svg width="1312pt" height="224pt"
 viewBox="0.00 0.00 1312.32 223.60" xmlns="http://www.w3.org/2000/svg" xmlns:xlink="http://www.w3.org/1999/xlink">
<g id="graph0" class="graph" transform="scale(1 1) rotate(0) translate(4 219.6)">
<title>G</title>
<polygon fill="white" stroke="none" points="-4,4 -4,-219.6 1308.32,-219.6 1308.32,4 -4,4"/>
<!-- java.lang.foreign.SequenceLayout -->
<g id="node1" class="node">
<title>java.lang.foreign.SequenceLayout</title>
<g id="a_node1"><a xlink:href="../../../java/lang/foreign/SequenceLayout.html" xlink:title="java.lang.foreign.SequenceLayout">
<text text-anchor="middle" x="64.39" y="-104.2" font-family="DejaVuSans" font-size="12.00" fill="#e76f00">SequenceLayout</text>
</a>
</g>
</g>
<!-- java.lang.foreign.MemoryLayout -->
<g id="node2" class="node">
<title>java.lang.foreign.MemoryLayout</title>
<g id="a_node2"><a xlink:href="../../../java/lang/foreign/MemoryLayout.html" xlink:title="java.lang.foreign.MemoryLayout">
<text text-anchor="middle" x="292.39" y="-190.4" font-family="DejaVuSans" font-size="12.00" fill="#e76f00">MemoryLayout</text>
</a>
</g>
</g>
<!-- java.lang.foreign.SequenceLayout&#45;&gt;java.lang.foreign.MemoryLayout -->
<g id="edge1" class="edge">
<title>java.lang.foreign.SequenceLayout&#45;&gt;java.lang.foreign.MemoryLayout</title>
<path fill="none" stroke="#999999" stroke-width="2" d="M120.17,-129.4C151.89,-141.11 191.84,-155.86 225.27,-168.21"/>
<polygon fill="#999999" stroke="#999999" stroke-width="2" points="234.51,-171.63 223.57,-172.38 231.93,-171.21 224.96,-168.63 225.13,-168.16 225.3,-167.69 232.28,-170.27 226.69,-163.94 234.51,-171.63"/>
</g>
<!-- java.lang.foreign.GroupLayout -->
<g id="node3" class="node">
<title>java.lang.foreign.GroupLayout</title>
<g id="a_node3"><a xlink:href="../../../java/lang/foreign/GroupLayout.html" xlink:title="java.lang.foreign.GroupLayout">
<text text-anchor="middle" x="218.39" y="-104.2" font-family="DejaVuSans" font-size="12.00" fill="#e76f00">GroupLayout</text>
</a>
</g>
</g>
<!-- java.lang.foreign.GroupLayout&#45;&gt;java.lang.foreign.MemoryLayout -->
<g id="edge2" class="edge">
<title>java.lang.foreign.GroupLayout&#45;&gt;java.lang.foreign.MemoryLayout</title>
<path fill="none" stroke="#999999" stroke-width="2" d="M236.31,-129.18C245.33,-139.45 256.44,-152.09 266.38,-163.4"/>
<polygon fill="#999999" stroke="#999999" stroke-width="2" points="272.78,-170.68 262.8,-166.14 270.71,-169.09 265.8,-163.5 266.18,-163.17 266.55,-162.84 271.46,-168.43 269.56,-160.2 272.78,-170.68"/>
</g>
<!-- java.lang.foreign.StructLayout -->
<g id="node4" class="node">
<title>java.lang.foreign.StructLayout</title>
<g id="a_node4"><a xlink:href="../../../java/lang/foreign/StructLayout.html" xlink:title="java.lang.foreign.StructLayout">
<text text-anchor="middle" x="77.39" y="-18" font-family="DejaVuSans" font-size="12.00" fill="#e76f00">StructLayout</text>
</a>
</g>
</g>
<!-- java.lang.foreign.StructLayout&#45;&gt;java.lang.foreign.GroupLayout -->
<g id="edge3" class="edge">
<title>java.lang.foreign.StructLayout&#45;&gt;java.lang.foreign.GroupLayout</title>
<path fill="none" stroke="#999999" stroke-width="2" d="M111.88,-43.2C130.54,-54.34 153.8,-68.23 173.82,-80.18"/>
<polygon fill="#999999" stroke="#999999" stroke-width="2" points="182.16,-85.17 171.27,-83.9 179.71,-84.28 173.32,-80.47 173.58,-80.04 173.83,-79.61 180.22,-83.42 175.89,-76.17 182.16,-85.17"/>
</g>
<!-- java.lang.foreign.UnionLayout -->
<g id="node5" class="node">
<title>java.lang.foreign.UnionLayout</title>
<g id="a_node5"><a xlink:href="../../../java/lang/foreign/UnionLayout.html" xlink:title="java.lang.foreign.UnionLayout">
<text text-anchor="middle" x="218.39" y="-18" font-family="DejaVuSans" font-size="12.00" fill="#e76f00">UnionLayout</text>
</a>
</g>
</g>
<!-- java.lang.foreign.UnionLayout&#45;&gt;java.lang.foreign.GroupLayout -->
<g id="edge4" class="edge">
<title>java.lang.foreign.UnionLayout&#45;&gt;java.lang.foreign.GroupLayout</title>
<path fill="none" stroke="#999999" stroke-width="2" d="M218.39,-42.98C218.39,-52.32 218.39,-63.63 218.39,-74.12"/>
<polygon fill="#999999" stroke="#999999" stroke-width="2" points="218.39,-83.88 213.89,-73.88 217.89,-81.31 217.89,-73.88 218.39,-73.88 218.89,-73.88 218.89,-81.31 222.89,-73.88 218.39,-83.88"/>
</g>
<!-- java.lang.foreign.PaddingLayout -->
<g id="node6" class="node">
<title>java.lang.foreign.PaddingLayout</title>
<g id="a_node6"><a xlink:href="../../../java/lang/foreign/PaddingLayout.html" xlink:title="java.lang.foreign.PaddingLayout">
<text text-anchor="middle" x="366.39" y="-104.2" font-family="DejaVuSans" font-size="12.00" fill="#e76f00">PaddingLayout</text>
</a>
</g>
</g>
<!-- java.lang.foreign.PaddingLayout&#45;&gt;java.lang.foreign.MemoryLayout -->
<g id="edge5" class="edge">
<title>java.lang.foreign.PaddingLayout&#45;&gt;java.lang.foreign.MemoryLayout</title>
<path fill="none" stroke="#999999" stroke-width="2" d="M348.48,-129.18C339.46,-139.45 328.35,-152.09 318.4,-163.4"/>
<polygon fill="#999999" stroke="#999999" stroke-width="2" points="312.01,-170.68 315.23,-160.2 313.32,-168.43 318.23,-162.84 318.61,-163.17 318.98,-163.5 314.07,-169.09 321.99,-166.14 312.01,-170.68"/>
</g>
<!-- java.lang.foreign.ValueLayout -->
<g id="node7" class="node">
<title>java.lang.foreign.ValueLayout</title>
<g id="a_node7"><a xlink:href="../../../java/lang/foreign/ValueLayout.html" xlink:title="java.lang.foreign.ValueLayout">
<text text-anchor="middle" x="734.39" y="-104.2" font-family="DejaVuSans" font-size="12.00" fill="#e76f00">ValueLayout</text>
</a>
</g>
</g>
<!-- java.lang.foreign.ValueLayout&#45;&gt;java.lang.foreign.MemoryLayout -->
<g id="edge6" class="edge">
<title>java.lang.foreign.ValueLayout&#45;&gt;java.lang.foreign.MemoryLayout</title>
<path fill="none" stroke="#999999" stroke-width="2" d="M682.82,-118.62C603.87,-133.66 452.83,-162.44 363.52,-179.45"/>
<polygon fill="#999999" stroke="#999999" stroke-width="2" points="353.74,-181.31 362.72,-175.02 356.16,-180.34 363.47,-178.95 363.56,-179.44 363.65,-179.93 356.35,-181.33 364.4,-183.86 353.74,-181.31"/>
</g>
<!-- java.lang.foreign.ValueLayout.OfBoolean -->
<g id="node8" class="node">
<title>java.lang.foreign.ValueLayout.OfBoolean</title>
<g id="a_node8"><a xlink:href="../../../java/lang/foreign/ValueLayout.OfBoolean.html" xlink:title="java.lang.foreign.ValueLayout.OfBoolean">
<text text-anchor="middle" x="352.39" y="-18" font-family="DejaVuSans" font-size="12.00" fill="#e76f00">OfBoolean</text>
</a>
</g>
</g>
<!-- java.lang.foreign.ValueLayout.OfBoolean&#45;&gt;java.lang.foreign.ValueLayout -->
<g id="edge7" class="edge">
<title>java.lang.foreign.ValueLayout.OfBoolean&#45;&gt;java.lang.foreign.ValueLayout</title>
<path fill="none" stroke="#999999" stroke-width="2" d="M397.62,-38.1C403.57,-39.93 409.6,-41.68 415.39,-43.2 503.02,-66.17 606.08,-85.33 670.83,-96.43"/>
<polygon fill="#999999" stroke="#999999" stroke-width="2" points="680.45,-98.07 669.84,-100.83 677.84,-98.13 670.51,-96.88 670.6,-96.39 670.68,-95.9 678.01,-97.14 671.35,-91.95 680.45,-98.07"/>
</g>
<!-- java.lang.foreign.ValueLayout.OfByte -->
<g id="node9" class="node">
<title>java.lang.foreign.ValueLayout.OfByte</title>
<g id="a_node9"><a xlink:href="../../../java/lang/foreign/ValueLayout.OfByte.html" xlink:title="java.lang.foreign.ValueLayout.OfByte">
<text text-anchor="middle" x="468.39" y="-18" font-family="DejaVuSans" font-size="12.00" fill="#e76f00">OfByte</text>
</a>
</g>
</g>
<!-- java.lang.foreign.ValueLayout.OfByte&#45;&gt;java.lang.foreign.ValueLayout -->
<g id="edge8" class="edge">
<title>java.lang.foreign.ValueLayout.OfByte&#45;&gt;java.lang.foreign.ValueLayout</title>
<path fill="none" stroke="#999999" stroke-width="2" d="M503.31,-36.63C509.31,-38.91 515.51,-41.18 521.39,-43.2 571.17,-60.27 628.35,-77.2 670.93,-89.3"/>
<polygon fill="#999999" stroke="#999999" stroke-width="2" points="680.46,-91.99 669.62,-93.6 677.86,-91.78 670.7,-89.76 670.84,-89.27 670.98,-88.79 678.13,-90.82 672.06,-84.94 680.46,-91.99"/>
</g>
<!-- java.lang.foreign.ValueLayout.OfChar -->
<g id="node10" class="node">
<title>java.lang.foreign.ValueLayout.OfChar</title>
<g id="a_node10"><a xlink:href="../../../java/lang/foreign/ValueLayout.OfChar.html" xlink:title="java.lang.foreign.ValueLayout.OfChar">
<text text-anchor="middle" x="574.39" y="-18" font-family="DejaVuSans" font-size="12.00" fill="#e76f00">OfChar</text>
</a>
</g>
</g>
<!-- java.lang.foreign.ValueLayout.OfChar&#45;&gt;java.lang.foreign.ValueLayout -->
<g id="edge9" class="edge">
<title>java.lang.foreign.ValueLayout.OfChar&#45;&gt;java.lang.foreign.ValueLayout</title>
<path fill="none" stroke="#999999" stroke-width="2" d="M609.5,-41.08C631.52,-52.66 660.25,-67.78 684.59,-80.59"/>
<polygon fill="#999999" stroke="#999999" stroke-width="2" points="693.28,-85.16 682.33,-84.49 690.78,-84.41 684.2,-80.95 684.43,-80.51 684.66,-80.06 691.24,-83.53 686.52,-76.52 693.28,-85.16"/>
</g>
<!-- java.lang.foreign.ValueLayout.OfShort -->
<g id="node11" class="node">
<title>java.lang.foreign.ValueLayout.OfShort</title>
<g id="a_node11"><a xlink:href="../../../java/lang/foreign/ValueLayout.OfShort.html" xlink:title="java.lang.foreign.ValueLayout.OfShort">
<text text-anchor="middle" x="683.39" y="-18" font-family="DejaVuSans" font-size="12.00" fill="#e76f00">OfShort</text>
</a>
</g>
</g>
<!-- java.lang.foreign.ValueLayout.OfShort&#45;&gt;java.lang.foreign.ValueLayout -->
<g id="edge10" class="edge">
<title>java.lang.foreign.ValueLayout.OfShort&#45;&gt;java.lang.foreign.ValueLayout</title>
<path fill="none" stroke="#999999" stroke-width="2" d="M695.74,-42.98C701.71,-52.84 709,-64.88 715.64,-75.84"/>
<polygon fill="#999999" stroke="#999999" stroke-width="2" points="720.72,-84.23 711.69,-78.01 718.97,-82.3 715.11,-75.93 715.54,-75.68 715.97,-75.42 719.82,-81.78 719.39,-73.34 720.72,-84.23"/>
</g>
<!-- java.lang.foreign.ValueLayout.OfInt -->
<g id="node12" class="node">
<title>java.lang.foreign.ValueLayout.OfInt</title>
<g id="a_node12"><a xlink:href="../../../java/lang/foreign/ValueLayout.OfInt.html" xlink:title="java.lang.foreign.ValueLayout.OfInt">
<text text-anchor="middle" x="785.39" y="-18" font-family="DejaVuSans" font-size="12.00" fill="#e76f00">OfInt</text>
</a>
</g>
</g>
<!-- java.lang.foreign.ValueLayout.OfInt&#45;&gt;java.lang.foreign.ValueLayout -->
<g id="edge11" class="edge">
<title>java.lang.foreign.ValueLayout.OfInt&#45;&gt;java.lang.foreign.ValueLayout</title>
<path fill="none" stroke="#999999" stroke-width="2" d="M773.05,-42.98C767.08,-52.84 759.78,-64.88 753.15,-75.84"/>
<polygon fill="#999999" stroke="#999999" stroke-width="2" points="748.06,-84.23 749.4,-73.34 748.96,-81.78 752.82,-75.42 753.24,-75.68 753.67,-75.93 749.82,-82.3 757.09,-78.01 748.06,-84.23"/>
</g>
<!-- java.lang.foreign.ValueLayout.OfFloat -->
<g id="node13" class="node">
<title>java.lang.foreign.ValueLayout.OfFloat</title>
<g id="a_node13"><a xlink:href="../../../java/lang/foreign/ValueLayout.OfFloat.html" xlink:title="java.lang.foreign.ValueLayout.OfFloat">
<text text-anchor="middle" x="886.39" y="-18" font-family="DejaVuSans" font-size="12.00" fill="#e76f00">OfFloat</text>
</a>
</g>
</g>
<!-- java.lang.foreign.ValueLayout.OfFloat&#45;&gt;java.lang.foreign.ValueLayout -->
<g id="edge12" class="edge">
<title>java.lang.foreign.ValueLayout.OfFloat&#45;&gt;java.lang.foreign.ValueLayout</title>
<path fill="none" stroke="#999999" stroke-width="2" d="M850.37,-42.55C830.02,-53.83 804.32,-68.06 782.29,-80.27"/>
<polygon fill="#999999" stroke="#999999" stroke-width="2" points="773.61,-85.08 780.18,-76.29 775.61,-83.4 782.11,-79.79 782.36,-80.23 782.6,-80.67 776.09,-84.27 784.54,-84.17 773.61,-85.08"/>
</g>
<!-- java.lang.foreign.ValueLayout.OfLong -->
<g id="node14" class="node">
<title>java.lang.foreign.ValueLayout.OfLong</title>
<g id="a_node14"><a xlink:href="../../../java/lang/foreign/ValueLayout.OfLong.html" xlink:title="java.lang.foreign.ValueLayout.OfLong">
<text text-anchor="middle" x="994.39" y="-18" font-family="DejaVuSans" font-size="12.00" fill="#e76f00">OfLong</text>
</a>
</g>
</g>
<!-- java.lang.foreign.ValueLayout.OfLong&#45;&gt;java.lang.foreign.ValueLayout -->
<g id="edge13" class="edge">
<title>java.lang.foreign.ValueLayout.OfLong&#45;&gt;java.lang.foreign.ValueLayout</title>
<path fill="none" stroke="#999999" stroke-width="2" d="M958.78,-36.56C952.67,-38.85 946.37,-41.14 940.39,-43.2 892.89,-59.58 838.56,-76.27 797.62,-88.44"/>
<polygon fill="#999999" stroke="#999999" stroke-width="2" points="788.25,-91.21 796.56,-84.06 790.56,-90.01 797.69,-87.9 797.83,-88.37 797.98,-88.85 790.85,-90.97 799.11,-92.69 788.25,-91.21"/>
</g>
<!-- java.lang.foreign.ValueLayout.OfDouble -->
<g id="node15" class="node">
<title>java.lang.foreign.ValueLayout.OfDouble</title>
<g id="a_node15"><a xlink:href="../../../java/lang/foreign/ValueLayout.OfDouble.html" xlink:title="java.lang.foreign.ValueLayout.OfDouble">
<text text-anchor="middle" x="1108.39" y="-18" font-family="DejaVuSans" font-size="12.00" fill="#e76f00">OfDouble</text>
</a>
</g>
</g>
<!-- java.lang.foreign.ValueLayout.OfDouble&#45;&gt;java.lang.foreign.ValueLayout -->
<g id="edge14" class="edge">
<title>java.lang.foreign.ValueLayout.OfDouble&#45;&gt;java.lang.foreign.ValueLayout</title>
<path fill="none" stroke="#999999" stroke-width="2" d="M1066,-37.92C1060.12,-39.82 1054.13,-41.64 1048.39,-43.2 962.67,-66.49 861.7,-85.47 797.86,-96.46"/>
<polygon fill="#999999" stroke="#999999" stroke-width="2" points="788.4,-98.07 797.5,-91.96 790.84,-97.15 798.17,-95.9 798.26,-96.39 798.34,-96.89 791.01,-98.14 799.02,-100.83 788.4,-98.07"/>
</g>
<!-- java.lang.foreign.AddressLayout -->
<g id="node16" class="node">
<title>java.lang.foreign.AddressLayout</title>
<g id="a_node16"><a xlink:href="../../../java/lang/foreign/AddressLayout.html" xlink:title="java.lang.foreign.AddressLayout">
<text text-anchor="middle" x="1245.39" y="-18" font-family="DejaVuSans" font-size="12.00" fill="#e76f00">AddressLayout</text>
</a>
</g>
</g>
<!-- java.lang.foreign.AddressLayout&#45;&gt;java.lang.foreign.ValueLayout -->
<g id="edge15" class="edge">
<title>java.lang.foreign.AddressLayout&#45;&gt;java.lang.foreign.ValueLayout</title>
<path fill="none" stroke="#999999" stroke-width="2" d="M1186.7,-39.05C1180.54,-40.55 1174.36,-41.97 1168.39,-43.2 1037.91,-70.12 883.07,-89.95 798.11,-99.81"/>
<polygon fill="#999999" stroke="#999999" stroke-width="2" points="788.26,-100.94 797.68,-95.33 790.75,-100.15 798.14,-99.3 798.19,-99.8 798.25,-100.29 790.86,-101.14 798.71,-104.27 788.26,-100.94"/>
</g>
</g>
</svg>
