<?xml version="1.0" encoding="UTF-8" standalone="no"?>
<!DOCTYPE svg PUBLIC "-//W3C//DTD SVG 1.1//EN"
 "http://www.w3.org/Graphics/SVG/1.1/DTD/svg11.dtd">
<!-- Generated by graphviz version 9.0.0 (20230911.1827)
 -->
<!-- Title: G Pages: 1 -->
<svg width="1005pt" height="137pt"
 viewBox="0.00 0.00 1005.46 137.40" xmlns="http://www.w3.org/2000/svg" xmlns:xlink="http://www.w3.org/1999/xlink">
<g id="graph0" class="graph" transform="scale(1 1) rotate(0) translate(4 133.4)">
<title>G</title>
<polygon fill="white" stroke="none" points="-4,4 -4,-133.4 1001.46,-133.4 1001.46,4 -4,4"/>
<!-- java.lang.foreign.ValueLayout.OfBoolean -->
<g id="node1" class="node">
<title>java.lang.foreign.ValueLayout.OfBoolean</title>
<g id="a_node1"><a xlink:href="../../../java/lang/foreign/ValueLayout.OfBoolean.html" xlink:title="java.lang.foreign.ValueLayout.OfBoolean">
<text text-anchor="middle" x="45.53" y="-18" font-family="DejaVuSans" font-size="12.00" fill="#e76f00">OfBoolean</text>
</a>
</g>
</g>
<!-- java.lang.foreign.ValueLayout -->
<g id="node2" class="node">
<title>java.lang.foreign.ValueLayout</title>
<g id="a_node2"><a xlink:href="../../../java/lang/foreign/ValueLayout.html" xlink:title="java.lang.foreign.ValueLayout">
<text text-anchor="middle" x="478.53" y="-104.2" font-family="DejaVuSans" font-size="12.00" fill="#e76f00">ValueLayout</text>
</a>
</g>
</g>
<!-- java.lang.foreign.ValueLayout.OfBoolean&#45;&gt;java.lang.foreign.ValueLayout -->
<g id="edge1" class="edge">
<title>java.lang.foreign.ValueLayout.OfBoolean&#45;&gt;java.lang.foreign.ValueLayout</title>
<path fill="none" stroke="#999999" stroke-width="2" d="M90.72,-38.25C96.68,-40.05 102.72,-41.76 108.53,-43.2 214.75,-69.55 340.8,-88.69 414.97,-98.75"/>
<polygon fill="#999999" stroke="#999999" stroke-width="2" points="424.45,-100.02 413.94,-103.15 421.84,-100.17 414.47,-99.19 414.54,-98.69 414.61,-98.19 421.98,-99.18 415.14,-94.23 424.45,-100.02"/>
</g>
<!-- java.lang.foreign.ValueLayout.OfByte -->
<g id="node3" class="node">
<title>java.lang.foreign.ValueLayout.OfByte</title>
<g id="a_node3"><a xlink:href="../../../java/lang/foreign/ValueLayout.OfByte.html" xlink:title="java.lang.foreign.ValueLayout.OfByte">
<text text-anchor="middle" x="161.53" y="-18" font-family="DejaVuSans" font-size="12.00" fill="#e76f00">OfByte</text>
</a>
</g>
</g>
<!-- java.lang.foreign.ValueLayout.OfByte&#45;&gt;java.lang.foreign.ValueLayout -->
<g id="edge2" class="edge">
<title>java.lang.foreign.ValueLayout.OfByte&#45;&gt;java.lang.foreign.ValueLayout</title>
<path fill="none" stroke="#999999" stroke-width="2" d="M196.36,-36.9C202.37,-39.15 208.6,-41.34 214.53,-43.2 281.94,-64.31 360.87,-82.5 414.75,-93.95"/>
<polygon fill="#999999" stroke="#999999" stroke-width="2" points="424.49,-96 413.77,-98.34 421.87,-95.96 414.6,-94.43 414.7,-93.94 414.8,-93.45 422.08,-94.98 415.63,-89.54 424.49,-96"/>
</g>
<!-- java.lang.foreign.ValueLayout.OfChar -->
<g id="node4" class="node">
<title>java.lang.foreign.ValueLayout.OfChar</title>
<g id="a_node4"><a xlink:href="../../../java/lang/foreign/ValueLayout.OfChar.html" xlink:title="java.lang.foreign.ValueLayout.OfChar">
<text text-anchor="middle" x="267.53" y="-18" font-family="DejaVuSans" font-size="12.00" fill="#e76f00">OfChar</text>
</a>
</g>
</g>
<!-- java.lang.foreign.ValueLayout.OfChar&#45;&gt;java.lang.foreign.ValueLayout -->
<g id="edge3" class="edge">
<title>java.lang.foreign.ValueLayout.OfChar&#45;&gt;java.lang.foreign.ValueLayout</title>
<path fill="none" stroke="#999999" stroke-width="2" d="M302.85,-36.69C333.68,-49 379.15,-67.14 416.1,-81.89"/>
<polygon fill="#999999" stroke="#999999" stroke-width="2" points="425.01,-85.44 414.06,-85.92 422.45,-84.96 415.54,-82.2 415.72,-81.74 415.91,-81.27 422.82,-84.03 417.39,-77.56 425.01,-85.44"/>
</g>
<!-- java.lang.foreign.ValueLayout.OfShort -->
<g id="node5" class="node">
<title>java.lang.foreign.ValueLayout.OfShort</title>
<g id="a_node5"><a xlink:href="../../../java/lang/foreign/ValueLayout.OfShort.html" xlink:title="java.lang.foreign.ValueLayout.OfShort">
<text text-anchor="middle" x="376.53" y="-18" font-family="DejaVuSans" font-size="12.00" fill="#e76f00">OfShort</text>
</a>
</g>
</g>
<!-- java.lang.foreign.ValueLayout.OfShort&#45;&gt;java.lang.foreign.ValueLayout -->
<g id="edge4" class="edge">
<title>java.lang.foreign.ValueLayout.OfShort&#45;&gt;java.lang.foreign.ValueLayout</title>
<path fill="none" stroke="#999999" stroke-width="2" d="M401.48,-43.2C414.42,-53.88 430.42,-67.08 444.48,-78.69"/>
<polygon fill="#999999" stroke="#999999" stroke-width="2" points="451.96,-84.86 441.38,-81.97 449.66,-83.62 443.93,-78.88 444.25,-78.5 444.56,-78.11 450.3,-82.85 447.11,-75.03 451.96,-84.86"/>
</g>
<!-- java.lang.foreign.ValueLayout.OfInt -->
<g id="node6" class="node">
<title>java.lang.foreign.ValueLayout.OfInt</title>
<g id="a_node6"><a xlink:href="../../../java/lang/foreign/ValueLayout.OfInt.html" xlink:title="java.lang.foreign.ValueLayout.OfInt">
<text text-anchor="middle" x="478.53" y="-18" font-family="DejaVuSans" font-size="12.00" fill="#e76f00">OfInt</text>
</a>
</g>
</g>
<!-- java.lang.foreign.ValueLayout.OfInt&#45;&gt;java.lang.foreign.ValueLayout -->
<g id="edge5" class="edge">
<title>java.lang.foreign.ValueLayout.OfInt&#45;&gt;java.lang.foreign.ValueLayout</title>
<path fill="none" stroke="#999999" stroke-width="2" d="M478.53,-42.98C478.53,-52.32 478.53,-63.63 478.53,-74.12"/>
<polygon fill="#999999" stroke="#999999" stroke-width="2" points="478.53,-83.88 474.03,-73.88 478.03,-81.31 478.03,-73.88 478.53,-73.88 479.03,-73.88 479.03,-81.31 483.03,-73.88 478.53,-83.88"/>
</g>
<!-- java.lang.foreign.ValueLayout.OfFloat -->
<g id="node7" class="node">
<title>java.lang.foreign.ValueLayout.OfFloat</title>
<g id="a_node7"><a xlink:href="../../../java/lang/foreign/ValueLayout.OfFloat.html" xlink:title="java.lang.foreign.ValueLayout.OfFloat">
<text text-anchor="middle" x="579.53" y="-18" font-family="DejaVuSans" font-size="12.00" fill="#e76f00">OfFloat</text>
</a>
</g>
</g>
<!-- java.lang.foreign.ValueLayout.OfFloat&#45;&gt;java.lang.foreign.ValueLayout -->
<g id="edge6" class="edge">
<title>java.lang.foreign.ValueLayout.OfFloat&#45;&gt;java.lang.foreign.ValueLayout</title>
<path fill="none" stroke="#999999" stroke-width="2" d="M554.82,-43.2C542.01,-53.88 526.17,-67.08 512.25,-78.69"/>
<polygon fill="#999999" stroke="#999999" stroke-width="2" points="504.85,-84.85 509.65,-74.99 506.5,-82.83 512.22,-78.07 512.54,-78.45 512.86,-78.84 507.14,-83.6 515.42,-81.91 504.85,-84.85"/>
</g>
<!-- java.lang.foreign.ValueLayout.OfLong -->
<g id="node8" class="node">
<title>java.lang.foreign.ValueLayout.OfLong</title>
<g id="a_node8"><a xlink:href="../../../java/lang/foreign/ValueLayout.OfLong.html" xlink:title="java.lang.foreign.ValueLayout.OfLong">
<text text-anchor="middle" x="687.53" y="-18" font-family="DejaVuSans" font-size="12.00" fill="#e76f00">OfLong</text>
</a>
</g>
</g>
<!-- java.lang.foreign.ValueLayout.OfLong&#45;&gt;java.lang.foreign.ValueLayout -->
<g id="edge7" class="edge">
<title>java.lang.foreign.ValueLayout.OfLong&#45;&gt;java.lang.foreign.ValueLayout</title>
<path fill="none" stroke="#999999" stroke-width="2" d="M652.08,-36.88C621.71,-49.12 577.25,-67.03 540.94,-81.66"/>
<polygon fill="#999999" stroke="#999999" stroke-width="2" points="531.72,-85.37 539.32,-77.46 533.91,-83.95 540.81,-81.17 541,-81.63 541.19,-82.1 534.29,-84.88 542.68,-85.81 531.72,-85.37"/>
</g>
<!-- java.lang.foreign.ValueLayout.OfDouble -->
<g id="node9" class="node">
<title>java.lang.foreign.ValueLayout.OfDouble</title>
<g id="a_node9"><a xlink:href="../../../java/lang/foreign/ValueLayout.OfDouble.html" xlink:title="java.lang.foreign.ValueLayout.OfDouble">
<text text-anchor="middle" x="801.53" y="-18" font-family="DejaVuSans" font-size="12.00" fill="#e76f00">OfDouble</text>
</a>
</g>
</g>
<!-- java.lang.foreign.ValueLayout.OfDouble&#45;&gt;java.lang.foreign.ValueLayout -->
<g id="edge8" class="edge">
<title>java.lang.foreign.ValueLayout.OfDouble&#45;&gt;java.lang.foreign.ValueLayout</title>
<path fill="none" stroke="#999999" stroke-width="2" d="M759.08,-37.72C753.21,-39.65 747.24,-41.53 741.53,-43.2 673.97,-62.92 595.4,-81.34 541.85,-93.23"/>
<polygon fill="#999999" stroke="#999999" stroke-width="2" points="532.19,-95.36 540.99,-88.81 534.59,-94.32 541.85,-92.72 541.96,-93.21 542.07,-93.7 534.8,-95.3 542.93,-97.6 532.19,-95.36"/>
</g>
<!-- java.lang.foreign.AddressLayout -->
<g id="node10" class="node">
<title>java.lang.foreign.AddressLayout</title>
<g id="a_node10"><a xlink:href="../../../java/lang/foreign/AddressLayout.html" xlink:title="java.lang.foreign.AddressLayout">
<text text-anchor="middle" x="938.53" y="-18" font-family="DejaVuSans" font-size="12.00" fill="#e76f00">AddressLayout</text>
</a>
</g>
</g>
<!-- java.lang.foreign.AddressLayout&#45;&gt;java.lang.foreign.ValueLayout -->
<g id="edge9" class="edge">
<title>java.lang.foreign.AddressLayout&#45;&gt;java.lang.foreign.ValueLayout</title>
<path fill="none" stroke="#999999" stroke-width="2" d="M879.82,-38.94C873.66,-40.46 867.48,-41.91 861.53,-43.2 750.14,-67.29 618.81,-87.3 542.47,-98.12"/>
<polygon fill="#999999" stroke="#999999" stroke-width="2" points="532.66,-99.5 541.94,-93.65 535.13,-98.64 542.5,-97.61 542.56,-98.1 542.63,-98.6 535.27,-99.63 543.19,-102.56 532.66,-99.5"/>
</g>
</g>
</svg>
