<?xml version="1.0" encoding="UTF-8" standalone="no"?>
<!DOCTYPE svg PUBLIC "-//W3C//DTD SVG 1.1//EN"
 "http://www.w3.org/Graphics/SVG/1.1/DTD/svg11.dtd">
<!-- Generated by graphviz version 9.0.0 (20230911.1827)
 -->
<!-- Title: G Pages: 1 -->
<svg width="968pt" height="137pt"
 viewBox="0.00 0.00 967.67 137.40" xmlns="http://www.w3.org/2000/svg" xmlns:xlink="http://www.w3.org/1999/xlink">
<g id="graph0" class="graph" transform="scale(1 1) rotate(0) translate(4 133.4)">
<title>G</title>
<polygon fill="white" stroke="none" points="-4,4 -4,-133.4 963.67,-133.4 963.67,4 -4,4"/>
<!-- java.lang.classfile.AnnotationValue.OfString -->
<g id="node1" class="node">
<title>java.lang.classfile.AnnotationValue.OfString</title>
<g id="a_node1"><a xlink:href="../../../java/lang/classfile/AnnotationValue.OfString.html" xlink:title="java.lang.classfile.AnnotationValue.OfString">
<text text-anchor="middle" x="39.14" y="-18" font-family="DejaVuSans" font-size="12.00" fill="#e76f00">OfString</text>
</a>
</g>
</g>
<!-- java.lang.classfile.AnnotationValue.OfConstant -->
<g id="node2" class="node">
<title>java.lang.classfile.AnnotationValue.OfConstant</title>
<g id="a_node2"><a xlink:href="../../../java/lang/classfile/AnnotationValue.OfConstant.html" xlink:title="java.lang.classfile.AnnotationValue.OfConstant">
<text text-anchor="middle" x="481.14" y="-104.2" font-family="DejaVuSans" font-size="12.00" fill="#e76f00">OfConstant</text>
</a>
</g>
</g>
<!-- java.lang.classfile.AnnotationValue.OfString&#45;&gt;java.lang.classfile.AnnotationValue.OfConstant -->
<g id="edge1" class="edge">
<title>java.lang.classfile.AnnotationValue.OfString&#45;&gt;java.lang.classfile.AnnotationValue.OfConstant</title>
<path fill="none" stroke="#999999" stroke-width="2" d="M78.16,-37.52C84.45,-39.61 90.93,-41.6 97.14,-43.2 209.79,-72.29 344.6,-91.02 420.81,-100.16"/>
<polygon fill="#999999" stroke="#999999" stroke-width="2" points="430.56,-101.32 420.1,-104.61 427.96,-101.51 420.57,-100.64 420.63,-100.14 420.69,-99.65 428.07,-100.52 421.16,-95.67 430.56,-101.32"/>
</g>
<!-- java.lang.classfile.AnnotationValue.OfDouble -->
<g id="node3" class="node">
<title>java.lang.classfile.AnnotationValue.OfDouble</title>
<g id="a_node3"><a xlink:href="../../../java/lang/classfile/AnnotationValue.OfDouble.html" xlink:title="java.lang.classfile.AnnotationValue.OfDouble">
<text text-anchor="middle" x="157.14" y="-18" font-family="DejaVuSans" font-size="12.00" fill="#e76f00">OfDouble</text>
</a>
</g>
</g>
<!-- java.lang.classfile.AnnotationValue.OfDouble&#45;&gt;java.lang.classfile.AnnotationValue.OfConstant -->
<g id="edge2" class="edge">
<title>java.lang.classfile.AnnotationValue.OfDouble&#45;&gt;java.lang.classfile.AnnotationValue.OfConstant</title>
<path fill="none" stroke="#999999" stroke-width="2" d="M199.32,-37.38C205.6,-39.43 212.02,-41.43 218.14,-43.2 287.22,-63.17 367.72,-82 421.29,-93.91"/>
<polygon fill="#999999" stroke="#999999" stroke-width="2" points="430.92,-96.04 420.18,-98.28 428.31,-95.97 421.04,-94.37 421.15,-93.88 421.26,-93.39 428.52,-95 422.12,-89.49 430.92,-96.04"/>
</g>
<!-- java.lang.classfile.AnnotationValue.OfFloat -->
<g id="node4" class="node">
<title>java.lang.classfile.AnnotationValue.OfFloat</title>
<g id="a_node4"><a xlink:href="../../../java/lang/classfile/AnnotationValue.OfFloat.html" xlink:title="java.lang.classfile.AnnotationValue.OfFloat">
<text text-anchor="middle" x="272.14" y="-18" font-family="DejaVuSans" font-size="12.00" fill="#e76f00">OfFloat</text>
</a>
</g>
</g>
<!-- java.lang.classfile.AnnotationValue.OfFloat&#45;&gt;java.lang.classfile.AnnotationValue.OfConstant -->
<g id="edge3" class="edge">
<title>java.lang.classfile.AnnotationValue.OfFloat&#45;&gt;java.lang.classfile.AnnotationValue.OfConstant</title>
<path fill="none" stroke="#999999" stroke-width="2" d="M308.07,-37.07C339.38,-49.69 385.39,-68.22 422.1,-83.01"/>
<polygon fill="#999999" stroke="#999999" stroke-width="2" points="430.91,-86.56 419.95,-87 428.34,-86.07 421.45,-83.29 421.63,-82.83 421.82,-82.36 428.72,-85.14 423.31,-78.65 430.91,-86.56"/>
</g>
<!-- java.lang.classfile.AnnotationValue.OfLong -->
<g id="node5" class="node">
<title>java.lang.classfile.AnnotationValue.OfLong</title>
<g id="a_node5"><a xlink:href="../../../java/lang/classfile/AnnotationValue.OfLong.html" xlink:title="java.lang.classfile.AnnotationValue.OfLong">
<text text-anchor="middle" x="380.14" y="-18" font-family="DejaVuSans" font-size="12.00" fill="#e76f00">OfLong</text>
</a>
</g>
</g>
<!-- java.lang.classfile.AnnotationValue.OfLong&#45;&gt;java.lang.classfile.AnnotationValue.OfConstant -->
<g id="edge4" class="edge">
<title>java.lang.classfile.AnnotationValue.OfLong&#45;&gt;java.lang.classfile.AnnotationValue.OfConstant</title>
<path fill="none" stroke="#999999" stroke-width="2" d="M404.85,-43.2C417.66,-53.88 433.5,-67.08 447.42,-78.69"/>
<polygon fill="#999999" stroke="#999999" stroke-width="2" points="454.82,-84.85 444.25,-81.91 452.53,-83.6 446.82,-78.84 447.14,-78.45 447.46,-78.07 453.17,-82.83 450.02,-74.99 454.82,-84.85"/>
</g>
<!-- java.lang.classfile.AnnotationValue.OfInt -->
<g id="node6" class="node">
<title>java.lang.classfile.AnnotationValue.OfInt</title>
<g id="a_node6"><a xlink:href="../../../java/lang/classfile/AnnotationValue.OfInt.html" xlink:title="java.lang.classfile.AnnotationValue.OfInt">
<text text-anchor="middle" x="481.14" y="-18" font-family="DejaVuSans" font-size="12.00" fill="#e76f00">OfInt</text>
</a>
</g>
</g>
<!-- java.lang.classfile.AnnotationValue.OfInt&#45;&gt;java.lang.classfile.AnnotationValue.OfConstant -->
<g id="edge5" class="edge">
<title>java.lang.classfile.AnnotationValue.OfInt&#45;&gt;java.lang.classfile.AnnotationValue.OfConstant</title>
<path fill="none" stroke="#999999" stroke-width="2" d="M481.14,-42.98C481.14,-52.32 481.14,-63.63 481.14,-74.12"/>
<polygon fill="#999999" stroke="#999999" stroke-width="2" points="481.14,-83.88 476.64,-73.88 480.64,-81.31 480.64,-73.88 481.14,-73.88 481.64,-73.88 481.64,-81.31 485.64,-73.88 481.14,-83.88"/>
</g>
<!-- java.lang.classfile.AnnotationValue.OfShort -->
<g id="node7" class="node">
<title>java.lang.classfile.AnnotationValue.OfShort</title>
<g id="a_node7"><a xlink:href="../../../java/lang/classfile/AnnotationValue.OfShort.html" xlink:title="java.lang.classfile.AnnotationValue.OfShort">
<text text-anchor="middle" x="583.14" y="-18" font-family="DejaVuSans" font-size="12.00" fill="#e76f00">OfShort</text>
</a>
</g>
</g>
<!-- java.lang.classfile.AnnotationValue.OfShort&#45;&gt;java.lang.classfile.AnnotationValue.OfConstant -->
<g id="edge6" class="edge">
<title>java.lang.classfile.AnnotationValue.OfShort&#45;&gt;java.lang.classfile.AnnotationValue.OfConstant</title>
<path fill="none" stroke="#999999" stroke-width="2" d="M558.19,-43.2C545.25,-53.88 529.25,-67.08 515.2,-78.69"/>
<polygon fill="#999999" stroke="#999999" stroke-width="2" points="507.71,-84.86 512.56,-75.03 509.37,-82.85 515.11,-78.11 515.43,-78.5 515.75,-78.88 510.01,-83.62 518.29,-81.97 507.71,-84.86"/>
</g>
<!-- java.lang.classfile.AnnotationValue.OfChar -->
<g id="node8" class="node">
<title>java.lang.classfile.AnnotationValue.OfChar</title>
<g id="a_node8"><a xlink:href="../../../java/lang/classfile/AnnotationValue.OfChar.html" xlink:title="java.lang.classfile.AnnotationValue.OfChar">
<text text-anchor="middle" x="692.14" y="-18" font-family="DejaVuSans" font-size="12.00" fill="#e76f00">OfChar</text>
</a>
</g>
</g>
<!-- java.lang.classfile.AnnotationValue.OfChar&#45;&gt;java.lang.classfile.AnnotationValue.OfConstant -->
<g id="edge7" class="edge">
<title>java.lang.classfile.AnnotationValue.OfChar&#45;&gt;java.lang.classfile.AnnotationValue.OfConstant</title>
<path fill="none" stroke="#999999" stroke-width="2" d="M656.82,-36.69C625.14,-49.34 578,-68.15 540.53,-83.1"/>
<polygon fill="#999999" stroke="#999999" stroke-width="2" points="531.5,-86.7 539.12,-78.82 533.7,-85.29 540.6,-82.53 540.79,-83 540.97,-83.46 534.07,-86.22 542.46,-87.18 531.5,-86.7"/>
</g>
<!-- java.lang.classfile.AnnotationValue.OfByte -->
<g id="node9" class="node">
<title>java.lang.classfile.AnnotationValue.OfByte</title>
<g id="a_node9"><a xlink:href="../../../java/lang/classfile/AnnotationValue.OfByte.html" xlink:title="java.lang.classfile.AnnotationValue.OfByte">
<text text-anchor="middle" x="798.14" y="-18" font-family="DejaVuSans" font-size="12.00" fill="#e76f00">OfByte</text>
</a>
</g>
</g>
<!-- java.lang.classfile.AnnotationValue.OfByte&#45;&gt;java.lang.classfile.AnnotationValue.OfConstant -->
<g id="edge8" class="edge">
<title>java.lang.classfile.AnnotationValue.OfByte&#45;&gt;java.lang.classfile.AnnotationValue.OfConstant</title>
<path fill="none" stroke="#999999" stroke-width="2" d="M763.31,-36.9C757.3,-39.15 751.08,-41.34 745.14,-43.2 676.06,-64.84 594.88,-83.4 540.96,-94.79"/>
<polygon fill="#999999" stroke="#999999" stroke-width="2" points="531.26,-96.82 540.13,-90.37 533.67,-95.81 540.95,-94.28 541.05,-94.77 541.15,-95.26 533.87,-96.78 541.97,-99.18 531.26,-96.82"/>
</g>
<!-- java.lang.classfile.AnnotationValue.OfBoolean -->
<g id="node10" class="node">
<title>java.lang.classfile.AnnotationValue.OfBoolean</title>
<g id="a_node10"><a xlink:href="../../../java/lang/classfile/AnnotationValue.OfBoolean.html" xlink:title="java.lang.classfile.AnnotationValue.OfBoolean">
<text text-anchor="middle" x="914.14" y="-18" font-family="DejaVuSans" font-size="12.00" fill="#e76f00">OfBoolean</text>
</a>
</g>
</g>
<!-- java.lang.classfile.AnnotationValue.OfBoolean&#45;&gt;java.lang.classfile.AnnotationValue.OfConstant -->
<g id="edge9" class="edge">
<title>java.lang.classfile.AnnotationValue.OfBoolean&#45;&gt;java.lang.classfile.AnnotationValue.OfConstant</title>
<path fill="none" stroke="#999999" stroke-width="2" d="M868.95,-38.25C863,-40.05 856.95,-41.76 851.14,-43.2 743.35,-69.94 615.13,-89.26 541.43,-99.19"/>
<polygon fill="#999999" stroke="#999999" stroke-width="2" points="531.62,-100.5 540.94,-94.72 534.1,-99.66 541.47,-98.68 541.53,-99.18 541.6,-99.67 534.23,-100.65 542.13,-103.64 531.62,-100.5"/>
</g>
</g>
</svg>
